<?xml version="1.0" encoding="UTF-8" standalone="no"?>
<!-- Created with Inkscape (http://www.inkscape.org/) -->

<svg
   xmlns:dc="http://purl.org/dc/elements/1.1/"
   xmlns:cc="http://creativecommons.org/ns#"
   xmlns:rdf="http://www.w3.org/1999/02/22-rdf-syntax-ns#"
   xmlns:svg="http://www.w3.org/2000/svg"
   xmlns="http://www.w3.org/2000/svg"
   xmlns:sodipodi="http://sodipodi.sourceforge.net/DTD/sodipodi-0.dtd"
   xmlns:inkscape="http://www.inkscape.org/namespaces/inkscape"
   width="210mm"
   height="50mm"
   viewBox="0 0 210 50"
   version="1.1"
   id="svg1142"
   inkscape:version="0.92.4 (5da689c313, 2019-01-14)"
   sodipodi:docname="Right cloud.svg">
  <defs
     id="defs1136" />
  <sodipodi:namedview
     id="base"
     pagecolor="#ffffff"
     bordercolor="#666666"
     borderopacity="1.0"
     inkscape:pageopacity="0.0"
     inkscape:pageshadow="2"
     inkscape:zoom="0.7"
     inkscape:cx="551.42857"
     inkscape:cy="274.28571"
     inkscape:document-units="mm"
     inkscape:current-layer="layer1"
     showgrid="false"
     inkscape:window-width="1920"
     inkscape:window-height="1001"
     inkscape:window-x="-9"
     inkscape:window-y="-9"
     inkscape:window-maximized="1" />
  <metadata
     id="metadata1139">
    <rdf:RDF>
      <cc:Work
         rdf:about="">
        <dc:format>image/svg+xml</dc:format>
        <dc:type
           rdf:resource="http://purl.org/dc/dcmitype/StillImage" />
        <dc:title></dc:title>
      </cc:Work>
    </rdf:RDF>
  </metadata>
  <g
     inkscape:label="Layer 1"
     inkscape:groupmode="layer"
     id="layer1"
     transform="translate(0,-247)">
    <g
       transform="matrix(0.26458333,0,0,0.26458333,-381.46223,214.65126)"
       id="g1709">
      <path
         style="fill:#e5e5e5"
         inkscape:connector-curvature="0"
         id="path1701"
         d="m 1900.51,254.22 c -2.55,0.1 -5.09,0.32 -7.27,0.46 -0.65,0.56 -1.21,0.82 -1.22,1.09 -0.06,5.89 -4.62,8.26 -11.43,9 -5.06,0.59 -10.08,1.37 -15.62,2.14 0.54,1.21 0.91,2.18 1.4,3.11 4.22,8.1 0.19,15.22 -10.79,17.32 a 201.5,201.5 0 0 1 -27.59,3.4 c -12.59,0.63 -25.25,0.52 -37.88,0.41 -40.49,-0.36 -163.87,2.47 -185.15,2.32 -3.74,0 -7.48,-0.11 -11.22,-0.07 -21,0.23 -42.1,0.39 -63.14,0.76 -19.41,0.34 -69.72,-1.31 -69.91,-3.93 -0.19,-2.62 88.07,-10.18 125.49,-15 13.35,-1.71 51.07,-6.74 56.63,-7.3 5.1,-0.51 10.17,-1.19 15.22,-1.92 a 56,56 0 0 0 5.66,-1.46 c -0.23,-1.79 -0.49,-3.38 -0.62,-5 -0.32,-4 -0.82,-8 -0.8,-12 0,-11.2 6.55,-19.95 17.88,-26.5 13.54,-7.83 29,-11.64 45.79,-12.16 7,-0.21 14,0.5 21,0.8 1.57,0.07 3.15,0.2 4.51,0.29 0,-5.11 -0.35,-10 0.1,-14.81 a 60.7,60.7 0 0 1 2.7,-12.8 c 1.56,-4.83 6.12,-7.59 12.24,-8.79 3.59,-0.71 7.2,-1.33 11.19,-2.07 0,-2.88 0,-5.58 0,-8.28 0.06,-8.45 4.14,-15.24 12.23,-21.15 7.32,-5.36 15.56,-8.14 25.12,-10 a 217.66,217.66 0 0 1 68.94,-2.26 c 10.65,1.36 20.28,9.27 31.17,6.86 9,-2 17,2.94 25.91,5.18 11.17,2.79 21.19,1.49 21.77,10.81 a 27.19,27.19 0 0 1 -0.51,8.15 c -0.88,3.61 0.88,5.86 4.65,7.71 a 103.84,103.84 0 0 1 24.12,16.53 c 9.17,8.32 15,17.52 12.79,28.9 a 16.8,16.8 0 0 0 -0.07,3.82 11.34,11.34 0 0 0 0.62,2.13 l 104.34,12.04 c 0,1.46 108.34,12.36 108.34,18 0,4.7 -272.4,2.55 -316.59,4.27 z"
         class="cls-23" />
      <path
         style="fill:#ffffff"
         inkscape:connector-curvature="0"
         id="path1703"
         d="M 2108.76,231.95 2004.41,220.1 a 11.34,11.34 0 0 1 -0.62,-2.13 16.8,16.8 0 0 1 0.07,-3.82 c 2.22,-11.38 -3.62,-20.58 -12.79,-28.9 a 103.84,103.84 0 0 0 -24.12,-16.53 c -3.77,-1.85 -5.53,-4.1 -4.65,-7.71 a 31.78,31.78 0 0 0 0.51,-8.15 c -0.46,-24.6 -64,-22.23 -78.85,-22.85 -23.23,-1 -46.08,-2.1 -68.94,2.26 -9.56,1.82 -17.8,4.6 -25.12,10 -8.09,5.91 -12.17,12.7 -12.23,21.15 0,2.7 0,5.4 0,8.28 -4,0.74 -7.6,1.36 -11.19,2.07 -6.12,1.2 -10.68,4 -12.24,8.79 a 60.7,60.7 0 0 0 -2.7,12.8 c -0.45,4.83 -0.1,9.7 -0.1,14.81 -1.36,-0.09 -2.94,-0.22 -4.51,-0.29 -7,-0.3 -14,-1 -21,-0.8 -16.74,0.52 -32.25,4.33 -45.79,12.16 -11.33,6.55 -17.83,15.3 -17.88,26.5 0,4 0.48,8 0.8,12 0.13,1.59 0.39,3.18 0.62,5 a 56,56 0 0 1 -5.66,1.46 c -5,0.73 -10.12,1.41 -15.22,1.92 -5.56,0.56 -43.28,5.59 -56.63,7.3 -37.42,4.8 -125.68,12.4 -125.49,15 0.19,2.6 50.5,4.27 69.91,3.93 21,-0.37 42.1,-0.53 63.14,-0.76 3.74,0 110.75,-10 153.66,-22.48 -6.39,-10.8 1.07,-26.14 10.75,-29.58 17.14,-6.1 22.87,0.14 31.2,6.45 0.32,-12.77 6.86,-29.35 18.44,-34.77 a 35.35,35.35 0 0 1 36.15,4.25 c -1.83,-5.07 0,-32.15 32.34,-36.56 34.39,-4.69 47.11,30.35 46.86,39.38 25.42,-6.4 57.33,-2.3 72.36,19.18 20.33,-0.31 120.94,12.3 121,13.68 79.69,-0.24 100.55,-0.53 100.55,-3.06 0.06,-5.77 -108.28,-16.67 -108.28,-18.13 z"
         class="cls-11" />
      <path
         style="fill:#ffffff"
         inkscape:connector-curvature="0"
         id="path1705"
         d="m 1799.89,291.27 c 9,0.05 18,0 27,-0.43 z"
         class="cls-11" />
      <path
         class="cls-11"
         d="M 2108.76,231.95 2004.41,220.1 a 11.34,11.34 0 0 1 -0.62,-2.13 16.8,16.8 0 0 1 0.07,-3.82 c 2.22,-11.38 -3.62,-20.58 -12.79,-28.9 a 103.84,103.84 0 0 0 -24.12,-16.53 c -3.77,-1.85 -5.53,-4.1 -4.65,-7.71 a 31.78,31.78 0 0 0 0.51,-8.15 c -0.46,-24.6 -64,-22.23 -78.85,-22.85 -23.23,-1 -46.08,-2.1 -68.94,2.26 -9.56,1.82 -17.8,4.6 -25.12,10 -8.09,5.91 -12.17,12.7 -12.23,21.15 0,2.7 0,5.4 0,8.28 -4,0.74 -7.6,1.36 -11.19,2.07 -6.12,1.2 -10.68,4 -12.24,8.79 a 60.7,60.7 0 0 0 -2.7,12.8 c -0.45,4.83 -0.1,9.7 -0.1,14.81 -1.36,-0.09 -2.94,-0.22 -4.51,-0.29 -7,-0.3 -14,-1 -21,-0.8 -16.74,0.52 -32.25,4.33 -45.79,12.16 -11.33,6.55 -17.83,15.3 -17.88,26.5 0,4 0.48,8 0.8,12 0.13,1.59 0.39,3.18 0.62,5 a 56,56 0 0 1 -5.66,1.46 c -5,0.73 -10.12,1.41 -15.22,1.92 -5.56,0.56 -43.28,5.59 -56.63,7.3 -37.42,4.8 -125.68,12.4 -125.49,15 0.19,2.6 50.5,4.27 69.91,3.93 21,-0.37 42.1,-0.53 63.14,-0.76 3.74,0 110.75,-10 153.66,-22.48 -6.39,-10.8 1.07,-26.14 10.75,-29.58 17.14,-6.1 22.87,0.14 31.2,6.45 0.32,-12.77 6.86,-29.35 18.44,-34.77 a 35.35,35.35 0 0 1 36.15,4.25 c -1.83,-5.07 0,-32.15 32.34,-36.56 34.39,-4.69 47.11,30.35 46.86,39.38 25.42,-6.4 57.33,-2.3 72.36,19.18 20.33,-0.31 120.94,12.3 121,13.68 79.69,-0.24 100.55,-0.53 100.55,-3.06 0.06,-5.77 -108.28,-16.67 -108.28,-18.13 z"
         id="path1707"
         inkscape:connector-curvature="0"
         style="fill:#ffffff" />
    </g>
  </g>
</svg>
