<?xml version="1.0" encoding="UTF-8" standalone="no"?>
<!-- Created with Inkscape (http://www.inkscape.org/) -->

<svg
   xmlns:dc="http://purl.org/dc/elements/1.1/"
   xmlns:cc="http://creativecommons.org/ns#"
   xmlns:rdf="http://www.w3.org/1999/02/22-rdf-syntax-ns#"
   xmlns:svg="http://www.w3.org/2000/svg"
   xmlns="http://www.w3.org/2000/svg"
   xmlns:sodipodi="http://sodipodi.sourceforge.net/DTD/sodipodi-0.dtd"
   xmlns:inkscape="http://www.inkscape.org/namespaces/inkscape"
   width="135mm"
   height="30mm"
   viewBox="0 0 135 30"
   version="1.1"
   id="svg1765"
   inkscape:version="0.92.4 (5da689c313, 2019-01-14)"
   sodipodi:docname="Left cloud.svg">
  <defs
     id="defs1759" />
  <sodipodi:namedview
     id="base"
     pagecolor="#ffffff"
     bordercolor="#666666"
     borderopacity="1.0"
     inkscape:pageopacity="0.0"
     inkscape:pageshadow="2"
     inkscape:zoom="1.979899"
     inkscape:cx="246.10596"
     inkscape:cy="95.329829"
     inkscape:document-units="mm"
     inkscape:current-layer="layer1"
     showgrid="false"
     inkscape:window-width="1920"
     inkscape:window-height="1001"
     inkscape:window-x="-9"
     inkscape:window-y="-9"
     inkscape:window-maximized="1" />
  <metadata
     id="metadata1762">
    <rdf:RDF>
      <cc:Work
         rdf:about="">
        <dc:format>image/svg+xml</dc:format>
        <dc:type
           rdf:resource="http://purl.org/dc/dcmitype/StillImage" />
        <dc:title></dc:title>
      </cc:Work>
    </rdf:RDF>
  </metadata>
  <g
     inkscape:label="Layer 1"
     inkscape:groupmode="layer"
     id="layer1"
     transform="translate(0,-267)">
    <g
       transform="matrix(0.26458333,0,0,0.26458333,0.96789427,203.1925)"
       id="g1746">
      <path
         style="fill:#e5e5e5"
         inkscape:connector-curvature="0"
         id="path1742"
         d="m 175.68,255.07 c 16.37,-5.39 34.82,3.13 36.24,1.61 5.74,-6.17 22.89,-9.4 33.4,-9.4 9.9,0 25.77,1.65 37.47,12.89 8.08,7.77 13.26,16.63 15.26,26.31 7.23,-0.85 14,-1.86 20.88,-2.39 a 92.22,92.22 0 0 1 38.31,5.12 c 20.17,7.2 31.62,19.39 32.83,36.9 0.29,4.15 0.7,4.74 6,5 9.57,0.46 19.21,0.4 28.73,1.19 22.78,1.89 77.32,12.29 73.47,12.56 -14.66,1 -37.92,2.14 -52.62,2.69 q -49.76,1.86 -99.56,3 c -11.66,0.27 -23.34,-0.31 -35.46,-0.51 0.86,-5 7.95,-6.45 8.9,-11.55 a 58.92,58.92 0 0 0 -5.87,-0.52 c -27.84,0.25 -287.56,1.13 -312,1.13 -12.73,0 52.25,-64 130.79,-41.19 11.76,-29.23 35.78,-41.01 43.23,-42.84 z"
         class="cls-23" />
      <path
         style="fill:#ffffff"
         inkscape:connector-curvature="0"
         id="path1744"
         d="m 424.76,332.3 c -9.52,-0.79 -19.16,-0.73 -28.73,-1.19 -5.27,-0.26 -5.68,-0.85 -6,-5 -1.21,-17.51 -12.66,-29.7 -32.83,-36.9 a 92.22,92.22 0 0 0 -38.31,-5.12 c -6.86,0.53 -13.65,1.54 -20.89,2.39 -2,-9.68 -7.17,-18.54 -15.25,-26.31 -11.7,-11.24 -27.57,-12.89 -37.47,-12.89 -10.51,0 -27.66,3.23 -33.4,9.4 -1.42,1.52 -19.87,-7 -36.24,-1.61 -7.45,1.83 -31.47,13.61 -43.29,42.82 -78.54,-22.82 -143.52,41.19 -130.79,41.19 4.92,0 19.32,0 39.42,-0.1 l -4.12,-0.19 c 13,-8.53 27.2,-15.23 42.09,-17.23 14.89,-2 30.58,1 43.08,10.56 14.71,-15 35,-19.78 54.4,-23.26 13.11,-2.36 26.39,-4.36 39.54,-2.65 13.15,1.71 26.33,7.43 35.4,18.54 23.26,-20 59.54,-15.74 78.86,9.2 4.08,-8.55 22.57,-12.16 30.63,-9.19 8.06,2.97 18.18,11 17.21,20.7 19.18,-2.4 69.4,-2.32 88.45,1.19 7.74,-0.26 -28.64,1.19 -20.9,0.9 14.7,-0.55 38,-1.65 52.62,-2.69 3.85,-0.27 -50.69,-10.67 -73.48,-12.56 z"
         class="cls-11" />
    </g>
  </g>
</svg>
