<svg xmlns="http://www.w3.org/2000/svg" xmlns:xlink="http://www.w3.org/1999/xlink" viewBox="0 0 1032.73 856"><defs><style>.cls-1{opacity:0.1;}.cls-11,.cls-12,.cls-2{fill:#b48ec1;}.cls-3{fill:#e0f3fd;}.cls-4{fill:url(#linear-gradient);}.cls-5{fill:#d7c9e3;}.cls-6{fill:#3b005f;}.cls-7{fill:#bed730;}.cls-8{fill:#2e3192;}.cls-10,.cls-9{fill:none;}.cls-10{stroke:#22b573;}.cls-10,.cls-11,.cls-12{stroke-miterlimit:10;}.cls-10,.cls-12{stroke-width:3px;}.cls-11{stroke:#7f47dd;stroke-width:2px;}.cls-12{stroke:#b8aaff;}.cls-13{fill:#ff5f83;}</style><linearGradient id="linear-gradient" x1="171.52" y1="387.54" x2="651.73" y2="387.54" gradientUnits="userSpaceOnUse"><stop offset="0" stop-color="#d7c9e3"/><stop offset="0.68" stop-color="#d7c9e3"/><stop offset="1" stop-color="#3b005f"/></linearGradient></defs><title>Asset 1</title><g id="Layer_2" data-name="Layer 2"><g id="New_Danny" data-name="New Danny"><path id="shadow" class="cls-1" d="M849.8,743c-1.84-.87-5.57-.22-15,.91-16.52,2-17.56,1.53-17.88,1.25-1.27-1.1,3.14-3.76,9.92-8,7.56-4.74,14.46-9.56,22.25-14.26,29.67-17.93,21.32-14,34.79-22.15,4.73-2.89,35-20.2,42.74-26.54,6.43-5.28-5.3-6.81-9.06-6.13-10.79,2-18.57,2.77-20.86,3-9.21,1-19.34,3-39.59,7l-2.36.46c1.35-4.72-1.67-4.79-1.67-4.79a56.32,56.32,0,0,0,16.94-11.37c7.74-7.73.4-9.07.4-9.07a121.16,121.16,0,0,0,25-11.17c13.25-7.79,9.24-14.26,9.24-14.26s11-4.37,18.76-10c.49-.36.94-.71,1.34-1.05A119.47,119.47,0,0,0,937,609.67c11.91-7.78,17.87-11.67,23.54-16.21A113.69,113.69,0,0,0,974.21,581c.55-.62,2.53-3.32,6.5-8.7,4.81-6.55,6.73-9.28,4.06-10.66,1.66-.64,3.26-1.39,4.22-1.83a58.89,58.89,0,0,0,15.19-10c5.81-5.07,9.46-8.25,12-12.48s1-4.32,3-9.42c1.6-4,2.74-4.45,7.79-12.52,6.85-11,7.3-14.27,2.69-15.72-1.57-.5-4.3-1-5.88-.41s-1.8,2.4-2.18,6.09c0,.24,0,.37,0,.54-.34,4.49-6.39,12.53-6.39,12.53-4.94,6.59-1,5.15-6.52,14.29-3.52,5.77-5.26,8.66-9.45,12.15-7.57,6.32-15.31,8.52-19.2,14.16a9,9,0,0,0-1.24,2.36c-1.57.67-4.43,2.5-8.44,8-3.33,4.54-3.74,6.51-5.1,8.72-1.61,2.6-3.65,4.1-18.92,14.87-3,2.11-5.93,4.22-8.85,6.33a10.58,10.58,0,0,0,.75-2c1.87-7.1-19-10.43-19-10.43s13.23-3.55,20.58-6.46,17.3-9.82,23.19-14.69c4.36-3.61,5.9-10.21,6.55-14.38a40.12,40.12,0,0,0,7.53-5.8l.13-.14-7.49.58a15.42,15.42,0,0,0-4.81-7.07l7.26-.81c1.29-2.77,4.28-11.19-9-16.74-2.41-1-8.44-3.42-20-4.33l-.76-1c-4.41-5.62-6.62-8.42-13.12-10.34-3.79-1.11-13.71-3.87-32-1.72a134.74,134.74,0,0,0-24.74,5.17,111.18,111.18,0,0,0-13.92,5.26,93.38,93.38,0,0,0-19.18-1.09c-4.8.25-10.38,1.16-21.38,2.84a73.22,73.22,0,0,0-8.38,1.71,108,108,0,0,0-12.86,4.55c-8.12,3.26-12.18,4.89-15.74,6.83-2.73,1.48-8.79,4.81-11.67,8.53a6.2,6.2,0,0,0-1.48,4c.11,1,.28,2.1,2.46,2.28a10,10,0,0,0,4.28-.57c2-.79,3-2.14,4.14-4,3.75-6,2.43-6,4.73-8,4-3.42,11.41-6.2,13.07-6.82a73.24,73.24,0,0,1,7.32-2.28A123.85,123.85,0,0,1,821.62,519a179,179,0,0,1,28.12-1.14L852,518c-2.37,1.42-5.23,3.33-6.63,5.52-.55.86-2.48,3.88,1.44,5.16,2.23.73,6.65,1,9.11,0s2.48-2.94,1.66-4-2-.87-2.38-1.73c-.62-1.34,1.68-3.14,2.8-4,.18-.14.38-.28.57-.41a87.4,87.4,0,0,1,10.55,1.65A49,49,0,0,1,880.73,524,222.31,222.31,0,0,0,855,532.18c-17,6.65-26.41,13.27-31.41,17.76a179.86,179.86,0,0,0-19.45,4.78c-16.71-6.22-37.09-10.92-58.83-13l-1.47-.14-98.15-8.65-1.88-.51-38.55,29.2c-.4.29-.79.58-1.15.87l-.19.17c-13.77-1.16-27.56-1.86-40.94-2l-2,0-48.19-.25c-1,.52.35-.53-.64,0,.52-.53-1.3.52-.79,0l-78.83-.41-2.93-.34-6.89,29.86a6.08,6.08,0,0,0-.2.9c-1.11,8,13.15,16.88,37.32,24.91,16.75,5.56,38.31,10.71,62.83,14.85L465,635.64l-2.35.06,2.44,14.86a2.26,2.26,0,0,0,.08.44c1.22,3.91,14.57,7.09,35.35,9.08,2.6.25,5.33.48,8.16.7l-76.47,15.87-3,.45,18.28,12.44c.18.12.36.25.57.37,5.55,3.17,26.19,3.69,55.33,1.93,27.12-1.64,61.69-5.25,98.33-10.5,4.2-.6,8.46-1.23,12.71-1.88L751,657l7.62-.23,15.41,1.7c-2.53,1.31-5.81,3-10.07,5.25-16.56,8.67-12.91,13.59-12.91,13.59l-11,4.36a34.94,34.94,0,0,0-10.51,7.18c-42.65,14.58-91.23,32.88-116.4,42.66C526.4,765.22,472,793.19,432.56,820c-12.86,8.75-49.17,33.47-37.64,35.81,16,3.24,114.51-38.64,151.22-54.25,58.1-24.71,123-54.44,174-79.64-.35.5-.68,1-1,1.49-4.73,7.34-4,5.47-6.87,10.2-4.77,7.73-6.24,11.76-15.89,17.33-.92.53-2.92,1.55-6.92,3.57-12.41,6.29-22.8,11.08-27.58,13.26-13,5.91-26.94,11.75-54.9,23.45-10.83,4.53-20.83,9.28-31.83,13.76-5.17,2.11-12.41,5-18.18,8.67l-7,4.59a15.63,15.63,0,0,1,.95,13c-3.27,8.78-4.54,11.5-1.28,11.69,2.94.17,8.26-1.5,11.22-3.26,3.46-2,3-3.77,3.36-8.62.63-8.52,8-17.52,7.84-17.92-.72-1.56,6.22-4.29,17-8.67,12-4.88,23.29-10,35.52-14.78,46.65-18.35,35.63-16.2,55.47-22.94,8-2.73,23.08-7.59,28.78-13.26.9-.9.93-1.18,2.66-3.06a85.83,85.83,0,0,1,12.33-10.7c5-3.67,8.57-7.44,13.67-13.42a16.17,16.17,0,0,0,2.76,1.51c4.4,1.65,12.48-.28,12.48-.28s54.4-18.58,63.59-22.22c7.23-2.86,24.25-11.7,32.81-18.88q5.28-1.05,10.58-2.24c15.15-3.42,11.19-2.39,21-4.64,16-3.67,16-2.83,26.16-3.23,1,0,2.49-.62.15,1.25-7.28,5.81-41.58,26.32-44.49,28.37-7.9,5.59-17,11.27-34.52,22.54-6.77,4.36-8.5,6.5-15.43,10.85-3.26,2-9.42,5.91-12.47,9.18,0,0,2.07-1.4-1.44,2.5,0,0,15.49-.89,28.12-1.7,15.34-1,19.91-1.19,22.37-2.57C851.3,745.51,851.38,743.79,849.8,743Zm-2.48-148c3.88-.07,6.52-.35,6.52-.35s-1.59.35-6.36,1.92ZM846,552l-.38.17-.38-.09Zm33.09-34.16c-7.21-1.37-11.22-2.13-14.69-2.66a128.73,128.73,0,0,1,15.43-5.49c7-2.12,13.73-4.19,20.61-4.59,3.2-.19,5.82.26,11.07,1.15a71.88,71.88,0,0,1,12.31,2.87c4.48,1.57,7.84,2.75,9.41,5.16a4.72,4.72,0,0,1,.77,2.35c-1,0-2,0-3.13,0-4.47.09-9.15.38-14,.86l-2.79.21,0,.08H914l.09-.09c-1.59.14-3.24.38-4.91.69-6.06.81-12.25,1.89-18.41,3.2A53.48,53.48,0,0,0,879.08,517.86Z"/><path class="cls-2" d="M592.81,405.2c-20.91-9.64-100.21,99-127.72,139.55-49.42,72.9-71.66,132.62-79.27,189.34-2.48,18.5-9.49,70.77,5.86,75.06,21.33,6,72.82-84.24,92-117.84C548.42,577.91,616.92,416.32,592.81,405.2Z"/><g id="wings"><path class="cls-3" d="M596.77,373.43,328.93,390.61c-3.72.24-7.45.43-11.14.58-32.25,1.32-63.43-.69-88.56-5.15-27-4.78-47.12-12.4-54.25-21.76-.27-.35-.51-.71-.75-1.07l-24.57-35.6,2.63-.15L253.66,304.6l1.54-.33c28-6,62-8.24,94.38-6.93,29.68,1.2,58.05,5.35,79.28,12.21,2.35.76,4.62,1.56,6.79,2.39l126.23,48.17c2.37.91,4.6,1.84,6.62,2.8l.44-.1Z"/><path class="cls-3" d="M649.66,402.91,350,279.94c-4.17-1.7-8.31-3.49-12.37-5.32-35.49-16-67.21-36.65-90.52-57.76-25.06-22.68-40.53-46-40.74-64.76,0-.71,0-1.41.05-2.11l1.91-70,2.93,1.23L337.58,102l1.92.34c34.7,6.2,72.75,21.75,106.3,42,30.76,18.52,57.78,41,75,63.7,1.91,2.52,3.71,5.05,5.36,7.57l96.74,146.79c1.81,2.77,3.45,5.48,4.86,8.13l.54.09Z"/><path class="cls-4" d="M651.73,320,389.56,432.49c-4,1.55-8,3.05-12,4.49-34.76,12.6-69.53,21.25-98.55,25.16-31.18,4.22-55.84,3-66.93-4.62-.42-.28-.81-.58-1.19-.89l-39.4-29.81,2.82-1.08L277,366l1.57-.9c28.5-16.2,64.83-30.37,100.65-40.19,32.84-9,65.3-14.38,90.9-14.35,2.85,0,5.61.08,8.26.22l154.87,8.09c2.91.16,5.67.39,8.22.72l.44-.25Z"/><path class="cls-5" d="M617.79,376.35h-.64c-3-2.48-6.25-5-9.74-7.54L422,234.21q-4.77-3.47-10-6.88c-31.2-20.5-73-39.19-116.73-53.31-47.72-15.41-97.85-25.38-139.27-26.34l-2.29-.05-56.2-.6c-.38,1.24-.37-1.28-.75,0-.16-1.26-.74,1.26-.91,0L3.88,146,0,145.21l35.74,71.57c.34.72.7,1.43,1.09,2.15,10.37,19.1,39.94,40.44,79.69,59.68,37,17.91,82.94,34.05,130.51,44.87,5.45,1.24,11,2.42,16.45,3.52L274,329.09c135.85,27.14,187.59,36.5,273.77,53.91,25.3,5.11,63.66,12.95,110.95,23Z"/></g><path class="cls-6" d="M629.39,460.84a8.72,8.72,0,0,0,3.84,5.66c3.53,1.92,7.93-.74,9.88-1.91,12.28-7.35,25.55-12.89,37.55-20.73,12.55-8.19,9.46-5.72,17.51-11.11C711.32,424,712.6,426,723.73,425c1.06-.09,2-1.49,2,3,.08,13.93-9.64,63.07-10,68-1,13.38-3.24,27-7,54-1.45,10.46-.33,15.59-2,26-.78,4.89-2.25,14.17-1,22,0,0,.36-3.34,2,6,0,0,16.64-2.13,30.08-4.08,16.32-2.37,21.33-2.85,22.16-6.15.76-3-1.67-7.12-4.59-8.9-3.41-2.09-6.79-.55-16,2.17-16.22,4.79-18.11,3.66-18.9,3-3.07-2.62-1.86-9-.22-19.17,1.83-11.34,2.77-22.9,4.9-34.17,8.14-43,4.29-33.42,7.87-53.09,1.26-6.91,11-48.4,10.68-63.59-.29-12.66-16.13-16.33-19.47-14.69a101.27,101.27,0,0,1-19.75,7.24c-9.19,2.42-18,7.19-35.65,16.71C648.81,440.07,627.65,451.5,629.39,460.84Z"/><path class="cls-7" d="M491.69,138.35a57.74,57.74,0,0,0-27.77,21.13c-4.7,6.54-15.06,20.93-11.57,33.81,5,18.53,34.4,18.34,35.87,18.31,5.19-.1,24.39-.46,37-19.72,10.23-15.58,9.55-33.44,9.26-38"/><path class="cls-6" d="M636.83,143.82c-3.76-13.53,2-18.78,1.51-33.93-.27-8.37-2.48-15.29-6.85-29.13-6.92-21.89-9.44-18.44-13.35-34.24,0,0-4.79-19.28-11-30-.24-.41-.4-.7-.73-1.28-5-8.85-7.41-13.29-6.39-14.6s4.86-.22,7.42,1c7.46,3.49,11.76,11.39,19.89,37.68,6,19.35,5.29,20.4,9.3,30,5.11,12.23,7.16,12.79,10.29,22.58,3.24,10.13,3.67,17.75,4.35,29.91.56,9.8.15,16.75-3,24-.94,2.19-3.21,7.46-5.92,7.34C639.36,152.9,637.41,145.92,636.83,143.82Z"/><path class="cls-6" d="M639.61,148.64c1.86-1.16,4.76.43,5.76,1,5.71,3.14,7.47,9.56,11.67,26,3.3,12.91,4.94,19.37,5.21,20.86a180,180,0,0,1,2.48,29.9c.06,10.86-1.14,20.19-3.55,38.84-1.29,10-2.93,20.84-10.72,29.53-2.5,2.78-4,3.52-5.05,3.18-3.19-1.05-2.1-11.85-.92-26.54,1.24-15.42,1.78-30.89,2.93-46.32,1.92-25.82,2.1-29.4.16-35.62-1.66-5.3-4.08-10-6.86-20.91C636.32,151.38,638.77,149.16,639.61,148.64Z"/><path class="cls-2" d="M607.15,210.48s29,8,37.24,25,3.32,27.1,3.32,27.1,10.61,9.05,9.86,22.48a56.88,56.88,0,0,1-7.14,23.9s14.11,15.5,10.17,34.17S648,369.91,648,369.91s10.45,3.2,12.8,21.73-3,27.24-3,27.24,4.82.23,11.57,17.62-2.75,49.26-8.07,58-41.14,53.24-41.14,53.24a14,14,0,0,1-14,.67c-7.51-3.95-47.25-36.41-58.58-58.51s-13.42-45.1-9.16-52.08l6.38-10.47s-11.42-11.77-4.94-32.56,7.54-22.54,7.54-22.54-16.31-28.18-11.8-39.64l4.51-11.45s-14.27-21.35-13.52-34.78l.75-13.44s-10.61-9,.44-25.12,15-18.58,15-18.58"/><path class="cls-2" d="M548.76,231.08s-10.63-.06-23-7.26-25.21-28.64-25.21-28.64-4.83-8.58-3.81-24.25-3-45.61,10.28-58.36,7.32-8.51,22.23-17S550.32,90,550.32,90a76.91,76.91,0,0,1-17.06-11.5,46.77,46.77,0,0,1-11.13-15.74s4.51-1.4,13.76,2.93,10.85,7.19,10.85,7.19-1.56-1.44-.23-7.13,2.86-5.68,2.86-5.68,9-2.8,15.5,10.06,6.76,21.41,6.76,21.41l10.67,1.49s30.46,3,39.89,13,17.57,27.18,19.31,34.31,8.87,33.79,6.26,44.92c-2.67,11.39-8.24,27-14.14,32.7s-17.85,11.3-17.85,11.3"/><path class="cls-8" d="M605.44,177a92.61,92.61,0,0,1-16.24,1.9c-8.86.22-10.61-1.08-12.6.39-2.7,2-2.69,6.73-.6,11.65a26,26,0,0,0,6.89,9.39,24.5,24.5,0,0,0,7,4.24,28.65,28.65,0,0,0,24-2.93c.62-.4,1.16-.84,1.16-.84a12.17,12.17,0,0,0,1-.88c1.37-1.42,5.79-1.58,5.79-1.58,5.66-.19,8.48-.29,9.64-.93,5.23-2.89,0-21.84-9.62-24.41C617.86,172,617.08,174.71,605.44,177Z"/><path class="cls-9" d="M604.13,176.09a91.51,91.51,0,0,1-16,3.28c-8.8,1-10.66-.17-12.52,1.46-2.51,2.21-2.1,6.95.4,11.67a26.06,26.06,0,0,0,7.66,8.77,24.51,24.51,0,0,0,7.31,3.62,28.62,28.62,0,0,0,23.67-5,14.32,14.32,0,0,0,1.09-.93c.5-.5.81-.9.87-1,1.24-1.54,5.64-2.07,5.64-2.07,5.61-.68,8.42-1,9.52-1.75,5-3.33-1.89-21.76-11.67-23.5C616.07,170,615.53,172.79,604.13,176.09Z"/><path d="M539.38,136.4c2.59,18.84,16,32.1,30,29.62a20.19,20.19,0,0,0,5.82-2h0a21.21,21.21,0,0,0,3.55-2.32,25.92,25.92,0,0,0,2.77-2.59,31.81,31.81,0,0,0,6-9.65,43.4,43.4,0,0,0,2.5-22c0-.12,0-.22,0-.33l-50.63,9C539.35,136.18,539.36,136.29,539.38,136.4Z"/><path d="M590,127.42c2.59,18.83,16,32.09,30,29.61a19.45,19.45,0,0,0,2.31-.56,19.72,19.72,0,0,0,4.09-1.76,23.11,23.11,0,0,0,3.17-2.17,28.44,28.44,0,0,0,6.94-8.65,42.25,42.25,0,0,0,4.11-25.46c0-.11,0-.22,0-.33l-50.63,9C590,127.2,590,127.3,590,127.42Z"/><polygon class="cls-8" points="578.77 161.68 552.11 133.8 547.18 134.68 575.22 164 575.22 164 578.77 161.68"/><path class="cls-8" d="M556.6,133l24.94,26.08a31.81,31.81,0,0,0,6-9.65L569.6,130.7Z"/><polygon class="cls-8" points="622.35 156.47 593.64 126.43 598.57 125.56 626.44 154.71 622.35 156.47"/><polygon class="cls-8" points="616.06 122.45 620.77 127.39 607.77 129.69 603.06 124.76 616.06 122.45"/><path class="cls-8" d="M607.77,129.69l21.84,22.85a28.44,28.44,0,0,0,6.94-8.65l-15.78-16.5Z"/><path class="cls-6" d="M510.5,71.92C499.55,60.2,480.63,54.2,480.63,54.2,469,50.5,463.14,48.65,458,47.38c-14-3.41-21.12-5.1-29.87-4.09-5.2.6-10.33,2.79-20.61,6.82a23.82,23.82,0,0,0-7.21,4.09c-1.91,1.59-4.09,3.9-8.24,10.9-4.63,7.82-6.94,11.73-8.24,16.36-1,3.55-3.13,11.54-1,20.45a30.66,30.66,0,0,0,4.12,9.55c1.57,2.36,3.38,5,6.18,5.45.54.08,3,.46,4.12-1.36s.32-5.14-1-9.55c-4.37-14.26-6-14.37-6.18-19.08-.37-8.19,4.14-14.87,5.15-16.36a25.91,25.91,0,0,1,5.15-5.46,41.82,41.82,0,0,1,15.46-8.17,88,88,0,0,1,30.9-2.73,100.48,100.48,0,0,1,25.76,5.45A89.58,89.58,0,0,1,494,70.56c3.08,2.14,11.33,8.18,11.33,8.18h0s6.63-.19,7.21-2.73C512.89,74.58,511.24,72.71,510.5,71.92Z"/><path class="cls-6" d="M572.51,61.69c1.75-2.81-7.34-12-13.19-17.89C546,30.35,539.32,23.62,529,19c-6-2.67-21.56-9.29-39.56-4.12a45,45,0,0,0-21.1,12.38,40.67,40.67,0,0,0-10.56,19.25c-.77,3.51-1.89,8.86,0,15.14.63,2.06,2.82,9.31,9.24,12.38,3.65,1.74,9.14,2.35,10.55,0s-1.44-7.07-4-9.63c-2.29-2.34-3.56-2.08-5.27-4.13-2.69-3.21-2.66-7.52-2.64-9.63.08-9.9,7.45-17.47,11.87-22,4.95-5.08,9.77-10,17.14-11,3.44-.45,7.13.61,14.51,2.75a97.6,97.6,0,0,1,18.46,6.88c7.5,3.77,13.12,6.6,18.47,12.38C554.61,48.84,553.63,56,562,60.31,566,62.4,571.39,63.49,572.51,61.69Z"/><g id="hat"><path class="cls-7" d="M629.09,101.62,476.22,142.26c-1.5-5.92-6.91-30.27,8.42-54.74,13.54-21.6,38.7-36,65.24-37.17a82.11,82.11,0,0,1,44.29,11.14A79.23,79.23,0,0,1,629.09,101.62Z"/><path class="cls-10" d="M607.05,107.31c-8.4-36.91-41.95-61.23-75-54.39"/><path class="cls-10" d="M576,116.55c-8.73-38.39-28.39-66.85-44-63.63"/><path class="cls-10" d="M541.17,125.44c-8.94-39.28-13-71.72-9.13-72.52"/><path class="cls-10" d="M511.85,131.51c-8.94-39.29.09-74.44,20.19-78.59"/><path class="cls-10" d="M494.74,137.3c-9.07-39.88,5.62-76.71,32.85-82.34"/><path class="cls-11" d="M600.47,104.2,555.9,115.1c-3,.73-6-1.5-6.63-5l-2.54-13.83c-.64-3.46,1.3-6.9,4.3-7.63l44.58-10.9c3-.73,6,1.5,6.63,5l2.54,13.83C605.42,100,603.48,103.47,600.47,104.2Z"/></g><path class="cls-6" d="M573.86,471.86c-2.19-.24-6,.27-8.37,2.44-3.68,3.43-2.08,9.53-1.39,12.22,4.35,17,6.11,34.48,11.15,51.32,5.27,17.6,3.43,13.11,7,24.43,5.8,18.53,10,28.2,7,41.55-.29,1.27-1.12,3.69-2.79,8.55-5.17,15.07-10.2,26.55-12.54,31.77-6.38,14.16-14,28.17-29.27,56.2-5.92,10.86-10.55,22.25-16.73,33-2.9,5-7.08,11.94-8.36,20.77,0,0-.07.42-1.4,11,0,0,12.68,13.86,20.15,31.19,9.07,21,11.57,27.54,15.62,28,3.66.41,7.38-3.59,8.24-7.79,1-4.9-2.05-9-8.73-20.66-11.75-20.43-16.35-42-17.16-43-3.11-3.75.92-10.29,7-20.77,6.76-11.7,12.39-23.9,19.52-35.43,27.18-44,17.55-38.83,30.66-55,5.31-6.54,15.64-18.17,13.94-31.76-.27-2.16-.65-2.84-1.39-7.34a117.77,117.77,0,0,1-1.4-25.65c.51-11.61-2-23.63-7-47.65C591.9,502,585.92,473.19,573.86,471.86Z"/><path class="cls-6" d="M458.27,183.4c-13.91-5-15-13.48-28.4-22.46-7.39-5-14.67-7.25-29.22-11.87-23-7.31-21.52-2.88-37.48-9.13,0,0-19.49-7.63-32.45-8.7l-1.53-.13c-10.58-1-15.88-1.51-16.4-3.26s2.69-4.56,5.24-6.14c7.44-4.62,16.82-3.63,44.34,5.32,20.25,6.58,20.74,7.85,31.43,10.18,13.59,2.95,15.29,1.43,25.59,4.67,10.68,3.35,17.51,7.69,28.41,14.62,8.8,5.59,14.56,10.28,18.94,17.59,1.33,2.22,4.54,7.56,2.82,9.95C467.61,186.74,460.43,184.17,458.27,183.4Z"/><path class="cls-6" d="M464.72,185.46c1.15-2.09,4.61-2.06,5.81-2.05,6.84.05,11.65,5.34,23.7,19.07,9.45,10.78,14.18,16.17,15.16,17.47a196.63,196.63,0,0,1,17.13,27.65c5.45,10.48,9,20.14,16,39.46,3.78,10.39,7.63,21.71,4.74,34.2-.92,4-1.93,5.49-3.09,5.71-3.47.66-7.82-10.36-14-25.21-6.5-15.58-13.68-30.84-20.28-46.37-11-26-12.64-29.57-17.53-34.58-4.16-4.26-8.74-7.57-16.71-16.65C463,189.83,464.2,186.41,464.72,185.46Z"/><line class="cls-12" x1="330.73" y1="340" x2="518.73" y2="376"/><path class="cls-13" d="M611.87,187.66c-2.4,1-3.35.15-11-.94-5.51-.79-3.31-.28-12.95-1.11a31.22,31.22,0,0,0-8.05.32c-2.23.35-3.62.82-4.14,1.93a3.54,3.54,0,0,0,.3,2.84,26.12,26.12,0,0,0,6.88,9.39,25,25,0,0,0,7,4.24,28.65,28.65,0,0,0,24-2.93,13.46,13.46,0,0,0,1.15-.84,9,9,0,0,0,.95-.88c1.38-1.43,5.8-1.58,5.8-1.58,5.21,1.05,10,.08,11.44-2.59,2.38-4.43-5.4-12-8.94-12.81a8,8,0,0,0-2-.17,8.12,8.12,0,0,0-4.16,1.65A37.58,37.58,0,0,1,611.87,187.66Z"/></g></g></svg>