<svg id="net" xmlns="http://www.w3.org/2000/svg" viewBox="0 0 2000.65 1047.81"><defs><style>.cls-1{opacity:0.29;}.cls-2,.cls-4{fill:none;stroke:#000;stroke-miterlimit:10;stroke-width:5px;}.cls-2{opacity:0.2;}.cls-3{opacity:0.35;}.cls-5{fill:#00a99d;}.cls-6{fill:#e2f1e6;}.cls-7{fill:#0071bc;}</style></defs><title>Volleyball Net</title><g id="net_shadow" data-name="net shadow"><g class="cls-1"><path class="cls-2" d="M726.55,1086C500,1229.69,328.61,1347.09,343.41,1348.43" transform="translate(-136.14 -588.31)"/><path class="cls-2" d="M847.53,1117.89C620.26,1262.07,434,1378.53,431,1378.27" transform="translate(-136.14 -588.31)"/><path class="cls-2" d="M997.21,1127.74c-230.06,146-412.63,264.39-408.19,264.79" transform="translate(-136.14 -588.31)"/><path class="cls-2" d="M1140.91,1129.74C908.76,1277,719.7,1396.09,718.22,1396" transform="translate(-136.14 -588.31)"/><path class="cls-2" d="M1235.6,1133.71c-230.06,146-415,264.17-413.54,264.31" transform="translate(-136.14 -588.31)"/><path class="cls-2" d="M1340.06,1143.14c-228.67,145.07-416.1,262.25-419.06,262" transform="translate(-136.14 -588.31)"/><path class="cls-2" d="M1448.93,1157.53c-226.58,143.75-412.32,259.85-415.28,259.58" transform="translate(-136.14 -588.31)"/><path class="cls-2" d="M1559.21,1173c-229.36,145.51-424.55,262.4-436.39,261.33" transform="translate(-136.14 -588.31)"/><path class="cls-2" d="M1659.71,1198.49c-225.18,142.86-420.57,257.27-436.85,255.8" transform="translate(-136.14 -588.31)"/><path class="cls-2" d="M1758.8,1223c-224.48,142.42-421.71,256.26-440.95,254.52" transform="translate(-136.14 -588.31)"/><path class="cls-2" d="M1853.31,1256.18c-219.6,139.32-417.67,250.22-442.84,248" transform="translate(-136.14 -588.31)"/><path class="cls-2" d="M1941.53,1277.85c-223.09,141.53-421.58,254.44-443.79,252.43" transform="translate(-136.14 -588.31)"/><path class="cls-2" d="M618.23,1074.36c-8.64,15.59-12.88,33.77-.85,51,9.74,13.95,30.13,27.29,67.47,38.16,96.82,28.18,261.25,26.27,324.95,26.59,213.11,1,515.94,33.06,907.82,169.66" transform="translate(-136.14 -588.31)"/><path class="cls-2" d="M547.21,1121.64c-8.64,15.59-12.88,33.77-.85,51,9.74,13.95,30.13,27.3,67.47,38.17,96.82,28.17,261.25,26.26,324.95,26.58,213.11,1,515.94,33.07,907.82,169.67" transform="translate(-136.14 -588.31)"/><path class="cls-2" d="M471.91,1178.59c-8.76,15.61-13.18,33.8-1.4,51,9.53,13.95,29.66,27.29,66.68,38.14,96,28.13,259.51,26.11,322.85,26.39,211.93.92,512.73,32.76,901,169.17" transform="translate(-136.14 -588.31)"/><path class="cls-2" d="M391.5,1233.49c-8.67,15.61-12.93,33.81-.92,51.08,9.73,14,30.12,27.33,67.47,38.21,96.84,28.21,261.37,26.28,325.1,26.59,213.24,1,516.2,33.08,908.14,169.82" transform="translate(-136.14 -588.31)"/><path class="cls-3" d="M2112.66,1227.44c-21.34-1.56-50.07,3.81-67.11,12.73q-20.8,17.86-43.36,36.1C1621,1147.09,1356.26,1119.12,1146.59,1118c-64.12-.35-229.63,1.49-327.34-26.79-65.19-18.88-83.54-45.2-81.1-69.23l44.67-24.53c7.71-8.68-4.09-14.86-22.34-14.47-13.38.29-29.38,4.08-40.17,9.51l-547,376.24,22.79,1.81,39.72,3.15c12.69-10.23,29-23.38,48.24-38.84,8.19,17.38,30.55,34.49,76.41,47.84,96.82,28.17,261.25,26.26,324.94,26.58,210.16,1,475.74,29.32,858.86,161.09q-49.17,26-99.12,50.72l85.49,7.71L2131,1247.88C2143.44,1238,2135.12,1229.08,2112.66,1227.44Zm-534.47,324.78c-376.25-128-638.26-155.69-846.07-156.71-63.69-.32-228.12,1.59-324.94-26.58-64.28-18.72-82.42-44.82-80-68.71l.81-.65c106.6-85.48,179.73-143.4,269.5-197.9,13.44-8.16,27.15-16.29,27.15-16.29,8.44-5.34,30.14-17.51,67.17-37.93,4.14,20.57,25.86,41.65,80.56,57.48,97.71,28.28,263.22,26.44,327.34,26.79,213.43,1.16,483.89,30.12,876.26,165.35-38.06,29.7-79.67,60-125.27,91C1764.8,1446.25,1672.94,1501,1578.19,1552.22Z" transform="translate(-136.14 -588.31)"/></g></g><path class="cls-4" d="M254.53,779.54c0,294.83,10.55,533.4,23.59,533.4" transform="translate(-136.14 -588.31)"/><path class="cls-4" d="M386.61,817.29c0,295.73-2.11,535-4.72,535" transform="translate(-136.14 -588.31)"/><path class="cls-4" d="M514,810.72c0,299.37,3.17,541.61,7.08,541.61" transform="translate(-136.14 -588.31)"/><path class="cls-4" d="M627.17,791c0,302.09-1,546.53-2.36,546.53" transform="translate(-136.14 -588.31)"/><path class="cls-4" d="M705,782.82c0,299.37,1.06,541.61,2.36,541.61" transform="translate(-136.14 -588.31)"/><path class="cls-4" d="M797,782.82c0,297.55-2.11,538.33-4.72,538.33" transform="translate(-136.14 -588.31)"/><path class="cls-4" d="M898.39,791c0,294.83-2.11,533.4-4.71,533.4" transform="translate(-136.14 -588.31)"/><path class="cls-4" d="M1002.17,800.87c0,298.46-8.44,540-18.87,540" transform="translate(-136.14 -588.31)"/><path class="cls-4" d="M1110.66,830.42c0,293-11.61,530.12-26,530.12" transform="translate(-136.14 -588.31)"/><path class="cls-4" d="M1216.79,858.32c0,292.11-13.72,528.48-30.66,528.48" transform="translate(-136.14 -588.31)"/><path class="cls-4" d="M1330,902.63c0,285.76-17.93,517-40.09,517" transform="translate(-136.14 -588.31)"/><path class="cls-4" d="M1424.33,927.25c0,290.3-15.82,525.2-35.38,525.2" transform="translate(-136.14 -588.31)"/><path class="cls-4" d="M157,776.28c12.29,29.4,31.11,62.73,61.34,91.75,24.46,23.48,56.39,44.13,98.39,57.6,108.88,34.91,233.31,4.83,282.79-4.92,165.57-32.65,437.92-24.23,906,157.56" transform="translate(-136.14 -588.31)"/><path class="cls-4" d="M159.66,872.69c12.28,29.4,31.1,62.73,61.33,91.75,24.46,23.48,56.4,44.13,98.39,57.6,108.88,34.91,233.31,4.83,282.8-4.92,165.57-32.65,437.92-24.23,906,157.56" transform="translate(-136.14 -588.31)"/><path class="cls-4" d="M170.81,987.16C183,1016.6,201.71,1050,231.75,1079c24.3,23.51,56,44.2,97.74,57.69,108.17,35,231.79,4.83,281-4.93,164.48-32.69,435.06-24.26,900.08,157.77" transform="translate(-136.14 -588.31)"/><path class="cls-4" d="M175.53,1098.76c12.29,29.44,31.12,62.82,61.36,91.88,24.48,23.51,56.42,44.19,98.44,57.68,108.93,35,233.42,4.83,282.93-4.93,165.64-32.69,438.12-24.26,906.43,157.78" transform="translate(-136.14 -588.31)"/><path class="cls-5" d="M1500,930.73C1028.43,748.75,783.07,740.32,616.27,773c-49.86,9.76-175.22,39.87-284.91,4.93C240.12,748.84,190.92,687.16,167.81,635l-19.45,32.27c23.11,52.19,72.31,113.87,163.56,143C421.61,845.15,547,815,596.82,805.27,763.63,772.59,1009,781,1480.56,963Z" transform="translate(-136.14 -588.31)"/><path class="cls-5" d="M1512.17,1492.06C1044.09,1310.27,800.55,1301.85,635,1334.5c-49.49,9.75-173.92,39.83-282.79,4.92-90.58-29.05-139.41-90.66-162.35-142.79l-19.3,32.24c22.94,52.13,71.77,113.74,162.34,142.79,108.88,34.91,233.31,4.82,282.8-4.92,165.57-32.65,409.11-24.23,877.19,157.56Z" transform="translate(-136.14 -588.31)"/><path class="cls-6" d="M1534,1624h-75.27a2462.18,2462.18,0,0,0,29.45-484.17,2475.07,2475.07,0,0,0-29.45-297.06C1461,824,1476.65,809.65,1495,809c19.32-.69,36.54,13.94,39,33.73Z" transform="translate(-136.14 -588.31)"/><path class="cls-6" d="M225.87,1375.7l-34.45.78-19.77.45Q153.9,994.81,136.14,612.7c1.72-11.5,9.44-20.91,19.41-23.59,13.6-3.66,30.2,5.52,34.81,22.36C180.54,720.11,175.3,777,175.29,795c0,0-.7,16.82-1.14,33.64-3,112.42,11,228.26,32.71,399C214.76,1289.91,221.38,1341.13,225.87,1375.7Z" transform="translate(-136.14 -588.31)"/><path class="cls-6" d="M153,610" transform="translate(-136.14 -588.31)"/><path class="cls-7" d="M1534,1624a66.31,66.31,0,0,1-34,12,67.12,67.12,0,0,1-42-12c18-117.58,33.08-252.81,30.18-402.41C1486,1109,1485,1054,1476,975a22.75,22.75,0,0,0,8,6c3.67,1.61,6.4,1.55,20,1,12.12-.49,13.09-.58,15-1a45.87,45.87,0,0,0,15-6.32C1538,1200,1534,1407.56,1534,1624Z" transform="translate(-136.14 -588.31)"/><path class="cls-7" d="M237.52,1371.73a61,61,0,0,1-39.32,12.67,60.19,60.19,0,0,1-32-11c-12.93-220.93-14.55-440.12-25-663,4,2.12,7.42,3.78,10,5,5,2.36,6.33,2.79,8,3,3.25.42,5.82-.21,9-1a25.44,25.44,0,0,0,8-3,21.75,21.75,0,0,0,7-7c-6.55,98.9-6.28,145.82-6.34,161.45,0,0-.7,14,0,28.6,5.07,103.16,14.69,197.92,39.18,346C225,1297.35,232.45,1341.76,237.52,1371.73Z" transform="translate(-136.14 -588.31)"/></svg>