<?xml version="1.0" encoding="UTF-8" standalone="no"?>
<!-- Created with Inkscape (http://www.inkscape.org/) -->

<svg
   xmlns:dc="http://purl.org/dc/elements/1.1/"
   xmlns:cc="http://creativecommons.org/ns#"
   xmlns:rdf="http://www.w3.org/1999/02/22-rdf-syntax-ns#"
   xmlns:svg="http://www.w3.org/2000/svg"
   xmlns="http://www.w3.org/2000/svg"
   xmlns:sodipodi="http://sodipodi.sourceforge.net/DTD/sodipodi-0.dtd"
   xmlns:inkscape="http://www.inkscape.org/namespaces/inkscape"
   width="308.15057mm"
   height="57.020496mm"
   viewBox="0 0 308.15057 57.020496"
   version="1.1"
   id="svg6740"
   inkscape:version="0.92.4 (5da689c313, 2019-01-14)"
   sodipodi:docname="mentor_volunteer_button.svg"
   inkscape:export-filename="C:\Users\fwang\OneDrive\Documents\SH 2020 Graphic Design\Website\Mentor_Volunteer registration pg\Mentor and volunter button no background.png"
   inkscape:export-xdpi="96"
   inkscape:export-ydpi="96">
  <defs
     id="defs6734">
    <clipPath
       clipPathUnits="userSpaceOnUse"
       id="clipPath3692">
      <path
         inkscape:connector-curvature="0"
         id="path3694"
         d="m -143.75496,142.60536 c -1.49001,0 -2.71932,0.36799 -3.68814,1.10381 -0.96882,0.72968 -1.45314,1.66765 -1.45314,2.81429 0,0.99948 0.29133,1.81214 0.87385,2.43758 0.58865,0.61931 1.48962,1.05763 2.70371,1.31517 0.60091,0.12263 1.16824,0.22362 1.7017,0.30334 0.5396,0.0797 1.03925,0.18071 1.49913,0.30334 0.60705,0.15943 1.05805,0.3836 1.35238,0.67179 0.30045,0.2882 0.45062,0.73552 0.45062,1.34256 0,0.70515 -0.31618,1.26931 -0.94775,1.6924 -0.62544,0.42309 -1.50209,0.63459 -2.63033,0.63459 -0.79713,0 -1.64945,-0.15599 -2.55695,-0.46871 -0.9075,-0.31272 -1.70748,-0.75738 -2.40037,-1.33377 h -0.12919 v 2.281 c 0.81552,0.36177 1.61602,0.6346 2.40089,0.81855 0.79099,0.18395 1.6798,0.27596 2.66702,0.27596 0.91976,0 1.70492,-0.11051 2.35489,-0.33125 0.6561,-0.22075 1.22925,-0.52741 1.71979,-0.91984 0.44762,-0.36178 0.79395,-0.80327 1.03922,-1.32447 0.2514,-0.5212 0.37723,-1.04835 0.37723,-1.58181 0,-0.98108 -0.25749,-1.74457 -0.77256,-2.2903 -0.51507,-0.54573 -1.28173,-0.95338 -2.2996,-1.22318 -0.50281,-0.12877 -1.11562,-0.25461 -1.83917,-0.37724 -0.72354,-0.12264 -1.28188,-0.2268 -1.67431,-0.31264 -0.74195,-0.1717 -1.2601,-0.4202 -1.55443,-0.74518 -0.29432,-0.32498 -0.44131,-0.7723 -0.44131,-1.34255 0,-0.6377 0.2945,-1.15903 0.88315,-1.56373 0.59478,-0.40469 1.37942,-0.6072 2.35437,-0.6072 0.88911,0 1.75676,0.14752 2.60295,0.44184 0.85231,0.28819 1.53914,0.65302 2.06034,1.0945 h 0.12867 v -2.15232 c -0.61931,-0.2698 -1.33046,-0.49663 -2.13372,-0.68058 -0.80326,-0.18395 -1.68625,-0.27595 -2.64894,-0.27595 z m 79.099567,0.24805 v 8.19536 c 0,1.03627 0.107331,1.90974 0.321945,2.62103 0.220739,0.71128 0.579747,1.31827 1.07642,1.82108 0.435359,0.44148 0.971503,0.77616 1.609204,1.00304 0.637707,0.22687 1.385861,0.34003 2.244307,0.34003 0.840047,0 1.576043,-0.10733 2.207617,-0.32195 0.631574,-0.21461 1.183566,-0.55511 1.655712,-1.02112 0.496674,-0.49054 0.851996,-1.10336 1.066602,-1.83917 0.220747,-0.74194 0.331245,-1.60959 0.331245,-2.60294 v -8.19536 h -1.821077 v 8.33334 c 0,0.66836 -0.05234,1.22935 -0.156578,1.6831 -0.09812,0.44762 -0.266779,0.84628 -0.505912,1.19579 -0.275934,0.4047 -0.643414,0.70819 -1.103294,0.91054 -0.459886,0.19622 -1.018223,0.29404 -1.674315,0.29404 -0.649968,0 -1.207786,-0.10099 -1.673799,-0.30334 -0.459888,-0.20235 -0.824714,-0.50267 -1.094507,-0.90124 -0.239141,-0.34951 -0.410975,-0.73918 -0.515216,-1.1684 -0.0981,-0.42922 -0.147277,-1.01454 -0.147277,-1.75649 v -8.28734 z m -65.864197,3.13676 c -0.64996,0 -1.26329,0.13165 -1.83968,0.39532 -0.57025,0.25753 -1.08524,0.57953 -1.54512,0.96583 v -1.07642 h -1.7291 v 14.06323 h 1.7291 v -4.30414 c 0.44762,0.24528 0.88594,0.42611 1.31516,0.54261 0.43536,0.11651 0.9202,0.17466 1.45366,0.17466 0.61318,0 1.19267,-0.12266 1.7384,-0.36793 0.55185,-0.2514 1.02984,-0.60407 1.43453,-1.05782 0.43536,-0.47827 0.77269,-1.06094 1.01183,-1.7477 0.23914,-0.69288 0.35863,-1.45586 0.35863,-2.28978 0,-1.66171 -0.34632,-2.95869 -1.03921,-3.89072 -0.68676,-0.93816 -1.64958,-1.40714 -2.8882,-1.40714 z m 10.64173,0 c -1.45323,0 -2.60904,0.48748 -3.46749,1.46244 -0.85231,0.96882 -1.27847,2.29013 -1.27847,3.9641 0,1.67397 0.42616,2.99527 1.27847,3.96409 0.85845,0.96883 2.01426,1.45315 3.46749,1.45315 1.44096,0 2.59044,-0.48432 3.44888,-1.45315 0.85845,-0.96882 1.28778,-2.29012 1.28778,-3.96409 0,-1.67397 -0.42933,-2.99528 -1.28778,-3.9641 -0.85844,-0.97496 -2.00792,-1.46244 -3.44888,-1.46244 z m 12.60078,0 c -0.60705,0 -1.1987,0.12531 -1.77509,0.37672 -0.57638,0.2514 -1.1342,0.60089 -1.6738,1.04851 v -1.1405 h -1.72961 v 10.27379 h 1.72961 v -7.67085 c 0.47215,-0.36177 0.96547,-0.65893 1.48053,-0.89193 0.51507,-0.23301 1.0089,-0.34934 1.48105,-0.34934 0.45988,0 0.8337,0.064 1.12189,0.19276 0.2882,0.12263 0.5092,0.31297 0.6625,0.57051 0.14716,0.233 0.24815,0.55765 0.30334,0.97461 0.0552,0.41083 0.0827,0.85232 0.0827,1.32447 v 5.84977 h 1.72909 v -6.66832 c 0,-1.25702 -0.29133,-2.21932 -0.87385,-2.88768 -0.58252,-0.66837 -1.42849,-1.00252 -2.53834,-1.00252 z m 20.584271,0 c -1.453226,0 -2.60904,0.48748 -3.467489,1.46244 -0.852318,0.96882 -1.278474,2.29013 -1.278474,3.9641 0,1.67397 0.426156,2.99527 1.278474,3.96409 0.858449,0.96883 2.014263,1.45315 3.467489,1.45315 1.440961,0 2.590956,-0.48432 3.449402,-1.45315 0.858454,-0.96882 1.287262,-2.29012 1.287262,-3.96409 0,-1.67397 -0.428808,-2.99528 -1.287262,-3.9641 -0.858446,-0.97496 -2.008441,-1.46244 -3.449402,-1.46244 z m -10.337869,0.0367 c -0.656092,0 -1.250926,0.0856 -1.784387,0.25734 -0.527333,0.16556 -0.963001,0.39239 -1.306375,0.68058 -0.35565,0.29433 -0.62214,0.62849 -0.79996,1.00252 -0.17168,0.37404 -0.25786,0.7727 -0.25786,1.1958 0,0.67449 0.18717,1.24499 0.5612,1.711 0.38017,0.45989 1.020998,0.80939 1.922367,1.04852 0.324983,0.0858 0.683469,0.16516 1.075905,0.23875 0.398558,0.0736 0.720558,0.13806 0.965832,0.19326 0.662226,0.14717 1.110062,0.32482 1.34307,0.5333 0.233005,0.20849 0.349332,0.51515 0.349332,0.91984 0,0.52734 -0.214667,0.91384 -0.643887,1.15911 -0.429228,0.24527 -1.024054,0.36793 -1.784387,0.36793 -0.613177,0 -1.253485,-0.11949 -1.921849,-0.35863 -0.668361,-0.24527 -1.275863,-0.5736 -1.821593,-0.98444 h -0.092 v 1.94097 c 0.42922,0.21461 0.96006,0.41394 1.591635,0.5979 0.637704,0.17782 1.336696,0.26665 2.097029,0.26665 1.342861,0 2.400332,-0.30033 3.172934,-0.90124 0.778732,-0.60091 1.168405,-1.37074 1.168405,-2.3089 h -5.29e-4 c 0,-0.74808 -0.217321,-1.34873 -0.652677,-1.80248 -0.435348,-0.44762 -1.054502,-0.76379 -1.857761,-0.94774 -0.263668,-0.0613 -0.59517,-0.12847 -0.993738,-0.20206 -0.392433,-0.0736 -0.74775,-0.14708 -1.066602,-0.22066 -0.576379,-0.1349 -0.99355,-0.3099 -1.251085,-0.52451 -0.263668,-0.21461 -0.395327,-0.53344 -0.395327,-0.95653 0,-0.47828 0.217318,-0.83677 0.652674,-1.07591 0.435356,-0.24526 0.968849,-0.36793 1.60042,-0.36793 0.607039,0 1.226711,0.11315 1.858282,0.34003 0.631574,0.22075 1.167718,0.49357 1.609207,0.81855 h 0.09198 v -1.84846 c -0.416959,-0.21462 -0.94094,-0.39544 -1.572514,-0.5426 -0.62544,-0.1533 -1.244589,-0.22996 -1.857766,-0.22996 z m 49.740633,0 c -0.656101,0 -1.250929,0.0856 -1.784387,0.25734 -0.527334,0.16556 -0.962483,0.39239 -1.305865,0.68058 -0.355639,0.29433 -0.622646,0.62849 -0.800468,1.00252 -0.171693,0.37404 -0.257346,0.7727 -0.257346,1.1958 0,0.67449 0.187166,1.24499 0.561205,1.711 0.380166,0.45989 1.02099,0.80939 1.922362,1.04852 0.324979,0.0858 0.683469,0.16516 1.075909,0.23875 0.398561,0.0736 0.720561,0.13806 0.96583,0.19326 0.662231,0.14717 1.109551,0.32482 1.342551,0.5333 0.233008,0.20849 0.349848,0.51515 0.349848,0.91984 0,0.52734 -0.214669,0.91384 -0.64389,1.15911 -0.42922,0.24527 -1.024038,0.36793 -1.784379,0.36793 -0.61318,0 -1.254011,-0.11949 -1.922367,-0.35863 -0.668367,-0.24527 -1.275353,-0.5736 -1.821077,-0.98444 h -0.09199 v 1.94097 c 0.429223,0.21461 0.959546,0.41394 1.591119,0.5979 0.637702,0.17782 1.336694,0.26665 2.097035,0.26665 1.34285,0 2.40084,-0.30033 3.173449,-0.90124 0.77873,-0.60091 1.167892,-1.37074 1.167892,-2.3089 0,-0.74808 -0.217842,-1.34873 -0.65319,-1.80248 -0.435361,-0.44762 -1.05451,-0.76379 -1.857772,-0.94774 -0.26367,-0.0613 -0.594659,-0.12847 -0.993219,-0.20206 -0.392441,-0.0736 -0.748271,-0.14708 -1.06712,-0.22066 -0.57639,-0.1349 -0.99304,-0.3099 -1.250572,-0.52451 -0.263668,-0.21461 -0.39584,-0.53344 -0.39584,-0.95653 0,-0.47828 0.217836,-0.83677 0.65319,-1.07591 0.435361,-0.24526 0.968851,-0.36793 1.600422,-0.36793 0.607039,0 1.22619,0.11315 1.857759,0.34003 0.631581,0.22075 1.168241,0.49357 1.609722,0.81855 h 0.092 v -1.84846 c -0.416959,-0.21462 -0.941459,-0.39544 -1.57303,-0.5426 -0.62544,-0.1533 -1.244589,-0.22996 -1.857769,-0.22996 z m -31.980476,0.24804 v 10.27379 h 1.72961 v -7.29361 c 0.45988,-0.37404 0.937863,-0.67753 1.434536,-0.91054 0.496674,-0.23914 1.011659,-0.35863 1.545127,-0.35863 0.331113,0 0.616622,0.0153 0.855761,0.046 0.245266,0.0245 0.496427,0.0673 0.753959,0.12867 h 0.09198 v -1.77508 c -0.269801,-0.0429 -0.472305,-0.0704 -0.607198,-0.0827 -0.1349,-0.0184 -0.352216,-0.0279 -0.652674,-0.0279 -0.545727,0 -1.082394,0.11684 -1.609722,0.34985 -0.5212,0.22687 -1.125014,0.61603 -1.811774,1.16789 v -1.51774 z m -40.607339,1.2051 c 0.92589,0 1.64921,0.32516 2.17041,0.97513 0.5212,0.64383 0.78186,1.63098 0.78186,2.96158 0,1.29993 -0.26332,2.28074 -0.79065,2.94297 -0.5212,0.6561 -1.24186,0.98443 -2.16162,0.98443 -0.93203,0 -1.65851,-0.3315 -2.17971,-0.99373 -0.5212,-0.66836 -0.78186,-1.646 -0.78186,-2.93367 0,-1.3306 0.25749,-2.31775 0.77256,-2.96158 0.5212,-0.64997 1.25085,-0.97513 2.18901,-0.97513 z m 33.185051,0 c 0.925894,0 1.649728,0.32516 2.170928,0.97513 0.5212,0.64383 0.781349,1.63098 0.781349,2.96158 0,1.29993 -0.263316,2.28074 -0.790649,2.94297 -0.521195,0.6561 -1.241859,0.98443 -2.161628,0.98443 -0.932026,0 -1.658511,-0.3315 -2.179711,-0.99373 -0.5212,-0.66836 -0.781865,-1.646 -0.781865,-2.93367 0,-1.3306 0.257498,-2.31775 0.772565,-2.96158 0.5212,-0.64997 1.250852,-0.97513 2.189011,-0.97513 z m -44.268091,0.15657 c 0.87684,0 1.52666,0.30615 1.94975,0.91933 0.42309,0.61317 0.63459,1.53951 0.63459,2.77812 0,1.27541 -0.26966,2.23772 -0.80926,2.88768 -0.53959,0.64997 -1.29092,0.97514 -2.25361,0.97514 -0.44762,0 -0.84893,-0.0397 -1.20457,-0.11938 -0.34951,-0.0797 -0.76985,-0.23038 -1.26039,-0.45113 v -5.82187 c 0.45988,-0.3495 0.94155,-0.63133 1.44435,-0.84594 0.50281,-0.21461 1.00247,-0.32195 1.49914,-0.32195 z"
         style="font-style:normal;font-variant:normal;font-weight:normal;font-stretch:normal;font-size:18.83677483px;line-height:1.25;font-family:'Avenir Light';-inkscape-font-specification:'Avenir Light, ';font-variant-ligatures:normal;font-variant-caps:normal;font-variant-numeric:normal;font-feature-settings:normal;text-align:start;letter-spacing:0px;word-spacing:0px;writing-mode:lr-tb;text-anchor:start;fill:#0000ff;fill-opacity:1;stroke:none;stroke-width:0.75;stroke-miterlimit:4;stroke-dasharray:none" />
    </clipPath>
    <clipPath
       clipPathUnits="userSpaceOnUse"
       id="clipPath3603">
      <path
         id="path3605"
         d="m 54.293325,141.5402 c -1.490016,0 -2.719326,0.36799 -3.688146,1.1038 -0.968817,0.72968 -1.453142,1.66766 -1.453142,2.8143 0,0.99948 0.291333,1.81214 0.87385,2.43758 0.588651,0.61931 1.489623,1.05763 2.703711,1.31517 0.600911,0.12263 1.168242,0.22362 1.701705,0.30334 0.539594,0.0797 1.039252,0.1807 1.499132,0.30333 0.607047,0.15943 1.058047,0.38361 1.352373,0.6718 0.300455,0.28819 0.450619,0.73551 0.450619,1.34255 0,0.70516 -0.316174,1.26931 -0.947745,1.69241 -0.625441,0.42309 -1.502087,0.63458 -2.630331,0.63458 -0.797129,0 -1.64945,-0.15598 -2.55695,-0.4687 -0.907502,-0.31272 -1.70748,-0.75738 -2.400371,-1.33377 h -0.129191 v 2.281 c 0.815525,0.36177 1.616022,0.6346 2.400888,0.81855 0.790998,0.18395 1.679807,0.27595 2.667021,0.27595 0.919763,0 1.704927,-0.1105 2.354895,-0.33124 0.656097,-0.22075 1.229248,-0.52742 1.719791,-0.91984 0.44762,-0.36178 0.793943,-0.80327 1.039212,-1.32447 0.251402,-0.5212 0.377238,-1.04835 0.377238,-1.58182 0,-0.98108 -0.257493,-1.74457 -0.772562,-2.29029 -0.515067,-0.54573 -1.281729,-0.95339 -2.2996,-1.22319 -0.502806,-0.12876 -1.115618,-0.2546 -1.839166,-0.37723 -0.723548,-0.12264 -1.281883,-0.22681 -1.674315,-0.31265 -0.741945,-0.17169 -1.260102,-0.42019 -1.554428,-0.74517 -0.294325,-0.32499 -0.441317,-0.7723 -0.441317,-1.34255 0,-0.6377 0.2945,-1.15903 0.88315,-1.56373 0.594781,-0.4047 1.379429,-0.6072 2.354379,-0.6072 0.889106,0 1.75676,0.14751 2.602942,0.44183 0.852316,0.28819 1.53914,0.65302 2.06034,1.09451 h 0.128674 v -2.15232 c -0.619307,-0.2698 -1.330459,-0.49663 -2.133721,-0.68058 -0.803259,-0.18396 -1.686245,-0.27595 -2.648935,-0.27595 z m 79.099565,0.24804 v 8.19537 c 0,1.03627 0.10733,1.90974 0.32194,2.62103 0.22074,0.71128 0.57975,1.31827 1.07642,1.82107 0.43536,0.44149 0.97151,0.77617 1.60921,1.00304 0.6377,0.22688 1.38586,0.34003 2.2443,0.34003 0.84005,0 1.57605,-0.10733 2.20762,-0.32194 0.63158,-0.21461 1.18357,-0.55511 1.65571,-1.02113 0.49668,-0.49054 0.852,-1.10335 1.06661,-1.83916 0.22074,-0.74194 0.33124,-1.6096 0.33124,-2.60294 v -8.19537 h -1.82108 v 8.33334 c 0,0.66837 -0.0523,1.22936 -0.15657,1.6831 -0.0981,0.44762 -0.26678,0.84629 -0.50592,1.1958 -0.27593,0.4047 -0.64341,0.70819 -1.10329,0.91054 -0.45989,0.19622 -1.01822,0.29404 -1.67432,0.29404 -0.64996,0 -1.20778,-0.10099 -1.67379,-0.30335 -0.45989,-0.20234 -0.82472,-0.50267 -1.09451,-0.90123 -0.23914,-0.34951 -0.41098,-0.73918 -0.51522,-1.16841 -0.0981,-0.42922 -0.14727,-1.01453 -0.14727,-1.75648 v -8.28735 z M 67.528694,144.925 c -0.649965,0 -1.263295,0.13166 -1.83968,0.39533 -0.570253,0.25753 -1.085244,0.57953 -1.545127,0.96583 v -1.07642 h -1.729091 v 14.06322 h 1.729091 v -4.30413 c 0.44762,0.24528 0.885944,0.42611 1.315167,0.54261 0.435354,0.1165 0.920195,0.17466 1.453658,0.17466 0.613175,0 1.192668,-0.12266 1.738395,-0.36793 0.551857,-0.25141 1.02984,-0.60407 1.434536,-1.05782 0.435356,-0.47828 0.772687,-1.06094 1.011825,-1.7477 0.239138,-0.69288 0.358635,-1.45586 0.358635,-2.28978 0,-1.66171 -0.346324,-2.95869 -1.039212,-3.89072 -0.686758,-0.93816 -1.649579,-1.40715 -2.888197,-1.40715 z m 10.64173,0 c -1.45323,0 -2.609044,0.48749 -3.467489,1.46244 -0.852316,0.96882 -1.278475,2.29014 -1.278475,3.9641 0,1.67398 0.426159,2.99528 1.278475,3.9641 0.858445,0.96882 2.014259,1.45314 3.467489,1.45314 1.440963,0 2.590437,-0.48432 3.448883,-1.45314 0.858449,-0.96882 1.287777,-2.29012 1.287777,-3.9641 0,-1.67396 -0.429328,-2.99528 -1.287777,-3.9641 -0.858446,-0.97495 -2.00792,-1.46244 -3.448883,-1.46244 z m 12.600781,0 c -0.607047,0 -1.1987,0.12532 -1.775087,0.37672 -0.576387,0.2514 -1.134205,0.6009 -1.673799,1.04852 v -1.1405 h -1.729611 v 10.27379 h 1.729611 v -7.67085 c 0.472146,-0.36177 0.965462,-0.65893 1.480529,-0.89193 0.515069,-0.23301 1.008901,-0.34934 1.481047,-0.34934 0.459883,0 0.833702,0.064 1.121894,0.19276 0.288195,0.12263 0.509199,0.31296 0.662493,0.5705 0.147161,0.23301 0.248153,0.55766 0.30334,0.97462 0.05519,0.41083 0.08268,0.85232 0.08268,1.32447 v 5.84977 h 1.729094 v -6.66833 c 0,-1.25701 -0.29133,-2.21932 -0.873847,-2.88768 -0.58252,-0.66836 -1.428499,-1.00252 -2.538346,-1.00252 z m 20.584265,0 c -1.45322,0 -2.60904,0.48749 -3.46749,1.46244 -0.85231,0.96882 -1.27847,2.29014 -1.27847,3.9641 0,1.67398 0.42616,2.99528 1.27847,3.9641 0.85845,0.96882 2.01427,1.45314 3.46749,1.45314 1.44096,0 2.59096,-0.48432 3.44941,-1.45314 0.85845,-0.96882 1.28726,-2.29012 1.28726,-3.9641 0,-1.67396 -0.42881,-2.99528 -1.28726,-3.9641 -0.85845,-0.97495 -2.00845,-1.46244 -3.44941,-1.46244 z m -10.33786,0.0367 c -0.6561,0 -1.250929,0.0857 -1.78439,0.25735 -0.527333,0.16555 -0.963001,0.39239 -1.30638,0.68058 -0.355642,0.29433 -0.622131,0.62848 -0.799952,1.00252 -0.171688,0.37403 -0.257866,0.7727 -0.257866,1.19579 0,0.6745 0.187169,1.245 0.561206,1.71101 0.380169,0.45989 1.020995,0.80938 1.922364,1.04852 0.324983,0.0858 0.683468,0.16516 1.075908,0.23874 0.39855,0.0736 0.72055,0.13807 0.96583,0.19327 0.66222,0.14717 1.11006,0.32482 1.34307,0.5333 0.233,0.20848 0.34933,0.51515 0.34933,0.91984 0,0.52733 -0.21467,0.91384 -0.64389,1.1591 -0.42922,0.24528 -1.02405,0.36794 -1.78438,0.36794 -0.61318,0 -1.253488,-0.11949 -1.921852,-0.35863 -0.668362,-0.24527 -1.275866,-0.57361 -1.821593,-0.98444 h -0.09198 v 1.94097 c 0.429223,0.2146 0.960064,0.41394 1.591635,0.59789 0.637702,0.17782 1.336694,0.26665 2.09702,0.26665 1.34287,0 2.40034,-0.30033 3.17294,-0.90123 0.77873,-0.60092 1.1684,-1.37075 1.1684,-2.30891 h -5.3e-4 c 0,-0.74808 -0.21732,-1.34872 -0.65267,-1.80247 -0.43536,-0.44762 -1.05451,-0.76379 -1.85777,-0.94775 -0.26367,-0.0613 -0.59517,-0.12846 -0.99374,-0.20205 -0.39243,-0.0736 -0.74775,-0.14708 -1.0666,-0.22066 -0.576375,-0.1349 -0.993546,-0.3099 -1.251081,-0.52451 -0.263665,-0.21461 -0.395325,-0.53344 -0.395325,-0.95654 0,-0.47828 0.217319,-0.83676 0.652675,-1.0759 0.435353,-0.24526 0.968841,-0.36794 1.600411,-0.36794 0.60704,0 1.22671,0.11316 1.85829,0.34004 0.63157,0.22074 1.16771,0.49357 1.6092,0.81855 h 0.092 v -1.84847 c -0.41696,-0.21461 -0.94094,-0.39543 -1.57251,-0.5426 -0.62544,-0.15329 -1.24459,-0.22996 -1.85777,-0.22996 z m 49.74063,0 c -0.6561,0 -1.25093,0.0857 -1.78439,0.25735 -0.52733,0.16555 -0.96248,0.39239 -1.30586,0.68058 -0.35564,0.29433 -0.62265,0.62848 -0.80047,1.00252 -0.1717,0.37403 -0.25735,0.7727 -0.25735,1.19579 0,0.6745 0.18717,1.245 0.56121,1.71101 0.38016,0.45989 1.02099,0.80938 1.92236,1.04852 0.32498,0.0858 0.68347,0.16516 1.0759,0.23874 0.39857,0.0736 0.72057,0.13807 0.96583,0.19327 0.66224,0.14717 1.10955,0.32482 1.34256,0.5333 0.23301,0.20848 0.34985,0.51515 0.34985,0.91984 0,0.52733 -0.21467,0.91384 -0.64389,1.1591 -0.42923,0.24528 -1.02405,0.36794 -1.78439,0.36794 -0.61317,0 -1.254,-0.11949 -1.92236,-0.35863 -0.66837,-0.24527 -1.27535,-0.57361 -1.82108,-0.98444 h -0.092 v 1.94097 c 0.42922,0.2146 0.95954,0.41394 1.59111,0.59789 0.63771,0.17782 1.3367,0.26665 2.09703,0.26665 1.34286,0 2.40085,-0.30033 3.17345,-0.90123 0.77874,-0.60092 1.16789,-1.37075 1.16789,-2.30891 0,-0.74808 -0.21783,-1.34872 -0.65319,-1.80247 -0.43536,-0.44762 -1.05451,-0.76379 -1.85777,-0.94775 -0.26366,-0.0613 -0.59466,-0.12846 -0.99322,-0.20205 -0.39243,-0.0736 -0.74826,-0.14708 -1.06712,-0.22066 -0.57638,-0.1349 -0.99303,-0.3099 -1.25056,-0.52451 -0.26367,-0.21461 -0.39585,-0.53344 -0.39585,-0.95654 0,-0.47828 0.21784,-0.83676 0.65319,-1.0759 0.43536,-0.24526 0.96886,-0.36794 1.60042,-0.36794 0.60705,0 1.2262,0.11316 1.85777,0.34004 0.63157,0.22074 1.16823,0.49357 1.60972,0.81855 h 0.092 v -1.84847 c -0.41696,-0.21461 -0.94146,-0.39543 -1.57303,-0.5426 -0.62544,-0.15329 -1.24459,-0.22996 -1.85777,-0.22996 z m -31.98048,0.24805 v 10.27379 h 1.72961 v -7.29361 c 0.45988,-0.37404 0.93786,-0.67753 1.43454,-0.91054 0.49667,-0.23914 1.01166,-0.35863 1.54512,-0.35863 0.33112,0 0.61663,0.0153 0.85576,0.046 0.24527,0.0245 0.49643,0.0673 0.75396,0.12867 h 0.092 v -1.77508 c -0.2698,-0.0429 -0.47231,-0.0704 -0.6072,-0.0827 -0.1349,-0.0184 -0.35221,-0.0279 -0.65267,-0.0279 -0.54573,0 -1.0824,0.11684 -1.60972,0.34985 -0.5212,0.22687 -1.12502,0.61603 -1.81178,1.16789 v -1.51774 z m -40.607336,1.20509 c 0.925896,0 1.649208,0.32517 2.170408,0.97514 0.5212,0.64383 0.781865,1.63098 0.781865,2.96157 0,1.29994 -0.263318,2.28074 -0.790649,2.94298 -0.5212,0.6561 -1.241861,0.98443 -2.161624,0.98443 -0.93203,0 -1.658515,-0.3315 -2.179715,-0.99374 -0.521197,-0.66835 -0.781862,-1.64599 -0.781862,-2.93367 0,-1.33059 0.257493,-2.31774 0.772562,-2.96157 0.5212,-0.64997 1.250852,-0.97514 2.189015,-0.97514 z m 33.185046,0 c 0.9259,0 1.64973,0.32517 2.17093,0.97514 0.5212,0.64383 0.78135,1.63098 0.78135,2.96157 0,1.29994 -0.26332,2.28074 -0.79065,2.94298 -0.52119,0.6561 -1.24186,0.98443 -2.16163,0.98443 -0.93202,0 -1.65851,-0.3315 -2.17971,-0.99374 -0.5212,-0.66835 -0.78186,-1.64599 -0.78186,-2.93367 0,-1.33059 0.25749,-2.31774 0.77256,-2.96157 0.5212,-0.64997 1.25085,-0.97514 2.18901,-0.97514 z m -44.268093,0.15658 c 0.876842,0 1.526662,0.30615 1.949752,0.91933 0.423092,0.61317 0.634587,1.53951 0.634587,2.77812 0,1.27541 -0.269658,2.23771 -0.809252,2.88768 -0.539594,0.64997 -1.290923,0.97513 -2.25361,0.97513 -0.447619,0 -0.848934,-0.0397 -1.204576,-0.11937 -0.349512,-0.0797 -0.769848,-0.23039 -1.260391,-0.45113 v -5.82187 c 0.459883,-0.34951 0.941552,-0.63133 1.444358,-0.84594 0.502804,-0.21462 1.002461,-0.32195 1.499132,-0.32195 z"
         style="font-style:normal;font-variant:normal;font-weight:normal;font-stretch:normal;font-size:18.83677483px;line-height:1.25;font-family:'Avenir Light';-inkscape-font-specification:'Avenir Light, ';font-variant-ligatures:normal;font-variant-caps:normal;font-variant-numeric:normal;font-feature-settings:normal;text-align:start;letter-spacing:0px;word-spacing:0px;writing-mode:lr-tb;text-anchor:start;fill:#0000ff;fill-opacity:1;stroke:none;stroke-width:0.75;stroke-miterlimit:4;stroke-dasharray:none"
         inkscape:connector-curvature="0" />
    </clipPath>
    <clipPath
       clipPathUnits="userSpaceOnUse"
       id="clipPath11844">
      <path
         id="path11842"
         d="m 54.293325,141.5402 c -1.490016,0 -2.719326,0.36799 -3.688146,1.1038 -0.968817,0.72968 -1.453142,1.66766 -1.453142,2.8143 0,0.99948 0.291333,1.81214 0.87385,2.43758 0.588651,0.61931 1.489623,1.05763 2.703711,1.31517 0.600911,0.12263 1.168242,0.22362 1.701705,0.30334 0.539594,0.0797 1.039252,0.1807 1.499132,0.30333 0.607047,0.15943 1.058047,0.38361 1.352373,0.6718 0.300455,0.28819 0.450619,0.73551 0.450619,1.34255 0,0.70516 -0.316174,1.26931 -0.947745,1.69241 -0.625441,0.42309 -1.502087,0.63458 -2.630331,0.63458 -0.797129,0 -1.64945,-0.15598 -2.55695,-0.4687 -0.907502,-0.31272 -1.70748,-0.75738 -2.400371,-1.33377 h -0.129191 v 2.281 c 0.815525,0.36177 1.616022,0.6346 2.400888,0.81855 0.790998,0.18395 1.679807,0.27595 2.667021,0.27595 0.919763,0 1.704927,-0.1105 2.354895,-0.33124 0.656097,-0.22075 1.229248,-0.52742 1.719791,-0.91984 0.44762,-0.36178 0.793943,-0.80327 1.039212,-1.32447 0.251402,-0.5212 0.377238,-1.04835 0.377238,-1.58182 0,-0.98108 -0.257493,-1.74457 -0.772562,-2.29029 -0.515067,-0.54573 -1.281729,-0.95339 -2.2996,-1.22319 -0.502806,-0.12876 -1.115618,-0.2546 -1.839166,-0.37723 -0.723548,-0.12264 -1.281883,-0.22681 -1.674315,-0.31265 -0.741945,-0.17169 -1.260102,-0.42019 -1.554428,-0.74517 -0.294325,-0.32499 -0.441317,-0.7723 -0.441317,-1.34255 0,-0.6377 0.2945,-1.15903 0.88315,-1.56373 0.594781,-0.4047 1.379429,-0.6072 2.354379,-0.6072 0.889106,0 1.75676,0.14751 2.602942,0.44183 0.852316,0.28819 1.53914,0.65302 2.06034,1.09451 h 0.128674 v -2.15232 c -0.619307,-0.2698 -1.330459,-0.49663 -2.133721,-0.68058 -0.803259,-0.18396 -1.686245,-0.27595 -2.648935,-0.27595 z m 79.099565,0.24804 v 8.19537 c 0,1.03627 0.10733,1.90974 0.32194,2.62103 0.22074,0.71128 0.57975,1.31827 1.07642,1.82107 0.43536,0.44149 0.97151,0.77617 1.60921,1.00304 0.6377,0.22688 1.38586,0.34003 2.2443,0.34003 0.84005,0 1.57605,-0.10733 2.20762,-0.32194 0.63158,-0.21461 1.18357,-0.55511 1.65571,-1.02113 0.49668,-0.49054 0.852,-1.10335 1.06661,-1.83916 0.22074,-0.74194 0.33124,-1.6096 0.33124,-2.60294 v -8.19537 h -1.82108 v 8.33334 c 0,0.66837 -0.0523,1.22936 -0.15657,1.6831 -0.0981,0.44762 -0.26678,0.84629 -0.50592,1.1958 -0.27593,0.4047 -0.64341,0.70819 -1.10329,0.91054 -0.45989,0.19622 -1.01822,0.29404 -1.67432,0.29404 -0.64996,0 -1.20778,-0.10099 -1.67379,-0.30335 -0.45989,-0.20234 -0.82472,-0.50267 -1.09451,-0.90123 -0.23914,-0.34951 -0.41098,-0.73918 -0.51522,-1.16841 -0.0981,-0.42922 -0.14727,-1.01453 -0.14727,-1.75648 v -8.28735 z M 67.528694,144.925 c -0.649965,0 -1.263295,0.13166 -1.83968,0.39533 -0.570253,0.25753 -1.085244,0.57953 -1.545127,0.96583 v -1.07642 h -1.729091 v 14.06322 h 1.729091 v -4.30413 c 0.44762,0.24528 0.885944,0.42611 1.315167,0.54261 0.435354,0.1165 0.920195,0.17466 1.453658,0.17466 0.613175,0 1.192668,-0.12266 1.738395,-0.36793 0.551857,-0.25141 1.02984,-0.60407 1.434536,-1.05782 0.435356,-0.47828 0.772687,-1.06094 1.011825,-1.7477 0.239138,-0.69288 0.358635,-1.45586 0.358635,-2.28978 0,-1.66171 -0.346324,-2.95869 -1.039212,-3.89072 -0.686758,-0.93816 -1.649579,-1.40715 -2.888197,-1.40715 z m 10.64173,0 c -1.45323,0 -2.609044,0.48749 -3.467489,1.46244 -0.852316,0.96882 -1.278475,2.29014 -1.278475,3.9641 0,1.67398 0.426159,2.99528 1.278475,3.9641 0.858445,0.96882 2.014259,1.45314 3.467489,1.45314 1.440963,0 2.590437,-0.48432 3.448883,-1.45314 0.858449,-0.96882 1.287777,-2.29012 1.287777,-3.9641 0,-1.67396 -0.429328,-2.99528 -1.287777,-3.9641 -0.858446,-0.97495 -2.00792,-1.46244 -3.448883,-1.46244 z m 12.600781,0 c -0.607047,0 -1.1987,0.12532 -1.775087,0.37672 -0.576387,0.2514 -1.134205,0.6009 -1.673799,1.04852 v -1.1405 h -1.729611 v 10.27379 h 1.729611 v -7.67085 c 0.472146,-0.36177 0.965462,-0.65893 1.480529,-0.89193 0.515069,-0.23301 1.008901,-0.34934 1.481047,-0.34934 0.459883,0 0.833702,0.064 1.121894,0.19276 0.288195,0.12263 0.509199,0.31296 0.662493,0.5705 0.147161,0.23301 0.248153,0.55766 0.30334,0.97462 0.05519,0.41083 0.08268,0.85232 0.08268,1.32447 v 5.84977 h 1.729094 v -6.66833 c 0,-1.25701 -0.29133,-2.21932 -0.873847,-2.88768 -0.58252,-0.66836 -1.428499,-1.00252 -2.538346,-1.00252 z m 20.584265,0 c -1.45322,0 -2.60904,0.48749 -3.46749,1.46244 -0.85231,0.96882 -1.27847,2.29014 -1.27847,3.9641 0,1.67398 0.42616,2.99528 1.27847,3.9641 0.85845,0.96882 2.01427,1.45314 3.46749,1.45314 1.44096,0 2.59096,-0.48432 3.44941,-1.45314 0.85845,-0.96882 1.28726,-2.29012 1.28726,-3.9641 0,-1.67396 -0.42881,-2.99528 -1.28726,-3.9641 -0.85845,-0.97495 -2.00845,-1.46244 -3.44941,-1.46244 z m -10.33786,0.0367 c -0.6561,0 -1.250929,0.0857 -1.78439,0.25735 -0.527333,0.16555 -0.963001,0.39239 -1.30638,0.68058 -0.355642,0.29433 -0.622131,0.62848 -0.799952,1.00252 -0.171688,0.37403 -0.257866,0.7727 -0.257866,1.19579 0,0.6745 0.187169,1.245 0.561206,1.71101 0.380169,0.45989 1.020995,0.80938 1.922364,1.04852 0.324983,0.0858 0.683468,0.16516 1.075908,0.23874 0.39855,0.0736 0.72055,0.13807 0.96583,0.19327 0.66222,0.14717 1.11006,0.32482 1.34307,0.5333 0.233,0.20848 0.34933,0.51515 0.34933,0.91984 0,0.52733 -0.21467,0.91384 -0.64389,1.1591 -0.42922,0.24528 -1.02405,0.36794 -1.78438,0.36794 -0.61318,0 -1.253488,-0.11949 -1.921852,-0.35863 -0.668362,-0.24527 -1.275866,-0.57361 -1.821593,-0.98444 h -0.09198 v 1.94097 c 0.429223,0.2146 0.960064,0.41394 1.591635,0.59789 0.637702,0.17782 1.336694,0.26665 2.09702,0.26665 1.34287,0 2.40034,-0.30033 3.17294,-0.90123 0.77873,-0.60092 1.1684,-1.37075 1.1684,-2.30891 h -5.3e-4 c 0,-0.74808 -0.21732,-1.34872 -0.65267,-1.80247 -0.43536,-0.44762 -1.05451,-0.76379 -1.85777,-0.94775 -0.26367,-0.0613 -0.59517,-0.12846 -0.99374,-0.20205 -0.39243,-0.0736 -0.74775,-0.14708 -1.0666,-0.22066 -0.576375,-0.1349 -0.993546,-0.3099 -1.251081,-0.52451 -0.263665,-0.21461 -0.395325,-0.53344 -0.395325,-0.95654 0,-0.47828 0.217319,-0.83676 0.652675,-1.0759 0.435353,-0.24526 0.968841,-0.36794 1.600411,-0.36794 0.60704,0 1.22671,0.11316 1.85829,0.34004 0.63157,0.22074 1.16771,0.49357 1.6092,0.81855 h 0.092 v -1.84847 c -0.41696,-0.21461 -0.94094,-0.39543 -1.57251,-0.5426 -0.62544,-0.15329 -1.24459,-0.22996 -1.85777,-0.22996 z m 49.74063,0 c -0.6561,0 -1.25093,0.0857 -1.78439,0.25735 -0.52733,0.16555 -0.96248,0.39239 -1.30586,0.68058 -0.35564,0.29433 -0.62265,0.62848 -0.80047,1.00252 -0.1717,0.37403 -0.25735,0.7727 -0.25735,1.19579 0,0.6745 0.18717,1.245 0.56121,1.71101 0.38016,0.45989 1.02099,0.80938 1.92236,1.04852 0.32498,0.0858 0.68347,0.16516 1.0759,0.23874 0.39857,0.0736 0.72057,0.13807 0.96583,0.19327 0.66224,0.14717 1.10955,0.32482 1.34256,0.5333 0.23301,0.20848 0.34985,0.51515 0.34985,0.91984 0,0.52733 -0.21467,0.91384 -0.64389,1.1591 -0.42923,0.24528 -1.02405,0.36794 -1.78439,0.36794 -0.61317,0 -1.254,-0.11949 -1.92236,-0.35863 -0.66837,-0.24527 -1.27535,-0.57361 -1.82108,-0.98444 h -0.092 v 1.94097 c 0.42922,0.2146 0.95954,0.41394 1.59111,0.59789 0.63771,0.17782 1.3367,0.26665 2.09703,0.26665 1.34286,0 2.40085,-0.30033 3.17345,-0.90123 0.77874,-0.60092 1.16789,-1.37075 1.16789,-2.30891 0,-0.74808 -0.21783,-1.34872 -0.65319,-1.80247 -0.43536,-0.44762 -1.05451,-0.76379 -1.85777,-0.94775 -0.26366,-0.0613 -0.59466,-0.12846 -0.99322,-0.20205 -0.39243,-0.0736 -0.74826,-0.14708 -1.06712,-0.22066 -0.57638,-0.1349 -0.99303,-0.3099 -1.25056,-0.52451 -0.26367,-0.21461 -0.39585,-0.53344 -0.39585,-0.95654 0,-0.47828 0.21784,-0.83676 0.65319,-1.0759 0.43536,-0.24526 0.96886,-0.36794 1.60042,-0.36794 0.60705,0 1.2262,0.11316 1.85777,0.34004 0.63157,0.22074 1.16823,0.49357 1.60972,0.81855 h 0.092 v -1.84847 c -0.41696,-0.21461 -0.94146,-0.39543 -1.57303,-0.5426 -0.62544,-0.15329 -1.24459,-0.22996 -1.85777,-0.22996 z m -31.98048,0.24805 v 10.27379 h 1.72961 v -7.29361 c 0.45988,-0.37404 0.93786,-0.67753 1.43454,-0.91054 0.49667,-0.23914 1.01166,-0.35863 1.54512,-0.35863 0.33112,0 0.61663,0.0153 0.85576,0.046 0.24527,0.0245 0.49643,0.0673 0.75396,0.12867 h 0.092 v -1.77508 c -0.2698,-0.0429 -0.47231,-0.0704 -0.6072,-0.0827 -0.1349,-0.0184 -0.35221,-0.0279 -0.65267,-0.0279 -0.54573,0 -1.0824,0.11684 -1.60972,0.34985 -0.5212,0.22687 -1.12502,0.61603 -1.81178,1.16789 v -1.51774 z m -40.607336,1.20509 c 0.925896,0 1.649208,0.32517 2.170408,0.97514 0.5212,0.64383 0.781865,1.63098 0.781865,2.96157 0,1.29994 -0.263318,2.28074 -0.790649,2.94298 -0.5212,0.6561 -1.241861,0.98443 -2.161624,0.98443 -0.93203,0 -1.658515,-0.3315 -2.179715,-0.99374 -0.521197,-0.66835 -0.781862,-1.64599 -0.781862,-2.93367 0,-1.33059 0.257493,-2.31774 0.772562,-2.96157 0.5212,-0.64997 1.250852,-0.97514 2.189015,-0.97514 z m 33.185046,0 c 0.9259,0 1.64973,0.32517 2.17093,0.97514 0.5212,0.64383 0.78135,1.63098 0.78135,2.96157 0,1.29994 -0.26332,2.28074 -0.79065,2.94298 -0.52119,0.6561 -1.24186,0.98443 -2.16163,0.98443 -0.93202,0 -1.65851,-0.3315 -2.17971,-0.99374 -0.5212,-0.66835 -0.78186,-1.64599 -0.78186,-2.93367 0,-1.33059 0.25749,-2.31774 0.77256,-2.96157 0.5212,-0.64997 1.25085,-0.97514 2.18901,-0.97514 z m -44.268093,0.15658 c 0.876842,0 1.526662,0.30615 1.949752,0.91933 0.423092,0.61317 0.634587,1.53951 0.634587,2.77812 0,1.27541 -0.269658,2.23771 -0.809252,2.88768 -0.539594,0.64997 -1.290923,0.97513 -2.25361,0.97513 -0.447619,0 -0.848934,-0.0397 -1.204576,-0.11937 -0.349512,-0.0797 -0.769848,-0.23039 -1.260391,-0.45113 v -5.82187 c 0.459883,-0.34951 0.941552,-0.63133 1.444358,-0.84594 0.502804,-0.21462 1.002461,-0.32195 1.499132,-0.32195 z"
         style="font-style:normal;font-variant:normal;font-weight:normal;font-stretch:normal;font-size:18.83677483px;line-height:1.25;font-family:'Avenir Light';-inkscape-font-specification:'Avenir Light, ';font-variant-ligatures:normal;font-variant-caps:normal;font-variant-numeric:normal;font-feature-settings:normal;text-align:start;letter-spacing:0px;word-spacing:0px;writing-mode:lr-tb;text-anchor:start;fill:#0000ff;fill-opacity:1;stroke:none;stroke-width:0.75;stroke-miterlimit:4;stroke-dasharray:none"
         inkscape:connector-curvature="0" />
    </clipPath>
    <clipPath
       clipPathUnits="userSpaceOnUse"
       id="clipPath3696">
      <path
         inkscape:connector-curvature="0"
         id="path3698"
         d="m -101.02941,83.14277 v 1.786456 h 1.94252 V 83.14277 Z m -74.31744,0.09147 v 13.643094 h 1.81384 v -5.085477 h 1.81436 c 0.97734,0 1.78689,-0.115665 2.42827,-0.347784 0.64138,-0.238226 1.19726,-0.592638 1.6676,-1.062982 0.37872,-0.378722 0.67185,-0.824799 0.87954,-1.337903 0.21379,-0.519215 0.32039,-1.080955 0.32039,-1.685687 0,-0.794091 -0.14337,-1.450692 -0.43047,-1.969905 -0.28098,-0.519213 -0.68123,-0.953034 -1.20044,-1.301213 -0.4398,-0.293203 -0.94345,-0.50692 -1.51153,-0.641305 -0.56808,-0.140493 -1.26146,-0.210838 -2.07998,-0.210838 z m 39.06893,0 v 13.643094 h 1.81436 V 91.45286 h 2.55643 l 4.56303,5.424474 h 2.35489 l -5.13146,-5.96501 c 0.86739,-0.335963 1.5485,-0.833744 2.04328,-1.493449 0.49478,-0.665816 0.74259,-1.4903 0.74259,-2.473751 0,-0.7269 -0.14069,-1.325411 -0.42168,-1.795756 -0.27488,-0.476456 -0.65967,-0.870828 -1.15445,-1.182357 -0.4398,-0.274878 -0.93439,-0.464081 -1.48415,-0.567925 -0.54975,-0.10995 -1.23725,-0.164846 -2.06189,-0.164846 z m 77.873298,0 0.25632,9.886217 h 1.557528 l 0.23822,-9.886217 z m -27.543017,0.467154 v 2.941423 h -1.163751 v 1.447456 h 1.163751 v 5.442561 c 0,1.240004 0.271809,2.141223 0.815449,2.703195 0.54365,0.561972 1.337749,0.842843 2.382289,0.842843 0.29931,0 0.638271,-0.02771 1.01699,-0.08268 0.384831,-0.05498 0.73924,-0.124807 1.062982,-0.210323 v -1.548744 h -0.0915 c -0.134379,0.05498 -0.354491,0.125323 -0.65991,0.210842 -0.30542,0.07941 -0.598549,0.118856 -0.879531,0.118853 -0.482568,0 -0.842849,-0.0549 -1.08108,-0.164846 -0.232118,-0.116059 -0.415448,-0.296201 -0.54983,-0.540536 -0.146579,-0.26266 -0.232368,-0.543531 -0.256829,-0.842843 -0.0245,-0.305419 -0.0367,-0.726983 -0.0367,-1.264521 v -4.6638 h 3.555341 v -1.447456 h -3.555341 v -2.941425 z m -87.585371,1.090374 h 1.79627 c 0.57419,0 1.04746,0.04264 1.42007,0.128156 0.37872,0.07941 0.71449,0.214233 1.00769,0.403593 0.33596,0.219903 0.58645,0.503965 0.75138,0.852143 0.16492,0.348179 0.24753,0.756971 0.24753,1.227318 0,0.403153 -0.0613,0.766627 -0.18346,1.090372 -0.11606,0.323744 -0.31751,0.632322 -0.60461,0.925525 -0.28709,0.287094 -0.65963,0.498134 -1.11776,0.632519 -0.45813,0.128275 -1.05396,0.192235 -1.78697,0.192235 h -1.53014 z m 39.06945,0 h 2.13475 c 0.48867,0 0.91343,0.03677 1.27383,0.110069 0.36039,0.06719 0.67165,0.189243 0.93431,0.366387 0.31763,0.207685 0.54412,0.464558 0.67851,0.769978 0.14049,0.299312 0.21032,0.644144 0.21032,1.035079 0,0.513106 -0.0671,0.937863 -0.20154,1.273825 -0.12827,0.329854 -0.32973,0.62298 -0.60461,0.879531 -0.29931,0.274878 -0.66279,0.464082 -1.09037,0.567926 -0.42759,0.09774 -0.92857,0.146761 -1.50276,0.146761 h -1.83244 z m -17.41806,1.566828 c -1.49045,0 -2.69385,0.491911 -3.61011,1.475362 -0.91016,0.983451 -1.3653,2.312103 -1.3653,3.985805 0,1.692023 0.47646,2.99884 1.42937,3.921207 0.95291,0.916257 2.27837,1.374592 3.9765,1.374592 0.66582,0 1.3011,-0.0826 1.90583,-0.247531 0.60473,-0.164925 1.19737,-0.36958 1.77767,-0.613915 v -1.878439 h -0.0915 c -0.29931,0.268769 -0.80348,0.543772 -1.51205,0.824757 -0.70246,0.274878 -1.40171,0.412377 -2.09806,0.412377 -0.52533,0 -1.00817,-0.07302 -1.44798,-0.219623 -0.43369,-0.146603 -0.80891,-0.366707 -1.12654,-0.65991 -0.32985,-0.29931 -0.58941,-0.680911 -0.77876,-1.145149 -0.18937,-0.470347 -0.28423,-1.020347 -0.28423,-1.649513 h 7.54063 v -0.93431 c 0,-1.484339 -0.37573,-2.629656 -1.12706,-3.435963 -0.74523,-0.806308 -1.80795,-1.209747 -3.18844,-1.209747 z m 32.32568,0 c -1.49045,0 -2.69386,0.491911 -3.61012,1.475362 -0.91015,0.983451 -1.36529,2.312103 -1.36529,3.985805 0,1.692023 0.47646,2.99884 1.42937,3.921207 0.95291,0.916257 2.27837,1.374592 3.97651,1.374592 0.66582,0 1.30111,-0.0826 1.90584,-0.247531 0.60473,-0.164925 1.19737,-0.36958 1.77767,-0.613915 v -1.878439 h -0.0915 c -0.29931,0.268769 -0.80348,0.543772 -1.51205,0.824757 -0.70247,0.274878 -1.40172,0.412377 -2.09808,0.412377 -0.52532,0 -1.00817,-0.07302 -1.44798,-0.219623 -0.4337,-0.146603 -0.80942,-0.366707 -1.12706,-0.65991 -0.32986,-0.29931 -0.58941,-0.680911 -0.77877,-1.145149 -0.18936,-0.470347 -0.2837,-1.020347 -0.2837,-1.649513 h 7.54065 v -0.93431 c 0,-1.484339 -0.37573,-2.629656 -1.12707,-3.435963 -0.74522,-0.806308 -1.80794,-1.209747 -3.18845,-1.209747 z m 10.74768,0 c -0.56197,0 -1.12691,0.12205 -1.69499,0.366387 -0.56808,0.238226 -1.05092,0.574511 -1.44797,1.008205 -0.42759,0.464238 -0.76655,1.016916 -1.01699,1.658298 -0.24434,0.635272 -0.36639,1.392605 -0.36639,2.272212 0,1.606508 0.3576,2.852558 1.07229,3.738274 0.72078,0.879608 1.69183,1.319816 2.91352,1.319816 0.733,0 1.33471,-0.101245 1.80505,-0.302823 0.47646,-0.207685 0.97424,-0.518941 1.49345,-0.93431 v 0.93431 c 0,0.415369 -0.0458,0.791101 -0.13746,1.127061 -0.0916,0.335963 -0.24457,0.623221 -0.45837,0.861446 -0.21379,0.250444 -0.51279,0.446035 -0.89762,0.586529 -0.38483,0.140493 -0.87036,0.210838 -1.45676,0.210838 -0.61083,0 -1.2216,-0.0826 -1.83244,-0.247528 -0.61084,-0.158819 -1.05692,-0.293127 -1.33791,-0.403077 h -0.0915 v 1.759066 c 0.50088,0.14049 1.00774,0.24761 1.52083,0.32091 0.51922,0.0794 1.05057,0.11885 1.59422,0.11885 1.63705,0 2.84953,-0.40611 3.63751,-1.218524 0.78798,-0.812416 1.18184,-2.086173 1.18184,-3.820956 v -9.070763 h -1.61231 l -0.11007,0.439766 c -0.44591,-0.244337 -0.87067,-0.424476 -1.27382,-0.540535 -0.39705,-0.122167 -0.89164,-0.183452 -1.48415,-0.183452 z m 34.479031,0 c -1.490451,0 -2.69385,0.491911 -3.61011,1.475362 -0.910151,0.983451 -1.36529,2.312103 -1.36529,3.985805 0,1.692023 0.476459,2.99884 1.429359,3.921207 0.95291,0.916257 2.278369,1.374592 3.97651,1.374592 0.665821,0 1.301099,-0.0826 1.90582,-0.247531 0.60474,-0.164925 1.19738,-0.36958 1.777669,-0.613915 v -1.878439 h -0.092 c -0.29931,0.268769 -0.80296,0.543772 -1.511541,0.824757 -0.70246,0.274878 -1.401709,0.412377 -2.098061,0.412377 -0.525319,0 -1.008168,-0.07302 -1.447969,-0.219623 -0.4337,-0.146603 -0.809429,-0.366707 -1.127069,-0.65991 -0.329851,-0.29931 -0.589402,-0.680911 -0.778762,-1.145149 -0.189359,-0.470347 -0.284218,-1.020347 -0.284218,-1.649513 h 7.541138 v -0.93431 c 0,-1.484339 -0.375729,-2.629656 -1.127058,-3.435963 -0.745221,-0.806308 -1.807941,-1.209747 -3.188441,-1.209747 z m -17.94981,0.03669 c -0.6536,0 -1.24624,0.0858 -1.777672,0.256834 -0.525319,0.164925 -0.958619,0.390898 -1.300689,0.677994 -0.35429,0.293201 -0.62022,0.625777 -0.797369,0.998387 -0.171032,0.372613 -0.25631,0.769665 -0.25631,1.191144 0,0.671922 0.18601,1.240049 0.55862,1.704287 0.378719,0.458128 1.017188,0.806153 1.915128,1.044382 0.323742,0.08552 0.680831,0.164928 1.071772,0.238228 0.397039,0.0733 0.71787,0.137779 0.96221,0.192751 0.659699,0.146603 1.105779,0.323549 1.3379,0.531236 0.232119,0.207685 0.3483,0.513069 0.3483,0.916223 0,0.525322 -0.21423,0.910116 -0.641821,1.154451 -0.42759,0.244335 -1.019709,0.366903 -1.77715,0.366903 -0.610841,0 -1.249321,-0.119375 -1.915131,-0.3576 -0.665808,-0.244337 -1.270709,-0.57104 -1.814359,-0.980303 h -0.0915 v 1.933216 c 0.42759,0.213794 0.955752,0.412578 1.58492,0.595828 0.63527,0.177144 1.331841,0.265618 2.08928,0.265618 1.33773,0 2.391391,-0.299514 3.161051,-0.898136 0.775761,-0.598625 1.163751,-1.365017 1.163751,-2.299602 0,-0.745223 -0.21691,-1.344253 -0.65061,-1.796272 -0.433692,-0.445913 -1.050851,-0.76036 -1.851052,-0.943613 -0.262659,-0.06109 -0.592039,-0.128238 -0.989078,-0.201539 -0.390941,-0.0733 -0.74535,-0.146322 -1.06299,-0.219625 -0.574181,-0.134384 -0.989881,-0.308655 -1.246431,-0.522449 -0.26266,-0.213794 -0.39378,-0.531434 -0.39378,-0.952912 0,-0.476454 0.216919,-0.83406 0.650611,-1.072285 0.4337,-0.244338 0.96506,-0.366387 1.59422,-0.366387 0.604729,0 1.221878,0.112987 1.851049,0.338997 0.629161,0.219903 1.16319,0.49171 1.602999,0.815454 h 0.092 V 87.16475 c -0.415361,-0.213794 -0.937659,-0.393936 -1.56683,-0.540536 -0.623049,-0.15271 -1.240211,-0.228928 -1.851049,-0.228928 z m -71.880381,0.247531 v 10.234517 h 1.72237 v -7.265707 c 0.45813,-0.37261 0.93459,-0.67532 1.42937,-0.907439 0.49478,-0.238225 1.00801,-0.357082 1.53944,-0.357082 0.32986,0 0.61392,0.01492 0.85215,0.04547 0.24433,0.02442 0.49482,0.06759 0.75137,0.128675 h 0.0915 V 86.75288 c -0.26877,-0.04275 -0.47022,-0.07046 -0.60461,-0.08268 -0.13439,-0.01833 -0.35129,-0.02739 -0.65061,-0.02739 -0.54364,0 -1.0782,0.116182 -1.60352,0.348301 -0.51921,0.226009 -1.12092,0.613478 -1.80505,1.163235 V 86.64281 Z m 63.24008,0 v 10.234517 h 1.7229 V 86.642816 Z m 33.516821,0 v 10.234517 h 1.722379 v -7.265707 c 0.458121,-0.37261 0.93459,-0.67532 1.429369,-0.907439 0.494781,-0.238225 1.008007,-0.357082 1.539438,-0.357082 0.329851,0 0.61391,0.01492 0.852141,0.04547 0.24433,0.02442 0.494819,0.06759 0.75138,0.128675 h 0.0915 V 86.75288 c -0.268769,-0.04275 -0.470228,-0.07046 -0.60461,-0.08268 -0.13439,-0.01833 -0.35129,-0.02739 -0.65061,-0.02739 -0.54364,0 -1.078196,0.116182 -1.603505,0.348301 -0.519221,0.226009 -1.12092,0.613478 -1.805062,1.163235 V 86.64281 Z m -84.570571,1.135848 c 0.91626,0 1.59738,0.247811 2.04329,0.74259 0.45199,0.494779 0.68116,1.19402 0.6873,2.098064 h -5.86424 c 0.0733,-0.80631 0.38187,-1.481553 0.92552,-2.0252 0.54975,-0.543647 1.28576,-0.815454 2.20813,-0.815454 z m 32.32569,0 c 0.91625,0 1.59738,0.247811 2.04329,0.74259 0.45214,0.494779 0.68078,1.19402 0.68679,2.098064 h -5.86375 c 0.0733,-0.80631 0.38188,-1.481553 0.92552,-2.0252 0.54976,-0.543647 1.28577,-0.815454 2.20815,-0.815454 z m 45.226191,0 c 0.91625,0 1.597369,0.247811 2.043279,0.74259 0.452139,0.494779 0.6813,1.19402 0.6873,2.098064 h -5.86424 c 0.0733,-0.80631 0.381881,-1.481553 0.92552,-2.0252 0.549759,-0.543647 1.285769,-0.815454 2.208141,-0.815454 z m -34.084741,0.128675 c 0.39093,0 0.78211,0.04583 1.17305,0.137459 0.39705,0.08552 0.82448,0.232079 1.28261,0.439766 v 5.580021 c -0.42148,0.323744 -0.88568,0.583295 -1.39268,0.778764 -0.50089,0.189359 -1.00186,0.283704 -1.50275,0.283704 -0.93458,0 -1.60344,-0.295804 -2.00659,-0.88832 -0.40317,-0.592513 -0.60462,-1.463349 -0.60462,-2.611726 0,-1.20946 0.27181,-2.131483 0.81545,-2.766755 0.54366,-0.635273 1.28873,-0.952913 2.23553,-0.952913 z m -36.74196,2.171443 v 1.658297 h 5.71747 v -1.658297 z m 86.934757,4.865336 v 1.933215 h 1.86913 v -1.933215 z"
         style="font-style:normal;font-variant:normal;font-weight:normal;font-stretch:normal;font-size:18.76498032px;line-height:1.25;font-family:'Avenir Light';-inkscape-font-specification:'Avenir Light, ';font-variant-ligatures:normal;font-variant-caps:normal;font-variant-numeric:normal;font-feature-settings:normal;text-align:start;letter-spacing:0px;word-spacing:0px;writing-mode:lr-tb;text-anchor:start;fill:#0000ff;fill-opacity:1;stroke:none;stroke-width:0.75;stroke-miterlimit:4;stroke-dasharray:none" />
    </clipPath>
    <clipPath
       clipPathUnits="userSpaceOnUse"
       id="clipPath3591">
      <path
         inkscape:connector-curvature="0"
         id="path3593"
         d="m 119.7021,82.072797 v 1.786457 h 1.94252 v -1.786457 z m -74.317441,0.09147 v 13.643094 h 1.813843 v -5.085477 h 1.814359 c 0.977342,0 1.786896,-0.115665 2.428275,-0.347784 0.641381,-0.238226 1.197252,-0.592638 1.6676,-1.062982 0.378719,-0.378722 0.671848,-0.824799 0.879533,-1.337903 0.213794,-0.519216 0.320392,-1.080955 0.320392,-1.685687 0,-0.794091 -0.14337,-1.450692 -0.430464,-1.969905 C 53.597212,83.79841 53.196966,83.364589 52.677753,83.01641 52.23795,82.723207 51.734299,82.50949 51.166218,82.375105 50.598139,82.234611 49.904766,82.164267 49.086241,82.164267 Z m 39.068933,0 v 13.643094 h 1.814359 v -5.424475 h 2.556434 l 4.563028,5.424475 h 2.354895 l -5.13147,-5.96501 c 0.867394,-0.335963 1.548509,-0.833745 2.043287,-1.493449 0.494779,-0.665816 0.74259,-1.4903 0.74259,-2.473751 0,-0.7269 -0.140694,-1.325412 -0.421679,-1.795756 -0.274878,-0.476457 -0.659673,-0.870829 -1.154451,-1.182357 -0.439807,-0.274878 -0.934392,-0.464082 -1.484149,-0.567925 -0.549754,-0.109951 -1.237255,-0.164846 -2.06189,-0.164846 z m 77.873298,0 0.25632,9.886217 h 1.55753 l 0.23822,-9.886217 z m -27.54302,0.467153 v 2.941423 h -1.16375 v 1.447456 h 1.16375 v 5.442562 c 0,1.240004 0.27181,2.141222 0.81545,2.703195 0.54365,0.561972 1.33775,0.842843 2.38229,0.842843 0.29931,0 0.63827,-0.02771 1.01699,-0.08268 0.38483,-0.05498 0.73924,-0.124806 1.06298,-0.210322 v -1.548744 h -0.0915 c -0.13438,0.05498 -0.35449,0.125323 -0.65991,0.210841 -0.30542,0.07941 -0.59855,0.118856 -0.87953,0.118854 -0.48257,0 -0.84285,-0.0549 -1.08108,-0.164846 -0.23212,-0.11606 -0.41545,-0.296201 -0.54983,-0.540536 -0.14658,-0.26266 -0.23237,-0.543531 -0.25683,-0.842844 -0.0245,-0.305419 -0.0367,-0.726982 -0.0367,-1.26452 v -4.6638 h 3.55534 V 85.572846 H 136.5062 V 82.63142 Z m -87.585368,1.090375 h 1.796272 c 0.574189,0 1.047457,0.04264 1.420069,0.128156 0.37872,0.07941 0.714487,0.214233 1.00769,0.403593 0.335962,0.219903 0.586449,0.503965 0.751377,0.852143 0.164925,0.348179 0.247528,0.75697 0.247528,1.227318 0,0.403153 -0.06128,0.766627 -0.183451,1.090371 -0.11606,0.323744 -0.317519,0.632323 -0.604613,0.925526 -0.287097,0.287094 -0.659633,0.498134 -1.117761,0.632518 -0.458129,0.128276 -1.053965,0.192236 -1.786972,0.192236 h -1.530139 z m 39.069449,0 h 2.134754 c 0.488672,0 0.913429,0.03677 1.273823,0.110069 0.360397,0.06719 0.67165,0.189243 0.93431,0.366387 0.317638,0.207685 0.544129,0.464558 0.678514,0.769977 0.140491,0.299313 0.210322,0.644144 0.210322,1.035079 0,0.513107 -0.06715,0.937864 -0.201538,1.273826 -0.128276,0.329854 -0.329737,0.62298 -0.604616,0.879531 -0.299309,0.274878 -0.662783,0.464082 -1.090371,0.567925 -0.427588,0.09774 -0.928563,0.146762 -1.502752,0.146762 h -1.832446 z m -17.418057,1.566828 c -1.490449,0 -2.693856,0.49191 -3.610116,1.475361 -0.910151,0.983451 -1.365292,2.312104 -1.365292,3.985805 0,1.692024 0.476462,2.998841 1.429372,3.921205 0.952907,0.91626 2.278367,1.374595 3.976499,1.374595 0.665816,0 1.301097,-0.0826 1.905829,-0.247531 0.604729,-0.164925 1.197371,-0.369583 1.777669,-0.613915 v -1.878439 h -0.09147 c -0.29931,0.268769 -0.803479,0.543772 -1.512049,0.824757 -0.702466,0.274878 -1.401709,0.412377 -2.098066,0.412377 -0.52532,0 -1.008166,-0.07302 -1.447972,-0.219623 -0.433697,-0.146603 -0.808911,-0.366707 -1.126546,-0.659913 -0.329853,-0.299308 -0.589404,-0.680908 -0.778761,-1.145146 -0.189365,-0.470347 -0.284221,-1.020347 -0.284221,-1.649513 h 7.540625 v -0.93431 c 0,-1.484339 -0.375732,-2.629657 -1.127064,-3.435964 -0.745223,-0.806307 -1.807943,-1.209746 -3.188435,-1.209746 z m 32.325676,0 c -1.490447,0 -2.693859,0.49191 -3.610117,1.475361 -0.91015,0.983451 -1.365292,2.312104 -1.365292,3.985805 0,1.692024 0.476462,2.998841 1.429372,3.921205 0.952907,0.91626 2.278369,1.374595 3.976507,1.374595 0.66582,0 1.30111,-0.0826 1.90584,-0.247531 0.60473,-0.164925 1.19737,-0.369583 1.77767,-0.613915 v -1.878439 h -0.0915 c -0.29931,0.268769 -0.80348,0.543772 -1.51205,0.824757 -0.70247,0.274878 -1.40172,0.412377 -2.09808,0.412377 -0.52532,0 -1.00817,-0.07302 -1.44798,-0.219623 -0.433695,-0.146603 -0.809425,-0.366707 -1.127062,-0.659913 -0.329854,-0.299308 -0.589405,-0.680908 -0.778764,-1.145146 -0.18936,-0.470347 -0.2837,-1.020347 -0.2837,-1.649513 h 7.540646 v -0.93431 c 0,-1.484339 -0.37573,-2.629657 -1.12707,-3.435964 -0.74522,-0.806307 -1.80794,-1.209746 -3.18845,-1.209746 z m 10.74768,0 c -0.56197,0 -1.12691,0.122049 -1.69499,0.366387 -0.56808,0.238225 -1.05092,0.574511 -1.44797,1.008205 -0.42759,0.464238 -0.76655,1.016916 -1.01699,1.658295 -0.24434,0.635275 -0.36639,1.392608 -0.36639,2.272215 0,1.606508 0.3576,2.852557 1.07229,3.738274 0.72078,0.879607 1.69183,1.319816 2.91352,1.319816 0.733,0 1.33471,-0.101246 1.80505,-0.302824 0.47646,-0.207684 0.97424,-0.51894 1.49345,-0.93431 v 0.93431 c 0,0.41537 -0.0458,0.791102 -0.13746,1.127062 -0.0916,0.33596 -0.24457,0.623218 -0.45837,0.861446 -0.21379,0.250444 -0.51279,0.446035 -0.89762,0.586526 -0.38483,0.140496 -0.87036,0.210841 -1.45676,0.210841 -0.61083,0 -1.2216,-0.0826 -1.83244,-0.247528 -0.61084,-0.158819 -1.05692,-0.293127 -1.33791,-0.403077 h -0.0915 v 1.759069 c 0.50088,0.140491 1.00774,0.24761 1.52083,0.32091 0.51922,0.0794 1.05057,0.118851 1.59422,0.118851 1.63705,0 2.84953,-0.406112 3.63751,-1.218528 0.78798,-0.812416 1.18184,-2.086173 1.18184,-3.820956 v -9.070764 h -1.61231 l -0.11007,0.439767 c -0.44591,-0.244337 -0.87067,-0.424476 -1.27382,-0.540536 -0.39705,-0.122166 -0.89164,-0.183451 -1.48415,-0.183451 z m 34.47903,0 c -1.49045,0 -2.69385,0.49191 -3.61011,1.475361 -0.91015,0.983451 -1.36529,2.312104 -1.36529,3.985805 0,1.692024 0.47646,2.998841 1.42936,3.921205 0.95291,0.91626 2.27837,1.374595 3.97651,1.374595 0.66582,0 1.3011,-0.0826 1.90582,-0.247531 0.60474,-0.164925 1.19738,-0.369583 1.77767,-0.613915 v -1.878439 h -0.092 c -0.29931,0.268769 -0.80296,0.543772 -1.51154,0.824757 -0.70246,0.274878 -1.40171,0.412377 -2.09806,0.412377 -0.52532,0 -1.00817,-0.07302 -1.44797,-0.219623 -0.4337,-0.146603 -0.80943,-0.366707 -1.12707,-0.659913 -0.32985,-0.299308 -0.5894,-0.680908 -0.77876,-1.145146 -0.18936,-0.470347 -0.28422,-1.020347 -0.28422,-1.649513 h 7.54114 v -0.93431 c 0,-1.484339 -0.37573,-2.629657 -1.12706,-3.435964 -0.74522,-0.806307 -1.80794,-1.209746 -3.18844,-1.209746 z m -17.94981,0.03669 c -0.6536,0 -1.24624,0.0858 -1.77767,0.256834 -0.52532,0.164926 -0.95862,0.390898 -1.30069,0.677995 -0.35429,0.293201 -0.62022,0.625777 -0.79737,0.998387 -0.17103,0.372612 -0.25631,0.769665 -0.25631,1.191143 0,0.671923 0.18601,1.240049 0.55862,1.704287 0.37872,0.458129 1.01719,0.806154 1.91513,1.044382 0.32374,0.08552 0.68083,0.164928 1.07177,0.238226 0.39704,0.0733 0.71787,0.137781 0.96221,0.192754 0.6597,0.146603 1.10578,0.323546 1.3379,0.531236 0.23212,0.207682 0.3483,0.513069 0.3483,0.916223 0,0.525322 -0.21423,0.910116 -0.64182,1.154451 -0.42759,0.244335 -1.01971,0.366903 -1.77715,0.366903 -0.61084,0 -1.24932,-0.119375 -1.91513,-0.3576 -0.66581,-0.244338 -1.27071,-0.57104 -1.81436,-0.980303 h -0.0915 v 1.933215 c 0.42759,0.213794 0.95575,0.412576 1.58492,0.595829 0.63527,0.177144 1.33184,0.265618 2.08928,0.265618 1.33773,0 2.39139,-0.299514 3.16105,-0.898136 0.77576,-0.598626 1.16375,-1.36502 1.16375,-2.299603 0,-0.745222 -0.21691,-1.344252 -0.65061,-1.796272 -0.43369,-0.445913 -1.05085,-0.760359 -1.85105,-0.943612 -0.26266,-0.06109 -0.59204,-0.128239 -0.98908,-0.201539 -0.39094,-0.0733 -0.74535,-0.146322 -1.06299,-0.219625 -0.57418,-0.134385 -0.98988,-0.308655 -1.24643,-0.522449 -0.26266,-0.213794 -0.39378,-0.531434 -0.39378,-0.952913 0,-0.476454 0.21692,-0.834059 0.65061,-1.072287 0.4337,-0.244335 0.96506,-0.366385 1.59422,-0.366385 0.60473,0 1.22188,0.112988 1.85105,0.338998 0.62916,0.219903 1.16319,0.491709 1.603,0.815453 h 0.092 v -1.841746 c -0.41536,-0.213794 -0.93766,-0.393935 -1.56683,-0.540535 -0.62305,-0.15271 -1.24021,-0.228929 -1.85105,-0.228929 z m -71.880381,0.247531 v 10.234518 h 1.722377 v -7.265707 c 0.458128,-0.37261 0.93459,-0.67532 1.429369,-0.907439 0.494781,-0.238226 1.008012,-0.357082 1.539441,-0.357082 0.329853,0 0.613918,0.01492 0.852144,0.04547 0.244337,0.02442 0.494823,0.06759 0.751377,0.128675 h 0.09147 v -1.76837 c -0.268769,-0.04275 -0.470228,-0.07046 -0.604613,-0.08268 -0.134387,-0.01834 -0.351295,-0.02739 -0.650608,-0.02739 -0.543647,0 -1.078198,0.116181 -1.60352,0.3483 -0.519213,0.22601 -1.120918,0.613479 -1.805057,1.163236 v -1.511536 z m 63.240081,0 v 10.234518 h 1.7229 V 85.572843 Z m 33.51682,0 v 10.234518 h 1.72238 v -7.265707 c 0.45812,-0.37261 0.93459,-0.67532 1.42937,-0.907439 0.49478,-0.238226 1.00801,-0.357082 1.53944,-0.357082 0.32985,0 0.61391,0.01492 0.85214,0.04547 0.24433,0.02442 0.49482,0.06759 0.75138,0.128675 h 0.0915 v -1.76837 c -0.26877,-0.04275 -0.47023,-0.07046 -0.60461,-0.08268 -0.13439,-0.01834 -0.35129,-0.02739 -0.65061,-0.02739 -0.54364,0 -1.0782,0.116181 -1.60351,0.3483 -0.51922,0.22601 -1.12092,0.613479 -1.80506,1.163236 v -1.511536 z m -84.570563,1.135849 c 0.916257,0 1.597372,0.247811 2.043285,0.74259 0.451995,0.494779 0.681164,1.194019 0.687297,2.098064 h -5.864241 c 0.0733,-0.80631 0.381876,-1.481553 0.925523,-2.025201 0.549757,-0.543647 1.285767,-0.815453 2.208136,-0.815453 z m 32.325683,0 c 0.91625,0 1.59738,0.247811 2.04329,0.74259 0.45214,0.494779 0.68078,1.194019 0.68679,2.098064 h -5.863747 c 0.0733,-0.80631 0.381876,-1.481553 0.925523,-2.025201 0.549757,-0.543647 1.285764,-0.815453 2.208144,-0.815453 z m 45.22619,0 c 0.91625,0 1.59737,0.247811 2.04328,0.74259 0.45214,0.494779 0.6813,1.194019 0.6873,2.098064 h -5.86424 c 0.0733,-0.80631 0.38188,-1.481553 0.92552,-2.025201 0.54976,-0.543647 1.28577,-0.815453 2.20814,-0.815453 z m -34.08474,0.128675 c 0.39093,0 0.78211,0.04583 1.17305,0.137459 0.39705,0.08552 0.82448,0.232079 1.28261,0.439766 v 5.58002 c -0.42148,0.323744 -0.88568,0.583293 -1.39268,0.778764 -0.50089,0.18936 -1.00186,0.283705 -1.50275,0.283705 -0.93458,0 -1.60344,-0.295804 -2.00659,-0.88832 -0.40317,-0.592513 -0.60462,-1.46335 -0.60462,-2.611726 0,-1.209461 0.27181,-2.131483 0.81545,-2.766756 0.54366,-0.635272 1.28873,-0.952912 2.23553,-0.952912 z M 75.483598,89.00881 v 1.658297 h 5.717479 V 89.00881 Z m 86.934762,4.865335 v 1.933216 h 1.86913 v -1.933216 z"
         style="font-style:normal;font-variant:normal;font-weight:normal;font-stretch:normal;font-size:18.76498032px;line-height:1.25;font-family:'Avenir Light';-inkscape-font-specification:'Avenir Light, ';font-variant-ligatures:normal;font-variant-caps:normal;font-variant-numeric:normal;font-feature-settings:normal;text-align:start;letter-spacing:0px;word-spacing:0px;writing-mode:lr-tb;text-anchor:start;fill:#0000ff;fill-opacity:1;stroke:none;stroke-width:0.75;stroke-miterlimit:4;stroke-dasharray:none" />
    </clipPath>
    <clipPath
       clipPathUnits="userSpaceOnUse"
       id="clipPath11858">
      <path
         inkscape:connector-curvature="0"
         id="path11856"
         d="m 119.7021,82.072797 v 1.786457 h 1.94252 v -1.786457 z m -74.317441,0.09147 v 13.643094 h 1.813843 v -5.085477 h 1.814359 c 0.977342,0 1.786896,-0.115665 2.428275,-0.347784 0.641381,-0.238226 1.197252,-0.592638 1.6676,-1.062982 0.378719,-0.378722 0.671848,-0.824799 0.879533,-1.337903 0.213794,-0.519216 0.320392,-1.080955 0.320392,-1.685687 0,-0.794091 -0.14337,-1.450692 -0.430464,-1.969905 C 53.597212,83.79841 53.196966,83.364589 52.677753,83.01641 52.23795,82.723207 51.734299,82.50949 51.166218,82.375105 50.598139,82.234611 49.904766,82.164267 49.086241,82.164267 Z m 39.068933,0 v 13.643094 h 1.814359 v -5.424475 h 2.556434 l 4.563028,5.424475 h 2.354895 l -5.13147,-5.96501 c 0.867394,-0.335963 1.548509,-0.833745 2.043287,-1.493449 0.494779,-0.665816 0.74259,-1.4903 0.74259,-2.473751 0,-0.7269 -0.140694,-1.325412 -0.421679,-1.795756 -0.274878,-0.476457 -0.659673,-0.870829 -1.154451,-1.182357 -0.439807,-0.274878 -0.934392,-0.464082 -1.484149,-0.567925 -0.549754,-0.109951 -1.237255,-0.164846 -2.06189,-0.164846 z m 77.873298,0 0.25632,9.886217 h 1.55753 l 0.23822,-9.886217 z m -27.54302,0.467153 v 2.941423 h -1.16375 v 1.447456 h 1.16375 v 5.442562 c 0,1.240004 0.27181,2.141222 0.81545,2.703195 0.54365,0.561972 1.33775,0.842843 2.38229,0.842843 0.29931,0 0.63827,-0.02771 1.01699,-0.08268 0.38483,-0.05498 0.73924,-0.124806 1.06298,-0.210322 v -1.548744 h -0.0915 c -0.13438,0.05498 -0.35449,0.125323 -0.65991,0.210841 -0.30542,0.07941 -0.59855,0.118856 -0.87953,0.118854 -0.48257,0 -0.84285,-0.0549 -1.08108,-0.164846 -0.23212,-0.11606 -0.41545,-0.296201 -0.54983,-0.540536 -0.14658,-0.26266 -0.23237,-0.543531 -0.25683,-0.842844 -0.0245,-0.305419 -0.0367,-0.726982 -0.0367,-1.26452 v -4.6638 h 3.55534 V 85.572846 H 136.5062 V 82.63142 Z m -87.585368,1.090375 h 1.796272 c 0.574189,0 1.047457,0.04264 1.420069,0.128156 0.37872,0.07941 0.714487,0.214233 1.00769,0.403593 0.335962,0.219903 0.586449,0.503965 0.751377,0.852143 0.164925,0.348179 0.247528,0.75697 0.247528,1.227318 0,0.403153 -0.06128,0.766627 -0.183451,1.090371 -0.11606,0.323744 -0.317519,0.632323 -0.604613,0.925526 -0.287097,0.287094 -0.659633,0.498134 -1.117761,0.632518 -0.458129,0.128276 -1.053965,0.192236 -1.786972,0.192236 h -1.530139 z m 39.069449,0 h 2.134754 c 0.488672,0 0.913429,0.03677 1.273823,0.110069 0.360397,0.06719 0.67165,0.189243 0.93431,0.366387 0.317638,0.207685 0.544129,0.464558 0.678514,0.769977 0.140491,0.299313 0.210322,0.644144 0.210322,1.035079 0,0.513107 -0.06715,0.937864 -0.201538,1.273826 -0.128276,0.329854 -0.329737,0.62298 -0.604616,0.879531 -0.299309,0.274878 -0.662783,0.464082 -1.090371,0.567925 -0.427588,0.09774 -0.928563,0.146762 -1.502752,0.146762 h -1.832446 z m -17.418057,1.566828 c -1.490449,0 -2.693856,0.49191 -3.610116,1.475361 -0.910151,0.983451 -1.365292,2.312104 -1.365292,3.985805 0,1.692024 0.476462,2.998841 1.429372,3.921205 0.952907,0.91626 2.278367,1.374595 3.976499,1.374595 0.665816,0 1.301097,-0.0826 1.905829,-0.247531 0.604729,-0.164925 1.197371,-0.369583 1.777669,-0.613915 v -1.878439 h -0.09147 c -0.29931,0.268769 -0.803479,0.543772 -1.512049,0.824757 -0.702466,0.274878 -1.401709,0.412377 -2.098066,0.412377 -0.52532,0 -1.008166,-0.07302 -1.447972,-0.219623 -0.433697,-0.146603 -0.808911,-0.366707 -1.126546,-0.659913 -0.329853,-0.299308 -0.589404,-0.680908 -0.778761,-1.145146 -0.189365,-0.470347 -0.284221,-1.020347 -0.284221,-1.649513 h 7.540625 v -0.93431 c 0,-1.484339 -0.375732,-2.629657 -1.127064,-3.435964 -0.745223,-0.806307 -1.807943,-1.209746 -3.188435,-1.209746 z m 32.325676,0 c -1.490447,0 -2.693859,0.49191 -3.610117,1.475361 -0.91015,0.983451 -1.365292,2.312104 -1.365292,3.985805 0,1.692024 0.476462,2.998841 1.429372,3.921205 0.952907,0.91626 2.278369,1.374595 3.976507,1.374595 0.66582,0 1.30111,-0.0826 1.90584,-0.247531 0.60473,-0.164925 1.19737,-0.369583 1.77767,-0.613915 v -1.878439 h -0.0915 c -0.29931,0.268769 -0.80348,0.543772 -1.51205,0.824757 -0.70247,0.274878 -1.40172,0.412377 -2.09808,0.412377 -0.52532,0 -1.00817,-0.07302 -1.44798,-0.219623 -0.433695,-0.146603 -0.809425,-0.366707 -1.127062,-0.659913 -0.329854,-0.299308 -0.589405,-0.680908 -0.778764,-1.145146 -0.18936,-0.470347 -0.2837,-1.020347 -0.2837,-1.649513 h 7.540646 v -0.93431 c 0,-1.484339 -0.37573,-2.629657 -1.12707,-3.435964 -0.74522,-0.806307 -1.80794,-1.209746 -3.18845,-1.209746 z m 10.74768,0 c -0.56197,0 -1.12691,0.122049 -1.69499,0.366387 -0.56808,0.238225 -1.05092,0.574511 -1.44797,1.008205 -0.42759,0.464238 -0.76655,1.016916 -1.01699,1.658295 -0.24434,0.635275 -0.36639,1.392608 -0.36639,2.272215 0,1.606508 0.3576,2.852557 1.07229,3.738274 0.72078,0.879607 1.69183,1.319816 2.91352,1.319816 0.733,0 1.33471,-0.101246 1.80505,-0.302824 0.47646,-0.207684 0.97424,-0.51894 1.49345,-0.93431 v 0.93431 c 0,0.41537 -0.0458,0.791102 -0.13746,1.127062 -0.0916,0.33596 -0.24457,0.623218 -0.45837,0.861446 -0.21379,0.250444 -0.51279,0.446035 -0.89762,0.586526 -0.38483,0.140496 -0.87036,0.210841 -1.45676,0.210841 -0.61083,0 -1.2216,-0.0826 -1.83244,-0.247528 -0.61084,-0.158819 -1.05692,-0.293127 -1.33791,-0.403077 h -0.0915 v 1.759069 c 0.50088,0.140491 1.00774,0.24761 1.52083,0.32091 0.51922,0.0794 1.05057,0.118851 1.59422,0.118851 1.63705,0 2.84953,-0.406112 3.63751,-1.218528 0.78798,-0.812416 1.18184,-2.086173 1.18184,-3.820956 v -9.070764 h -1.61231 l -0.11007,0.439767 c -0.44591,-0.244337 -0.87067,-0.424476 -1.27382,-0.540536 -0.39705,-0.122166 -0.89164,-0.183451 -1.48415,-0.183451 z m 34.47903,0 c -1.49045,0 -2.69385,0.49191 -3.61011,1.475361 -0.91015,0.983451 -1.36529,2.312104 -1.36529,3.985805 0,1.692024 0.47646,2.998841 1.42936,3.921205 0.95291,0.91626 2.27837,1.374595 3.97651,1.374595 0.66582,0 1.3011,-0.0826 1.90582,-0.247531 0.60474,-0.164925 1.19738,-0.369583 1.77767,-0.613915 v -1.878439 h -0.092 c -0.29931,0.268769 -0.80296,0.543772 -1.51154,0.824757 -0.70246,0.274878 -1.40171,0.412377 -2.09806,0.412377 -0.52532,0 -1.00817,-0.07302 -1.44797,-0.219623 -0.4337,-0.146603 -0.80943,-0.366707 -1.12707,-0.659913 -0.32985,-0.299308 -0.5894,-0.680908 -0.77876,-1.145146 -0.18936,-0.470347 -0.28422,-1.020347 -0.28422,-1.649513 h 7.54114 v -0.93431 c 0,-1.484339 -0.37573,-2.629657 -1.12706,-3.435964 -0.74522,-0.806307 -1.80794,-1.209746 -3.18844,-1.209746 z m -17.94981,0.03669 c -0.6536,0 -1.24624,0.0858 -1.77767,0.256834 -0.52532,0.164926 -0.95862,0.390898 -1.30069,0.677995 -0.35429,0.293201 -0.62022,0.625777 -0.79737,0.998387 -0.17103,0.372612 -0.25631,0.769665 -0.25631,1.191143 0,0.671923 0.18601,1.240049 0.55862,1.704287 0.37872,0.458129 1.01719,0.806154 1.91513,1.044382 0.32374,0.08552 0.68083,0.164928 1.07177,0.238226 0.39704,0.0733 0.71787,0.137781 0.96221,0.192754 0.6597,0.146603 1.10578,0.323546 1.3379,0.531236 0.23212,0.207682 0.3483,0.513069 0.3483,0.916223 0,0.525322 -0.21423,0.910116 -0.64182,1.154451 -0.42759,0.244335 -1.01971,0.366903 -1.77715,0.366903 -0.61084,0 -1.24932,-0.119375 -1.91513,-0.3576 -0.66581,-0.244338 -1.27071,-0.57104 -1.81436,-0.980303 h -0.0915 v 1.933215 c 0.42759,0.213794 0.95575,0.412576 1.58492,0.595829 0.63527,0.177144 1.33184,0.265618 2.08928,0.265618 1.33773,0 2.39139,-0.299514 3.16105,-0.898136 0.77576,-0.598626 1.16375,-1.36502 1.16375,-2.299603 0,-0.745222 -0.21691,-1.344252 -0.65061,-1.796272 -0.43369,-0.445913 -1.05085,-0.760359 -1.85105,-0.943612 -0.26266,-0.06109 -0.59204,-0.128239 -0.98908,-0.201539 -0.39094,-0.0733 -0.74535,-0.146322 -1.06299,-0.219625 -0.57418,-0.134385 -0.98988,-0.308655 -1.24643,-0.522449 -0.26266,-0.213794 -0.39378,-0.531434 -0.39378,-0.952913 0,-0.476454 0.21692,-0.834059 0.65061,-1.072287 0.4337,-0.244335 0.96506,-0.366385 1.59422,-0.366385 0.60473,0 1.22188,0.112988 1.85105,0.338998 0.62916,0.219903 1.16319,0.491709 1.603,0.815453 h 0.092 v -1.841746 c -0.41536,-0.213794 -0.93766,-0.393935 -1.56683,-0.540535 -0.62305,-0.15271 -1.24021,-0.228929 -1.85105,-0.228929 z m -71.880381,0.247531 v 10.234518 h 1.722377 v -7.265707 c 0.458128,-0.37261 0.93459,-0.67532 1.429369,-0.907439 0.494781,-0.238226 1.008012,-0.357082 1.539441,-0.357082 0.329853,0 0.613918,0.01492 0.852144,0.04547 0.244337,0.02442 0.494823,0.06759 0.751377,0.128675 h 0.09147 v -1.76837 c -0.268769,-0.04275 -0.470228,-0.07046 -0.604613,-0.08268 -0.134387,-0.01834 -0.351295,-0.02739 -0.650608,-0.02739 -0.543647,0 -1.078198,0.116181 -1.60352,0.3483 -0.519213,0.22601 -1.120918,0.613479 -1.805057,1.163236 v -1.511536 z m 63.240081,0 v 10.234518 h 1.7229 V 85.572843 Z m 33.51682,0 v 10.234518 h 1.72238 v -7.265707 c 0.45812,-0.37261 0.93459,-0.67532 1.42937,-0.907439 0.49478,-0.238226 1.00801,-0.357082 1.53944,-0.357082 0.32985,0 0.61391,0.01492 0.85214,0.04547 0.24433,0.02442 0.49482,0.06759 0.75138,0.128675 h 0.0915 v -1.76837 c -0.26877,-0.04275 -0.47023,-0.07046 -0.60461,-0.08268 -0.13439,-0.01834 -0.35129,-0.02739 -0.65061,-0.02739 -0.54364,0 -1.0782,0.116181 -1.60351,0.3483 -0.51922,0.22601 -1.12092,0.613479 -1.80506,1.163236 v -1.511536 z m -84.570563,1.135849 c 0.916257,0 1.597372,0.247811 2.043285,0.74259 0.451995,0.494779 0.681164,1.194019 0.687297,2.098064 h -5.864241 c 0.0733,-0.80631 0.381876,-1.481553 0.925523,-2.025201 0.549757,-0.543647 1.285767,-0.815453 2.208136,-0.815453 z m 32.325683,0 c 0.91625,0 1.59738,0.247811 2.04329,0.74259 0.45214,0.494779 0.68078,1.194019 0.68679,2.098064 h -5.863747 c 0.0733,-0.80631 0.381876,-1.481553 0.925523,-2.025201 0.549757,-0.543647 1.285764,-0.815453 2.208144,-0.815453 z m 45.22619,0 c 0.91625,0 1.59737,0.247811 2.04328,0.74259 0.45214,0.494779 0.6813,1.194019 0.6873,2.098064 h -5.86424 c 0.0733,-0.80631 0.38188,-1.481553 0.92552,-2.025201 0.54976,-0.543647 1.28577,-0.815453 2.20814,-0.815453 z m -34.08474,0.128675 c 0.39093,0 0.78211,0.04583 1.17305,0.137459 0.39705,0.08552 0.82448,0.232079 1.28261,0.439766 v 5.58002 c -0.42148,0.323744 -0.88568,0.583293 -1.39268,0.778764 -0.50089,0.18936 -1.00186,0.283705 -1.50275,0.283705 -0.93458,0 -1.60344,-0.295804 -2.00659,-0.88832 -0.40317,-0.592513 -0.60462,-1.46335 -0.60462,-2.611726 0,-1.209461 0.27181,-2.131483 0.81545,-2.766756 0.54366,-0.635272 1.28873,-0.952912 2.23553,-0.952912 z M 75.483598,89.00881 v 1.658297 h 5.717479 V 89.00881 Z m 86.934762,4.865335 v 1.933216 h 1.86913 v -1.933216 z"
         style="font-style:normal;font-variant:normal;font-weight:normal;font-stretch:normal;font-size:18.76498032px;line-height:1.25;font-family:'Avenir Light';-inkscape-font-specification:'Avenir Light, ';font-variant-ligatures:normal;font-variant-caps:normal;font-variant-numeric:normal;font-feature-settings:normal;text-align:start;letter-spacing:0px;word-spacing:0px;writing-mode:lr-tb;text-anchor:start;fill:#0000ff;fill-opacity:1;stroke:none;stroke-width:0.75;stroke-miterlimit:4;stroke-dasharray:none" />
    </clipPath>
  </defs>
  <sodipodi:namedview
     id="base"
     pagecolor="#ffffff"
     bordercolor="#666666"
     borderopacity="1.0"
     inkscape:pageopacity="0.0"
     inkscape:pageshadow="2"
     inkscape:zoom="0.7"
     inkscape:cx="1054.588"
     inkscape:cy="-302.48218"
     inkscape:document-units="mm"
     inkscape:current-layer="layer1"
     showgrid="false"
     inkscape:window-width="1920"
     inkscape:window-height="1001"
     inkscape:window-x="-9"
     inkscape:window-y="-9"
     inkscape:window-maximized="1"
     showguides="true"
     inkscape:guide-bbox="true"
     inkscape:snap-global="false"
     fit-margin-top="0"
     fit-margin-left="0"
     fit-margin-right="0"
     fit-margin-bottom="0" />
  <metadata
     id="metadata6737">
    <rdf:RDF>
      <cc:Work
         rdf:about="">
        <dc:format>image/svg+xml</dc:format>
        <dc:type
           rdf:resource="http://purl.org/dc/dcmitype/StillImage" />
        <dc:title></dc:title>
      </cc:Work>
    </rdf:RDF>
  </metadata>
  <g
     inkscape:label="Layer 1"
     inkscape:groupmode="layer"
     id="layer1"
     transform="translate(213.97343,-104.0929)">
    <path
       style="fill:#d38d5f;fill-opacity:1;stroke:#5f4512;stroke-width:1.30638945;stroke-linecap:butt;stroke-linejoin:miter;stroke-miterlimit:4;stroke-dasharray:none;stroke-opacity:1"
       d="m 87.597078,158.03438 c -29.41885,5.75738 -62.40656,-0.5395 -93.6113298,-0.74431 -18.4317002,-0.12093 -36.8893102,0.24828 -55.2968102,-0.2863 -2.528,-0.0733 -5.03084,-0.33532 -7.55936,-0.40081 -17.619,-0.45646 -35.276798,0.0961 -52.915098,0.0571 -17.43184,-0.0382 -34.86153,-0.29752 -52.29374,-0.2863 -11.28808,0.009 -22.75293,1.33755 -33.86152,0.2292 -1.12922,-0.11268 -2.44692,-0.21348 -3.21017,-0.68706 -1.28028,-0.7951 -1.2061,-2.03572 -1.44979,-3.09185 -0.26639,-1.15485 -0.0288,-2.32851 0,-3.49258 0.051,-2.25268 -0.19984,-4.52116 0.31093,-6.75625 0.27027,-1.18509 1.2359,-2.30403 1.44962,-3.49263 0.24945,-1.38692 -0.0305,-2.78935 -0.20642,-4.17971 -0.14903,-1.18786 -0.35192,-2.37701 -0.72483,-3.54985 -0.15406,-0.48326 -0.53549,-0.94302 -0.62117,-1.43142 -1.20405,-6.84441 -1.72499,-13.97869 1.55294,-20.61218 0.28906,-0.58483 0.72479,-1.20626 1.5534,-1.60319 0.9162,-0.43883 2.22305,-0.57242 3.41747,-0.68709 13.8415,-1.32893 28.09673,0.1243 42.14554,0.11428 23.0925,-0.018 46.18415,-0.1901 69.276338,-0.28629 31.85931,-0.13241 63.71864,-0.28162 95.5784802,-0.4008 29.0291998,-0.10892 58.6724198,-3.57166 87.0871998,-0.28631 1.33126,0.1539 2.88926,0.32431 3.72786,0.91613 1.21102,0.85455 0.89994,2.12323 1.03558,3.20635 0.68552,5.46836 1.08634,11.09087 -1.13888,16.43248 -0.42338,1.01597 -1.9121,1.84012 -2.27825,2.86282 -0.57035,1.59178 -0.45944,3.2865 0.20645,4.86676 0.24182,0.57377 1.09551,1.03053 1.34615,1.60318 1.41354,3.23029 1.48773,6.66588 0.72481,9.96257 -0.2564,1.10789 -1.56224,2.09479 -1.76039,3.20634 -0.24165,1.35511 0.48841,2.70985 0.72483,4.06523 0.17577,1.01129 1.21811,2.09516 0.51786,3.03457 -0.61659,0.82691 -2.20307,1.41931 -3.72822,1.71774 z"
       id="path902"
       inkscape:connector-curvature="0"
       sodipodi:nodetypes="sssssssssssssssssssssssssssssssss"
       inkscape:export-xdpi="96"
       inkscape:export-ydpi="96" />
    <path
       style="display:inline;fill:none;stroke:#5f4512;stroke-width:0.61434042;stroke-linecap:butt;stroke-linejoin:miter;stroke-miterlimit:4;stroke-dasharray:none;stroke-opacity:1"
       d="m 52.478538,117.34001 35.79854,-0.64086"
       id="path906"
       inkscape:connector-curvature="0" />
    <path
       inkscape:connector-curvature="0"
       id="path908"
       d="m 57.605818,140.46923 31.18042,-0.72842"
       style="display:inline;fill:none;stroke:#5f4512;stroke-width:0.60000002;stroke-linecap:butt;stroke-linejoin:miter;stroke-miterlimit:4;stroke-dasharray:none;stroke-opacity:1" />
    <path
       inkscape:connector-curvature="0"
       id="path910"
       d="m 49.329718,132.25148 38.26892,-1.28953"
       style="display:inline;fill:none;stroke:#5f4512;stroke-width:0.60000002;stroke-linecap:butt;stroke-linejoin:miter;stroke-miterlimit:4;stroke-dasharray:none;stroke-opacity:1" />
    <path
       style="display:inline;fill:none;stroke:#5f4512;stroke-width:0.61434048;stroke-linecap:butt;stroke-linejoin:miter;stroke-miterlimit:4;stroke-dasharray:none;stroke-opacity:1"
       d="m -208.07074,109.19693 28.72159,2.2173"
       id="path912"
       inkscape:connector-curvature="0" />
    <path
       inkscape:connector-curvature="0"
       id="path914"
       d="m -209.79338,124.67087 27.82193,-0.92968"
       style="display:inline;fill:none;stroke:#5f4512;stroke-width:0.61400002;stroke-linecap:butt;stroke-linejoin:miter;stroke-miterlimit:4;stroke-dasharray:none;stroke-opacity:1" />
    <path
       style="display:inline;fill:none;stroke:#5f4512;stroke-width:0.60000002;stroke-linecap:butt;stroke-linejoin:miter;stroke-miterlimit:4;stroke-dasharray:none;stroke-opacity:1"
       d="m -210.39518,153.0187 42.31416,1.86791"
       id="path916"
       inkscape:connector-curvature="0" />
    <path
       inkscape:connector-curvature="0"
       id="path918"
       d="m -208.15894,133.2967 35.38604,-0.92692"
       style="display:inline;fill:none;stroke:#5f4512;stroke-width:0.60000002;stroke-linecap:butt;stroke-linejoin:miter;stroke-miterlimit:4;stroke-dasharray:none;stroke-opacity:1" />
    <path
       inkscape:connector-curvature="0"
       id="path920"
       d="m -205.80475,140.79975 34.81652,1.75059"
       style="display:inline;fill:none;stroke:#5f4512;stroke-width:0.60000002;stroke-linecap:butt;stroke-linejoin:miter;stroke-miterlimit:4;stroke-dasharray:none;stroke-opacity:1" />
    <path
       inkscape:connector-curvature="0"
       id="path922"
       d="m 56.733988,123.5872 32.54479,-0.91237"
       style="display:inline;fill:none;stroke:#5f4512;stroke-width:0.60000002;stroke-linecap:butt;stroke-linejoin:miter;stroke-miterlimit:4;stroke-dasharray:none;stroke-opacity:1" />
    <path
       style="display:inline;fill:none;stroke:#5f4512;stroke-width:0.60000002;stroke-linecap:butt;stroke-linejoin:miter;stroke-miterlimit:4;stroke-dasharray:none;stroke-opacity:1"
       d="m 34.992668,110.42664 52.33324,-1.48547"
       id="path924"
       inkscape:connector-curvature="0" />
    <path
       style="display:inline;fill:none;stroke:#5f4512;stroke-width:0.60000002;stroke-linecap:butt;stroke-linejoin:miter;stroke-miterlimit:4;stroke-dasharray:none;stroke-opacity:1"
       d="m -210.17608,148.40978 35.36393,-0.90024"
       id="path926"
       inkscape:connector-curvature="0" />
    <g
       aria-label="Mentor "
       style="font-style:normal;font-variant:normal;font-weight:normal;font-stretch:normal;font-size:24.80913925px;line-height:1.25;font-family:inkfree;-inkscape-font-specification:inkfree;font-variant-ligatures:normal;font-variant-caps:normal;font-variant-numeric:normal;font-feature-settings:normal;text-align:start;letter-spacing:0px;word-spacing:0px;writing-mode:lr-tb;text-anchor:start;fill:#3c2813;fill-opacity:0.917647;stroke:none;stroke-width:0.26458332"
       id="text1701"
       transform="translate(-212.46042,-123.03125)">
      <path
         d="m 62.67725,261.15786 q 0,0.17367 -0.29771,0.39695 -0.2729,0.19847 -0.620228,0.19847 -0.29771,0 -0.471374,-0.0248 -0.173664,-0.0496 -0.248091,-0.22328 -0.223283,-0.37214 -0.520992,-2.20801 -0.29771,-1.83588 -0.57061,-4.21756 -0.59542,-7.26907 -0.917939,-7.41793 -0.2729,0.59542 -0.84351,2.25763 -0.570611,1.63741 -1.314885,4.29198 -0.818701,2.85306 -1.240457,3.94466 -0.421755,1.06679 -0.744274,1.31488 -0.198473,0.17367 -0.496183,0.34733 -0.2729,0.14885 -0.471373,0.14885 -0.248092,0 -0.322519,-0.0496 -0.07443,-0.0744 -0.173664,-0.39695 -0.09924,-0.37214 -0.471374,-2.30725 -0.372137,-1.95992 -0.57061,-3.5229 l -0.148855,-1.04198 q -0.421755,-3.22519 -0.57061,-3.59733 -0.471374,0.42176 -0.893129,1.8855 -0.421755,1.43893 -0.967556,4.09351 -0.520992,2.05915 -1.265266,6.69846 -0.02481,0.2729 -0.372138,0.49619 -0.347328,0.22328 -0.620228,0.22328 -0.396946,0 -0.446565,-0.76908 -0.02481,-0.76909 -0.347328,-3.32443 -0.297709,-2.55534 -0.545801,-4.49045 -0.347328,-2.75382 -0.942747,-5.11069 -0.173664,-0.74427 -0.173664,-0.84351 0,-0.37213 0.347328,-0.59542 0.372137,-0.24809 0.793893,-0.24809 0.198473,0 0.421755,1.53817 0.223282,1.53817 0.471374,3.87022 l 0.07443,0.81871 q 0.09924,0.8187 0.223282,1.71183 0.471374,3.7958 0.520992,4.76335 0.496183,-2.87786 1.116411,-5.78053 l 0.223283,-1.0916 q 0.545801,-2.62977 1.190838,-3.96946 0.645038,-1.3645 1.662213,-1.3645 0.322519,0 0.719465,1.68702 0.396946,1.66221 0.620228,3.89503 0.173664,1.58779 0.446565,3.10114 0.2729,1.51336 0.496183,2.10878 0.148854,-0.42175 0.595419,-1.86068 0.471373,-1.43893 0.86832,-2.72901 1.215648,-4.14313 2.58015,-7.41793 0.248092,-0.52099 0.471374,-0.74428 0.248091,-0.24809 0.843511,-0.24809 0.322518,0 0.694655,2.82824 0.372138,2.82825 0.620229,6.54962 0.669847,5.25953 1.215648,5.73091 0.372137,0.32252 0.372137,0.69465 z"
         style="fill:#3c2813;fill-opacity:0.917647;stroke-width:0.26458332"
         id="path1917"
         inkscape:connector-curvature="0" />
      <path
         d="m 74.128993,256.14642 q 0.173664,0 0.173664,0.37213 0,0.44657 -0.669847,1.95993 -0.645037,1.51335 -1.984731,2.80343 -1.314884,1.29007 -3.249997,1.29007 -1.587785,0 -2.654578,-0.99236 -1.066793,-0.99237 -1.066793,-3.05153 0,-1.93511 0.893129,-3.8206 0.893129,-1.91031 2.332059,-3.10115 1.43893,-1.21564 2.977097,-1.21564 0.917938,0 1.538166,0.42175 0.645038,0.39695 0.645038,1.16603 0,0.86832 -0.992366,1.68702 -0.967556,0.8187 -2.530532,1.43893 -1.562976,0.62023 -3.225188,0.89313 -0.29771,1.14122 -0.29771,2.23282 0,1.43894 0.669847,2.23283 0.694656,0.79389 1.959922,0.79389 1.910304,0 3.101143,-1.3645 1.190838,-1.36451 1.984731,-3.07634 0.04962,-0.0992 0.173664,-0.37213 0.124045,-0.29771 0.223282,-0.29771 z m -2.183204,-3.89504 q 0,-0.39694 -0.421756,-0.62023 -0.396946,-0.22328 -0.942747,-0.22328 -0.942747,0 -1.811067,0.62023 -0.86832,0.62023 -1.463739,1.48855 -0.57061,0.86832 -0.744274,1.53817 1.14122,-0.12405 2.406486,-0.64504 1.265266,-0.52099 2.108777,-1.14122 0.86832,-0.62023 0.86832,-1.01718 z"
         style="fill:#3c2813;fill-opacity:0.917647;stroke-width:0.26458332"
         id="path1919"
         inkscape:connector-curvature="0" />
      <path
         d="m 84.793047,262.64641 q 0,0.29771 -0.248092,0.49618 -0.248091,0.22329 -0.595419,0.22329 -0.248092,0 -0.421756,-0.12405 -0.173664,-0.0992 -0.173664,-0.29771 0,-1.01717 0.148855,-3.15076 0.148855,-2.28244 0.148855,-3.7958 0,-1.46374 -0.09924,-2.38167 -0.07443,-0.94275 -0.396947,-0.94275 -0.84351,0 -1.860685,2.10877 -0.992366,2.08397 -2.282441,5.50763 l -0.372137,0.99237 q -0.09924,0.24809 -0.347328,0.39695 -0.223282,0.14885 -0.471374,0.14885 -0.297709,0 -0.396946,-0.0496 -0.09924,-0.0496 -0.124045,-0.29771 l -0.198474,-2.03435 -0.372137,-3.57251 q -0.173664,-2.13359 -0.421755,-3.72137 -0.07443,-0.37214 -0.07443,-0.57061 0,-0.37214 0.322518,-0.59542 0.322519,-0.2481 0.744275,-0.2481 0.248091,0 0.347327,1.19084 0.124046,1.19084 0.248092,3.84542 l 0.09924,1.31488 q 0.198474,2.50573 0.223283,3.17557 0.07443,-0.14885 0.124045,-0.32251 0.07443,-0.19848 0.173664,-0.42176 1.339694,-3.47328 2.505723,-5.78053 1.190839,-2.33206 2.282441,-2.33206 0.769084,0 1.041984,1.31489 0.29771,1.29007 0.372137,3.32442 0.07443,2.25763 0.07443,6.59923 z"
         style="fill:#3c2813;fill-opacity:0.917647;stroke-width:0.26458332"
         id="path1921"
         inkscape:connector-curvature="0" />
      <path
         d="m 98.709423,252.20176 q 0,0.42176 -0.372137,0.64504 -0.347328,0.22328 -1.290075,0.34733 -2.282441,0.39695 -2.555341,0.44656 l -1.612594,0.2729 q 0,1.29008 0.02481,2.7042 0.04962,1.41412 0.124046,2.48091 0.09924,1.43893 0.347327,2.20802 0.248092,0.76908 0.272901,0.86832 0,0.24809 -0.322519,0.44656 -0.297709,0.22328 -0.57061,0.22328 -0.148855,0 -0.248091,-0.0992 -0.09924,-0.0744 -0.173664,-0.2729 -0.148855,-0.34733 -0.29771,-1.29008 -0.124046,-0.94274 -0.198473,-2.08397 -0.07443,-1.01717 -0.124046,-2.35686 -0.02481,-1.36451 -0.02481,-2.62977 -1.389312,0.22328 -2.853051,0.5458 -1.314884,0.2729 -1.562976,0.2729 -0.297709,0 -0.57061,-0.17366 -0.248091,-0.17367 -0.248091,-0.47138 0,-0.32252 0.223282,-0.42175 0.223282,-0.0992 0.744274,-0.0992 0.372137,0 1.091602,-0.12405 0.719465,-0.14885 0.917938,-0.19847 1.662213,-0.32252 2.257632,-0.42175 0,-0.521 -0.04962,-1.36451 -0.04962,-1.14122 -0.04962,-1.73664 0,-0.96755 0.04962,-1.48855 0.07443,-0.5458 0.248091,-0.96755 0.198473,-0.49618 0.744274,-0.49618 0.223283,0 0.29771,0.0744 0.07443,0.0744 0.07443,0.2729 0,0.14886 -0.124045,0.86832 -0.124046,0.71947 -0.124046,1.91031 0,0.91794 0.04962,2.05916 l 0.02481,0.66984 q 1.116412,-0.17366 4.416027,-0.91794 0.198473,-0.0496 0.322519,-0.34732 0.148855,-0.29771 0.29771,-0.29771 0.2729,0 0.545801,0.32252 0.297709,0.29771 0.297709,0.62022 z"
         style="fill:#3c2813;fill-opacity:0.917647;stroke-width:0.26458332"
         id="path1923"
         inkscape:connector-curvature="0" />
      <path
         d="m 108.58695,257.33726 q 0,0.96755 -0.71946,2.23282 -0.71947,1.26526 -2.03435,2.1832 -1.31489,0.89313 -3.00191,0.89313 -1.66221,0 -2.4561,-0.91794 -0.793897,-0.91793 -0.793897,-2.28244 0,-1.19084 0.421757,-2.95228 0.44656,-1.76145 1.24046,-3.15077 0.0496,-0.0992 0.39694,-0.71946 0.37214,-0.64504 0.8187,-0.96756 0.44657,-0.34732 0.94275,-0.34732 0.22328,0 0.39695,0.12404 0.19847,0.0992 0.19847,0.2729 0,0.0496 -0.14885,0.24809 -0.12405,0.17367 -0.19848,0.2729 -0.84351,1.01718 -1.3645,2.00954 -0.69466,1.26527 -1.0916,2.50573 -0.37214,1.24045 -0.37214,2.70419 0,1.95992 2.38168,1.95992 1.11641,0 2.05916,-0.64503 0.96755,-0.64504 1.53816,-1.56298 0.57061,-0.94275 0.57061,-1.71183 0,-0.86832 -0.57061,-1.51336 -0.57061,-0.64503 -1.56297,-1.3645 -0.64504,-0.47137 -0.94275,-0.76908 -0.29771,-0.29771 -0.29771,-0.49619 0,-0.29771 0.42176,-0.47137 0.42175,-0.19847 0.99236,-0.19847 0.32252,0 0.42176,0.0496 0.0992,0.0248 0.0992,0.12404 0,0.0496 -0.0992,0.17367 -0.0744,0.0992 -0.0744,0.17366 0,0.0744 0.49618,0.49618 0.99237,0.8187 1.66221,1.66221 0.66985,0.84352 0.66985,1.98474 z"
         style="fill:#3c2813;fill-opacity:0.917647;stroke-width:0.26458332"
         id="path1925"
         inkscape:connector-curvature="0" />
      <path
         d="m 119.09944,252.0281 q 0,0.22328 -0.32252,0.52099 -0.29771,0.2729 -0.521,0.2729 -0.17366,0 -0.34732,-0.14885 -0.14886,-0.14886 -0.34733,-0.42176 -0.17367,-0.24809 -0.47137,-0.42175 -0.27291,-0.17367 -0.57062,-0.17367 -0.71946,0 -1.93511,1.91031 -1.21565,1.88549 -2.38168,4.76335 0.0248,0.57061 0.0744,1.43893 0.0744,0.86832 0.0992,1.29008 l 0.0744,0.99236 q 0,0.34733 -0.14886,0.59542 -0.14885,0.2729 -0.5458,0.2729 -0.42176,0 -0.5458,-1.11641 -0.12405,-1.14122 -0.14886,-3.29961 -0.0248,-0.54581 -0.0496,-1.56298 0,-1.01717 -0.0496,-2.4313 -0.0744,-2.13358 -0.0744,-3.05152 0,-0.57061 0.69466,-0.57061 0.42175,0 0.49618,0.37214 0.0992,0.34732 0.0992,1.3645 v 3.94465 q 0.74427,-1.9103 1.61259,-3.29961 0.86832,-1.38931 1.68702,-2.10878 0.84351,-0.74427 1.48855,-0.74427 0.5458,0 1.04198,0.24809 0.49619,0.24809 0.7939,0.64504 0.29771,0.37213 0.29771,0.71946 z"
         style="fill:#3c2813;fill-opacity:0.917647;stroke-width:0.26458332"
         id="path1927"
         inkscape:connector-curvature="0" />
    </g>
    <g
       aria-label="&amp;"
       style="font-style:normal;font-variant:normal;font-weight:normal;font-stretch:normal;font-size:24.80913925px;line-height:1.25;font-family:inkfree;-inkscape-font-specification:inkfree;font-variant-ligatures:normal;font-variant-caps:normal;font-variant-numeric:normal;font-feature-settings:normal;text-align:start;letter-spacing:0px;word-spacing:0px;writing-mode:lr-tb;text-anchor:start;fill:#3c2813;fill-opacity:0.917647;stroke:none;stroke-width:0.26458332"
       id="text1705"
       transform="translate(-212.46042,-123.03125)">
      <path
         d="m 147.24215,256.38149 q 0,0.74428 -0.32252,1.91031 -0.29771,1.16603 -1.14122,2.13358 -0.8187,0.94275 -2.23282,0.94275 -1.6374,0 -3.27481,-0.8187 -2.05916,2.10878 -5.08587,2.10878 -1.9103,0 -3.05152,-0.99237 -1.11642,-0.99237 -1.11642,-2.7042 0,-1.3645 0.84352,-2.35686 0.86831,-1.01718 1.9103,-1.58779 1.06679,-0.59542 2.35687,-1.14122 0.0744,-1.46374 0.74427,-3.00191 0.66985,-1.56297 1.68702,-2.58015 1.04199,-1.01717 2.1584,-1.01717 0.71946,0 1.14122,0.39695 0.42175,0.39694 0.42175,1.11641 0,1.41412 -1.51335,2.92748 -1.48855,1.51335 -3.47328,2.60495 0.0248,1.48855 0.8187,2.77863 0.8187,1.26526 2.08397,2.05916 0.47137,-0.52099 0.86832,-1.24046 0.34732,-0.66985 0.64503,-1.38931 0.29771,-0.74428 0.37214,-1.06679 0.0248,-0.14886 0.0744,-0.37214 0.0496,-0.24809 0.0992,-0.37214 0.0744,-0.12404 0.17367,-0.12404 0.14885,0 0.2729,0.24809 0.12404,0.22328 0.12404,0.42175 0,0.5458 -0.37213,1.66221 -0.37214,1.09161 -0.8187,1.8855 -0.32252,0.57061 -0.54581,0.89313 1.3397,0.5458 2.53054,0.5458 1.33969,0 2.00954,-1.04198 0.69465,-1.0668 1.04198,-2.53054 0.0744,-0.24809 0.12405,-0.39694 0.0744,-0.17367 0.14885,-0.17367 0.0992,0 0.19847,0.0992 0.0992,0.0744 0.0992,0.17366 z m -5.90457,-7.54198 q 0,-0.2729 -0.14886,-0.44656 -0.14885,-0.19847 -0.47137,-0.19847 -0.8187,0 -1.63741,0.94274 -0.79389,0.91794 -1.31488,2.18321 -0.52099,1.24046 -0.52099,2.03435 1.38931,-0.79389 2.729,-2.13359 1.36451,-1.3645 1.36451,-2.38168 z m -2.03435,11.13931 q -1.26527,-0.89313 -2.13359,-2.20801 -0.86832,-1.31489 -1.01717,-2.82825 -0.0744,0.0248 -1.01718,0.42176 -0.94275,0.37214 -1.78626,1.3645 -0.84351,0.96756 -0.84351,2.18321 0,1.14122 0.69466,1.81106 0.71946,0.66985 2.1832,0.66985 1.24046,0 2.1584,-0.37214 0.94275,-0.39694 1.76145,-1.04198 z"
         style="fill:#3c2813;fill-opacity:0.917647;stroke-width:0.26458332"
         id="path1930"
         inkscape:connector-curvature="0" />
    </g>
    <g
       aria-label="Volunteer"
       style="font-style:normal;font-variant:normal;font-weight:normal;font-stretch:normal;font-size:24.80913925px;line-height:1.25;font-family:inkfree;-inkscape-font-specification:inkfree;font-variant-ligatures:normal;font-variant-caps:normal;font-variant-numeric:normal;font-feature-settings:normal;text-align:start;letter-spacing:0px;word-spacing:0px;writing-mode:lr-tb;text-anchor:start;fill:#3c2813;fill-opacity:0.917647;stroke:none;stroke-width:0.26458332"
       id="text1709"
       transform="translate(-101.07085,-148.21838)">
      <path
         d="m 61.498207,272.00528 q 0,0.0744 -0.396946,0.42176 -0.396946,0.34733 -0.694656,0.96755 -0.322519,0.66985 -0.669847,1.78626 -0.322518,1.11641 -0.942747,3.34924 l -0.694656,2.55534 q -1.265266,4.58969 -1.562976,6.47518 -0.07443,0.42176 -0.396946,0.69466 -0.322519,0.29771 -0.967556,0.29771 -0.148855,0 -1.066793,-2.08397 -0.893129,-2.10878 -2.356868,-5.60687 -0.893129,-2.08396 -1.811068,-3.87022 -0.917938,-1.81107 -1.240457,-2.08397 -0.421755,-0.32252 -0.421755,-0.69465 0,-0.17367 0.322519,-0.47138 0.347328,-0.29771 0.694656,-0.29771 0.223282,0 0.322519,0.0992 0.09924,0.0744 0.2729,0.32252 0.322519,0.47137 1.066793,2.05916 0.744274,1.56297 1.513358,3.42366 l 2.034349,4.93702 q 0.967556,2.28244 1.116411,2.67938 0.04962,-0.47137 0.446565,-2.23282 0.421755,-1.76145 0.992365,-3.96946 0.843511,-3.20038 1.364503,-5.03626 0.545801,-1.86068 1.017175,-2.95228 0.421755,-0.96756 0.719465,-1.31489 0.297709,-0.34733 0.669847,-0.34733 0.124045,0 0.396946,0.39695 0.2729,0.37214 0.2729,0.49618 z"
         style="fill:#3c2813;fill-opacity:0.917647;stroke-width:0.26458332"
         id="path1933"
         inkscape:connector-curvature="0" />
      <path
         d="m 71.640881,282.02817 q 0,0.96756 -0.719465,2.23283 -0.719465,1.26526 -2.034349,2.1832 -1.314885,0.89313 -3.001906,0.89313 -1.662212,0 -2.456105,-0.91794 -0.793892,-0.91794 -0.793892,-2.28244 0,-1.19084 0.421755,-2.95229 0.446565,-1.76145 1.240457,-3.15076 0.04962,-0.0992 0.396946,-0.71946 0.372137,-0.64504 0.818702,-0.96756 0.446564,-0.34733 0.942747,-0.34733 0.223282,0 0.396946,0.12405 0.198473,0.0992 0.198473,0.2729 0,0.0496 -0.148854,0.24809 -0.124046,0.17366 -0.198473,0.2729 -0.843511,1.01718 -1.364503,2.00954 -0.694656,1.26527 -1.091602,2.50572 -0.372137,1.24046 -0.372137,2.7042 0,1.95992 2.381677,1.95992 1.116411,0 2.059159,-0.64503 0.967556,-0.64504 1.538166,-1.56298 0.57061,-0.94275 0.57061,-1.71183 0,-0.86832 -0.57061,-1.51336 -0.57061,-0.64504 -1.562976,-1.3645 -0.645037,-0.47138 -0.942747,-0.76908 -0.29771,-0.29771 -0.29771,-0.49619 0,-0.29771 0.421756,-0.47137 0.421755,-0.19847 0.992365,-0.19847 0.322519,0 0.421756,0.0496 0.09924,0.0248 0.09924,0.12405 0,0.0496 -0.09924,0.17366 -0.07443,0.0992 -0.07443,0.17367 0,0.0744 0.496183,0.49618 0.992366,0.8187 1.662212,1.66221 0.669847,0.84351 0.669847,1.98473 z"
         style="fill:#3c2813;fill-opacity:0.917647;stroke-width:0.26458332"
         id="path1935"
         inkscape:connector-curvature="0" />
      <path
         d="m 76.050319,286.49382 q 0,0.24809 -0.322518,0.39695 -0.322519,0.14885 -0.719465,0.14885 -0.29771,0 -0.570611,-0.69466 -0.248091,-0.71946 -0.248091,-2.15839 0.02481,-2.80343 0.07443,-6.7729 0.07443,-3.96946 0.124046,-5.979 0.02481,-0.71946 0.248091,-1.33969 0.248092,-0.62023 0.843511,-0.62023 0.198473,0 0.248092,0.22328 0.07443,0.19847 0.07443,0.79389 0,0.0248 -0.02481,0.17367 0,0.12404 0,0.47137 -0.446565,6.52481 -0.446565,12.72709 0,0.79389 0.347328,1.68702 0.372137,0.89313 0.372137,0.94275 z"
         style="fill:#3c2813;fill-opacity:0.917647;stroke-width:0.26458332"
         id="path1937"
         inkscape:connector-curvature="0" />
      <path
         d="m 88.931688,286.74191 q 0,0.39695 -0.223282,0.62023 -0.223283,0.22328 -0.620229,0.22328 -0.496183,0 -0.917938,-1.04198 -0.396946,-1.04199 -0.496183,-2.1584 -0.09924,-1.06679 -0.148855,-4.31679 -0.02481,-0.52099 -0.02481,-1.04198 0,-0.5458 -0.02481,-0.91794 -0.719465,1.71183 -1.959922,3.89503 -1.240457,2.18321 -2.505723,3.74618 -1.240457,1.56298 -2.03435,1.56298 -0.818701,0 -1.091602,-0.86832 -0.248091,-0.86832 -0.248091,-2.75381 0,-1.76145 0.446564,-3.99428 0.471374,-2.23282 1.066793,-3.39885 0.248092,-0.52099 0.421756,-0.69465 0.173664,-0.19848 0.396946,-0.19848 0.620229,0 0.620229,0.2481 0,0.12404 -0.248092,0.57061 -0.669847,1.24045 -1.166029,2.97709 -0.496183,1.73664 -0.496183,4.66412 0,1.95992 0.545801,1.95992 0.645038,0 1.73664,-1.41412 1.116411,-1.43893 2.208013,-3.42366 1.091602,-1.98473 1.662212,-3.44847 0.198473,-0.49618 0.446565,-1.53817 0.07443,-0.42175 0.148855,-0.59542 0.07443,-0.19847 0.173664,-0.19847 0.2729,0 0.595419,0.22328 0.322519,0.22329 0.322519,0.47138 0,1.19084 0.07443,4.0935 0.09924,2.87786 0.223282,3.99428 0.09924,0.96755 0.347328,1.51335 0.272901,0.5458 0.520992,0.86832 0.248092,0.29771 0.248091,0.37214 z"
         style="fill:#3c2813;fill-opacity:0.917647;stroke-width:0.26458332"
         id="path1939"
         inkscape:connector-curvature="0" />
      <path
         d="m 99.451929,287.33733 q 0,0.29771 -0.248092,0.49618 -0.248091,0.22328 -0.595419,0.22328 -0.248091,0 -0.421755,-0.12404 -0.173664,-0.0992 -0.173664,-0.29771 0,-1.01718 0.148854,-3.15076 0.148855,-2.28244 0.148855,-3.7958 0,-1.46374 -0.09924,-2.38168 -0.07443,-0.94274 -0.396946,-0.94274 -0.843511,0 -1.860686,2.10877 -0.992366,2.08397 -2.282441,5.50763 l -0.372137,0.99237 q -0.09924,0.24809 -0.347328,0.39694 -0.223282,0.14886 -0.471373,0.14886 -0.29771,0 -0.396947,-0.0496 -0.09924,-0.0496 -0.124045,-0.29771 l -0.198473,-2.03435 -0.372138,-3.57252 q -0.173664,-2.13358 -0.421755,-3.72137 -0.07443,-0.37213 -0.07443,-0.57061 0,-0.37213 0.322518,-0.59542 0.322519,-0.24809 0.744275,-0.24809 0.248091,0 0.347328,1.19084 0.124045,1.19084 0.248091,3.84542 l 0.09924,1.31488 q 0.198473,2.50573 0.223282,3.17557 0.07443,-0.14885 0.124045,-0.32252 0.07443,-0.19847 0.173664,-0.42175 1.339694,-3.47328 2.505724,-5.78053 1.190838,-2.33206 2.28244,-2.33206 0.769084,0 1.041984,1.31488 0.29771,1.29008 0.372137,3.32443 0.07443,2.25763 0.07443,6.59923 z"
         style="fill:#3c2813;fill-opacity:0.917647;stroke-width:0.26458332"
         id="path1941"
         inkscape:connector-curvature="0" />
      <path
         d="m 113.36831,276.89268 q 0,0.42176 -0.37214,0.64504 -0.34733,0.22328 -1.29008,0.34733 -2.28244,0.39694 -2.55534,0.44656 l -1.61259,0.2729 q 0,1.29008 0.0248,2.7042 0.0496,1.41412 0.12404,2.48091 0.0992,1.43893 0.34733,2.20802 0.24809,0.76908 0.2729,0.86832 0,0.24809 -0.32252,0.44656 -0.29771,0.22328 -0.57061,0.22328 -0.14885,0 -0.24809,-0.0992 -0.0992,-0.0744 -0.17366,-0.2729 -0.14886,-0.34733 -0.29771,-1.29008 -0.12405,-0.94275 -0.19848,-2.08397 -0.0744,-1.01717 -0.12404,-2.35687 -0.0248,-1.3645 -0.0248,-2.62976 -1.38931,0.22328 -2.85305,0.5458 -1.31489,0.2729 -1.56298,0.2729 -0.29771,0 -0.57061,-0.17367 -0.24809,-0.17366 -0.24809,-0.47137 0,-0.32252 0.22328,-0.42176 0.22329,-0.0992 0.74428,-0.0992 0.37213,0 1.0916,-0.12405 0.71946,-0.14885 0.91794,-0.19847 1.66221,-0.32252 2.25763,-0.42176 0,-0.52099 -0.0496,-1.3645 -0.0496,-1.14122 -0.0496,-1.73664 0,-0.96756 0.0496,-1.48855 0.0744,-0.5458 0.24809,-0.96755 0.19848,-0.49619 0.74428,-0.49619 0.22328,0 0.29771,0.0744 0.0744,0.0744 0.0744,0.2729 0,0.14886 -0.12404,0.86832 -0.12405,0.71947 -0.12405,1.91031 0,0.91793 0.0496,2.05915 l 0.0248,0.66985 q 1.11641,-0.17366 4.41603,-0.91794 0.19847,-0.0496 0.32252,-0.34733 0.14885,-0.29771 0.2977,-0.29771 0.27291,0 0.54581,0.32252 0.29771,0.29771 0.29771,0.62023 z"
         style="fill:#3c2813;fill-opacity:0.917647;stroke-width:0.26458332"
         id="path1943"
         inkscape:connector-curvature="0" />
      <path
         d="m 124.01491,280.83734 q 0.17367,0 0.17367,0.37213 0,0.44657 -0.66985,1.95992 -0.64504,1.51336 -1.98473,2.80344 -1.31489,1.29007 -3.25,1.29007 -1.58778,0 -2.65458,-0.99236 -1.06679,-0.99237 -1.06679,-3.05153 0,-1.93511 0.89313,-3.8206 0.89313,-1.91031 2.33206,-3.10115 1.43893,-1.21565 2.9771,-1.21565 0.91793,0 1.53816,0.42176 0.64504,0.39695 0.64504,1.16603 0,0.86832 -0.99237,1.68702 -0.96755,0.8187 -2.53053,1.43893 -1.56297,0.62023 -3.22519,0.89313 -0.29771,1.14122 -0.29771,2.23282 0,1.43893 0.66985,2.23283 0.69466,0.79389 1.95992,0.79389 1.91031,0 3.10115,-1.3645 1.19083,-1.36451 1.98473,-3.07634 0.0496,-0.0992 0.17366,-0.37214 0.12405,-0.2977 0.22328,-0.2977 z m -2.1832,-3.89504 q 0,-0.39695 -0.42176,-0.62023 -0.39694,-0.22328 -0.94274,-0.22328 -0.94275,0 -1.81107,0.62023 -0.86832,0.62023 -1.46374,1.48855 -0.57061,0.86832 -0.74427,1.53816 1.14122,-0.12404 2.40648,-0.64503 1.26527,-0.521 2.10878,-1.14122 0.86832,-0.62023 0.86832,-1.01718 z"
         style="fill:#3c2813;fill-opacity:0.917647;stroke-width:0.26458332"
         id="path1945"
         inkscape:connector-curvature="0" />
      <path
         d="m 135.54728,280.83734 q 0.17367,0 0.17367,0.37213 0,0.44657 -0.66985,1.95992 -0.64504,1.51336 -1.98473,2.80344 -1.31488,1.29007 -3.25,1.29007 -1.58778,0 -2.65457,-0.99236 -1.0668,-0.99237 -1.0668,-3.05153 0,-1.93511 0.89313,-3.8206 0.89313,-1.91031 2.33206,-3.10115 1.43893,-1.21565 2.9771,-1.21565 0.91794,0 1.53816,0.42176 0.64504,0.39695 0.64504,1.16603 0,0.86832 -0.99236,1.68702 -0.96756,0.8187 -2.53054,1.43893 -1.56297,0.62023 -3.22518,0.89313 -0.29771,1.14122 -0.29771,2.23282 0,1.43893 0.66984,2.23283 0.69466,0.79389 1.95992,0.79389 1.91031,0 3.10115,-1.3645 1.19084,-1.36451 1.98473,-3.07634 0.0496,-0.0992 0.17366,-0.37214 0.12405,-0.2977 0.22328,-0.2977 z m -2.1832,-3.89504 q 0,-0.39695 -0.42176,-0.62023 -0.39694,-0.22328 -0.94274,-0.22328 -0.94275,0 -1.81107,0.62023 -0.86832,0.62023 -1.46374,1.48855 -0.57061,0.86832 -0.74427,1.53816 1.14122,-0.12404 2.40648,-0.64503 1.26527,-0.521 2.10878,-1.14122 0.86832,-0.62023 0.86832,-1.01718 z"
         style="fill:#3c2813;fill-opacity:0.917647;stroke-width:0.26458332"
         id="path1947"
         inkscape:connector-curvature="0" />
      <path
         d="m 146.21134,276.71902 q 0,0.22328 -0.32252,0.52099 -0.29771,0.2729 -0.52099,0.2729 -0.17366,0 -0.34733,-0.14885 -0.14885,-0.14886 -0.34732,-0.42176 -0.17367,-0.24809 -0.47138,-0.42175 -0.2729,-0.17367 -0.57061,-0.17367 -0.71946,0 -1.93511,1.9103 -1.21565,1.8855 -2.38168,4.76336 0.0248,0.57061 0.0744,1.43893 0.0744,0.86832 0.0992,1.29007 l 0.0744,0.99237 q 0,0.34733 -0.14885,0.59542 -0.14886,0.2729 -0.5458,0.2729 -0.42176,0 -0.5458,-1.11641 -0.12405,-1.14122 -0.14886,-3.29962 -0.0248,-0.5458 -0.0496,-1.56297 0,-1.01718 -0.0496,-2.4313 -0.0744,-2.13358 -0.0744,-3.05152 0,-0.57061 0.69465,-0.57061 0.42176,0 0.49619,0.37213 0.0992,0.34733 0.0992,1.36451 v 3.94465 q 0.74428,-1.9103 1.6126,-3.29961 0.86832,-1.38932 1.68702,-2.10878 0.84351,-0.74428 1.48855,-0.74428 0.5458,0 1.04198,0.2481 0.49618,0.24809 0.79389,0.64503 0.29771,0.37214 0.29771,0.71947 z"
         style="fill:#3c2813;fill-opacity:0.917647;stroke-width:0.26458332"
         id="path1949"
         inkscape:connector-curvature="0" />
    </g>
    <path
       style="display:inline;fill:none;stroke:#5f4512;stroke-width:0.61434042;stroke-linecap:butt;stroke-linejoin:miter;stroke-miterlimit:4;stroke-dasharray:none;stroke-opacity:1"
       d="m -171.34842,111.16715 56.95603,-0.64086"
       id="path906-3"
       inkscape:connector-curvature="0" />
    <path
       inkscape:connector-curvature="0"
       id="path908-5"
       d="m 51.614728,146.74067 31.18042,-0.72842"
       style="display:inline;fill:none;stroke:#5f4512;stroke-width:0.60000002;stroke-linecap:butt;stroke-linejoin:miter;stroke-miterlimit:4;stroke-dasharray:none;stroke-opacity:1" />
    <path
       inkscape:connector-curvature="0"
       id="path920-5"
       d="m -209.60915,116.39702 34.81652,1.75059"
       style="display:inline;fill:none;stroke:#5f4512;stroke-width:0.60000002;stroke-linecap:butt;stroke-linejoin:miter;stroke-miterlimit:4;stroke-dasharray:none;stroke-opacity:1" />
    <path
       inkscape:connector-curvature="0"
       id="path908-5-9"
       d="m 55.092118,152.52374 31.18042,-0.72842"
       style="display:inline;fill:none;stroke:#5f4512;stroke-width:0.60000002;stroke-linecap:butt;stroke-linejoin:miter;stroke-miterlimit:4;stroke-dasharray:none;stroke-opacity:1" />
    <path
       style="display:inline;fill:none;stroke:#5f4512;stroke-width:0.60000002;stroke-linecap:butt;stroke-linejoin:miter;stroke-miterlimit:4;stroke-dasharray:none;stroke-opacity:1"
       d="m -159.12406,154.70235 79.178168,-0.0208"
       id="path916-7"
       inkscape:connector-curvature="0" />
    <path
       style="display:inline;fill:none;stroke:#5f4512;stroke-width:0.61434042;stroke-linecap:butt;stroke-linejoin:miter;stroke-miterlimit:4;stroke-dasharray:none;stroke-opacity:1"
       d="m -71.630412,153.16965 56.95603,-0.64086"
       id="path906-3-8"
       inkscape:connector-curvature="0" />
    <path
       style="display:inline;fill:none;stroke:#5f4512;stroke-width:0.60000002;stroke-linecap:butt;stroke-linejoin:miter;stroke-miterlimit:4;stroke-dasharray:none;stroke-opacity:1"
       d="m -109.89265,111.42409 79.178158,-0.0208"
       id="path916-7-6"
       inkscape:connector-curvature="0" />
    <path
       style="display:inline;fill:none;stroke:#5f4512;stroke-width:0.61434042;stroke-linecap:butt;stroke-linejoin:miter;stroke-miterlimit:4;stroke-dasharray:none;stroke-opacity:1"
       d="M -7.3114018,153.68947 49.644628,153.04861"
       id="path906-3-8-3"
       inkscape:connector-curvature="0" />
    <path
       style="display:inline;fill:none;stroke:#5f4512;stroke-width:0.61434042;stroke-linecap:butt;stroke-linejoin:miter;stroke-miterlimit:4;stroke-dasharray:none;stroke-opacity:1"
       d="m -24.244702,110.22222 56.95602,-0.64086"
       id="path906-3-7"
       inkscape:connector-curvature="0" />
    <path
       style="display:inline;fill:none;stroke:#5f4512;stroke-width:0.60000002;stroke-linecap:butt;stroke-linejoin:miter;stroke-miterlimit:4;stroke-dasharray:none;stroke-opacity:1"
       d="m -171.1248,150.73361 79.178178,-0.0208"
       id="path916-7-66"
       inkscape:connector-curvature="0" />
    <path
       style="display:inline;fill:none;stroke:#5f4512;stroke-width:0.60000002;stroke-linecap:butt;stroke-linejoin:miter;stroke-miterlimit:4;stroke-dasharray:none;stroke-opacity:1"
       d="m -53.196222,115.20385 79.17817,-0.0208"
       id="path916-7-66-7"
       inkscape:connector-curvature="0" />
    <path
       style="display:inline;fill:none;stroke:#5f4512;stroke-width:0.61434042;stroke-linecap:butt;stroke-linejoin:miter;stroke-miterlimit:4;stroke-dasharray:none;stroke-opacity:1"
       d="m -127.1298,120.0496 56.956028,-0.64086"
       id="path906-3-8-4"
       inkscape:connector-curvature="0" />
    <path
       style="display:inline;fill:none;stroke:#5f4512;stroke-width:0.61434042;stroke-linecap:butt;stroke-linejoin:miter;stroke-miterlimit:4;stroke-dasharray:none;stroke-opacity:1"
       d="m -163.79349,117.02578 56.95603,-0.64086"
       id="path906-3-8-4-9"
       inkscape:connector-curvature="0" />
    <path
       style="display:inline;fill:none;stroke:#5f4512;stroke-width:0.60000002;stroke-linecap:butt;stroke-linejoin:miter;stroke-miterlimit:4;stroke-dasharray:none;stroke-opacity:1"
       d="m -120.09802,145.06397 79.178178,-0.0208"
       id="path916-7-8"
       inkscape:connector-curvature="0" />
    <path
       style="display:inline;fill:none;stroke:#5f4512;stroke-width:0.60000002;stroke-linecap:butt;stroke-linejoin:miter;stroke-miterlimit:4;stroke-dasharray:none;stroke-opacity:1"
       d="m -58.487902,148.84372 79.17818,-0.0208"
       id="path916-7-8-0"
       inkscape:connector-curvature="0" />
    <path
       inkscape:connector-curvature="0"
       id="path908-5-6"
       d="m 13.891928,146.17373 31.18042,-0.72842"
       style="display:inline;fill:none;stroke:#5f4512;stroke-width:0.60000002;stroke-linecap:butt;stroke-linejoin:miter;stroke-miterlimit:4;stroke-dasharray:none;stroke-opacity:1" />
    <path
       inkscape:connector-curvature="0"
       id="path908-5-6-8"
       d="M 13.513948,119.33742 44.694378,118.609"
       style="display:inline;fill:none;stroke:#5f4512;stroke-width:0.60000002;stroke-linecap:butt;stroke-linejoin:miter;stroke-miterlimit:4;stroke-dasharray:none;stroke-opacity:1" />
  </g>
</svg>
