<svg xmlns="http://www.w3.org/2000/svg" viewBox="0 0 619.55 152.22"><defs><style>.cls-1,.cls-4{fill:#00aeef;}.cls-2,.cls-3{fill:#8dc63f;}.cls-3,.cls-4{fill-rule:evenodd;}</style></defs><title>Asset 2</title><g id="Layer_2" data-name="Layer 2"><g id="Layer_1-2" data-name="Layer 1"><path class="cls-1" d="M13.78,95.27a1.44,1.44,0,0,1-1.49,1.25h-11c-.66,0-1.33-.42-1.24-1.08L7.23,36.68a1.43,1.43,0,0,1,1.41-1.16L20,34.11a1,1,0,0,1,1.16,1.16Z"/><path class="cls-1" d="M71,67.47l-3.48,27.8a1.37,1.37,0,0,1-1.41,1.25H55.94c-.74,0-1.33-.42-1.24-1.25l3.4-27a26.73,26.73,0,0,0,.25-3.49,4.42,4.42,0,0,0-.83-3c-.83-1-2.16-1.41-4.15-1.41a40.51,40.51,0,0,0-8.55,1.08L40.67,95.27a1.39,1.39,0,0,1-1.49,1.25H29.05c-.74,0-1.33-.42-1.24-1.25l4.48-36.18c.41-3.16,2.57-4.15,7.55-5.31A80.66,80.66,0,0,1,56,51.87c6,0,10.37.83,12.86,3.32a9.27,9.27,0,0,1,2.49,6.89A43.66,43.66,0,0,1,71,67.47Z"/><path class="cls-1" d="M123.33,95.27a1.39,1.39,0,0,1-1.49,1.25h-10a1.1,1.1,0,0,1-1.24-1.25l4.06-33.19H99.51l-4.65,37c-1.49,12-9,14.86-18,14.86a43,43,0,0,1-6-.34c-.75-.08-1.74-.24-1.5-1.74l.75-4.9c.17-1.32.75-1.57,1.91-1.57.91,0,1.83-.08,2.57-.08,4.07,0,6.81-.67,7.55-6.48l4.57-36.76H80.26a1.05,1.05,0,0,1-1.17-1.25l.83-6.64A1.4,1.4,0,0,1,81.42,53h6.39l.33-3.08c1.66-13.19,8.3-15.76,20.67-15.76a45.32,45.32,0,0,1,13.86,2.07c.66.17.91.58.74,1.41l-1.16,5.9c-.16.74-.5,1.24-1.41,1.07a67,67,0,0,0-11.12-1.16c-6.64,0-8,1.08-8.8,7.06L100.59,53H126.9a1.36,1.36,0,0,1,1.41,1.57Z"/><path class="cls-1" d="M179.6,67.47l-3.49,27.8a1.37,1.37,0,0,1-1.41,1.25H164.57a1.1,1.1,0,0,1-1.24-1.25l3.4-27a26.73,26.73,0,0,0,.25-3.49,4.42,4.42,0,0,0-.83-3c-.83-1-2.16-1.41-4.15-1.41a40.61,40.61,0,0,0-8.55,1.08L149.3,95.27a1.39,1.39,0,0,1-1.49,1.25H137.68a1.1,1.1,0,0,1-1.24-1.25l4.48-36.18c.42-3.16,2.57-4.15,7.55-5.31a80.66,80.66,0,0,1,16.19-1.91c6,0,10.37.83,12.86,3.32A9.27,9.27,0,0,1,180,62.08,45.54,45.54,0,0,1,179.6,67.47Z"/><path class="cls-1" d="M201.59,95.27a1.46,1.46,0,0,1-1.5,1.25H190a1.08,1.08,0,0,1-1.17-1.25l4.9-40.08a1.48,1.48,0,0,1,1.58-1.25h10a1,1,0,0,1,1.16,1.25Zm6-49.46c-.16,1.58-1,2.16-2.57,2.16h-8c-1.41,0-2.24-.5-2.07-2.16l1.16-9.55c.16-1.49,1-2.15,2.57-2.15h8c1.33,0,2.08.5,2.08,1.74a5.73,5.73,0,0,1-.09.91Z"/><path class="cls-1" d="M244,60.83a1.37,1.37,0,0,1-1.41,1.25h-11L229.3,79.59a38.31,38.31,0,0,0-.41,4.65,3.51,3.51,0,0,0,1.16,3.07,6.64,6.64,0,0,0,3.65.83,29.43,29.43,0,0,0,5.89-.67,1,1,0,0,1,1.25.91l.41,5.4a1.61,1.61,0,0,1-1.32,1.91,35.15,35.15,0,0,1-10.63,1.49c-4.56,0-8-.75-10.21-2.57s-3.15-4.48-3.15-8.38a45.13,45.13,0,0,1,.58-6.14l4.65-38.18a2,2,0,0,1,1.83-2l9.62-1.66c1.17-.17,1.83.33,1.66,1.41L232.62,53h11a1,1,0,0,1,1.16,1.24Z"/><path class="cls-1" d="M263.08,80.5h-1v1.33c0,2.82,1.08,4.73,3.41,5.89a19.43,19.43,0,0,0,8,1.33,45.92,45.92,0,0,0,11.71-2,1.27,1.27,0,0,1,1.49,1.24l.58,4.82a1.64,1.64,0,0,1-1.08,1.74,48.34,48.34,0,0,1-16.76,2.74c-14.28,0-19.67-6.31-19.67-17.93,0-9.13,3-17.43,6.14-21.33,3.9-4.81,10.54-6.47,17.51-6.47,10.87,0,18.51,2.82,18.51,14.11C291.88,79.67,280.34,80.25,263.08,80.5Zm9.46-20.25c-7.64,0-9.38,6.64-9.71,13.2,9.54-.5,16.93.25,16.93-6.73C279.76,62.16,276.94,60.25,272.54,60.25Z"/><path class="cls-2" d="M358.44,44a1.53,1.53,0,0,1-1.5,1.33h-28.3L326.81,60h27.06A1,1,0,0,1,355,61.25l-.91,7.63a1.45,1.45,0,0,1-1.49,1.25H325.57l-2,16.43h28.3c.75,0,1.24.33,1.16,1.24l-.91,7.47a1.39,1.39,0,0,1-1.5,1.25H310.05a1.16,1.16,0,0,1-1.24-1.33L316,36.51a1.6,1.6,0,0,1,1.57-1.32h40.59a1.07,1.07,0,0,1,1.16,1.24Z"/><path class="cls-2" d="M407.07,67.47l-3.49,27.8a1.37,1.37,0,0,1-1.41,1.25H392a1.1,1.1,0,0,1-1.24-1.25l3.4-27a26.73,26.73,0,0,0,.25-3.49,4.42,4.42,0,0,0-.83-3c-.83-1-2.16-1.41-4.15-1.41a40.51,40.51,0,0,0-8.55,1.08l-4.15,33.77a1.39,1.39,0,0,1-1.49,1.25H365.15a1.1,1.1,0,0,1-1.24-1.25l4.48-36.18c.42-3.16,2.58-4.15,7.55-5.31a80.66,80.66,0,0,1,16.19-1.91c6,0,10.37.83,12.86,3.32a9.27,9.27,0,0,1,2.49,6.89A43.52,43.52,0,0,1,407.07,67.47Z"/><path class="cls-2" d="M428.81,80.5h-1v1.33c0,2.82,1.08,4.73,3.4,5.89a19.48,19.48,0,0,0,8,1.33,45.91,45.91,0,0,0,11.7-2,1.28,1.28,0,0,1,1.5,1.24l.58,4.82a1.64,1.64,0,0,1-1.08,1.74,48.4,48.4,0,0,1-16.77,2.74c-14.27,0-19.66-6.31-19.66-17.93,0-9.13,3-17.43,6.14-21.33,3.9-4.81,10.54-6.47,17.51-6.47,10.87,0,18.51,2.82,18.51,14.11C457.61,79.67,446.07,80.25,428.81,80.5Zm9.46-20.25c-7.64,0-9.38,6.64-9.71,13.2,9.54-.5,16.93.25,16.93-6.73C445.49,62.16,442.67,60.25,438.27,60.25Z"/><path class="cls-2" d="M493.21,59.75c-.09.92-.25,1.66-1.66,1.66a60.79,60.79,0,0,0-10.71.91l-4,32.95a1.41,1.41,0,0,1-1.5,1.25H465.24A1.18,1.18,0,0,1,464,95.27L468.48,59c.32-2.41,1.66-3.32,4.31-4.32,5.06-1.74,12.62-2.57,18.34-2.74H492c1.16,0,2.16.25,2,1.74Z"/><path class="cls-2" d="M544.74,59.09c0,.41-.16.66-.74,1.08a11.13,11.13,0,0,1-6.06,1.74,14.81,14.81,0,0,1-3.41-.5A8.84,8.84,0,0,1,537.11,68,13.72,13.72,0,0,1,533,77.51c-3.65,3.49-9.29,4.82-15.68,4.82h-5a4,4,0,0,0-3.56,1.49,3.88,3.88,0,0,0-.67,2.41,2.09,2.09,0,0,0,1.17,2.15c.91.5,2.49.59,4.64.59h7.89c4.31,0,8.8.58,11.53,3.07C535,93.53,536,95.77,536,98.93a14.55,14.55,0,0,1-4.32,10.45c-4.15,4.07-11,5.73-19.17,5.73-7.39,0-12.86-.67-16.27-2.41a7.14,7.14,0,0,1-4.07-6.8,10.85,10.85,0,0,1,1.5-5.48c2.16-3.65,6.39-4,8.8-4.57l.16-1.32c-1.91-.42-3.73-.67-5.06-1.5-1.16-.74-1.83-2-1.83-4.31a8.13,8.13,0,0,1,1.5-5.07c1.82-2.32,5.06-2.9,8.8-3.48A11.6,11.6,0,0,1,500.18,77c-1.41-1.49-2.41-3.73-2.41-7.22a18.38,18.38,0,0,1,4.48-12.28c3.74-4.07,9.71-5.64,17.35-5.64a31.82,31.82,0,0,1,10.54,1.57,11.78,11.78,0,0,0,3.15.34,16.68,16.68,0,0,0,4.07-.5,28.61,28.61,0,0,0,4.48-1.83,1.79,1.79,0,0,1,.83-.25c.41,0,.66.25.75.83l1.24,6.56A1.53,1.53,0,0,1,544.74,59.09ZM522.67,99.34c-1.08-1.08-3.16-1.25-5.56-1.25h-5.64c-2.08,0-4.57.34-5.9,2.16a6.13,6.13,0,0,0-.91,3.32,3.52,3.52,0,0,0,2.24,3.4,17.92,17.92,0,0,0,6.8.92c3.66,0,6.73-.58,8.39-2.32a6.13,6.13,0,0,0,1.41-3.91A3,3,0,0,0,522.67,99.34Zm1.41-39c-1.08-1-2.74-1.49-5.15-1.49-3.9,0-6.14,1.33-7.3,3.9a16.83,16.83,0,0,0-1.33,6.72,5.8,5.8,0,0,0,1.5,4.32c1.07,1,2.65,1.57,5.14,1.57,3.82,0,6.06-1.32,7.3-3.73a16.93,16.93,0,0,0,1.33-6.72C525.57,62.82,525.16,61.33,524.08,60.33Z"/><path class="cls-2" d="M573.71,101.25C570.55,109,567,114,556,114a48.39,48.39,0,0,1-8.39-.58,1.23,1.23,0,0,1-1.07-1.58l.74-5.15c.17-1.16.5-1.66,1.83-1.66s3.07.17,4.81.17c4.32,0,6.56-1.33,7.89-4.81l1.49-3.82h-6.22a1.31,1.31,0,0,1-1.33-1.33L549.14,55A1.71,1.71,0,0,1,550.88,53h9.63c1,0,1.58.25,1.66,1.41l3.73,34.19h2.24l11.21-34.11A2,2,0,0,1,581.51,53h9.71a1.29,1.29,0,0,1,1.41,1.32,1.93,1.93,0,0,1-.17.83Z"/><path class="cls-3" d="M280.53,106.5s-63,25.07-101.26,32.16c-31,5.76-62.92,8.13-96.11,4.33-15.84-1.81-25.69-6.2-30.33-12.79-3.89-5.53-1.93-11.2.06-16.88,1-3,3.9-8.88,3.9-8.88l-2,.63s-11.81,15.12-11.77,23c.06,15.58,19.25,24,54.79,24.15a370.74,370.74,0,0,0,73.44-7c43.14-8.41,108.4-36.61,108.4-36.61Z"/><path class="cls-4" d="M382.06,45.72s63-25.06,101.27-32.16c31-5.76,62.92-8.13,96.11-4.33,15.84,1.82,25.7,6.2,30.33,12.79,3.89,5.54,1.93,11.2-.06,16.88-1,3-3.9,8.88-3.9,8.88l2-.63s11.81-15.12,11.77-23C619.49,8.57,600.3.21,564.76,0a370.75,370.75,0,0,0-73.44,7c-43.14,8.42-108.41,36.61-108.41,36.61Z"/><path class="cls-2" d="M587,110.06c-.71,1.35-2.06,2-4.57,2-1.74,0-2.84-.31-3.49-.95a3,3,0,0,1-.74-2.22,8,8,0,0,1,.71-3.43c.72-1.35,2.06-2,4.57-2,1.75,0,2.85.33,3.49,1a3,3,0,0,1,.74,2.22A8,8,0,0,1,587,110.06Zm-.83-5c-.46-.53-1.33-.75-2.8-.75a4.37,4.37,0,0,0-3,.78,3,3,0,0,0-.9,1.7,8.73,8.73,0,0,0-.22,1.84,2.51,2.51,0,0,0,.46,1.74c.46.53,1.33.74,2.81.74a4.38,4.38,0,0,0,3-.78,2.94,2.94,0,0,0,.87-1.7,8.14,8.14,0,0,0,.24-1.84A2.48,2.48,0,0,0,586.18,105.11ZM585,107.3a1.33,1.33,0,0,1-1.06.52l0,.2a1.6,1.6,0,0,1,.69.15.81.81,0,0,1,.33.78c0,.1,0,.22,0,.32l0,.75a.11.11,0,0,1-.12.13h-.94a.1.1,0,0,1-.11-.1l.06-.9c0-.1,0-.22,0-.32a.42.42,0,0,0-.15-.34,1.37,1.37,0,0,0-.75-.17l-.76,0-.21,1.73a.16.16,0,0,1-.15.13h-.91a.12.12,0,0,1-.12-.13l.57-4.56a.16.16,0,0,1,.17-.14h2.23a1.81,1.81,0,0,1,1.23.33,1,1,0,0,1,.29.8A1.78,1.78,0,0,1,585,107.3Zm-1.16-1a1,1,0,0,0-.59-.13h-.88l-.18,1.43.88,0a.89.89,0,0,0,.8-.32,1.08,1.08,0,0,0,.12-.53A.51.51,0,0,0,583.85,106.28Z"/></g></g></svg>