<svg xmlns="http://www.w3.org/2000/svg" viewBox="0 0 1858 457.93"><defs><style>.cls-1{fill:#0093d6;}.cls-2{fill:#2e2982;}</style></defs><title>Asset 1</title><g id="Layer_2" data-name="Layer 2"><g id="Layer_1-2" data-name="Layer 1"><path class="cls-1" d="M40.59,38.43C17.48,38.43,0,57,0,79.58s17.48,40,40.59,40,40.58-17.47,40.58-40S63.7,38.43,40.59,38.43Z"/><rect class="cls-1" x="11.27" y="169.31" width="58.63" height="284.11"/><path class="cls-1" d="M264.24,164.81c-37.76,0-71.58,19.16-91.88,53V169.31H113.74V453.42h58.62v-115c0-78.36,36.08-121.76,72.72-121.76,26.49,0,44,13.53,44,51.86V453.42h58.62V249.92C347.67,194.68,313.85,164.81,264.24,164.81Z"/><path class="cls-1" d="M510.6,90.5a68.32,68.32,0,0,1,33.25,7.9l11.84-49.61C545,43.16,528.07,38.64,508.91,38.64c-57.5,0-95.27,31-95.27,100.34v30.33H377v51.87h36.64V453.42h58.62V221.18h62.57V169.31H472.26V135C472.26,105.73,484.67,90.5,510.6,90.5Z"/><path class="cls-1" d="M688.72,164.81c-87.94,0-139.79,66.51-139.8,146.56s51.86,146.56,139.8,146.56,139.8-66.52,139.8-146.56S776.66,164.81,688.72,164.81Zm0,241.26c-51.29,0-77.79-46.79-77.79-94.7s26.5-94.7,77.79-94.7,77.79,46.78,77.79,94.7S740,406.07,688.72,406.07Z"/><path class="cls-1" d="M1283.32,0c-98.84,0-192.61,7.12-277,19.85V72.43c84.42-12.73,178.19-19.85,277-19.85,99.07,0,193,7.16,277.63,19.94V19.94C1476.37,7.16,1382.39,0,1283.32,0Z"/><path class="cls-2" d="M985.45,406.07c-25.94,0-37.77-14.09-37.77-46.23V221.18h73.84V169.31H947.68V30L889.05,42.7V169.31H841.7v51.87h47.35V356.46c0,69.9,39.46,101.47,93,101.47a101.53,101.53,0,0,0,45.66-10.15l-15.22-49.6C1002.36,404.38,995.59,406.07,985.45,406.07Z"/><path class="cls-2" d="M1172.26,164.81c-93.58,0-132.47,78.91-132.47,146.56s38.89,146.56,132.47,146.56c64.82,0,97-26.5,124.58-80.05l-50.17-19.72c-14.66,31-44,47.91-74.41,47.91-46.23,0-70.46-36.64-70.46-78.35H1303V302.35C1303,238.65,1263,164.81,1172.26,164.81Zm-69.34,113.86c6.2-35.51,30.44-62,69.34-62,42.27,0,63.69,30.44,68.77,62Z"/><path class="cls-2" d="M1465.41,216.67c33.83,0,56.94,18.6,70.47,49l52.42-22.55c-22.55-51.3-62.57-78.35-122.89-78.35-90.19,0-133.59,68.77-133.59,146.56s43.4,146.56,133.59,146.56c60.32,0,100.34-27.06,122.89-78.36L1535.88,357c-13.53,30.44-36.64,49-70.47,49-50.16,0-71.58-41.15-71.58-94.7S1415.25,216.67,1465.41,216.67Z"/><path class="cls-2" d="M1774,164.81c-42.84,0-75.54,23.67-95.83,53V42.7L1619.56,30V453.42h58.62V333.35c0-75.53,44.53-116.68,76.66-116.68,26.5,0,44.53,8.45,44.53,51.86V453.42H1858V253.31C1858,193,1826.43,164.81,1774,164.81Z"/></g></g></svg>