<svg xmlns="http://www.w3.org/2000/svg" viewBox="0 0 346.41 151.49"><defs><style>.cls-1{fill:#7ac143;}.cls-2{fill:#0096d6;}</style></defs><title>Asset 1</title><g id="Layer_2" data-name="Layer 2"><g id="Layer_1-2" data-name="Layer 1"><path d="M.15,95.54V55.33h32v3.2H3.68V73.12H31v3.2H3.68v16H32.45v3.19Z"/><path d="M69,95.54,40.37,60.61V95.54H36.84V55.33h3.93L69.41,90.27V55.33h3.53V95.54Z"/><path d="M79.64,95.54V55.33h32v3.2H83.16v14.6h27.3v3.19H83.16v16h28.78v3.19Z"/><path d="M147.83,95.54l-.15-.13c-1-1.07-1-3.44-1.26-9.47h0c-.08-3.37-.67-5.38-2-6.55h0c-1.37-1.2-3.73-1.7-7.57-1.69h-17V95.54h-3.52V55.33h20.54c3.81,0,7.21.53,9.72,2.19h0c2.52,1.65,4,4.47,4,8.69h0a10.23,10.23,0,0,1-6.7,9.69h0a8.27,8.27,0,0,1,6,8.26h0c.1,7.14.36,9.41,1,10.65h0l.4.73Zm-11.39-21a15.53,15.53,0,0,0,6.29-1.08h0c2.34-1.08,4.33-3.07,4.35-7.37h0c0-6-4.48-7.46-10-7.52H119.85v16Z"/><path class="cls-1" d="M112.22,1h36.21V4.2H132.61v37h-3.52V4.2H113.27V1L96.84,20.78l17,20.44h-4.65L94.48,23.48,79.62,41.22h-4.5L92.18,20.78,75.74,1h4.7l14,17L108.8,1h3.42M42.79,41.22V1h32V4.2H46.32V18.8H73.61V22H46.32V38H75.09v3.2Zm-10.62,0L3.53,6.29V41.22H0V1H3.92L32.57,35.94V1h3.52V41.22Zm.9-4v0Z"/><path class="cls-2" d="M282.54,55a22.23,22.23,0,0,1,1.09,6.27L267.58,80l22.2-16.76,1.08,5.18S274,87.61,269.87,93c0,0,21.53-17.81,33.57-25a31.39,31.39,0,0,0-59,14.92c0,.48,0,1,.07,1.43C251.47,78.34,270.26,62.39,282.54,55Z"/><path class="cls-2" d="M307.21,83.71a31,31,0,0,0-1.33-9c-7.24,3.85-24.45,13.38-36.81,23.34q15.21,2.1,31,5.54A31.25,31.25,0,0,0,307.21,83.71Z"/><path class="cls-2" d="M283.14,72.93S265.41,86.68,263,89l-2.42-4.46s12.19-15.2,16.17-19.18c0,0-21.7,15.44-31.67,24.78a31.28,31.28,0,0,0,1.71,5.52q8,.65,16.22,1.65C263.4,96.81,281,75.67,283.14,72.93Z"/><path d="M176.32,96.42c-6.06,0-11.41-1.91-15.25-5.52h0c-3.84-3.59-6.13-8.87-6.12-15.46h0a21.77,21.77,0,0,1,5.16-14.14h0c3.5-4,8.88-6.85,16.21-6.85h0c9.76,0,17.14,4.87,19.1,13.57h0l.14.61H192l-.09-.39c-1.59-7-7.89-10.57-15.6-10.59h0c-10.94,0-17.83,8.14-17.85,17.79h0c0,9.62,6.08,17.76,17.85,17.79h0c9.49,0,15.56-5.64,16.37-15H177V75h19.31l0,.53a40,40,0,0,1-2.09,10.15h0c-3,7.24-10.17,10.75-17.83,10.75h0"/><path d="M217,94.61h-3V78.74L195.3,55.33h4.79L215.78,75.4l16-20.07h4.47L217.54,78.74V94.62Zm0-.49v0Z"/><path class="cls-1" d="M298.83,105q-16.05-3.48-31.52-5.53l-3.19-.41q-8.37-1-16.55-1.72-16.15-1.32-31.52-1.3h0C115,96.09,41.4,136,16.71,151.49c80.21-36.19,155-46.7,214.84-46.7,51.24,0,91.52,7.71,114.86,13.61A418,418,0,0,0,298.83,105Z"/><path class="cls-2" d="M190.89,22.27c0-11.5-6-22.27-21.69-22.27-12.55,0-21.3,8.39-21.3,21.53,0,10.47,5.94,20.78,21.9,20.78,13.49,0,18.29-8.68,20.3-13.06h-10c-1.81,3.27-4.48,5.64-10.55,5.64-9.14,0-11.72-7.12-12-11.14h33.37Zm-33.37-5.05C159.05,9.2,165.06,7,169.33,7c4.54,0,10.81,2.37,11.95,10.24Z"/><path class="cls-2" d="M262,34c-.77-.19-1.84-.19-1.84-2.32V13.28C260.13,8.21,259.61.2,241.3.2c-10.38,0-17.18,3.15-18.51,13.37h8.92c.33-4.34,3.57-6.47,9.59-6.47,5.28,0,9.91,1.11,9.91,5.59,0,3-1.39,3.53-14.48,4.92C230.92,18.2,221,19.16,221,29.89c0,7.64,5.15,12.19,14.27,12.19,10.24,0,14.67-3.45,16.46-5.36.26,1.47.92,5,6.87,5,1.49,0,4.08-.12,5.3-.28l0-7.08A8.51,8.51,0,0,1,262,34ZM251,25c0,8.6-8.26,10.66-13.15,10.66-3.11,0-7.34-1-7.34-6.1,0-3.31,1.66-5,8.53-5.88,6.47-.81,9.32-1.18,12-2.43Z"/><path class="cls-2" d="M220.86.38c-1.23-.23-.54-.38-2-.38-7.21,0-11.09,4.32-13.62,8.86h-.13V1.06h-9.4V41.21h9.4V21.81c0-9.31,6.74-12.11,11.51-12.11.71,0,3.37,0,4.18.11l0-9.43Z"/><path class="cls-2" d="M270.07,1.16a4.49,4.49,0,1,1-4.52,4.46A4.47,4.47,0,0,1,270.07,1.16Zm0,8.31a3.7,3.7,0,0,0,3.68-3.85,3.7,3.7,0,1,0-7.39,0A3.71,3.71,0,0,0,270.07,9.47ZM268.32,3h2c1.25,0,1.84.49,1.84,1.49a1.35,1.35,0,0,1-1.38,1.43l1.5,2.32h-.88L270,6h-.87V8.26h-.81Zm.81,2.32H270c.72,0,1.38,0,1.38-.86s-.6-.8-1.15-.8h-1.08Z"/></g></g></svg>