<svg xmlns="http://www.w3.org/2000/svg" viewBox="0 0 583.7 129.23"><defs><style>.cls-1{fill:#263b8b;}</style></defs><title>northrop</title><g id="Layer_2" data-name="Layer 2"><g id="Layer_1-2" data-name="Layer 1"><path class="cls-1" d="M69.68,120.77c-5.35-5.64-8.1-12.72-8.1-21.18a29.67,29.67,0,0,1,8.1-21,27.28,27.28,0,0,1,20.67-8.75c11.13,0,19.44,4.63,25,13.88l-11.57,6.36a8.59,8.59,0,0,0-1.73-2.46,15.26,15.26,0,0,0-11.86-5.2c-4.77,0-8.31,1.88-10.69,5.56-2,3.11-3,7.16-3,12.22s1.23,9.11,3.62,12.07c2.59,3.25,6.43,4.84,11.42,4.84a13,13,0,0,0,7.95-2.74,10,10,0,0,0,4.33-7.09H91.07V95.69h27.76v3c0,9.4-2.32,16.77-7,22.12-4.92,5.57-12,8.39-21.33,8.39q-12.67,0-20.81-8.46"/><path class="cls-1" d="M127.41,71.83h22.05c5.49,0,9.9,1.52,13.45,4.49,3.61,3.18,5.48,7.44,5.48,12.86q0,11.5-9.53,15.11l14.81,22.91H156.4l-11.64-19.51h-2.89V127.2H127.41Zm18.8,24.94c5,0,7.44-2.31,7.44-6.94s-2.38-6.94-7.3-6.94h-4.77V96.77Z"/><path class="cls-1" d="M186,124a18,18,0,0,1-7.45-15.11v-37H193v34q0,10,10,10A10.14,10.14,0,0,0,210,113.4a9,9,0,0,0,2.75-6.87V71.83h14.6v35.42c0,7-2.39,12.43-7.23,16.34-4.41,3.47-10.27,5.2-17.5,5.2-6.65,0-12.21-1.59-16.69-4.84"/><path class="cls-1" d="M408.71,71.83h16.52l20.52,55.37H430.14l-3.75-10.26H407.23l-3.68,10.26h-15.4Zm13.91,34-5.85-16.92-5.93,16.92Z"/><polygon class="cls-1" points="453.31 71.83 467.76 71.83 493.64 104.65 493.64 71.83 507.66 71.83 507.66 127.2 493.2 127.2 467.76 94.17 467.76 127.2 453.31 127.2 453.31 71.83"/><polygon class="cls-1" points="270.33 100.14 288.62 71.83 288.64 71.83 303.06 71.83 303.06 127.2 288.64 127.2 288.64 94.71 288.62 94.71 274.23 116.99 266.57 116.99 252.05 94.71 252.07 94.71 252.07 127.2 237.61 127.2 237.61 71.83 252.07 71.83 270.33 100.14"/><polygon class="cls-1" points="347.65 100.14 365.93 71.83 365.96 71.83 380.38 71.83 380.38 127.2 365.96 127.2 365.96 94.71 365.93 94.71 351.54 116.99 343.89 116.99 329.37 94.71 329.39 94.71 329.39 127.2 314.93 127.2 314.93 71.83 329.39 71.83 347.65 100.14"/><polygon class="cls-1" points="0 2.02 14.46 2.02 40.33 34.84 40.33 2.02 54.35 2.02 54.35 57.39 39.9 57.39 14.46 24.36 14.46 57.39 0 57.39 0 2.02"/><path class="cls-1" d="M70.18,51c-5.78-5.64-8.6-12.73-8.6-21.33s3-15.82,9-21.46C76.4,2.74,83.55,0,92.16,0s15.9,2.82,21.75,8.45a27.42,27.42,0,0,1,8.75,20.68q0,13.22-8.89,21.9a30.32,30.32,0,0,1-21.69,8.38q-13.33,0-21.9-8.45m33.4-9.69a16.34,16.34,0,0,0,4.48-11.86,15.28,15.28,0,0,0-4.56-11.27,16.51,16.51,0,0,0-22.84.07,16.06,16.06,0,0,0-4.48,11.64,15.84,15.84,0,0,0,4.41,11.57A15.3,15.3,0,0,0,92,45.9a15.42,15.42,0,0,0,11.57-4.63"/><path class="cls-1" d="M130.52,2h22c5.5,0,9.91,1.52,13.45,4.48,3.61,3.18,5.49,7.45,5.49,12.87,0,7.66-3.18,12.72-9.54,15.11l14.82,22.91H159.51L147.87,37.87H145V57.39H130.52ZM149.31,27c5,0,7.45-2.32,7.45-6.94s-2.39-6.94-7.3-6.94h-4.77V27Z"/><polygon class="cls-1" points="190.01 15.25 178.59 15.25 178.59 2.1 216.47 2.1 216.47 15.25 205.05 15.25 205.05 57.46 190.01 57.46 190.01 15.25"/><polygon class="cls-1" points="225.58 1.95 240.03 1.95 240.03 22.77 260.27 22.77 260.27 1.95 274.73 1.95 274.73 57.32 260.27 57.32 260.27 34.84 240.03 34.84 240.03 57.32 225.58 57.32 225.58 1.95"/><path class="cls-1" d="M285.5,2h22.05C313,2,317.45,3.54,321,6.5a16.32,16.32,0,0,1,5.5,12.87c0,7.66-3.19,12.72-9.54,15.11l14.81,22.91H314.49L302.85,37.87H300V57.39H285.5ZM304.3,27c5,0,7.44-2.32,7.44-6.94s-2.39-6.94-7.3-6.94h-4.77V27Z"/><path class="cls-1" d="M342.44,51c-5.78-5.64-8.59-12.73-8.59-21.33s3-15.82,9-21.46c5.85-5.43,13-8.17,21.61-8.17s15.9,2.82,21.75,8.45a27.42,27.42,0,0,1,8.75,20.68q0,13.22-8.89,21.9a30.32,30.32,0,0,1-21.68,8.38Q351,59.41,342.44,51m33.4-9.69a16.34,16.34,0,0,0,4.48-11.86,15.31,15.31,0,0,0-4.55-11.27,16.51,16.51,0,0,0-22.84.07,16,16,0,0,0-4.49,11.64,15.84,15.84,0,0,0,4.41,11.57,16.78,16.78,0,0,0,23-.15"/><path class="cls-1" d="M403.94,2h24.72c5.35,0,9.69,1.74,12.8,5.35,3.1,3.32,4.62,7.81,4.62,13.23,0,5.2-1.52,9.39-4.62,12.58s-7.23,4.91-12.37,4.91H418.4v19.3H403.94Zm19.23,25.45c5.71,0,8.53-2.46,8.53-7.45,0-4.77-2.75-7.08-8.39-7.08h-5.2V27.47Z"/><polygon class="cls-1" points="453.31 2.02 453.31 16.48 569.24 16.48 569.24 127.2 583.7 127.2 583.7 2.02 453.31 2.02"/></g></g></svg>