<svg xmlns="http://www.w3.org/2000/svg" viewBox="0 0 720 108.98"><defs><style>.cls-1{fill:#545759;}.cls-2{fill:#edb81e;}</style></defs><title>realtruckDark</title><g id="Layer_2" data-name="Layer 2"><g id="Layer_1-2" data-name="Layer 1"><path class="cls-1" d="M161.17,69.79v33.29H139.82V7.34h36.29q11.61.07,15.55,3.94t3.93,12.34V46.77a13.18,13.18,0,0,1-7.27,12.35c-1.24.53-1.89,1-1.93,1.46s.69.87,1.93,1.4q7.94,4,7.94,12.35v28.75H174.91V72.33a2.21,2.21,0,0,0-2.47-2.54Zm0-44V51.31h11.27a2.21,2.21,0,0,0,2.47-2.54V28.29a2.21,2.21,0,0,0-2.47-2.53Z"/><path class="cls-1" d="M258.38,7.34V25.76H231.82V46h22.82V64.39H231.82V84.67h26.56v18.41h-48V84.67h.07V7.34Z"/><path class="cls-1" d="M282.26,7.34h34l17.35,95.74H312.22L309.08,85H289.4l-3.14,18.08H264.91Zm17,16.28-6.6,43h13.14Z"/><path class="cls-1" d="M342.17,7.34h21.35V84.67h24.16v18.41H342.17Z"/><path class="cls-1" d="M427.11,25.76v77.32H405.76V25.76H388.21V7.34h56.44V25.76Z"/><path class="cls-1" d="M473.08,69.79v33.29H451.73V7.34H488q11.61.07,15.55,3.94t3.93,12.34V46.77a13.18,13.18,0,0,1-7.27,12.35c-1.25.53-1.89,1-1.94,1.46s.69.87,1.94,1.4q7.93,4,7.94,12.35v28.75H486.82V72.33a2.21,2.21,0,0,0-2.47-2.54Zm0-44V51.31h11.27a2.21,2.21,0,0,0,2.47-2.54V28.29a2.21,2.21,0,0,0-2.47-2.53Z"/><path class="cls-1" d="M556.87,7.34h21.35V86.8q0,8.34-3.93,12.35t-15.55,3.93H541.26q-11.61-.06-15.54-3.93T521.78,86.8V7.34h21.35V82.13c0,1.69.8,2.54,2.4,2.54h8.87a2.21,2.21,0,0,0,2.47-2.54Z"/><path class="cls-1" d="M647.74,43.77h-20V28.29a2.21,2.21,0,0,0-2.47-2.53h-8.87c-1.6,0-2.41.84-2.41,2.53V82.13c0,1.69.81,2.54,2.41,2.54h8.87a2.21,2.21,0,0,0,2.47-2.54V66.65h20V86.8q0,8.34-3.93,12.35t-15.55,3.93H612.12q-11.61-.06-15.55-3.93T592.63,86.8V23.62q0-8.34,3.94-12.34t15.55-3.94h16.14q11.61.07,15.55,3.94t3.93,12.34Z"/><path class="cls-1" d="M682.24,60.52v42.56H660.89V7.34h21.35V47.77L697.05,7.34h21.62L701.32,54.25,720,103.08H698.38Z"/><path class="cls-2" d="M84.7,69.45h30.49V34.66A34.64,34.64,0,0,0,80.57,0H12.75L0,0,18.07,22.9H80.34A11.53,11.53,0,0,1,91.89,34.44l0,11.73H36.61l49,62.77,30,0Z"/></g></g></svg>