<svg xmlns="http://www.w3.org/2000/svg" viewBox="0 0 537.58 258.07"><defs><style>.cls-1{fill:#4d9d45;}.cls-2{fill:#65656a;}</style></defs><title>ultimateSoftware</title><g id="Layer_2" data-name="Layer 2"><g id="original"><path class="cls-1" d="M0,0H14.74V70c0,19,10.59,34.69,31,34.69S76.75,89,76.75,70V0H91.49V74.3c0,25.17-19,44.21-46,44.21C19,118.51,0,99.47,0,74.3Z"/><polygon class="cls-1" points="118.8 0 118.8 110.35 118.8 116.67 104.98 116.67 104.98 0 118.8 0"/><polygon class="cls-1" points="139.54 17.35 153.35 17.35 153.35 36.69 166.09 36.69 166.09 48.81 153.35 48.81 153.35 107.22 161.81 107.22 161.8 116.67 139.54 116.67 139.54 48.81 128.48 48.81 128.48 36.69 139.54 36.69 139.54 17.35"/><path class="cls-1" d="M314.22,67.7c0-13.82-8-20-17.5-20-11.51,0-20.1,7.21-20.1,20.57v48.35H262.8v-49c0-13.82-8-20-17.5-20-11.51,0-20.11,7.21-20.11,20.57v38.92h8.44v9.43H211.38v-80h13.81v9.52h.31c3.68-8.14,13.66-11.36,22.1-11.36,8.14,0,17,2.14,23.64,13.81,4.91-10.13,15.51-13.81,26.1-13.81,17.19,0,30.7,10.28,30.7,31.31v41.07h8.44v9.43H314.22Z"/><path class="cls-1" d="M397.42,63.09c0-13.2-13.2-16.12-23.94-16.12-7.52,0-14.59,1.85-22.11,5.53l-6-11.51c12.12-5.07,21.64-6.15,28.86-6.15,19.18,0,37,8.14,37,27.18v45.21h8.44v9.43H398.35v-8.59c-7.07,7.37-14.89,10.44-25.49,10.44-19.49,0-34.84-10.9-34.84-28.71,0-14.58,12.43-27.48,34.69-27.48a36.34,36.34,0,0,1,24.71,9.06Zm-22.1,11.36c-16.89,0-22.57,8.14-22.57,16s5.68,16,22.57,16a36.08,36.08,0,0,0,21.93-7.75s0-6.75,0-8.22V83a32.18,32.18,0,0,0-21.94-8.55"/><polygon class="cls-1" points="429.05 17.35 442.86 17.35 442.86 36.69 455.6 36.69 455.6 48.81 442.86 48.81 442.86 107.23 451.31 107.23 451.31 116.67 429.05 116.67 429.05 48.81 418 48.81 418 36.69 429.05 36.69 429.05 17.35"/><path class="cls-1" d="M534,101.16c-10.74,12-22.1,17.34-36.07,17.34-28.4,0-43.6-20.56-43.6-41.9,0-22.72,16.28-41.75,41.3-41.75,24.71,0,41.91,18.88,41.91,47.12H469.11c2.15,13.66,13.2,23.64,28.71,23.64,9.82,0,18.57-4.6,25.63-12.89ZM521.92,70.61c-1.39-13.2-12.13-22.87-26.41-22.87-16.88,0-25,12-26.4,22.87Z"/><path class="cls-2" d="M196.56,22.49a9.31,9.31,0,1,1-9.31-9.31,9.31,9.31,0,0,1,9.31,9.31m-2.2,58,6.52,0V42.69a6,6,0,0,0-6-6.1h-15a6.1,6.1,0,0,0-6.11,6.11V80.45h6.13v36.21h14.44Z"/><path class="cls-2" d="M114.24,151.68c-.6-4.17-3-6.71-6.75-6.71-5,0-6.33,3.28-6.33,5.69,0,2.63,1.66,4.3,5.13,5.59l4.44,1.67c5.6,2.08,8.18,5.36,8.18,9.62,0,5.68-4.53,9.8-11.28,9.8-6.38,0-10.91-3.37-11.47-10.4h4.44c.37,3.84,2.31,6.52,7.26,6.52,3.84,0,6.61-2.45,6.61-5.55,0-2.73-2.26-4.49-5.45-5.74l-4.49-1.75c-5.22-2-7.81-5.09-7.81-9.63,0-6,5-9.7,10.82-9.7s10.36,3.46,10.87,10.59Z"/><path class="cls-2" d="M155.65,141.09A18.13,18.13,0,1,1,137,159.21a18.16,18.16,0,0,1,18.64-18.12m0,32.09a14,14,0,1,0-13.92-14,13.88,13.88,0,0,0,13.92,14"/><polygon class="cls-2" points="194.01 141.64 212.18 141.64 212.18 145.8 198.45 145.8 198.45 156.95 212.18 156.95 212.18 161.11 198.45 161.11 198.45 176.79 194.01 176.79 194.01 141.64"/><polygon class="cls-2" points="238.14 145.8 229.35 145.8 229.35 141.64 251.37 141.64 251.37 145.8 242.58 145.8 242.58 176.79 238.14 176.79 238.14 145.8"/><polygon class="cls-2" points="307.8 141.64 312.52 141.64 301.7 176.79 298.27 176.79 289.81 148.95 289.72 148.95 281.26 176.79 277.83 176.79 267.01 141.64 271.73 141.64 279.59 168.33 279.69 168.33 287.68 141.64 291.85 141.64 299.85 168.42 299.94 168.42 307.8 141.64"/><path class="cls-2" d="M350,168.6H333.58l-3.19,8.19h-4.85l14.28-35.15h3.89L358,176.79h-4.86Zm-8.18-21.13-6.66,17.24h13.32Z"/><path class="cls-2" d="M380.73,161.8v15h-4.45V141.64h10.13c6.76,0,11.8,3.88,11.8,10.64,0,6.29-4.95,10.17-10.69,10.5l13.69,14H395Zm0-2.72c.6,0,1.25,0,3.88,0,6.8,0,9.16-3,9.16-6.8,0-4.11-2.82-6.8-7.45-6.8h-5.59Z"/><polygon class="cls-2" points="419.31 141.64 437.49 141.64 437.49 145.8 423.75 145.8 423.75 156.95 437.49 156.95 437.49 161.11 423.75 161.11 423.75 172.63 437.49 172.63 437.49 176.79 419.31 176.79 419.31 141.64"/><path class="cls-1" d="M318.8,220.89c-.22-1.15-.42-2.52.18-2.85a4.27,4.27,0,0,1,2.21-.57c1.31,0,1.74.65,1.67,2-.26,4.82-.6,9.65-.74,14.47a39.16,39.16,0,0,0,.48,5.82c.13,1.1-.09,1.5-1.19,1.64-2,.27-2.94-.63-2.87-2.63.19-5.08.34-9.89.46-15A27.93,27.93,0,0,0,318.8,220.89Z"/><path class="cls-1" d="M316.16,221.62c-2.45.45-4.05.92-6.44,1.38l-1.5.31c0,4-.08,8.45,0,12.48a5.33,5.33,0,0,0,.42,1.6,2.42,2.42,0,0,1,.46,2.13,3.09,3.09,0,0,1-2.86,1.82c-.83.07-1.42-.2-1.46-1-.13-2.11-.24-4.22-.25-6.34,0-3.27,0-6.56.08-9.94l-3.73.86a2.65,2.65,0,0,1-3.32-1.92,1.26,1.26,0,0,1,1.24-1.66c1.91-.06,3.82-.22,5.72-.34.1-1.52,0-12.22,1.19-17.26.86-3.73,4.95-4.56,8.07-3.46a10.35,10.35,0,0,1,4.76,4.76c.87,1.75-1,3.08-1.75,2.28-1.18-1.22-3.17-3.32-5.05-4-.92-.31-2.67,0-3.13,4.61-.44,4.45-.36,11.91-.32,12.36,2.15-.35,4.27-.66,6.37-1C316.2,219,317.93,221.29,316.16,221.62Z"/><path class="cls-1" d="M166.49,227.59a7.29,7.29,0,0,1-3.15.42c-1.21-.27-2.14-2.29-.45-3a27.83,27.83,0,0,1,3.52-1.06c-.12-4.35-.24-9.34-.36-13.64a20.31,20.31,0,0,1-3.74.52c-4.12-.2-3.15-3-2-3.34,1.83-.46,2.95-.53,4.75-.85a.86.86,0,0,0,.54-.56,1.67,1.67,0,0,1,1.48-1.53c1-.21,2.05-.58,2.65.36s.73.83,1.6.75c3.22-.32,7.08-.79,10.3-.9a11.78,11.78,0,0,1,6.52,1.27,4.61,4.61,0,0,1,1.62,6.27,18.18,18.18,0,0,1-5,5.77,43.81,43.81,0,0,1-13.81,7.7,1.37,1.37,0,0,0-1.1,1.71c.2,3,0,10.35.11,13.35,0,.07,0,.14,0,.2.19,1.63,0,2-1,2.27a2.49,2.49,0,0,1-2.88-1.54,5,5,0,0,1-.08-1.28c.13-2.13.29-4.26.42-6.39,0-.69,0-5.61,0-6.46m9.11-19.46c-3.24.44-5.6,1-5.6,1s0,9.31-.2,13.7a35.82,35.82,0,0,0,13.7-7.64,14.84,14.84,0,0,0,3-3.54c1.08-2,0-4-3.6-4A66.7,66.7,0,0,0,175.6,208.13Z"/><path class="cls-1" d="M228.64,225l5-4.4a21.57,21.57,0,0,1,9.11-4.83,9.25,9.25,0,0,1,3.74-.07c1.8.34,2.66,1.74,2.68,3.67a12.93,12.93,0,0,1-3,8c-3.51,4.72-8,7.57-12.84,10.54a6.09,6.09,0,0,1-2.67.66,1.34,1.34,0,0,1-1.05-.84,1.7,1.7,0,0,1,.34-1.33,4.6,4.6,0,0,1,1.33-1c5.14-3,9.6-6.12,13.09-11.12a9.86,9.86,0,0,0,1.34-2.93c.55-1.85-.55-3.06-2.33-2.56a13.58,13.58,0,0,0-3.49,1.5c-4.27,2.65-8,5.32-11,9.5a4.57,4.57,0,0,0-.9,2.61,201.06,201.06,0,0,0-.08,21.4c.06.85.07,1.72,0,2.58s-.3,1.5-1.24,1.67-1.93-.1-2.18-1a7.58,7.58,0,0,1-.25-2.13c.12-5.29.25-10.57.43-15.86.22-6.52.49-13,.76-19.55a2.75,2.75,0,0,1,2-2.79c1.54-.48,2.26.2,2,1.82C229.2,220.86,228.89,223.21,228.64,225Z"/><path class="cls-1" d="M256.87,235.36a17.35,17.35,0,0,1,2.56-7.88,33.38,33.38,0,0,1,10.48-10.93,8.42,8.42,0,0,1,3.19-1.19,3.06,3.06,0,0,1,3.52,3.34A8.12,8.12,0,0,1,274.4,224a27.4,27.4,0,0,1-12.55,8.05,1.61,1.61,0,0,0-1.26,1.37c-.74,3.44,1.55,5.64,5.16,5a14.74,14.74,0,0,0,6.79-3.41c2.19-1.76,3.21-2.79,5.33-4.65,1.8-1.57,2.57.49,1.7,1.47-3.51,4-5.87,6.6-10.43,8.67a12.29,12.29,0,0,1-7.21,1C258.55,241.06,256.81,238.82,256.87,235.36Zm5.08-6.53c3.94-1.31,9.36-5.6,11.16-9,.14-.27,0-1.3-1-.75-4.15,2.33-7.16,5.81-10.2,9.71"/><path class="cls-1" d="M218.84,215.52c-3.88-.22-10.47,2.23-16.89,13.4a48.76,48.76,0,0,1-5.71,6.16,14.79,14.79,0,0,1-6.79,3.41c-3.61.61-5.91-1.59-5.16-5a1.61,1.61,0,0,1,1.25-1.37A27.3,27.3,0,0,0,198.09,224a8,8,0,0,0,2.22-5.34,3.05,3.05,0,0,0-3.51-3.34,8.36,8.36,0,0,0-3.19,1.19,33.38,33.38,0,0,0-10.48,10.93,16.68,16.68,0,0,0-2.57,7.88c0,3.46,1.7,5.51,5.08,6a13,13,0,0,0,7.35-1.22,25,25,0,0,0,7.12-5.26,15.06,15.06,0,0,0-.07,1.56,5.19,5.19,0,0,0,5,5c6.53.7,12.68-7,15.25-11.88a21.94,21.94,0,0,0,2.63-9.8A4.18,4.18,0,0,0,218.84,215.52Zm-23,3.6c1-.55,1.1.48,1,.75-1.8,3.36-7.22,7.65-11.16,9C188.69,224.93,191.7,221.45,195.85,219.12Zm23.35,4.06c-1.17,4.59-7.53,13.49-11.58,14.84-3.21,1.08-4.6.12-4-4a16.05,16.05,0,0,1,2.6-6.07c.64-1,1.21-.26,2.12-1.75,2.48-4,7.6-8.57,10.42-7.34C219.92,219.31,219.47,222.13,219.2,223.18Z"/><path class="cls-1" d="M361.08,231.54c-2.06,3.58-6.34,6.17-10.27,8.32a8.67,8.67,0,0,1-4.38,1.46,1.56,1.56,0,0,1-1.62-1.28,1.81,1.81,0,0,1,.89-2,7.7,7.7,0,0,1,1.39-.66c1.27-.48,2.58-.85,3.81-1.42a20.35,20.35,0,0,0,6.82-5.07c.5-.57.56-2.3-1-1.84-2.59.74-5.17,1.58-7.77,2.3a56.49,56.49,0,0,1-6.47,1.48c-2.62.39-4.19-1.7-3.41-4.26a15.32,15.32,0,0,1,3.73-6.07,35.47,35.47,0,0,1,7.51-6.26,12.49,12.49,0,0,1,3-1.36,3.46,3.46,0,0,1,4.34,2.33,2.34,2.34,0,0,1,0,1.26c-.14.45-.44,1.06-.8,1.18a1.46,1.46,0,0,1-1.23-.49,2.22,2.22,0,0,0-3-.31,27.49,27.49,0,0,0-7.36,5.92,24.53,24.53,0,0,0-2.56,3.35c-.62,1-.08,1.77,1,1.56a40.48,40.48,0,0,0,4.31-1.07c2.88-.87,5.74-1.84,8.62-2.7a5.88,5.88,0,0,1,2.09-.13C361.3,226,363,228.33,361.08,231.54Z"/><path class="cls-1" d="M367,221.18c-1.44.42-2.83.85-4.22,1.22a3.77,3.77,0,0,1-1.84.3,2.34,2.34,0,0,1-1.4-1.23c-.27-.7.45-1.16,1.07-1.38,1-.35,6.29-1.87,6.39-2.08a26.05,26.05,0,0,0,.57-4c.2-1.36.4-2.72.67-4.07.31-1.55,1.12-2.27,2.44-2.25a1.56,1.56,0,0,1,1.63,2c-.39,2.11-.81,4.92-1.21,7a4.45,4.45,0,0,0,0,.54l3.36-.72c2-.43,3.38-.89,5.43-1.26,1-.19,2.18-.38,2.8.62a2.22,2.22,0,0,1-1.21,2.66c-1.1.37-2.34.06-3.49.25-2.64.43-4.56,1-7.28,1.5-.14,3.74-.33,7.29-.39,10.84,0,1.62.18,3.93.31,5.54.08,1,.7,1.26.92,2.11a2.43,2.43,0,0,1-2.19,2.64c-1.36.22-2.2-.59-2.22-2.27,0-2.82,0-6.35,0-9.16S367,224.21,367,221.18Z"/><path class="cls-1" d="M330.24,223.43c3.58-5.83,10.52-7.86,12.51-6.48.75.52-.05,2.45-1,2.4-3.55-.17-8.56,4.22-9.82,8-.85,2.53-.29,10.08-.53,12.76a1.56,1.56,0,0,1-3,.41,5.72,5.72,0,0,1-.4-2.17c0-2.55.45-5.17.15-7.65a82,82,0,0,0-2.06-9.55c-.38-1.55,0-2.63,1.37-3.1a1.51,1.51,0,0,1,2.15.87A28.39,28.39,0,0,1,330.24,223.43Z"/><path class="cls-1" d="M255.3,214.58c-.2,4.33-.5,7.11-.66,12-.14,4.39-.14,8.77-.19,13.15a6.93,6.93,0,0,0,.1.78c.16,1.25-.38,1.84-1.64,1.82-1.63,0-2.21-.68-2.15-2.27.33-9.15.68-16.18.93-25.31a67.27,67.27,0,0,0-.08-8.16c-.23-2.7,3.89-2.34,4-.94a6.76,6.76,0,0,1,0,1.19C255.5,209.22,255.51,211.62,255.3,214.58Z"/><ellipse class="cls-1" cx="320.47" cy="212.05" rx="2.77" ry="2.42" transform="translate(62.46 496.83) rotate(-81.32)"/><ellipse class="cls-1" cx="376.77" cy="238.64" rx="2.77" ry="2.42" transform="matrix(0.15, -0.99, 0.99, 0.15, 83.98, 575.06)"/></g></g></svg>