<svg xmlns="http://www.w3.org/2000/svg" xmlns:xlink="http://www.w3.org/1999/xlink" viewBox="0 0 1920 1080"><defs><style>.cls-1{fill:url(#linear-gradient);}.cls-2{fill:url(#linear-gradient-2);}.cls-3{fill:#0f81b8;}.cls-4{fill:#9ac719;}.cls-5{fill:#6f9012;}.cls-6{fill:#b0d055;}.cls-7{fill:#b8d85f;}.cls-8{fill:#819f2b;}.cls-9{fill:#b5c97c;}.cls-10{fill:#a4bb5e;}.cls-11{fill:#fff;}.cls-12{fill:#9ac718;}.cls-13{fill:#9cdb10;}.cls-14{fill:#e6f1c4;}.cls-15{fill:#9cdb0f;}.cls-16{fill:#ffdaa4;}.cls-17{fill:url(#linear-gradient-3);}.cls-18{fill:url(#linear-gradient-4);}.cls-19{fill:#e88730;}.cls-20{fill:#f29b39;}.cls-21{fill:#f8a63f;}.cls-22{fill:#ed9034;}.cls-23{fill:#e8862e;}</style><linearGradient id="linear-gradient" x1="960" y1="-314.33" x2="960" y2="494.83" gradientUnits="userSpaceOnUse"><stop offset="0" stop-color="#ff7867"/><stop offset="0.17" stop-color="#ff7d66"/><stop offset="0.37" stop-color="#ff8a65"/><stop offset="0.57" stop-color="#ffa062"/><stop offset="0.67" stop-color="#ffad61"/><stop offset="0.69" stop-color="#ffb263"/><stop offset="0.81" stop-color="#ffcd6c"/><stop offset="0.92" stop-color="#ffde72"/><stop offset="1" stop-color="#ffe474"/></linearGradient><linearGradient id="linear-gradient-2" x1="958.84" y1="1297.63" x2="961.16" y2="247.94" gradientUnits="userSpaceOnUse"><stop offset="0.2" stop-color="#06b9ff"/><stop offset="0.33" stop-color="#28c3ff"/><stop offset="0.61" stop-color="#80dbff"/><stop offset="1" stop-color="#fff"/></linearGradient><linearGradient id="linear-gradient-3" x1="1254.08" y1="788.35" x2="1252.32" y2="844.6" gradientTransform="translate(9.29 -14.3) rotate(0.66)" gradientUnits="userSpaceOnUse"><stop offset="0" stop-color="#06b9ff"/><stop offset="1" stop-color="#0f81b8"/></linearGradient><linearGradient id="linear-gradient-4" x1="1215.4" y1="891.79" x2="1213.65" y2="948.04" gradientTransform="translate(10.44 -13.85) rotate(0.66)" gradientUnits="userSpaceOnUse"><stop offset="0" stop-color="#06b9ff"/><stop offset="0.34" stop-color="#09a9ea"/><stop offset="1" stop-color="#0f81b8"/></linearGradient></defs><title>background</title><g id="Sky"><rect class="cls-1" width="1920" height="1079.55"/></g><g id="Water"><rect class="cls-2" y="465.38" width="1920" height="612.18"/></g><g id="Right_Trees" data-name="Right Trees"><path class="cls-3" d="M1920,533.45c-2.14.29-4.27.68-6.42.84a5.22,5.22,0,0,0-4.81,3.13c-2.28,4.58-6.6,7.58-11.67,10.05-9.7,4.72-19.26,9.88-30.88,10.51a122.45,122.45,0,0,1-18.36-.67,11.75,11.75,0,0,0-6.83.88c-10.7,5.21-22.41,5.65-34.5,5.39-11.18-.24-21.3-2.55-30.63-7.5a10.16,10.16,0,0,0-2.45-.77c-17-3.84-34-7.71-51.07-11.48-3.61-.79-7.35-1.22-11-1.76-3.95-.58-7.72-.64-11.6.87-4.39,1.71-9.14.74-13.68,0-3.67-.62-7.27-1.52-10.91-2.29-4.8-1-9.31-1.44-13.8,1.33-3.76,2.32-8.42,2-12.78,1-10.17-2.37-20.23-5.08-30.46-7.28-6.38-1.37-13-2-19.47-3-12.33-2-24.7-3.68-36.24-8.26-4.42-1.75-9.82-1.82-14.76-2.7-2.58-.46-5.19-.9-7.7-1.57-4.85-1.29-9.29-1.49-13.77,1.22a14.05,14.05,0,0,1-7.45,1.8c-5-.32-9.56.95-14.32,1.46a53.72,53.72,0,0,1-13.69-.53c-4.93-.77-9.68-2.36-14.78-3.66-4.79,4.68-11.15,5.54-18,4.78a26.71,26.71,0,0,0-14,2.3,41.25,41.25,0,0,1-17.65,4c-1.72,0-3.61,1-5.19,1.83a18.92,18.92,0,0,1-16.89.73c-7.7-3.1-15.65-5.77-23.63-8.67-8.38,9.53-20.28,14.28-32.36,18.65-7.7,2.79-15.87,2.45-24.1,1.22-4-.6-8.21-.3-12.32-.29a28.52,28.52,0,0,0-5.22.53c-2.27.44-4.8.71-6.65,1.73a22.81,22.81,0,0,1-15.74,2.54,13.62,13.62,0,0,0-5.13,0c-14.16,3.17-26.69-.29-38.22-6.68-4.52-2.51-8.72-3.94-14.12-2.91a29,29,0,0,1-14.91-1.35c-3.67-1.25-7.39-2.41-11-3.74-4.27-1.56-8.37-3-13.16-1-1.6.69-3.94.56-5.87.33-10-1.19-20.25-1.21-29.78-4.66-5.39-2-11.05-3.43-16.59-5.13a1.65,1.65,0,0,0-.62-.17c-8.22,1.46-15.91-1.81-24-1.86a25.61,25.61,0,0,1-9.48-1.6,57.45,57.45,0,0,0-27.53-4.44c-14.51,1.1-29,2.13-43.52,3.33a51.54,51.54,0,0,0-8.3,1.77,23.6,23.6,0,0,1-13-.06c-7.48-2.3-15.27-2.1-22.84-1-6.21.88-11.52,0-16.11-3.16-6-4.1-13.21-5.78-20.22-7.84-2.26-.67-5.18-.11-7.72.25-13,1.87-25.94,4.86-39,5.5-10.38.51-21.16-1.11-31.42-3-22.38-4.18-44.61-8.94-66.76-13.88a169.74,169.74,0,0,1-26.66-8.71c1.51-.12,3-.33,4.51-.34,23.41-.15,46.83-.46,70.23-.29,10.77.07,21.53,1.41,32.3,1.56,4.44.06,9-1.23,13.35-2.42,7.1-1.94,14-4.36,21.05-6.45a15.56,15.56,0,0,1,5.19-.54c4.48.3,5.92,2,5.55,6.45,4.32,0,8.62.09,12.93,0,22-.54,44.1-1.32,66.17-1.61,10.36-.13,20.73.82,31.1.92,5.38.05,11,.8,16-1.94,1.11-.61,3-.28,4.55-.28,36.66-.21,73.32-.24,110-.66,27.58-.32,55.14-1.16,82.71-1.75q33.09-.72,66.18-1.4,41-.92,82-1.87,17.19-.4,34.39-.87c6.88-.19,13.72-.33,20,3.5,1.7-2.75,3.89-3.87,7.43-3.77,7.27.2,14.56-.13,21.85-.22l64.89-.75c3.76,0,7.15-.21,9.68,3.21,1.13,1.52,5,1.69,7.81,2.55,1.14-1.43,2-2.41,2.76-3.47,1.34-2,3.34-2.75,6-2.58,1.54.09,3.09,0,4.64,0q91.77,0,183.54,0,26.82,0,53.64-.13c19.2-.1,38.41-.43,57.61-.42,14.57,0,29.13.36,43.7.57ZM908.65,485.52l.24.84,12.57-1.9c-.13-.48-.26-1-.4-1.44Z"/><path class="cls-4" d="M860.26,490.52q-42.46.78-84.94,1.54c-.54,0-1.1-.47-2.18-.95.84-.91,1.33-2,2.25-2.37,18.17-7.25,36.41-14.39,54.6-21.62,4.35-1.73,8.72-1.35,13-.2s8.39,2.73,13.17,1.11c1.36-.46,3.45.25,5.12.66a17.39,17.39,0,0,0,10.42-.51c4.6-1.7,9.26-3.31,13.94-4.88,6.54-2.18,13.05-4.43,19.69-6.39a55.23,55.23,0,0,1,9.68-1.73c7.49-.79,15-1.58,22.54-2,8.22-.44,16.48-.55,24.72-.58a20.44,20.44,0,0,0,9.39-2.07c13.94-6.81,28.83-11.22,45.44-10.77,2.65.07,5.34-.46,8-.37,6.59.23,12.65,1,15.84,7,2.27,4.25,12,4.41,15.47.65a7.06,7.06,0,0,0,1-1.42c2.08-3.73,5.44-5.5,10.6-4.92,5,.55,8.34-.84,10.31-5.05,1.77-3.79,8.49-5,13.29-3a37.35,37.35,0,0,1,4.46,2.68,65,65,0,0,1,7.11-2.55c3.17-.76,6.71-2,9.69-1.49,11.76,2,23,0,34.23-2.12q16.14-3,32.09-6.6c6-1.36,11.82-2,17.62.08,2.78,1,5.11.43,7.67-.38,12-3.82,24.27-6.94,37.12-8.21,2.87-.28,5.77-.31,8.66-.46l2.65-.11c7.56-.1,15,.13,22.42,1.84,5,1.15,10.64.49,15.88,1.19a100.21,100.21,0,0,1,30.48,8.93A25.8,25.8,0,0,0,1333,427.9c22.08.22,44.16.61,66.24,1.05a26.33,26.33,0,0,1,8.5,1.2c7.32,2.76,15,1.91,22.39,1.5,17.62-1,35.2-1.29,52.78.12,9.29.75,18.17-1.18,27.17-2.31,7.68-1,15.26-2.49,22.93-3.54,6.44-.89,12.41,0,17.16,4.1,1.52,1.32,3.28,2.45,5.48,4.08,5.89-1.67,11.87-8.15,19.72-1.77,6.39-4.73,12.27-2.29,18.31.72a18.56,18.56,0,0,0,2.1-2c2.86-3.77,7.25-5,12.12-4a9.11,9.11,0,0,0,7.81-1.54c8.11-5.49,17.6-7.9,28.06-8.94,6.73-.66,13.24-2.91,19.82-4.54a143.61,143.61,0,0,1,34.23-3.87c13.61-.05,27.22-.19,40.83-.18a19.37,19.37,0,0,0,9.33-2.47,86.73,86.73,0,0,1,33.52-10.12c8-.69,15.64.06,22.57,3.43a10.39,10.39,0,0,0,7.43.79c5.57-1.14,11.35-1.55,17-2.38s11.34-1.78,17-2.77q9.74-1.71,19.42-3.6c10.29-2,20.38-2.62,31-.77,7.69,1.34,16,.39,24,.46v40.36a10.47,10.47,0,0,1-2.55-.54c-6.79-3.45-13.89-3.67-21.11-1.22-3.1,1.05-5.62.4-8.2-.86-3.64-1.77-7.33-1.87-11.54-1.17-8.72,1.47-17.33,3.06-24.85,6.94-7.64-4.62-15.5-4.07-23.11-1.25-5,1.86-9.39,1.68-13.9-.6-2.08-1-4.2-2-6.32-3-3.3-1.56-6.64-3-10.68-2.62a22.92,22.92,0,0,1-11.51-2.05,14.59,14.59,0,0,0-14.89,1.44c-3,2.13-6.18,4.16-9.08,6.4a7.67,7.67,0,0,1-6.66,1.47c-8.38-1.56-16.48-1.85-22.4,4.54-6.83-1.63-12.81-.37-19.09,1.45-7,2-14.53,2.92-21.85,4.25-6.61,1.21-14.06.27-19.48,4.54-2.57,2-4.77,2-7.73.77a14.71,14.71,0,0,0-12.18.36c-3.42,1.63-6.58,3.63-9.82,5.51-1.44.83-2.76,2.52-4.17,2.54-5.71.1-11.64.38-17.1-.72-5.06-1-9.44-1.35-14.13.6a82.08,82.08,0,0,1-11,3.81c-5.27,1.35-10.68,2.34-16.06,3.41-1.21.24-2.81.59-3.74.17-4.42-2-9.15-1.38-13.78-1.32-3.29,0-5.92-.48-8.42-2.47a16.2,16.2,0,0,0-15.26-3.06,24.91,24.91,0,0,1-11.73.39c-3.73-.66-8-.11-11.8.56-3.31.57-6.28,1.35-9.64.08a18.67,18.67,0,0,0-12.37-.06c-6.86,2.14-13.71,4.22-21.33,3.52a10.08,10.08,0,0,0-4.47,1c-4.6,1.93-8.07.81-11.07-2.3-3.3-3.44-7.7-4.51-13-4.4a48.38,48.38,0,0,1-12.48-1.12,57.14,57.14,0,0,0-16.38-2.09,22.13,22.13,0,0,1-5.91-.63c-7.77-1.82-15.31-1.11-22.85.94-5.69,1.55-11.52,2.77-17.19,4.4a14,14,0,0,1-9.05-.08,18.77,18.77,0,0,0-11.7-.32,19.5,19.5,0,0,1-6.4.33c-3.48-.28-7-.76-10.39-1.37-2.27-.41-5.05-.7-6.56-1.9-7.72-6.17-18.9-6.87-27.34-11.82a4.82,4.82,0,0,0-1.28-.28c-5.32-1.21-10.9-1.94-15.89-3.75-8.06-2.93-15.51-2.23-23.15.66-2.37.9-5,1.87-7.53,1.8a47.76,47.76,0,0,0-21.65,4.77,16.69,16.69,0,0,1-13.36.48,49.84,49.84,0,0,0-4.86-1.82c-8.7-2.14-17.22-2.49-24.37,3a11.28,11.28,0,0,1-8.41,2.4c-5.74-.48-10.94.86-16.09,2.87a22.33,22.33,0,0,1-8.31,1.42c-6-.15-11.57.75-16.25,3.92-2.6,1.76-5,1.86-7.95.66a22,22,0,0,0-16.76.27,11.83,11.83,0,0,1-8.1.43c-7.78-1.91-18.22.54-22.78,5.86-2.41,2.8-5.46,3.71-9,4.92-8.2,2.76-16.31,5.19-25.36,5.4-2.58.06-4.53.05-6.8-1.09-5.11-2.56-10.25-5.29-15.82-7-7.7-2.39-15.77-3.08-22.3,2.4-1.84,1.55-3.64,1.73-5.92,1.77a70.63,70.63,0,0,0-10.62.55c-9.12,1.52-18.33,2.79-26.93,6a10.52,10.52,0,0,1-6.21,0c-4.82-1.59-9.48-1.37-14.37-.47a141.52,141.52,0,0,1-17,2.54,61.14,61.14,0,0,0-16.2,2.73c-6.56,2.2-13.35,2.79-20,0-5.58-2.32-10.81-1.35-15.79,1.17A45.42,45.42,0,0,0,864,488Z"/><path class="cls-5" d="M864,488a45.42,45.42,0,0,1,4.64-3.07c5-2.52,10.21-3.49,15.79-1.17,6.66,2.77,13.45,2.18,20,0a61.14,61.14,0,0,1,16.2-2.73,141.52,141.52,0,0,0,17-2.54c4.89-.9,9.55-1.12,14.37.47a10.52,10.52,0,0,0,6.21,0c8.6-3.23,17.81-4.5,26.93-6a70.63,70.63,0,0,1,10.62-.55c2.28,0,4.08-.22,5.92-1.77,6.53-5.48,14.6-4.79,22.3-2.4,5.57,1.72,10.71,4.45,15.82,7,2.27,1.14,4.22,1.15,6.8,1.09,9.05-.21,17.16-2.64,25.36-5.4,3.57-1.21,6.62-2.12,9-4.92,4.56-5.32,15-7.77,22.78-5.86a11.83,11.83,0,0,0,8.1-.43,22,22,0,0,1,16.76-.27c3,1.2,5.35,1.1,7.95-.66,4.68-3.17,10.21-4.07,16.25-3.92a22.33,22.33,0,0,0,8.31-1.42c5.15-2,10.35-3.35,16.09-2.87a11.28,11.28,0,0,0,8.41-2.4c7.15-5.52,15.67-5.17,24.37-3a49.84,49.84,0,0,1,4.86,1.82,16.69,16.69,0,0,0,13.36-.48,47.76,47.76,0,0,1,21.65-4.77c2.49.07,5.16-.9,7.53-1.8,7.64-2.89,15.09-3.59,23.15-.66,5,1.81,10.57,2.54,15.89,3.75a4.82,4.82,0,0,1,1.28.28c8.44,5,19.62,5.65,27.34,11.82,1.51,1.2,4.29,1.49,6.56,1.9,3.43.61,6.91,1.09,10.39,1.37a19.5,19.5,0,0,0,6.4-.33,18.77,18.77,0,0,1,11.7.32,14,14,0,0,0,9.05.08c5.67-1.63,11.5-2.85,17.19-4.4,7.54-2.05,15.08-2.76,22.85-.94a22.13,22.13,0,0,0,5.91.63,57.14,57.14,0,0,1,16.38,2.09,48.38,48.38,0,0,0,12.48,1.12c5.3-.11,9.7,1,13,4.4,3,3.11,6.47,4.23,11.07,2.3a10.08,10.08,0,0,1,4.47-1c7.62.7,14.47-1.38,21.33-3.52a18.67,18.67,0,0,1,12.37.06c3.36,1.27,6.33.49,9.64-.08,3.84-.67,8.07-1.22,11.8-.56a24.91,24.91,0,0,0,11.73-.39,16.2,16.2,0,0,1,15.26,3.06c2.5,2,5.13,2.51,8.42,2.47,4.63-.06,9.36-.69,13.78,1.32.93.42,2.53.07,3.74-.17,5.38-1.07,10.79-2.06,16.06-3.41a82.08,82.08,0,0,0,11-3.81c4.69-1.95,9.07-1.61,14.13-.6,5.46,1.1,11.39.82,17.1.72,1.41,0,2.73-1.71,4.17-2.54,3.24-1.88,6.4-3.88,9.82-5.51a14.71,14.71,0,0,1,12.18-.36c3,1.23,5.16,1.26,7.73-.77,5.42-4.27,12.87-3.33,19.48-4.54,7.32-1.33,14.84-2.22,21.85-4.25,6.28-1.82,12.26-3.08,19.09-1.45,5.92-6.39,14-6.1,22.4-4.54a7.67,7.67,0,0,0,6.66-1.47c2.9-2.24,6-4.27,9.08-6.4a14.59,14.59,0,0,1,14.89-1.44,22.92,22.92,0,0,0,11.51,2.05c4-.37,7.38,1.06,10.68,2.62,2.12,1,4.24,2,6.32,3,4.51,2.28,8.86,2.46,13.9.6,7.61-2.82,15.47-3.37,23.11,1.25,7.52-3.88,16.13-5.47,24.85-6.94,4.21-.7,7.9-.6,11.54,1.17,2.58,1.26,5.1,1.91,8.2.86,7.22-2.45,14.32-2.23,21.11,1.22a10.47,10.47,0,0,0,2.55.54v48q-54.8.61-109.6,1.23-61.73.63-123.43,1.13-53.15.5-106.31,1.06c-2,0-4,.12-6,.18l-1.91.18q-26,.18-52,.35c-7.12,0-14.23,0-21.35,0l-1.34,0q-10.69.12-21.4.24l-119.75,1.19-122.39,1.26h-2q-52.79.48-105.56,1c-13.81.14-27.62.43-41.43.65-3-.76-6.06-2.07-8.16,1.18l-3.91.83-4-.66c-2.63-1.41-5.1-2-6.86.91l-2.52.14c-3.61-.19-7.22-.43-10.83-.48-.4,0-.82,1.11-1.22,1.71-20.89-.28-41.78-.67-62.67-.82-26.45-.19-52.9-.19-79.35-.27l-5.32.06c-4.14.32-8.28.78-12.43.92-4.8.17-9.62.05-14.42.05L867,490.6l-2.33-.21Z"/><path class="cls-5" d="M1060,489.76l2.52-.14,6.86-.91,4,.66c-4.62,4.11-10,4.42-16,2.22Z"/><path class="cls-5" d="M1060,489.76l-2.59,1.83L1048,491c.4-.6.82-1.72,1.22-1.71C1052.78,489.33,1056.39,489.57,1060,489.76Z"/><path class="cls-5" d="M1077.3,488.54c2.1-3.25,5.19-1.94,8.16-1.18Z"/><path class="cls-5" d="M864,488l.69,2.38-4.43.13Z"/><path class="cls-6" d="M867,490.6l6.74.33Z"/><path class="cls-7" d="M1252.89,413.48l-2.65.11Z"/><path class="cls-8" d="M1498,483.06l1.34,0Z"/><path class="cls-9" d="M1572.74,482.69l1.91-.18Z"/><path class="cls-10" d="M1232.45,485.75h0Z"/><path class="cls-5" d="M1069.38,488.71l-6.86.91C1064.28,486.71,1066.75,487.3,1069.38,488.71Z"/></g><g id="Left_Trees" data-name="Left Trees"><path class="cls-3" d="M867.16,639.39c2.67-1.14,5.22-2.31,7.86-3.33,2.86-1.11,5.74-2.2,8.71-3.08,8.9-2.63,12.25-1.49,17,5.76,2.69-.77,5.4-1.66,8.19-2.32,3.81-.91,6.14-.13,7.48,2.26s.8,5.09-2,6.83c-4.22,2.66-8.82,4.87-13.16,7.4-9,5.25-18,10.58-26.95,15.9a33.71,33.71,0,0,0-3,2c-5.2,3.84-10.83,5.14-17.4,2.67-5.8-2.18-11.62-1.93-17.66-.16-4.1,1.2-8.55,1.57-12.89,2-2.66.29-4.66,1-6.26,3-4.51,5.72-10.66,8-18.52,5.9a5.53,5.53,0,0,0-6,1.65c-5.88,6.32-13.64,8.73-22.85,7.95-3-.25-5.67-.09-8.28,1.64a12.73,12.73,0,0,1-5.87,1.59c-7.5.46-15,.69-23.18,1-2.69,4.16-6.26,8.45-12.1,9.93-5.5,1.39-11.33,1.75-18.19,2.73a21.91,21.91,0,0,0-2.11,2.47c-2.82,4-7.12,5.57-12.24,6.78-8.23,1.95-16.26,4.62-24.2,7.36a31.38,31.38,0,0,1-12.14,2.06c-9.39-.46-18.8-1-28.2-.9a127,127,0,0,0-18,1.69c-11.76,1.77-22.88.78-33.38-4.46-3.82-1.91-5.2-1.57-8.14,1.25a13.79,13.79,0,0,0-2.18,2.66c-4.21,6.9-11.23,10-19.76,11A107.6,107.6,0,0,1,505,739.25a10.53,10.53,0,0,0-8.61,1.34,52.93,52.93,0,0,0-13,10.44c-6.49,7.32-16.57,10.32-26.6,12.42-3.74.78-5.44,2.23-6.24,5a16.85,16.85,0,0,1-6.74,9c-10.13,7.37-21.32,13-34.82,13.77-4.93.29-9.95-.52-14.93-.87-2.69-.19-5.56-1.15-8-.61-8.08,1.79-15.78.4-23.56-1.17-4.06-.82-8.17-1.52-12.27-2.17-6-1-11.87-2.41-16.87-5.58-2.24-1.43-4.29-1.57-7-1.14-10.74,1.7-21.53,2.94-32.34.28a5.76,5.76,0,0,0-5.65,1.35c-4.42,3.94-9.92,5.68-16.2,6.4-5.78.66-11.39,2.33-17.13,3.32-3.87.66-7.84.85-11.74,1.36a32.91,32.91,0,0,0-4.73,1c-4.33,1.2-8.64,2.46-14.16,4,.33-.45-.2.1-.52.73-5.2,10.23-14.54,16.1-26.6,19.19-5.61,1.43-11.16,3.08-16.77,4.51-5.24,1.34-10.51,2.41-16,1.08a7.72,7.72,0,0,0-4.05.51,33.58,33.58,0,0,0-4.28,2.25c-7.52,4-11.51,4.08-19.29.38-17.34,5.12-24.54,1.48-24.85-12.17l-11.75-8.41a63.86,63.86,0,0,1-9,1.13,133.86,133.86,0,0,1-16.15-1c-2.35-.3-5.19-1.31-6.61-2.83-3.5-3.75-7.86-5.27-13.07-6.41-6.92-1.51-10.63-5.77-11.27-12.25a21.36,21.36,0,0,0-5.5-12.37c-5.18-5.72-5.15-13.06,1.41-17.56s12.29-9.66,18.75-14.09c4.66-3.2,10.42-5.45,16.05-7.29,22.11-7.24,44.4-14.08,66.56-21.21,10.18-3.28,20.14-7.1,30.35-10.3,44-13.75,89.3-23.37,134.37-33.83,40.27-9.35,81.31-15.5,122.06-22.85C464.1,638.27,500.42,634.36,537,632c21.73-1.41,43.49-2.41,65.23-.28,17.28,1.69,34.35,4.32,50.55,10.22a13.81,13.81,0,0,0,6,.28,20,20,0,0,0,4.64-1.58c6.31-2.4,8.43-2,13.14,2.85,9.36-1.1,18.86-2.27,28.38-3.31,22.84-2.5,45.7-4.85,68.52-7.42,21-2.36,41.89-4.92,62.83-7.38,2.08-.24,4.16-.52,6.25-.57C858.22,624.36,863.9,629.28,867.16,639.39Z"/><rect class="cls-3" x="2.3" y="652.1" width="122.88" height="175.56"/><rect class="cls-3" x="58.07" y="652.1" width="144.38" height="64.57"/><path class="cls-11" d="M46.46,781.71C45,787,45.19,787.31,50,787.85,48.72,785.64,47.59,783.68,46.46,781.71Z"/><path class="cls-12" d="M0,489.82c.76-.59,2-1.09,2.17-1.79a23.54,23.54,0,0,0,.39-4.76c1.22-.18,2.45-.32,3.66-.53,8.56-1.52,17.2-2.9,25.75-.4A87.7,87.7,0,0,1,46.76,488a154.2,154.2,0,0,1,19.12,11c11.06,7.74,17.23,18.46,21.52,30,1.37,3.69,3.41,6,7.93,6.26a26.15,26.15,0,0,1,3.06.41c18.14,3.48,32.11,12,39.2,27.19,3.1,6.65,7.33,12.52,11.6,18.48a7.26,7.26,0,0,0,3.75,2.31c6.42,1.74,11.66-.21,16.13-4.3,14.36-13.15,32.86-16.8,52.58-17,9.16-.08,18.06,2.27,26.43,5.45,12.08,4.58,22.36,11.11,27.75,22.22a32.3,32.3,0,0,0,2.76,4.12c5-1.07,9.15-2.57,13.37-2.7,3.92-.11,5.22-1.83,7-4.28,2.92-4.12,5.82-8.47,9.75-11.8,11.81-10,27.19-11.61,42.6-12.24,5.24-.21,10.6,1.2,15.88,2,13.46,2.07,26.06,5.72,36.05,14.51a8.59,8.59,0,0,0,5.55,1.6c3.88-.24,7.68-1.28,11.56-1.67,5.95-.6,12-1.57,17.89-1.19,6.52.42,13.09,1.57,19,4.71a11,11,0,0,0,6.41,1.23c16.37-2.75,28.9,2.52,38.08,14.09,2.76,3.47,5.78,4.28,10,3.58,7.29-1.22,14.51-3,21.87-3.65,7.17-.62,14.62-.93,21.67.1a36.29,36.29,0,0,1,25.35,16,6.24,6.24,0,0,0,5.88,3.06c3.28,0,6.54.75,9.83.92,11.82.64,20.2,6.47,26.5,14.41,3.25,4.09,6.83,4.95,11.54,4,6.64-1.36,13.14-3.2,19.77-4.6,8.43-1.77,16.84-3.84,25.4-4.75,5.62-.59,11.56.31,17.23,1.16s11.15,2.65,16.79,3.71c7.13,1.35,14,3.17,20.13,6.72,2.7,1.56,5.34,1.44,8.2.11a48.09,48.09,0,0,1,19.68-4.37,95.82,95.82,0,0,0,14.73-1.54c9.51-1.67,18.08.45,26.26,4.41,2.15,1,3.9,2.71,6,3.84a8.14,8.14,0,0,0,9.13-.62c1.94-1.36,4-2.61,5.84-4,11.93-9.16,29-9.79,42.3-2.8a25.73,25.73,0,0,0,6.86,1.9c4.82,1,9.93,1.2,14.44,2.79,4,1.41,8.39,3.13,10.49,7q-7.86,2.34-15.73,4.7-3.76,1.14-7.5,2.34a17.61,17.61,0,0,1-14.36-1.25c-5.45-2.77-11.45-5-18.28-4.61-4.26.26-8.21.89-11.78,2.93-5.68,3.23-11.69,5.17-18.65,4.52-3.08-.29-6.24.13-9.35,0-2.84-.14-5.88-.16-8.45-1.06-11.95-4.19-22.33-2.57-31.23,5.68-2.76,2.56-6.25,3.13-10,2.5-9.35-1.56-18.64-3.43-28-4.82a86.88,86.88,0,0,0-16-1.12,46.23,46.23,0,0,1-14.61-2.05c-10.38-2.91-15-1.63-22.36,5.73a8.88,8.88,0,0,1-4.11,2c-5.61,1.32-11,2.72-16,5.65-4.33,2.53-10,2.14-15.15,1.44-10.22-1.37-20.37-3.13-30.58-4.55a52.67,52.67,0,0,0-9.32-.3,34.44,34.44,0,0,1-15.65-2.73c-6.16-2.69-13-2.86-18.2,1.1-4.81,3.62-9.22,7.28-15.55,8.81-1.59.38-2.81,2.05-4.15,3.17a10,10,0,0,1-11.33,1.31c-6.86-3.76-14-4.58-22-3.62-4.51.53-9.39-.83-14-1.69-2.81-.52-5.44-1.74-8.18-2.6-12-3.75-20.41,4-22.54,11a25.09,25.09,0,0,0-.57,3c-14.34,3-28.67,3.22-43.09,2.84-2.31-.06-4.69.92-7,1.52-1.53.4-3.08,1.55-4.49,1.41a104.88,104.88,0,0,1-15.8-2.37c-3.9-1-7.29-3.39-11.77-2.92-.88.09-1.93-1-2.9-1.57-7.86-4.56-15.25-5-21.28-.56-2.4,1.75-4.08,4.46-5.49,7a4.7,4.7,0,0,1-4,2.82c-5.7.7-11.39,1.49-17.08,2.31-2,.29-4.32.37-6,1.25-10.42,5.51-22.1,4.85-33.47,5.31-13.87.55-27.77.57-41.65.83q-7.78.13-15.57.32c-16,.37-31.94.81-47.91,1.11q-33,.63-66,1.1-27.7.43-55.41.74a22.91,22.91,0,0,1-2.47-.23,11.24,11.24,0,0,0-1.38-2.35c-4.48-4.7-8.73-9.6-13.62-13.95s-10-9.57-16.25-12.3C21.31,669.19,10.45,666.6,0,663.27V600c2.08.17,2.31-1,2.3-2.39q-.13-24.37-.25-48.76l-2-1.21Z"/><path class="cls-13" d="M0,663.27c10.45,3.33,21.31,5.92,31.18,10.26,6.22,2.73,11.22,7.82,16.25,12.3s9.14,9.25,13.62,13.95a11.24,11.24,0,0,1,1.38,2.35c-10.07-.35-20.16-.43-30.19-1.13-8.57-.59-17.23-1-25.47-3.69-2-.66-4.5-.18-6.77-.22Z"/><path class="cls-12" d="M2.05,548.85q.12,24.39.25,48.76c0,1.4-.22,2.56-2.3,2.39V548.73Z"/><path class="cls-14" d="M2.05,548.85l-2-.12v-1.09Z"/><path class="cls-15" d="M897.5,645.8c-2.1-3.91-6.47-5.63-10.49-7-4.51-1.59-9.62-1.83-14.44-2.79a25.73,25.73,0,0,1-6.86-1.9c-13.28-7-30.37-6.36-42.3,2.8-1.86,1.43-3.9,2.68-5.84,4a8.14,8.14,0,0,1-9.13.62c-2.11-1.13-3.86-2.8-6-3.84-8.18-4-16.75-6.08-26.26-4.41a95.82,95.82,0,0,1-14.73,1.54,48.09,48.09,0,0,0-19.68,4.37c-2.86,1.33-5.5,1.45-8.2-.11-6.14-3.55-13-5.37-20.13-6.72-5.64-1.06-11.12-2.86-16.79-3.71s-11.61-1.75-17.23-1.16c-8.56.91-17,3-25.4,4.75-6.63,1.4-13.13,3.24-19.77,4.6-4.71,1-8.29.11-11.54-4-6.3-7.94-14.68-13.77-26.5-14.41-3.29-.17-6.55-.9-9.83-.92a6.24,6.24,0,0,1-5.88-3.06,36.29,36.29,0,0,0-25.35-16c-7-1-14.5-.72-21.67-.1-7.36.64-14.58,2.43-21.87,3.65-4.18.7-7.2-.11-10-3.58-9.18-11.57-21.71-16.84-38.08-14.09a11,11,0,0,1-6.41-1.23c-5.87-3.14-12.44-4.29-19-4.71-5.9-.38-11.94.59-17.89,1.19-3.88.39-7.68,1.43-11.56,1.67a8.59,8.59,0,0,1-5.55-1.6c-10-8.79-22.59-12.44-36.05-14.51-5.28-.82-10.64-2.23-15.88-2-15.41.63-30.79,2.22-42.6,12.24-3.93,3.33-6.83,7.68-9.75,11.8-1.73,2.45-3,4.17-7,4.28-4.22.13-8.39,1.63-13.37,2.7a32.3,32.3,0,0,1-2.76-4.12c-5.39-11.11-15.67-17.64-27.75-22.22-8.37-3.18-17.27-5.53-26.43-5.45-19.72.18-38.22,3.83-52.58,17-4.47,4.09-9.71,6-16.13,4.3a7.26,7.26,0,0,1-3.75-2.31c-4.27-6-8.5-11.83-11.6-18.48-7.09-15.22-21.06-23.71-39.2-27.19a26.15,26.15,0,0,0-3.06-.41c-4.52-.3-6.56-2.57-7.93-6.26-4.29-11.53-10.46-22.25-21.52-30a154.2,154.2,0,0,0-19.12-11A87.7,87.7,0,0,0,32,482.34c-8.55-2.5-17.19-1.12-25.75.4-1.21.21-2.44.35-3.66.53-.08-1.27-.25-2.53-.25-3.8q0-50.72,0-101.44v-4.59c4.44-.62,8.43-.06,12.45.53,5.86.85,11.81,1.26,17.58,2.39C46.1,379,57,385.54,64.92,395.83A11.86,11.86,0,0,0,69,399c8.5,4.18,17.1,8.21,25.64,12.34a28.19,28.19,0,0,1,6.26,3.53c2.67,2.34,5.43,2.91,9.25,2.91,6.58,0,12.38,2.8,17.59,6.25a50.09,50.09,0,0,1,6.95,5.44,153.9,153.9,0,0,0,28.57,20.89c4.51-2,8.89-3.95,13.16-6a13.18,13.18,0,0,0,2.78-2.51c2.82-2.6,5.28-5.65,8.57-7.66a17.61,17.61,0,0,1,8.77-2c6.45.06,12.7-.2,18.78-2.35a22.73,22.73,0,0,1,17.93.79,187.3,187.3,0,0,1,16.58,9.57c8.78,5.48,17.39,11.17,26.12,16.71,1.65,1,3.5,1.85,5.38,2.83,1.4-.92,2.57-1.64,3.66-2.42,11.87-8.58,25.19-9.81,39.08-5a50.57,50.57,0,0,0,16.29,2.59c6,.08,12,.51,17.92,1.15,10.29,1.11,18,6.35,24.33,13a24.06,24.06,0,0,0,15.07,7.78,21.27,21.27,0,0,1,11.17,4.37c4.29,3.52,10.35,2.8,14.88,1.78,6.37-1.43,11.79.47,17.6,1.11,1.83.2,3.57,1,5.4,1.29,5.11,1,9.87,2.38,15.56,1.65,9.68-1.24,18.84,1.5,27.2,6.07a14.06,14.06,0,0,0,6.2,2c16.77.15,28.71,7.21,37.26,19.34,1,1.39,1.69,3,2.94,4.16,2.8,2.6,5.64,5.05,10.36,5,8.64-.08,17.52-1.06,25.43,3.32,6,0,11.75,1.11,16.58,4,5.67,3.4,11.49,5.42,18.39,4.74,7.94,3.65,17,1.55,25.38,4.1,6.24,1.9,13.38,1.42,20,2.59,6.93,1.23,13.56,3.28,18.75,8,3.71,3.36,7.36,6.55,5.68,11.66.61.59,1.05,1,1.41,1.37,4.05,4.59,9.18,7.32,15.75,8.8a23,23,0,0,1,15.06,10.67,5.81,5.81,0,0,0,4.54,3.2,26.88,26.88,0,0,1,15.4,7.63c1.89,1.93,4,2.28,6.57,2.17,5-.2,10-.3,15-.27a13.46,13.46,0,0,1,5.44.81c6.06,2.9,12.63,2,18.7,1.22a141.33,141.33,0,0,1,15.34-1c7.26-.13,13.38,1.77,17.8,7.24,2.34,2.89,6.54,4.63,6.89,9,3.76.24,7.18.81,10.23,3.12,3.23,2.47,7.52,2.77,11.81,2.44a13.08,13.08,0,0,1,5.32.28,30.66,30.66,0,0,0,19.32.91c2.23-.6,4.25-1.27,6.42.22,7.77,5.35,17.48,6.49,26.46,9.23,6.82,2.08,13.66,4.13,20.44,6.3,4.26,1.36,8.44,2.92,13.57,4.71C917.27,642.63,907.65,645.23,897.5,645.8Z"/><path class="cls-3" d="M46.46,781.71c1.13,2,2.26,3.93,3.52,6.14C45.19,787.31,45,787,46.46,781.71Z"/></g><g id="Dock_Sand" data-name="Dock &amp; Sand"><g id="Dock_Shadow"><path class="cls-3" d="M1458.36,1080a6.68,6.68,0,0,1,.09-1.45c.51.48,1,1,1.48,1.45h108.9a19.12,19.12,0,0,0-4.78-7.77l-88.18-95.94q-66.76-72.67-133.48-145.38A100.25,100.25,0,0,0,1320,812.14c-25.38-15.24-50.37-31.14-75.52-46.77a50.32,50.32,0,0,0-4.75-2.68c-5.38-2.59-10.26-1.84-14,2-3.52,3.7-4,8.55-1.44,13.63.56,1.1,1.2,2.17,2,3.6-7.19,14-14.2,28.21-21.63,42.14-12.14,22.77-24.61,45.35-36.82,68.08a10.16,10.16,0,0,1-5.89,5.12,361.11,361.11,0,0,0-52.22,24.54,86.41,86.41,0,0,0-12.69,8.41,49.08,49.08,0,0,0-9.71,10.19c-7.84,11.65-4.07,26.36,8.12,33.34,1.39.79,2.84,1.48,4.41,2.3a23.57,23.57,0,0,1-.33,2.82c-3.19,12.77,6.76,25.85,19.22,27.52a138.64,138.64,0,0,0,15.71,1.59c24.29.49,46.94,8.84,70.17,13.89,1.49,5.08,2.71,9.82,4.27,14.44,2,6.07,4.85,11.75,9.5,16.35,11.85,11.72,30.63,9.89,39.48-4.24,2.55-4.06,3.82-9,5.44-13.55a52.39,52.39,0,0,0,1.49-6.93l8.55-.87c4,7.65,7.63,15,11.63,22.08a49.57,49.57,0,0,0,7.22,10.19c12.45,12.84,32.88,8.12,38.75-8.78.41-1.19.79-2.39,1.35-4.07,2.65,3.27,4.91,6.33,7.43,9.14,10.31,11.47,26.79,10.49,35.67-2,.8-1.13,1.64-2.23,2.61-3.55.86,1,1.48,1.66,2,2.39q9.38,13.76,18.73,27.53Z"/></g><g id="Sand"><path class="cls-16" d="M311.43,698.68c-5.85,1-26-.26-30.3.41-20.54,3.19-44.76.94-65.34,4-10.49,1.56-21.22,2.35-31.57,4.3-21.52,4.05-42.67,9.06-63,15.91-4.9,1.64-10,2.89-15.07,4.29-9.25,2.55-16.11,7.07-20,14-2.17,3.87-4.47,7.64-4.38,12.11a16.49,16.49,0,0,0,8,14.14c7.25,4.66,14.82,9.33,23.18,12.68a750.7,750.7,0,0,0,84.86,27.64c21.15,5.64,42.42,11,63.7,16.36,21.07,5.29,42.73,8.64,64.63,11.37,17.23,2.14,34.3,5,51.44,7.6q30.84,4.6,61.69,9.16C468,856.78,496.53,861,525.16,865c42.67,5.94,84.82,13.54,127,21.22,26.25,4.77,53,8.05,79.48,12.06,14.85,2.24,29.63,4.73,44.51,6.85s29.8,4,44.73,5.87c19,2.41,38.15,4.63,57.19,7.12,24.32,3.18,48.63,6.42,72.89,9.87,27.47,3.91,54.84,8.18,82.31,12.11,17.38,2.48,34.84,4.69,52.29,6.88q25.83,3.26,51.73,6.2c10.82,1.23,21.69,2.21,32.53,3.36,16.13,1.72,32.24,3.56,48.39,5.2,18.92,1.92,37.88,3.64,56.81,5.54,13.38,1.35,26.77,2.69,40.1,4.33,11.4,1.4,22.67,3.39,34.06,4.82,8.44,1,17,1.53,25.48,2.44,10.14,1.08,20.26,2.29,30.38,3.55q27.92,3.46,55.81,7c18.37,2.33,36.73,4.71,55.11,7q23.43,2.93,46.91,5.68c18.41,2.14,36.84,4.13,55.26,6.22,12.9,1.47,25.85,2.74,38.67,4.54q40.85,5.74,81.57,12c23.53,3.6,47,7.47,70.45,11.32,10.93,1.79,21.72,4.09,32.71,5.66,20.13,2.87,40.36,5.38,60.56,8,6,.77,12,1.43,17.93,2.14v27.57H.52V647c18.14,2.28,36.35,4.28,54.4,6.89q47.35,6.87,94.54,14.4c16.65,2.63,33.18,5.73,49.74,8.7,15,2.69,33,8.17,48.36,9.18"/></g><g id="Pole_Reflection"><rect class="cls-17" x="1245.69" y="756.61" width="15.79" height="95.39" rx="6.4" ry="6.4" transform="translate(-9.12 14.4) rotate(-0.66)"/><rect class="cls-18" x="1207.12" y="856.99" width="15.76" height="95.39" rx="6.4" ry="6.4" transform="translate(-10.28 13.97) rotate(-0.66)"/></g></g><g id="Dock"><g id="Wood"><path class="cls-19" d="M1261.05,714.54q.18,27.53.37,55.06c0,2.73.11,5.46,0,8.18-.11,3.62-.73,4.39-4.28,5.16a20.33,20.33,0,0,1-4.86.45c-5.92-.14-7.31-1.62-7.33-7.51,0-3.46,0-6.91,0-10.36a8.67,8.67,0,0,0-.47-1.68c-.86,1.59-1.6,2.72-2.12,3.94-6.48,15-13,30-19.31,45.08a18.9,18.9,0,0,0-1.37,7.36c.26,17.63.75,35.25,1,52.88a22,22,0,0,1-1,6.89c-1.18,3.8-5.66,6.15-9.49,5.38-3.6-.73-5.54-3.17-5.72-7.52-.27-6.36-.41-12.71-.64-19.07,0-1-.29-2-.62-4.17-1.08,2.08-1.69,3.11-2.16,4.2-8.16,18.83-16.38,37.64-24.39,56.55a22.56,22.56,0,0,0-1.77,8.91c.28,16.72.84,33.43,1.29,50.14,0,1.78,0,3.55,0,5.56-5.59,1-10.35-1.16-15.92-1.68-.71-6.86-.24-13.72-.79-21.5a28.77,28.77,0,0,0-2.28,3.56q-4.86,11.53-9.59,23.15c-1.9,4.68-2.56,5.41-7.68,4.78-8.11-1-16.18-2.39-24.26-3.63l-97-14.91c-37-5.69-74-11.45-111-17-12.2-1.84-24.47-3.24-36.71-4.78-3.51-.43-4.79-1.29-5.69-4.75a52.13,52.13,0,0,1-2-9.55c-.26-3.83,2-6.84,4.74-9.32q13.53-12.27,27.15-24.44c4.87-4.35,9.83-8.59,14.75-12.88.35.59.6,1.61,1.06,1.71,1.57.33,3.26.15,4.83.49,15.86,3.49,31.78,6.58,48,7.65,8.82.58,17.63,1.95,26.44,1.95,21,0,42.07-.55,63.1-1,5.23-.12,10.45-.76,15.66-1.22,7.19-.64,14.36-1.36,21.54-2,5.22-.46,10.46-.7,15.66-1.32,7.51-.88,15-2.2,22.49-3,11.84-1.25,23.68-2.6,35.56-3.11a11.35,11.35,0,0,0,10.13-6.08c5.25-9.5,9.87-19.34,14.74-29q2.18-4.32,4.34-8.63c4.44-8.9,8.84-17.82,13.33-26.7a4.91,4.91,0,0,0-.94-6.36c-6.28-6.51-12.39-13.19-18.7-19.66-1.61-1.64-3.75-2.76-5.64-4.13a24,24,0,0,0-2.49-4q-10.2-10.92-20.57-21.68-21.58-22.26-43.28-44.42c-1.14-1.17-2.36-2.26-3.44-3.49-.76-.87-1.33-1.9-2.74-4,6.36.89,11.07-.39,14.8-4.29l9.61.79a14.38,14.38,0,0,0,1.44,2.25c10.06,10.46,20.09,20.94,30.24,31.31,8.26,8.44,16.72,16.68,25,25.11,9.14,9.31,18.17,18.74,27.28,28.09.18.2.66.12,1.28.21a22.84,22.84,0,0,0,1.3-2.16c2.4-5,4.64-10.19,7.16-15.18q14.37-28.41,28.92-56.75A26,26,0,0,1,1261.05,714.54Z"/><path class="cls-20" d="M1183.66,786.52c1.89,1.37,4,2.49,5.64,4.13,6.31,6.47,12.42,13.15,18.7,19.66a4.91,4.91,0,0,1,.94,6.36c-4.49,8.88-8.89,17.8-13.33,26.7q-2.16,4.32-4.34,8.63c-2.37.72-4.69,1.78-7.11,2.1-4.64.61-9.34.79-14,1.19-4.5.38-9,.77-13.47,1.22-6.45.65-12.89,1.41-19.34,2-5.21.49-10.44.81-15.65,1.26-7.54.65-15.07,1.37-22.61,2-2,.17-4,0-6,.22-6.63.62-13.27,2-19.89,1.86-22.65-.32-45.34,1.4-68-1-8.07-.84-16.16-1.46-24.22-2.36-11.35-1.26-22.36-4.81-33.86-5-.12,0-.23-.27-.34-.41,5.62-5.06,11.25-10.09,16.84-15.16,12.48-11.33,24.89-22.72,37.41-34,5.75-5.17,11.7-10.12,17.55-15.17,4.79.82,9.56,1.77,14.37,2.45,8,1.13,16,2.73,24.1,2.94,8.43.22,16.87.71,25.35.3,15.19-.74,30.43.66,45.63-1.14,6.44-.76,13-.65,19.46-1.23,10.4-.94,20.78-2.14,31.17-3.2C1181.44,790.63,1183.83,790,1183.66,786.52Z"/><path class="cls-21" d="M1183.66,786.52c.17,3.52-2.22,4.11-5,4.39-10.39,1.06-20.77,2.26-31.17,3.2-6.47.58-13,.47-19.46,1.23-15.2,1.8-30.44.4-45.63,1.14-8.48.41-16.92-.08-25.35-.3-8-.21-16.08-1.81-24.1-2.94-4.81-.68-9.58-1.63-14.37-2.45,6.9-6.42,13.72-12.93,20.71-19.26q26.43-23.94,53-47.76c4.46-4,8.83-8.11,13.48-11.88a8.44,8.44,0,0,0,3.32-7.47c-.37-16.34-.56-32.67-.79-49,0-2.9-.12-5.82.11-8.71.26-3.36,1.43-4.72,4.76-4.73a26.57,26.57,0,0,1,8.47,1.44c1.19.4,2.19,2.2,2.69,3.59s.16,2.87.2,4.32q.56,25.59,1.13,51.18a19.85,19.85,0,0,0,.25,2.16c-3.73,3.9-8.44,5.18-14.8,4.29,1.41,2.06,2,3.09,2.74,4,1.08,1.23,2.3,2.32,3.44,3.49q21.65,22.2,43.28,44.42,10.39,10.73,20.57,21.68A24,24,0,0,1,1183.66,786.52Z"/><path class="cls-22" d="M946.83,855.11c.11.14.22.41.34.41,11.5.23,22.51,3.78,33.86,5,8.06.9,16.15,1.52,24.22,2.36,22.62,2.36,45.31.64,68,1,6.62.09,13.26-1.24,19.89-1.86,2-.18,4,0,6-.22,7.54-.64,15.07-1.36,22.61-2,5.21-.45,10.44-.77,15.65-1.26,6.45-.61,12.89-1.37,19.34-2,4.48-.45,9-.84,13.47-1.22,4.67-.4,9.37-.58,14-1.19,2.42-.32,4.74-1.38,7.11-2.1-4.87,9.71-9.49,19.55-14.74,29a11.35,11.35,0,0,1-10.13,6.08c-11.88.51-23.72,1.86-35.56,3.11-7.52.79-15,2.11-22.49,3-5.2.62-10.44.86-15.66,1.32-7.18.64-14.35,1.36-21.54,2-5.21.46-10.43,1.1-15.66,1.22-21,.47-42.07,1-63.1,1-8.81,0-17.62-1.37-26.44-1.95-16.26-1.07-32.18-4.16-48-7.65-1.57-.34-3.26-.16-4.83-.49-.46-.1-.71-1.12-1.06-1.71,3.67-3.47,7.3-7,11-10.4C931,869.39,938.9,862.26,946.83,855.11Z"/><path class="cls-21" d="M1261.05,714.54a26,26,0,0,0-2.89,3.79q-14.54,28.33-28.92,56.75c-2.52,5-4.76,10.13-7.16,15.18a22.84,22.84,0,0,1-1.3,2.16c-.62-.09-1.1,0-1.28-.21-9.11-9.35-18.14-18.78-27.28-28.09-8.27-8.43-16.73-16.67-25-25.11-10.15-10.37-20.18-20.85-30.24-31.31a14.38,14.38,0,0,1-1.44-2.25c8.14.32,16.29.53,24.42,1,14.14.8,28.27,1.8,42.4,2.65,12.51.76,25,1.44,37.52,2.13,1.42.08,2.84,0,5,0v-6.06q0-24.51-.06-49c0-6.76,2.34-8.73,9.05-7.69a32.68,32.68,0,0,1,4.22,1.09,3.74,3.74,0,0,1,2.92,4.05,4.87,4.87,0,0,0,0,.54q.21,29.42.42,58.83A6.15,6.15,0,0,1,1261.05,714.54Z"/></g><g id="Lines"><path class="cls-23" d="M1175.54,927.76c-1.16-3.86-3.49-3.31-5.18-3.53Q1042.59,908,914.8,892a54.22,54.22,0,0,0-6.45-.66c-1,0-1.89.81-2.83,1.25.08.39.15.78.23,1.17ZM973.78,831.43l241.93,25.48a35.8,35.8,0,0,0,3.74.08.72.72,0,0,0,.45-.27c.12-.12.15-.32.32-.76-.4-2-2.25-1.66-3.73-1.82q-12.91-1.39-25.82-2.74L1005,831.82c-8.79-.92-17.58-1.82-26.38-2.64C977,829,975,828,973.78,831.43ZM1188,889.66c-4.24-.59-7.73-1.11-11.22-1.56-49.59-6.47-99.15-13.07-148.76-19.3-17.69-2.22-35.23-5.9-53.16-6a12.73,12.73,0,0,1-1.54-.37c-4.38-.6-8.77-1.17-13.15-1.74-1.23-.16-2.48-.19-3.7-.4-3.86-.66-7.7-1.46-11.57-2-.83-.12-1.76.56-3.76,1.26,1.81.51,2.42.76,3.06.86,8.2,1.22,16.39,2.53,24.6,3.61q85.92,11.19,171.84,22.32c13.79,1.79,27.56,3.63,41.36,5.34C1183.78,891.87,1185.93,893.16,1188,889.66ZM1220,825.89c-1.34-3.64-3.34-3.16-5-3.31q-34.74-3.06-69.5-6.09-55.23-4.82-110.45-9.61c-9.7-.83-19.41-1.55-29.11-2.32-1.84-.15-3.79-.61-5.55,2.13Zm7.19-28.56a41.55,41.55,0,0,0-4.51-.83Q1201.3,795,1180,793.62q-55.07-3.71-110.14-7.39-20.25-1.35-40.5-2.59c-2-.12-4.23-.67-6.1,2,1.7.21,2.89.4,4.09.49,9.53.7,19.07,1.41,28.6,2.06q62.63,4.23,125.26,8.42,20.79,1.39,41.57,2.76C1224.26,799.48,1226.08,800.2,1227.14,797.33Zm-162-49.32c64.71,3.94,128.74,7.85,192.77,11.71.36,0,.76-.63,1.37-1.17-2.34-2.6-5.41-1.78-8-1.94q-64-4.07-128-7.94-26.19-1.62-52.37-3.23C1069,745.33,1066.9,744.65,1065.13,748Zm-20.87,18.93c1.39.2,2.26.38,3.13.44q18.63,1.13,37.25,2.23l118.81,6.91c9.54.55,19.08,1.13,28.62,1.65,1.61.09,3.71.85,4.06-2.36-1.34-.19-2.54-.44-3.74-.51q-30-1.78-59.94-3.52-44-2.58-88-5.14c-11.71-.68-23.41-1.27-35.11-1.92C1047.55,764.62,1045.69,764.18,1044.26,766.94ZM1258.49,738l.6-1.2c-.51-.57-.94-1.5-1.54-1.65a24.66,24.66,0,0,0-4.31-.36l-134.47-7.66q-13.23-.75-26.46-1.42c-1.84-.09-3.89-.54-5.26,2.52Z"/><path class="cls-23" d="M1175.54,927.76l-269.79-34c-.08-.39-.15-.78-.23-1.17.94-.44,1.88-1.25,2.83-1.25a54.22,54.22,0,0,1,6.45.66q127.79,16.13,255.56,32.28C1172.05,924.45,1174.38,923.9,1175.54,927.76Z"/><path class="cls-23" d="M973.78,831.43c1.19-3.4,3.26-2.4,4.87-2.25,8.8.82,17.59,1.72,26.38,2.64l185.64,19.58q12.9,1.36,25.82,2.74c1.48.16,3.33-.21,3.73,1.82-.17.44-.2.64-.32.76a.72.72,0,0,1-.45.27,35.8,35.8,0,0,1-3.74-.08Z"/><path class="cls-23" d="M1188,889.66c-2.1,3.5-4.25,2.21-6,2-13.8-1.71-27.57-3.55-41.36-5.34Q1054.75,875.15,968.83,864c-8.21-1.08-16.4-2.39-24.6-3.61-.64-.1-1.25-.35-3.06-.86,2-.7,2.93-1.38,3.76-1.26,3.87.56,7.71,1.36,11.57,2,1.22.21,2.47.24,3.7.4,4.38.57,8.77,1.14,13.15,1.74a12.73,12.73,0,0,0,1.54.37c17.93.11,35.47,3.79,53.16,6,49.61,6.23,99.17,12.83,148.76,19.3C1180.3,888.55,1183.79,889.07,1188,889.66Z"/><path class="cls-23" d="M1220,825.89l-219.58-19.2c1.76-2.74,3.71-2.28,5.55-2.13,9.7.77,19.41,1.49,29.11,2.32q55.23,4.79,110.45,9.61,34.76,3,69.5,6.09C1216.61,822.73,1218.61,822.25,1220,825.89Z"/><path class="cls-23" d="M1227.14,797.33c-1.06,2.87-2.88,2.15-4.38,2q-20.79-1.33-41.57-2.76-62.62-4.2-125.26-8.42c-9.53-.65-19.07-1.36-28.6-2.06-1.2-.09-2.39-.28-4.09-.49,1.87-2.68,4.08-2.13,6.1-2q20.25,1.26,40.5,2.59,55.07,3.67,110.14,7.39,21.33,1.43,42.65,2.88A41.55,41.55,0,0,1,1227.14,797.33Z"/><path class="cls-23" d="M1065.13,748c1.77-3.36,3.88-2.68,5.77-2.57q26.19,1.59,52.37,3.23,64,3.95,128,7.94c2.63.16,5.7-.66,8,1.94-.61.54-1,1.19-1.37,1.17C1193.87,755.86,1129.84,752,1065.13,748Z"/><path class="cls-23" d="M1044.26,766.94c1.43-2.76,3.29-2.32,5.06-2.22,11.7.65,23.4,1.24,35.11,1.92q44,2.54,88,5.14,30,1.74,59.94,3.52c1.2.07,2.4.32,3.74.51-.35,3.21-2.45,2.45-4.06,2.36-9.54-.52-19.08-1.1-28.62-1.65l-118.81-6.91q-18.63-1.08-37.25-2.23C1046.52,767.32,1045.65,767.14,1044.26,766.94Z"/><path class="cls-23" d="M1258.49,738l-171.44-9.77c1.37-3.06,3.42-2.61,5.26-2.52q13.23.68,26.46,1.42l134.47,7.66a24.66,24.66,0,0,1,4.31.36c.6.15,1,1.08,1.54,1.65Z"/><path class="cls-23" d="M1260.37,725l-16.63-12.25.36-1c5.35,1.31,10.7,2.42,16.27-.4Z"/></g></g></svg>