<svg xmlns="http://www.w3.org/2000/svg" viewBox="0 0 648.08 167.41"><defs><style>.cls-1{fill:#fff;}</style></defs><title>cloud2</title><g id="Layer_2" data-name="Layer 2"><g id="Clouds"><path class="cls-1" d="M648.08,126.6c-16.11-.29-32.23-.61-48.34-.84-9.1-.14-18.22.08-27.31-.23-44.21-1.54-88.41-1.3-132.6.42-2.55.1-5.09.33-7.27.47-.64.55-1.21.82-1.21,1.08-.07,5.89-4.63,8.26-11.43,9.05-5.07.59-10.09,1.38-15.63,2.14.54,1.22.91,2.19,1.4,3.12,4.22,8.09.19,15.22-10.79,17.31a203.08,203.08,0,0,1-27.59,3.41c-12.58.63-25.25.51-37.88.4-40.49-.36-80.9.36-121.34,2.54-21.16,1.14-42.53-.07-63.81-.22-3.74,0-7.48-.11-11.21-.07-21,.23-42.1.39-63.15.76-19.41.35-38.81.95-58.21,1.4a28.36,28.36,0,0,1-6.27-.22C2.25,166.46.2,164.64,0,162s2-4,4.93-4.65a45.55,45.55,0,0,1,7.58-1c37.87-1.61,75.56-4.56,113-9.36,13.36-1.71,26.57-4.07,39.9-5.91,5.51-.76,11.17-.84,16.73-1.39,5.1-.51,10.17-1.19,15.22-1.92a53.08,53.08,0,0,0,5.66-1.47c-.23-1.79-.49-3.37-.62-5-.32-4-.82-8-.8-11.95,0-11.2,6.55-20,17.89-26.5,13.53-7.82,29-11.63,45.78-12.15,7-.22,14,.49,21,.8,1.58.07,3.15.2,4.51.28,0-5.1-.35-10,.11-14.8a59.93,59.93,0,0,1,2.69-12.8c1.56-4.84,6.12-7.6,12.25-8.8,3.58-.7,7.19-1.33,11.18-2.06,0-2.89,0-5.59,0-8.28.07-8.45,4.14-15.24,12.23-21.16,7.33-5.35,15.56-8.14,25.13-10a217.94,217.94,0,0,1,68.94-2.26c10.64,1.37,20.63,2.67,31.52.26,9-2,18.68-.32,27.64,1.92,11.17,2.79,19.1,11.36,19.68,20.68a27.47,27.47,0,0,1-.5,8.14c-.88,3.62.87,5.86,4.64,7.71A104.18,104.18,0,0,1,530.39,57c9.17,8.31,15,17.52,12.79,28.9a16.72,16.72,0,0,0-.07,3.81,11.07,11.07,0,0,0,.63,2.14l104.34,11.85Z"/></g></g></svg>