<svg xmlns="http://www.w3.org/2000/svg" viewBox="0 0 307.49 105.98"><defs><style>.cls-1{fill:#fff;}</style></defs><title>cloud1</title><g id="Layer_2" data-name="Layer 2"><g id="Clouds"><path class="cls-1" d="M0,14.61a49.47,49.47,0,0,0,6.11-2.18C18.38,6.13,31.43,1.49,46.23.26,65.12-1.31,80,4.31,91.73,15.55,99.81,23.32,105,32.18,107,41.86c7.24-.85,14-1.86,20.89-2.39a92.22,92.22,0,0,1,38.31,5.12C186.35,51.79,197.8,64,199,81.49c.29,4.15.7,4.74,6,5,9.57.46,19.21.4,28.73,1.19C256.49,89.57,279.22,91.82,302,94a48.53,48.53,0,0,1,5.53,1.17c-1.75,3.59-5.08,4.54-8.92,4.81-14.67,1-29.31,2.43-44,3q-49.76,1.86-99.57,3c-11.65.27-23.33-.31-35.45-.51.86-5,7.95-6.45,8.89-11.55a58.4,58.4,0,0,0-5.87-.52q-41.74.38-83.5.87c-5.6.08-11.19.63-16.79.88-2.56.12-5.13,0-7.69.07-4.86,0-9.72.12-14.58.18Z"/></g></g></svg>