<svg id="New_Danny" data-name="New Danny" xmlns="http://www.w3.org/2000/svg" viewBox="0 0 640.04 357"><defs><style>.cls-1{opacity:0.1;}</style></defs><title>Volleyball Danny Shadow</title><path id="shadow" class="cls-1" d="M1053.07,1722c-1.85-.87-5.57-.22-15,.91-16.52,2-17.56,1.53-17.89,1.25-1.26-1.1,3.15-3.76,9.93-8,7.56-4.74,14.46-9.56,22.24-14.26,29.68-17.93,21.33-14,34.8-22.15,4.73-2.89,35-20.2,42.73-26.54,6.43-5.28-5.3-6.81-9.05-6.13-10.8,2-18.57,2.77-20.86,3-9.21,1-19.34,3-39.59,7l-2.36.46c1.35-4.72-1.67-4.79-1.67-4.79a56.22,56.22,0,0,0,16.93-11.37c7.74-7.73.41-9.07.41-9.07a121.16,121.16,0,0,0,25-11.17c13.24-7.79,9.24-14.26,9.24-14.26s11-4.37,18.76-10c.49-.36.93-.71,1.33-1a117.35,117.35,0,0,0,12.24-7.23c11.92-7.78,17.87-11.67,23.55-16.21a112.22,112.22,0,0,0,13.62-12.47c.56-.62,2.54-3.32,6.51-8.7,4.81-6.55,6.72-9.28,4.06-10.66,1.66-.64,3.26-1.39,4.21-1.83a58.55,58.55,0,0,0,15.19-10c5.82-5.07,9.47-8.25,12-12.48,2.46-4.08,1-4.32,3-9.42,1.61-4,2.75-4.45,7.79-12.52,6.85-11,7.31-14.27,2.7-15.72-1.58-.5-4.3-1-5.88-.41s-1.8,2.4-2.18,6.09c0,.24,0,.37-.06.54-.34,4.49-6.38,12.53-6.38,12.53-5,6.59-1,5.15-6.52,14.29-3.53,5.77-5.27,8.66-9.45,12.15-7.58,6.32-15.31,8.52-19.2,14.16a8.47,8.47,0,0,0-1.24,2.36c-1.58.67-4.44,2.5-8.44,8-3.34,4.54-3.74,6.51-5.11,8.72-1.6,2.6-3.64,4.1-18.91,14.87-3,2.11-5.93,4.22-8.85,6.33a10.58,10.58,0,0,0,.75-2c1.87-7.1-19-10.43-19-10.43s13.23-3.55,20.58-6.46,17.29-9.82,23.19-14.69c4.36-3.61,5.89-10.21,6.55-14.38a39.71,39.71,0,0,0,7.52-5.8l.13-.14-7.48.58a15.42,15.42,0,0,0-4.81-7.07l7.25-.81c1.29-2.77,4.29-11.19-9-16.74-2.42-1-8.45-3.42-20-4.33l-.76-1c-4.41-5.62-6.62-8.42-13.12-10.34-3.79-1.11-13.71-3.87-32-1.72a134.41,134.41,0,0,0-24.74,5.17,111.18,111.18,0,0,0-13.92,5.26,93.42,93.42,0,0,0-19.18-1.09c-4.8.25-10.38,1.16-21.38,2.84a72.79,72.79,0,0,0-8.38,1.71,108.58,108.58,0,0,0-12.87,4.55c-8.11,3.26-12.17,4.89-15.74,6.83-2.72,1.48-8.78,4.81-11.67,8.53-.29.37-1.67,2.2-1.47,4,.11,1,.27,2.1,2.46,2.28a9.92,9.92,0,0,0,4.27-.57c2-.79,3-2.14,4.15-4,3.74-6,2.43-6,4.72-8,4-3.42,11.42-6.2,13.08-6.82a72.33,72.33,0,0,1,7.32-2.28,123.59,123.59,0,0,1,17.65-3.41,179,179,0,0,1,28.12-1.14l2.23.11c-2.38,1.42-5.24,3.33-6.63,5.52-.55.86-2.49,3.88,1.44,5.16,2.23.73,6.64,1,9.1,0s2.49-2.94,1.67-4-2-.87-2.38-1.73c-.63-1.34,1.68-3.14,2.8-4l.56-.41a87.33,87.33,0,0,1,10.56,1.65A49,49,0,0,1,1084,1503a223.1,223.1,0,0,0-25.78,8.19c-17,6.65-26.4,13.27-31.4,17.76a180.53,180.53,0,0,0-19.46,4.78c-16.7-6.22-37.08-10.92-58.82-13l-1.48-.14-98.15-8.65-1.88-.51-38.55,29.2c-.39.29-.78.58-1.14.87l-.2.17c-13.76-1.16-27.55-1.86-40.94-2l-2,0-48.19-.25c-1,.52.35-.53-.63,0,.52-.53-1.31.52-.79,0l-78.84-.41-2.93-.34L626,1568.45a7.61,7.61,0,0,0-.19.9c-1.11,8,13.15,16.88,37.32,24.91,16.74,5.56,38.31,10.71,62.82,14.85l-57.7,5.53-2.36.06,2.45,14.86a1.7,1.7,0,0,0,.08.44c1.21,3.91,14.57,7.09,35.35,9.08,2.6.25,5.33.48,8.16.7l-76.47,15.87-3,.45,18.28,12.44c.17.12.35.25.56.37,5.56,3.17,26.2,3.69,55.34,1.93,27.11-1.64,61.68-5.25,98.33-10.5,4.2-.6,8.45-1.23,12.7-1.88L954.29,1636l7.62-.23,15.41,1.7c-2.53,1.31-5.81,3-10.08,5.25-16.55,8.67-12.9,13.59-12.9,13.59l-11,4.36a34.7,34.7,0,0,0-10.51,7.18c-42.65,14.58-91.23,32.88-116.4,42.66-86.73,33.7-141.17,61.67-180.58,88.49-12.85,8.75-49.16,33.47-37.63,35.81,16,3.24,114.51-38.64,151.22-54.25,58.1-24.71,123-54.44,174-79.64-.35.5-.69,1-1,1.49-4.72,7.34-4,5.47-6.87,10.2-4.76,7.73-6.23,11.76-15.88,17.33-.92.53-2.92,1.55-6.92,3.57-12.41,6.29-22.8,11.08-27.58,13.26-13,5.91-27,11.75-54.9,23.45-10.83,4.53-20.83,9.28-31.84,13.76-5.16,2.11-12.4,5-18.17,8.67l-7,4.59a15.7,15.7,0,0,1,.94,13c-3.26,8.78-4.53,11.5-1.28,11.69,3,.17,8.27-1.5,11.23-3.26,3.46-2,3-3.77,3.36-8.62.63-8.52,8-17.52,7.83-17.92-.71-1.56,6.22-4.29,17-8.67,12-4.88,23.3-10,35.53-14.78,46.65-18.35,35.63-16.2,55.46-22.94,8-2.73,23.09-7.59,28.79-13.26.9-.9.93-1.18,2.66-3.06a86.49,86.49,0,0,1,12.32-10.7c5-3.67,8.58-7.44,13.68-13.42a15.81,15.81,0,0,0,2.76,1.51c4.39,1.65,12.48-.28,12.48-.28s54.4-18.58,63.59-22.22c7.23-2.86,24.25-11.7,32.81-18.88q5.28-1,10.58-2.24c15.14-3.42,11.18-2.39,21-4.64,16-3.67,16-2.83,26.16-3.23,1,0,2.49-.62.14,1.25-7.27,5.81-41.58,26.32-44.48,28.37-7.9,5.59-17,11.27-34.52,22.54-6.77,4.36-8.5,6.5-15.44,10.85-3.25,2-9.41,5.91-12.46,9.18,0,0,2.07-1.4-1.44,2.5,0,0,15.48-.89,28.11-1.7,15.34-1,19.92-1.19,22.38-2.57C1054.56,1724.51,1054.65,1722.79,1053.07,1722Zm-2.48-148c3.88-.07,6.51-.35,6.51-.35s-1.58.35-6.36,1.92Zm-1.34-43-.37.17-.38-.09Zm33.1-34.16c-7.21-1.37-11.22-2.13-14.69-2.66a128.73,128.73,0,0,1,15.43-5.49c7-2.12,13.73-4.19,20.6-4.59,3.21-.19,5.83.26,11.07,1.15a71.45,71.45,0,0,1,12.31,2.87c4.49,1.57,7.85,2.75,9.41,5.16a4.74,4.74,0,0,1,.78,2.35c-1,0-2,0-3.13,0-4.47.09-9.15.38-14,.86l-2.79.21v.08h-.1l.09-.09c-1.6.14-3.24.38-4.91.69-6.06.81-12.25,1.89-18.41,3.2A53.48,53.48,0,0,0,1082.35,1496.86Z" transform="translate(-595.96 -1478)"/></svg>