<svg id="New_Danny" data-name="New Danny" xmlns="http://www.w3.org/2000/svg" xmlns:xlink="http://www.w3.org/1999/xlink" viewBox="0 0 760.11 824.31"><defs><style>.cls-1,.cls-10,.cls-11{fill:#b48ec1;}.cls-2{fill:#e0f3fd;}.cls-3{fill:url(#linear-gradient);}.cls-4{fill:#d7c9e3;}.cls-5{fill:#3b005f;}.cls-6{fill:#bed730;}.cls-7{fill:#2e3192;}.cls-8,.cls-9{fill:none;}.cls-9{stroke:#22b573;}.cls-10,.cls-11,.cls-9{stroke-miterlimit:10;}.cls-11,.cls-9{stroke-width:3px;}.cls-10{stroke:#7f47dd;stroke-width:2px;}.cls-11{stroke:#b8aaff;}.cls-12{fill:#ff5f83;}</style><linearGradient id="linear-gradient" x1="374.79" y1="1366.54" x2="855" y2="1366.54" gradientUnits="userSpaceOnUse"><stop offset="0" stop-color="#d7c9e3"/><stop offset="0.68" stop-color="#d7c9e3"/><stop offset="1" stop-color="#3b005f"/></linearGradient></defs><title>Volleyball Danny</title><path class="cls-1" d="M796.08,1384.2c-20.91-9.64-100.22,99-127.72,139.55-49.43,72.9-71.67,132.62-79.27,189.34-2.49,18.5-9.5,70.77,5.86,75.06,21.33,5.95,72.81-84.24,92-117.84C751.69,1556.91,820.19,1395.32,796.08,1384.2Z" transform="translate(-203.27 -979)"/><g id="wings"><path class="cls-2" d="M800,1352.43,532.2,1369.61c-3.72.24-7.45.43-11.15.58-32.24,1.32-63.42-.69-88.55-5.15-27-4.78-47.12-12.4-54.25-21.76-.27-.35-.51-.71-.75-1.07l-24.58-35.6,2.64-.15,101.36-22.86,1.55-.33c28-6,62-8.24,94.38-6.93,29.68,1.2,58,5.35,79.28,12.21,2.35.76,4.62,1.56,6.78,2.39l126.23,48.17c2.38.91,4.6,1.84,6.63,2.8l.44-.1Z" transform="translate(-203.27 -979)"/><path class="cls-2" d="M852.93,1381.91l-299.71-123c-4.17-1.7-8.31-3.49-12.37-5.32-35.49-16-67.21-36.65-90.53-57.76-25.06-22.68-40.53-46-40.73-64.76,0-.71,0-1.41,0-2.11l1.92-70,2.93,1.23L540.85,1081l1.91.34c34.71,6.2,72.75,21.75,106.31,42,30.75,18.52,57.78,41,75,63.7q2.88,3.78,5.37,7.57l96.73,146.79c1.82,2.77,3.46,5.48,4.87,8.13l.54.09Z" transform="translate(-203.27 -979)"/><path class="cls-3" d="M855,1299,592.83,1411.49c-4,1.55-8,3-12,4.49-34.76,12.6-69.53,21.25-98.55,25.16-31.18,4.22-55.85,3-66.93-4.62-.42-.28-.81-.58-1.2-.89l-39.39-29.81,2.82-1.08L480.28,1345l1.58-.9c28.49-16.2,64.82-30.37,100.65-40.19,32.84-9,65.3-14.38,90.9-14.35,2.84,0,5.6.08,8.26.22l154.86,8.09c2.92.16,5.68.39,8.23.72l.44-.25Z" transform="translate(-203.27 -979)"/><path class="cls-4" d="M821.05,1355.35h-.64c-3-2.48-6.24-5-9.73-7.54L625.22,1213.21c-3.18-2.31-6.52-4.61-10-6.88-31.2-20.5-73-39.19-116.73-53.31-47.72-15.41-97.85-25.38-139.27-26.34l-2.29,0-56.2-.6c-.38,1.24-.37-1.28-.75,0-.17-1.26-.74,1.26-.91,0l-91.94-1-3.88-.8L239,1195.78c.34.72.69,1.43,1.08,2.15,10.38,19.1,40,40.44,79.7,59.68,37,17.91,82.94,34.05,130.51,44.87,5.45,1.24,10.95,2.42,16.44,3.52l10.48,2.09c135.86,27.14,187.59,36.5,273.78,53.91,25.29,5.11,63.66,13,110.94,23Z" transform="translate(-203.27 -979)"/></g><path class="cls-5" d="M832.66,1439.84a8.68,8.68,0,0,0,3.84,5.66c3.53,1.92,7.93-.74,9.88-1.91,12.28-7.35,25.55-12.89,37.55-20.73,12.55-8.19,9.46-5.72,17.5-11.11,13.16-8.8,14.43-6.79,25.57-7.75,1.06-.09,2-1.49,2,3,.08,13.93-9.64,63.07-10,68-1,13.38-3.24,27-7,54-1.46,10.46-.33,15.59-2,26-.78,4.89-2.25,14.17-1,22,0,0,.36-3.34,2,6,0,0,16.64-2.13,30.08-4.08,16.32-2.37,21.33-2.85,22.16-6.15.76-3-1.67-7.12-4.59-8.9-3.42-2.09-6.79-.55-16,2.17-16.22,4.79-18.12,3.66-18.91,3-3.06-2.62-1.86-9-.21-19.17,1.83-11.34,2.77-22.9,4.9-34.17,8.13-43,4.29-33.42,7.87-53.09,1.26-6.91,11-48.4,10.67-63.59-.28-12.66-16.12-16.33-19.47-14.69a101.28,101.28,0,0,1-19.74,7.24c-9.19,2.42-18,7.19-35.65,16.71C852.08,1419.07,830.91,1430.5,832.66,1439.84Z" transform="translate(-203.27 -979)"/><path class="cls-6" d="M695,1117.35a57.74,57.74,0,0,0-27.77,21.13c-4.71,6.54-15.06,20.93-11.58,33.81,5,18.53,34.41,18.34,35.88,18.31,5.18-.1,24.39-.46,37-19.72,10.23-15.58,9.55-33.44,9.26-38" transform="translate(-203.27 -979)"/><path class="cls-5" d="M840.1,1122.82c-3.77-13.53,2-18.78,1.5-33.93-.26-8.37-2.47-15.29-6.84-29.13-6.92-21.89-9.44-18.44-13.36-34.24,0,0-4.78-19.28-11-30l-.72-1.28c-5-8.85-7.42-13.29-6.39-14.6s4.86-.22,7.41,1c7.46,3.49,11.77,11.39,19.89,37.68,6,19.35,5.3,20.4,9.31,30,5.11,12.23,7.16,12.79,10.29,22.58,3.23,10.13,3.66,17.75,4.35,29.91.55,9.8.15,16.75-3,24-.94,2.19-3.22,7.46-5.93,7.34C842.62,1131.9,840.68,1124.92,840.1,1122.82Z" transform="translate(-203.27 -979)"/><path class="cls-5" d="M842.88,1127.64c1.86-1.16,4.75.43,5.76,1,5.71,3.14,7.47,9.56,11.67,26,3.29,12.91,4.94,19.37,5.21,20.86a180,180,0,0,1,2.48,29.9c.06,10.86-1.15,20.19-3.55,38.84-1.29,10-2.93,20.84-10.73,29.53-2.49,2.78-4,3.52-5,3.18-3.2-1-2.11-11.85-.92-26.54,1.24-15.42,1.78-30.89,2.93-46.32,1.92-25.82,2.1-29.4.15-35.62-1.65-5.3-4.07-10-6.86-20.91C839.59,1130.38,842,1128.16,842.88,1127.64Z" transform="translate(-203.27 -979)"/><path class="cls-1" d="M810.42,1189.48s29,8,37.24,25,3.32,27.1,3.32,27.1,10.61,9.05,9.85,22.48a57,57,0,0,1-7.13,23.9s14.11,15.5,10.17,34.17-12.61,26.78-12.61,26.78,10.45,3.2,12.8,21.73-3,27.24-3,27.24,4.82.23,11.58,17.62-2.75,49.26-8.07,58-41.15,53.24-41.15,53.24a14,14,0,0,1-14.05.67c-7.51-4-47.24-36.41-58.57-58.51s-13.42-45.1-9.17-52.08l6.39-10.47s-11.42-11.77-4.95-32.56,7.54-22.54,7.54-22.54-16.3-28.18-11.79-39.64l4.5-11.45s-14.26-21.35-13.51-34.78l.75-13.44s-10.61-9,.44-25.12,15.05-18.58,15.05-18.58" transform="translate(-203.27 -979)"/><path class="cls-1" d="M752,1210.08s-10.63-.06-23-7.26-25.2-28.64-25.2-28.64-4.83-8.58-3.81-24.25-3-45.61,10.28-58.36,7.32-8.51,22.23-17,21.07-5.58,21.07-5.58a76.91,76.91,0,0,1-17.06-11.5,46.77,46.77,0,0,1-11.13-15.74s4.51-1.4,13.75,2.93S750,1051.9,750,1051.9s-1.57-1.44-.23-7.13,2.86-5.68,2.86-5.68,9-2.8,15.5,10.06,6.75,21.41,6.75,21.41l10.68,1.49s30.46,3,39.89,13,17.56,27.18,19.31,34.31,8.87,33.79,6.26,44.92c-2.68,11.39-8.25,27-14.14,32.7s-17.86,11.3-17.86,11.3" transform="translate(-203.27 -979)"/><path class="cls-7" d="M808.7,1156a92.32,92.32,0,0,1-16.23,1.9c-8.86.22-10.62-1.08-12.61.39-2.69,2-2.68,6.73-.59,11.65a26,26,0,0,0,6.88,9.39,24.63,24.63,0,0,0,7,4.24,28.65,28.65,0,0,0,24-2.93,13.46,13.46,0,0,0,1.15-.84,9,9,0,0,0,1-.88c1.38-1.42,5.8-1.58,5.8-1.58,5.65-.19,8.48-.29,9.64-.93,5.23-2.89,0-21.84-9.63-24.41C821.12,1151,820.35,1153.71,808.7,1156Z" transform="translate(-203.27 -979)"/><path class="cls-8" d="M807.4,1155.09a91.51,91.51,0,0,1-16,3.28c-8.8,1-10.66-.17-12.52,1.46-2.52,2.21-2.11,7,.4,11.67a26,26,0,0,0,7.66,8.77,24.51,24.51,0,0,0,7.31,3.62,28.62,28.62,0,0,0,23.67-5A13.06,13.06,0,0,0,819,1178a10.67,10.67,0,0,0,.87-1c1.25-1.54,5.64-2.07,5.64-2.07,5.62-.68,8.43-1,9.53-1.75,5-3.33-1.9-21.76-11.67-23.5C819.34,1149,818.8,1151.79,807.4,1155.09Z" transform="translate(-203.27 -979)"/><path d="M742.64,1115.4c2.6,18.84,16,32.1,30,29.62a20.26,20.26,0,0,0,5.83-2h0a20.74,20.74,0,0,0,3.54-2.32,26,26,0,0,0,2.78-2.59,31.79,31.79,0,0,0,6-9.65,43.4,43.4,0,0,0,2.51-22c0-.12,0-.22,0-.33l-50.64,9C742.61,1115.18,742.63,1115.29,742.64,1115.4Z" transform="translate(-203.27 -979)"/><path d="M793.29,1106.42c2.59,18.83,16,32.09,30,29.61a20.29,20.29,0,0,0,6.4-2.32,23.73,23.73,0,0,0,3.17-2.17,28.74,28.74,0,0,0,6.94-8.65,42.25,42.25,0,0,0,4.11-25.46c0-.11,0-.22,0-.33l-50.64,9C793.26,1106.2,793.27,1106.3,793.29,1106.42Z" transform="translate(-203.27 -979)"/><polygon class="cls-7" points="578.77 161.68 552.11 133.8 547.18 134.68 575.22 164 575.22 164 578.77 161.68"/><path class="cls-7" d="M759.87,1112l24.94,26.08a31.79,31.79,0,0,0,6-9.65l-17.91-18.74Z" transform="translate(-203.27 -979)"/><polygon class="cls-7" points="622.35 156.47 593.64 126.43 598.57 125.56 626.44 154.71 622.35 156.47"/><polygon class="cls-7" points="616.06 122.45 620.77 127.39 607.77 129.69 603.06 124.76 616.06 122.45"/><path class="cls-7" d="M811,1108.69l21.84,22.85a28.74,28.74,0,0,0,6.94-8.65L824,1106.39Z" transform="translate(-203.27 -979)"/><path class="cls-5" d="M713.77,1050.92c-11-11.72-29.87-17.72-29.87-17.72-11.66-3.7-17.49-5.55-22.67-6.82-14-3.41-21.12-5.1-29.88-4.09-5.19.6-10.32,2.79-20.6,6.82a23.71,23.71,0,0,0-7.21,4.09c-1.91,1.59-4.09,3.9-8.24,10.9-4.63,7.82-6.95,11.73-8.24,16.36-1,3.55-3.14,11.54-1,20.45a30.66,30.66,0,0,0,4.12,9.55c1.57,2.36,3.38,5,6.18,5.45.54.08,3,.46,4.12-1.36s.32-5.14-1-9.55c-4.37-14.26-6-14.37-6.18-19.08-.38-8.19,4.14-14.87,5.15-16.36a25.63,25.63,0,0,1,5.15-5.46,41.88,41.88,0,0,1,15.45-8.17,88.07,88.07,0,0,1,30.91-2.73,100.36,100.36,0,0,1,25.75,5.45,89.61,89.61,0,0,1,21.64,10.91c3.08,2.14,11.33,8.18,11.33,8.18h0s6.62-.19,7.21-2.73C716.16,1053.58,714.51,1051.71,713.77,1050.92Z" transform="translate(-203.27 -979)"/><path class="cls-5" d="M775.78,1040.69c1.75-2.81-7.34-12-13.19-17.89-13.33-13.45-20-20.18-30.33-24.76-6-2.67-21.56-9.29-39.57-4.12a45,45,0,0,0-21.1,12.38A40.77,40.77,0,0,0,661,1025.55c-.77,3.51-1.89,8.86,0,15.14.62,2.06,2.81,9.31,9.23,12.38,3.66,1.74,9.14,2.35,10.55,0s-1.43-7.07-4-9.63c-2.29-2.34-3.56-2.08-5.28-4.13-2.69-3.21-2.65-7.52-2.63-9.63.08-9.9,7.44-17.47,11.86-22,4.95-5.08,9.78-10,17.15-11,3.43-.45,7.12.61,14.51,2.75a97.6,97.6,0,0,1,18.46,6.88c7.5,3.77,13.12,6.6,18.46,12.38,8.48,9.16,7.49,16.27,15.83,20.63C769.23,1041.4,774.65,1042.49,775.78,1040.69Z" transform="translate(-203.27 -979)"/><g id="hat"><path class="cls-6" d="M832.36,1080.62l-152.87,40.64c-1.51-5.92-6.91-30.27,8.42-54.74,13.54-21.6,38.7-36,65.23-37.17a82.16,82.16,0,0,1,44.3,11.14A79.23,79.23,0,0,1,832.36,1080.62Z" transform="translate(-203.27 -979)"/><path class="cls-9" d="M810.32,1086.31c-8.4-36.91-42-61.23-75-54.39" transform="translate(-203.27 -979)"/><path class="cls-9" d="M779.26,1095.55c-8.74-38.39-28.4-66.85-44-63.63" transform="translate(-203.27 -979)"/><path class="cls-9" d="M744.44,1104.44c-8.94-39.28-13-71.72-9.14-72.52" transform="translate(-203.27 -979)"/><path class="cls-9" d="M715.11,1110.51c-8.93-39.29.1-74.44,20.19-78.59" transform="translate(-203.27 -979)"/><path class="cls-9" d="M698,1116.3c-9.07-39.88,5.62-76.71,32.85-82.34" transform="translate(-203.27 -979)"/><path class="cls-10" d="M803.74,1083.2l-44.57,10.9c-3,.73-6-1.5-6.63-5L750,1075.31c-.63-3.46,1.3-6.9,4.31-7.63l44.58-10.9c3-.73,6,1.5,6.62,5l2.55,13.83C808.69,1079,806.75,1082.47,803.74,1083.2Z" transform="translate(-203.27 -979)"/></g><path class="cls-5" d="M777.12,1450.86c-2.19-.24-6,.27-8.36,2.44-3.68,3.43-2.08,9.53-1.39,12.22,4.34,17,6.1,34.48,11.15,51.32,5.27,17.6,3.43,13.11,7,24.43,5.79,18.53,10,28.2,7,41.55-.29,1.27-1.12,3.69-2.79,8.55-5.17,15.07-10.2,26.55-12.55,31.77-6.37,14.16-14,28.17-29.27,56.2-5.91,10.86-10.54,22.25-16.72,33-2.91,5-7.08,11.94-8.37,20.77,0,0-.06.42-1.39,11,0,0,12.68,13.86,20.15,31.19,9.06,21,11.57,27.54,15.62,28,3.66.41,7.37-3.59,8.24-7.79,1-4.9-2-9-8.73-20.66-11.75-20.43-16.36-42-17.16-42.95-3.12-3.75.92-10.29,7-20.77,6.76-11.7,12.38-23.9,19.51-35.43,27.19-44,17.56-38.83,30.67-55,5.31-6.54,15.64-18.17,13.94-31.76-.27-2.16-.65-2.84-1.4-7.34a117.5,117.5,0,0,1-1.39-25.65c.51-11.61-2-23.63-7-47.65C795.17,1481,789.19,1452.19,777.12,1450.86Z" transform="translate(-203.27 -979)"/><path class="cls-5" d="M661.54,1162.4c-13.91-5-15-13.48-28.41-22.46-7.38-5-14.67-7.25-29.21-11.87-23-7.31-21.52-2.88-37.49-9.13,0,0-19.48-7.63-32.44-8.7l-1.54-.13c-10.57-1-15.87-1.51-16.39-3.26s2.69-4.56,5.24-6.14c7.44-4.62,16.81-3.63,44.33,5.32,20.26,6.58,20.75,7.85,31.44,10.18,13.59,3,15.29,1.43,25.59,4.67,10.68,3.35,17.51,7.69,28.41,14.62,8.8,5.59,14.55,10.28,18.94,17.59,1.33,2.22,4.53,7.56,2.81,10C670.88,1165.74,663.7,1163.17,661.54,1162.4Z" transform="translate(-203.27 -979)"/><path class="cls-5" d="M668,1164.46c1.14-2.09,4.61-2.06,5.81-2,6.84,0,11.65,5.34,23.7,19.07,9.45,10.78,14.17,16.17,15.16,17.47a197.67,197.67,0,0,1,17.13,27.65c5.44,10.48,9,20.14,16,39.46,3.78,10.39,7.63,21.71,4.74,34.2-.93,4-1.94,5.49-3.09,5.71-3.47.66-7.82-10.36-14-25.21-6.5-15.58-13.68-30.84-20.28-46.37-11-26-12.65-29.57-17.53-34.58-4.16-4.26-8.75-7.57-16.72-16.65C666.31,1168.83,667.47,1165.41,668,1164.46Z" transform="translate(-203.27 -979)"/><line class="cls-11" x1="330.73" y1="340" x2="518.73" y2="376"/><path class="cls-12" d="M815.14,1166.66c-2.4,1-3.35.15-11-.94-5.51-.79-3.31-.28-12.95-1.11a31.3,31.3,0,0,0-8.06.32c-2.22.35-3.62.82-4.13,1.93a3.57,3.57,0,0,0,.29,2.84,26,26,0,0,0,6.89,9.39,24.87,24.87,0,0,0,7,4.24,28.63,28.63,0,0,0,24-2.93,12.75,12.75,0,0,0,1.16-.84,10.38,10.38,0,0,0,.95-.88c1.37-1.43,5.8-1.58,5.8-1.58,5.21,1.05,10,.08,11.44-2.59,2.38-4.43-5.4-12-8.94-12.81a8,8,0,0,0-2-.17,8.12,8.12,0,0,0-4.16,1.65A38,38,0,0,1,815.14,1166.66Z" transform="translate(-203.27 -979)"/></svg>