<?xml version="1.0" encoding="utf-8"?>
<!-- Generator: Adobe Illustrator 22.1.0, SVG Export Plug-In . SVG Version: 6.00 Build 0)  -->
<svg version="1.1" id="End_Graphic" xmlns="http://www.w3.org/2000/svg" xmlns:xlink="http://www.w3.org/1999/xlink" x="0px"
	 y="0px" viewBox="0 0 1920 1080" style="enable-background:new 0 0 1920 1080;" xml:space="preserve">
<image style="overflow:visible;enable-background:new    ;" width="1924" height="1080" id="End_Graphic-2" xlink:href="216A756DF9D71C26.png"  transform="matrix(1.0004 0 0 1.0004 -0.6876 0)">
</image>
<image style="overflow:visible;enable-background:new    ;" width="791" height="620" id="GrillingScene_SHVI_NoBackground_Karen_Table" xlink:href="216A756DF9D71C2A.png"  transform="matrix(1 0 0 1 1128 225)">
</image>
<image style="overflow:visible;enable-background:new    ;" width="606" height="701" id="GrillingScene_SHVI_NoBackground_Louis" xlink:href="216A756DF9D71C2D.png"  transform="matrix(1 0 0 1 206 78)">
</image>
<image style="overflow:visible;enable-background:new    ;" width="263" height="584" id="GrillingScene_SHVI_NoBackground_Grill" xlink:href="216A756DF9D71C2E.png"  transform="matrix(1 0 0 1 68 199)">
</image>
<image style="overflow:visible;enable-background:new    ;" width="1338" height="400" id="Cover_Up" xlink:href="216A756DF9D71C2C.png"  transform="matrix(1 0 0 1 145 308)">
</image>
<image style="overflow:visible;enable-background:new    ;" width="1919" height="616" id="Edits" xlink:href="216A756DF9D71C2B.png"  transform="matrix(1 0 0 1 0 198)">
</image>
<image style="overflow:visible;enable-background:new    ;" width="406" height="157" id="CURRENT_WING" xlink:href="216A756DF9D71C25.png"  transform="matrix(1 0 0 1 1119 398)">
</image>
<image style="overflow:visible;enable-background:new    ;" width="316" height="141" id="Inner_wing_additon" xlink:href="216A756DF9D71C27.png"  transform="matrix(1 0 0 1 1118 405)">
</image>
</svg>
