<svg id="New_Karen" data-name="New Karen" xmlns="http://www.w3.org/2000/svg" viewBox="0 0 795.29 381.02"><defs><style>.cls-1{opacity:0.1;}</style></defs><title>Volleyball Karen Shadow</title><path id="shadow" class="cls-1" d="M1784.73,907.41a102.33,102.33,0,0,0-13,1.16l-1.55.31-1.29.27.47-.17c-1.82.63-23.08,8.07-34.71,12.18l-4.3,1.52c-1.94.71-3.12,1.14-3.17,1.14s1.22-.45,3.17-1.14l4.11-1.51c7.55-2.79,19.28-7.1,26.74-9.68,1.48-.51,6.44-2.2,5.87-2.34a1.81,1.81,0,0,0-.53,0l-.38,0L1756,910.31s-28.79,10.54-29.16,10.56c-.15,0,9.59-3.7,26.32-10a167.45,167.45,0,0,0-18.65,2.33c-1.29.25-2.3.47-2.82.59-7.92,2.94-9.72,3.52-9.72,3.52-5.21,1.68-10.45,3-10.54,2.93s.82-.27,2.55-.78c3-.9,9.19-2.73,13.86-4.5.51-.19,1.18-.45,1-.59-.34-.27-3.87.13-6.49.58-1.21.21-2.18.43-2.83.59-11.16,3.46-11.53,3.52-11.54,3.52-.19,0,3.46-1.35,9.71-3.53,0,0-.67-.09-1.73-.16a28.43,28.43,0,0,0-5.56.15,22.7,22.7,0,0,0-2.84.59c-6.09,1.57-9.71,1.77-17,3.51-3.58.85-6.2,1.64-7.93,2.18a16.77,16.77,0,0,1-2.59.75c-.11,0,.08-.16.53-.38a44.67,44.67,0,0,1,5.35-2c1.88-.58,3.63-1,6.67-1.76,4.24-1,6.77-1.56,6.69-1.76a6,6,0,0,0-1.83,0c-2.07.13-4.87.31-8.31.58-.07,0-11.49,1.8-35.34,6.52-.5.11-17.86,2.61-21.5,2.73-.5,0-1.11.17-1.56.15l-8.93-.26h-.12l-11.15-1.74c-12.42-1.92-3.74-.58-15.83-3.19-27.7-3-47.47-4.89-62.19-6.08-6.11-4.76-16.3-9.35-33.71-12.14-7.53-1.21-3.6,0-73.16-5.89l-2-.18a35.12,35.12,0,0,1-3-2.23c-7.3-1.4-9.45-3.26-10.16-4.53-.52-.92-.62-2.14-.79-4.12a8.51,8.51,0,0,1,0-3.29c.73-2.14,3.16-3.86,6.79-6.59,3.48-2.62,6.37-5.2,10-7.83a118.39,118.39,0,0,0,19.45-17.76h0c8.67-6.53,10-9.66,22.33-15.18,12.14-5.45,13.39-7.12,32.42-13.09a159.34,159.34,0,0,0,28.8-12l74.59,4.25a28.69,28.69,0,0,0,11.08-2.24c2.77-1.33,2.5-2.6-.67-2.88l-75.36-3.7c25-15.81,41.58-29.2-1.49-31.64-48.22-2.74-108.32,10.23-146.22,28.34l10.6.6a211,211,0,0,0-23.62,6.89h-63.73a2.69,2.69,0,0,0-.29.16c-7.88,4.61-10.76,8.78-9.07,11.79.84,1.49,2.79,2.7,5.81,3.54a31.12,31.12,0,0,0,3.74.76,51.56,51.56,0,0,0,5.46.5c1.06,0,2.19.07,3.36.07h.41c-37.83,7.31-100.58,19.12-100.58,19.12-40.06,7.54-50.34,9.66-63.77,13-19.3,4.74-43.13,11.41-42.55,11.78a32.64,32.64,0,0,0,4.36-.74c20.93-4.34,164.92-28.37,225.67-38.42l.44.17-.74.12c-87.25,15-196.08,33.84-196.06,34.16s151.51-23.89,174.37-27.09c8.54-1.2,15.68-1.77,25.25-3.53a67.17,67.17,0,0,1,8.42-1.18c1.89-.12,3.64-.12,5.13-.08,7.14.45,16.27.67,27.47.67,9.61,0,14.07-.13,17.79,1.76,3.32,1.7,6.13,4.76-5.2,17.08-9.18,10-20,17.75-31.5,25.92-13,9.22-19.58,12.71-23.58,14.72-3.71,1.87-6.78,3.28-9.46,4.43l-3.15-.21c-2.85-.18-32.69,2.26-71.18,3.74a94.06,94.06,0,0,0,17-9.49c8-5.83,10.37-11.19,7.68-15.47l.6-.26-.68.14c-3.44-5.28-14.72-8.9-33.08-9.69-26.13-1.13-58.74,2.95-87.29,9.82-1.74.26-3.5.53-5.3.82l1.24.18c-17.66,4.48-33.52,10-45,16l-2.45.43,1.54,0c-1.16.63-2.28,1.26-3.35,1.89-15.93-1.8-28,.38-40.13.52-23.46.28-97,3.2-72.6,2.3,0,0,.11,4.38,5.48,5.22.39.07,3.43.52,3.42.52l-1.31.06s63.79-2.65,85.36-3.63c-15,.81-50.34,2.8-69.66,3.53-3.2.12-13.7.5-14.73,1.09-.29.16.37.26.48.34l5.34,3.84s66-3.52,65.75-3.32-23.14,1.52-62.32,3.83c0,0,2.06,4.34,12.33,6.26,1.44.27,2.74.44,3.42.52,18.35-1,21.92-1.11,21.92-1.11a143.11,143.11,0,0,1,17.8.48c-.08,0-1.66,0-4.81,0-5.47,0-16.64-.11-27.72.58a15.15,15.15,0,0,0-3.76.53c-1.87.71.14,2,2.74,2.62a22.36,22.36,0,0,0,3.42.51c21.76-.18,21.57-.06,21.57-.06-.24.17-8.41.57-21.91,1.11,0,0-4.15,3-1.37,4.2a11.72,11.72,0,0,0,3.42.52c9.47.51,10.15,2.21,20.55,3.09,9.69.81,18.32.11,17.81.47s-8.06,1.06-14.73,1.09c-3.55,0-6.13-.17-10.61-.49-6.26-.46-9.28-.93-10.62-.5-.73.23-.56.6-.34,1a20.54,20.54,0,0,0,2.4,3.66c.06,0,15,8.31,42.46,13,4.1.7,107.16,4.13,169.62,4.17,9.47,0,12.68,1.31,21.24,1,1.84-.07,3.74-.18,7.72-.6a44.32,44.32,0,0,1-5.54,4.79,18.87,18.87,0,0,0-4.86,4.71c-.91,1.19-1.84,2.39-.82,2.36,2.57-.1,14.53-8.11,17.3-8.25,3.59-.18-11.07,13.08-9.35,13,1-.07,6-4.52,8-4.71,3.59-.35-6.06,13.27-2.95,12.95,1.9-.19,5.73-5.26,10.07-5.89,4.55-.65,8.75,3.72,8.31,8.25-.14,1.48-.84,3.67.36,3.53,1.36-.16,3.19-3.06,6.05-3.53a5.91,5.91,0,0,1,4.76,1.58l-.32.18a24.51,24.51,0,0,0,7.51,4.38l.09,0c-8.24,7.38-6.9,13.29,2.28,16.14-12.77,7.39-32.8,18-63.66,33.09-110.85,54.3-136.12,61.06-138.2,61.56-5.2-2.91-16.49-5.35-40.87-3.63-49.42,3.49-60.71,8.2-60.71,8.2l35.39.64c-20.83,2.4-33.43,4.55-40.9,6.14-3.24.39-6.46.79-9.61,1.19-9.13,1.18-18.17,2.47-24.68,3.94,30.77,1.47,72.71.26,112.22-3.08-17.62,4.37-33.47,10.82-39.93,16.72-.61.55-1.14,1.15-.47,1.46,1,.49,4.31,0,7-.51,22.61-4.32,44.7-11.43,59.39-18.91,13.45-5.39,36.41-15.85,73.82-34.22,71.71-35.22,118.31-57.32,147.25-70.73q2.49,0,5.22-.15a180.76,180.76,0,0,0,40.67-7.38c1.67,4,8,6.76,18.16,7.81-8.8,4.89-21.26,11.48-38.82,20.36-52.45,26.51-146.1,67.79-190,86.94-38.89,3.63-91.74,15-101.69,23.93-.7.63-1.25,1.31,0,1.7,2,.61,7.21.16,11.41-.36a485.52,485.52,0,0,0,54.86-9.78,36.21,36.21,0,0,0-4.77,3.14c-7.37,6-10.74,11.46-12.32,16.4-1,3.06-1.27,6,1.82,7.83,23-8.63,43.46-18.49,59.11-28.22l.17,0c.35,6.83,11.89,13,24.32,17,9.83-2.76,13.42-6.53,14.36-9.5,2.57-8.12-6.68-14.43-24.33-17.64a79.35,79.35,0,0,0,10.54-9.74c12.67-8.15,33.82-19.65,68.52-35.89,73.32-34.32,125.82-55.78,154.07-66.77a274,274,0,0,0,50.85-10.3l4.6.9a1.74,1.74,0,0,0,1,.19c1.84-.26,4-3.5,4.8-4.62l2.35-.9c-2.53,3.5-4.29,5.95-4.28,5.95l.34-.43s1,1,1.18,1.18c2,1.85,15.18,2.36,15.18,2.36-4.28,6.33,5.57-7.7,11.38-17.46,5.62-1.59,10.24-3.16,11.54-3.45,2.57-.58,11.15-2,19.56-4.06,6.41-1.58,15.81-3.75,24.11-5.81a272,272,0,0,0,27.92-8.31c15.47-5.89,58.7-22.42,111.39-32.82,16.73-3.3,18.83-5.39,25.92-7.62l2.36-.75c11-3.53,32.12-10.84,34.53-11.69Z" transform="translate(-991.5 -774)"/></svg>