<svg id="New_Karen" data-name="New Karen" xmlns="http://www.w3.org/2000/svg" viewBox="0 0 714.8 926.65"><defs><style>.cls-1{fill:#fbb03b;}.cls-2{fill:#3f4242;}.cls-2,.cls-3,.cls-4{isolation:isolate;}.cls-3{fill:#e1eaeb;}.cls-4{fill:#92abb1;}.cls-5{fill:#c09c35;}.cls-6{fill:#da93ee;}.cls-7{fill:#2e3192;}.cls-8{opacity:0.1;}.cls-11,.cls-9{fill:#fff;}.cls-10{fill:none;}.cls-10,.cls-11{stroke:#0071bc;stroke-miterlimit:10;stroke-width:3px;}</style></defs><title>Volleyball Karen</title><g id="legs"><path class="cls-1" d="M1139.34,791.73s22.12-17.91,5.26,120.27-29.5,149.57-29.5,149.57,8.43,121.92,29.5-53.65,32-216.95,32-216.95Z" transform="translate(-693.32 -276.29)"/><path class="cls-1" d="M1222.17,802.78s8.5-2.61,0,83.5-42.49,236.38-42.49,236.38l45.89,10.13s-32.29-5.07-11.89-135.07,43.34-184,43.34-184Z" transform="translate(-693.32 -276.29)"/><path class="cls-1" d="M1128.87,1077.23s-16.91-33-55.74-24.56-41.73,19.9-41.73,19.9l92.34,4.42Z" transform="translate(-693.32 -276.29)"/><path class="cls-1" d="M1128.74,1086.19s-21.74-27.43-58.69-14.31-38,23.86-38,23.86l91.65-9Z" transform="translate(-693.32 -276.29)"/><path class="cls-1" d="M1188.61,1096.44c-30.22,7.6-62.58,36.59-57.68,59a5.61,5.61,0,0,0,2.63,4.14c2.75,1.48,6.68.37,9.65-.87,30.76-12.9,50.58-38,50.09-63.28" transform="translate(-693.32 -276.29)"/><path class="cls-1" d="M1188.21,1095a96.23,96.23,0,0,0-36.19,18.6c-9.3,7.49-18.26,17.23-21.79,28.9-1.42,4.7-2.11,10.58-.17,15.25,3.18,7.67,13.35,2.7,18.44.29,12.49-5.94,24-14.42,32.64-25.33,7.47-9.48,12.71-20.81,13.55-33,.1-1.42.13-2.85.11-4.27,0-1.93-3-1.94-3,0,.18,11.2-3.71,22-9.93,31.19-7.11,10.52-17.09,18.95-28.07,25.21q-4.5,2.56-9.25,4.68c-2.8,1.24-6.47,3-9.59,2-2.55-.82-2.84-4.08-3-6.38a24.14,24.14,0,0,1,.6-6.88c2.5-10.88,10.51-20.07,18.71-27.24a94.94,94.94,0,0,1,33.19-18.92q2.25-.72,4.53-1.29c1.87-.48,1.08-3.37-.8-2.9Z" transform="translate(-693.32 -276.29)"/><path class="cls-1" d="M1191.43,1090.81c-9.86,19.72-16.2,37.24-13.61,51.83s7.9,27.8,14,39.8c3.8,7.43,8.07,14.63,13.59,19,14.14-40.21,13-91.43-3-130.11" transform="translate(-693.32 -276.29)"/><path class="cls-1" d="M1190.13,1090.05a188.56,188.56,0,0,0-10.26,23.84,70.41,70.41,0,0,0-4.13,21.27c-.1,7.65,2,15.34,4.24,22.59a158.31,158.31,0,0,0,9.33,23c3.87,7.82,8.17,16.22,15.08,21.81a1.53,1.53,0,0,0,2.51-.66,182.68,182.68,0,0,0,9.64-51,200.27,200.27,0,0,0-4.23-52.71,163.1,163.1,0,0,0-8.38-27.16c-.72-1.76-3.62-1-2.89.8a173.67,173.67,0,0,1,11.84,49.36,199.28,199.28,0,0,1-1.78,52.2,169.83,169.83,0,0,1-7.09,27.75l2.5-.66c-6-4.82-9.81-11.8-13.26-18.52a162.05,162.05,0,0,1-9.41-21.94c-1.31-3.88-2.44-7.81-3.36-11.8a57.12,57.12,0,0,1-1.7-10.56c-.29-6.83,1.1-13.61,3.09-20.11a169.42,169.42,0,0,1,10.85-25.92c.86-1.72-1.72-3.24-2.59-1.51Z" transform="translate(-693.32 -276.29)"/><path class="cls-1" d="M1215.38,1133.07c10.75,16.58,30.52,31.63,47.73,41.33,4.59-6.68,2-15.84-1.67-23.06-14.67-28.61-45.81-48-77.94-48.51-5.45-.09-12.37,1.57-13.21,7" transform="translate(-693.32 -276.29)"/><path class="cls-1" d="M1214.08,1133.82c9.17,14.06,22.53,25.26,36.36,34.53q5.8,3.9,11.92,7.35a1.54,1.54,0,0,0,2.05-.54c5.77-8.67,1.15-19.78-3.45-27.85a89.26,89.26,0,0,0-17.4-21.63,93.49,93.49,0,0,0-50-23.58c-4.88-.66-10-1.22-14.92-.38-4.27.72-8.93,3-9.77,7.66-.34,1.89,2.55,2.7,2.89.8.67-3.71,4.53-5.07,7.84-5.6,4-.64,8.28-.16,12.27.31a86.69,86.69,0,0,1,25.1,6.94,90.2,90.2,0,0,1,39.32,33.5c4.92,7.73,11.45,19.46,5.56,28.32l2-.54c-14.26-8.07-27.86-18-38.9-30.15a85.46,85.46,0,0,1-8.3-10.65c-1.05-1.61-3.65-.11-2.59,1.51Z" transform="translate(-693.32 -276.29)"/><path class="cls-1" d="M1121.65,1084.54c-16.81,8.17-26.64,30.37-22.18,50.07a5.7,5.7,0,0,0,1.81,3.55c1.68,1.18,3.86,0,5.48-1.23,16.73-12.9,26.29-36.07,24.16-58.53" transform="translate(-693.32 -276.29)"/><path class="cls-1" d="M1120.89,1083.24c-15.77,7.77-24.62,26.23-24,43.36a46.48,46.48,0,0,0,.73,6.65c.4,2.19.85,4.88,2.86,6.2s4.66.44,6.53-.88a47.23,47.23,0,0,0,5.25-4.44,65.94,65.94,0,0,0,15.49-23.55,70.69,70.69,0,0,0,4.63-32.18c-.17-1.9-3.17-1.92-3,0,1.61,17.5-3.71,35.83-15.16,49.27a43,43,0,0,1-9.22,8.64c-.77.48-1.93,1.18-2.83.66s-1.13-2-1.34-2.93a40.67,40.67,0,0,1-.87-6,46.9,46.9,0,0,1,4.62-23.62c3.83-7.87,9.86-14.68,17.78-18.58,1.73-.85.22-3.44-1.51-2.59Z" transform="translate(-693.32 -276.29)"/><path class="cls-1" d="M1103.68,1077.52c-12.14-1.44-26.43-.15-39.19,2.69a175.72,175.72,0,0,0-34.41,11.73c-6.35,2.86-12.47,6-16,9.55,36.46,4.39,81.75-1,115.06-13.73" transform="translate(-693.32 -276.29)"/><path class="cls-1" d="M1103.68,1076c-12.58-1.46-25.49-.22-37.84,2.36a175.23,175.23,0,0,0-35.39,11.76c-6.09,2.7-12.65,5.55-17.47,10.29A1.52,1.52,0,0,0,1014,1103a240,240,0,0,0,45.72.8,272.69,272.69,0,0,0,46.14-7.26,206.91,206.91,0,0,0,23.59-7.32c1.79-.68,1-3.59-.79-2.9a227.22,227.22,0,0,1-43,11.37,271.49,271.49,0,0,1-46.6,3.81,220.14,220.14,0,0,1-25-1.5l1.06,2.56c4.11-4,9.69-6.56,14.87-8.93,5.42-2.47,10.94-4.73,16.56-6.7a148.06,148.06,0,0,1,36.65-8.07,103.26,103.26,0,0,1,20.5.17c1.91.22,1.89-2.78,0-3Z" transform="translate(-693.32 -276.29)"/></g><g id="body"><path class="cls-2" d="M1102.62,604.44c-1.72-.53-28.61-8.58-28.61-8.58h0s-4.52,15.09-5.72,22.88-.31,16.22,8.58,37.18a222.39,222.39,0,0,0,28.61,48.63c32.4,40.93,94.38,42.9,117.26,42.9C1256.4,747.45,1136.15,614.73,1102.62,604.44Z" transform="translate(-693.32 -276.29)"/><path class="cls-3" d="M1408.13,598.5c-.87,2.06-8.62,19.8-13,28.38l-.95,1.83c-2.94,5.41-1.62,10.48-11.52,18.5-31.19,25.26-44.55,65.4-49.39,79.69-5.19,11.74-8,15.21-12.24,20.19s-9.35,10.27-12.67,14.09c-4.36,5-9.86,8.45-11.27,9.86-1.09,1.09-4.55,9.44-9.86,14.09-.11.09-1.31,2.73-1.41,2.81-1.89,26.12-22.15,46.17-44.37,49.59-16.52,2.54-32.68-5.42-43.84-19.65-5.9,9.67-14.63,16.32-25.06,17.93-21.41,3.29-42.31-15.84-48.3-43.35l-.13-.07a86,86,0,0,1-13.41-10.64L1114,672.43c15.19-16.4,8.88-40,28.88-50,16.9-8.46,15.49-12.68,116.21,12,14.79,6.34,5,3.07,19,7.75l12.62,4.2.12,0,8.38.64c.42,0,.74-.33,1.16-.37,3.08-.28,14.75-6.37,15.05-6.62,14.08-11.48,21.56-15.82,21.6-15.84,2.67-.65,4.89-1.09,6.55-1.4.78-.15,1.42-.25,1.63,0,.38.47-1.09,1.73-3.29,4.27a26.07,26.07,0,0,0-3.28,4.26,14.38,14.38,0,0,0-1.75,4.79c-.08.53,0,.86.09.91s.53-.63,1.18-1.81a26.71,26.71,0,0,1,3.75-5.3c3.87-4.23,6.8-4.71,9.84-8.52a4.62,4.62,0,0,1,1.64-1.43,8.32,8.32,0,0,1,4.73-.37,16.07,16.07,0,0,1,1.81.4c-2.26,5.28-3.52,8.48-3.31,8.55,0,0,.27-.12,4.94-8.54a8.74,8.74,0,0,1,1.64-1.42c1.64-1.11,4.19-2.06,4.91-1.41.36.33.15,1,0,1.43a60.78,60.78,0,0,1-5.52,10.91,10.07,10.07,0,0,0-1.07,1.91,28.66,28.66,0,0,0,4.93-7.12s.72-1.41,3.3-8.55a17.76,17.76,0,0,1,1.64-1.41c5.53-4.31,13.08-5.65,13.09-5.66-5.35,15.24-8.42,24.18-8.26,24.23s9.91-25.65,9.91-25.66l7.51-2.59a1.55,1.55,0,0,0,.26-.13.51.51,0,0,1,.41-.1c.72.34-1.12,4.46-1.66,5.7-2.74,6.26-6.62,16.73-9.12,23.49-.52,1.41-1,2.66-1.36,3.66-.68,1.69-1.1,2.73-1.09,2.78s.45-1.05,1.09-2.78c.41-1,.94-2.27,1.52-3.69,4.12-10,11.75-28,12.41-29.56l-.16.42.75-.66c.39-.33.8-.68.89-.77,2.63-2.23,9.82-2.81,9.82-2.81C1407.75,599.33,1408,598.77,1408.13,598.5Z" transform="translate(-693.32 -276.29)"/><path class="cls-4" d="M1057.83,642.42c-.1.2,7.18,4.43,36,20.21,5,7,4.41,12,3.94,14s-2.12,6.36-17.8,15.48c-4.4,2.56-8.22,4.53-17.84,9.08-22.08,10.46-25.69,11.33-29.33,11.73-7.15.79-12-2.39-20.49-2.41-55.87-.09-153.19-8.42-157.92-10.12-31.74-11.39-57.7-31.5-57.79-31.55-3.29-3.55-5.86-6.59-7.74-8.9-.89-1.09-1.59-2-1.3-2.55.55-1,4,.11,10.24,1.21a52.82,52.82,0,0,0,10.25,1.2c5.91-.07,11.57-1.84,11.49-2.64s-6.73.83-16.64-1.16c-10.63-2.13-13.83-6.26-23.08-7.5a8.37,8.37,0,0,1-3.84-1.25c-4.27-2.84-5.19-10.19-5.2-10.2,11.23-1.32,17.93-2.28,17.89-2.69,0,0,0-.3-19.18.14a16.1,16.1,0,0,1-3.85-1.25c-3.29-1.54-7-4.64-6.44-6.35.29-.84,1.58-1.11,2.55-1.29,8.84-1.67,19-1.45,23.87-1.42a24.55,24.55,0,0,0,4.26-.07c0-.25-7.7-1.64-16.64-1.16,0,0-3.09.17-17.89,2.69a35.61,35.61,0,0,1-3.85-1.25c-12.1-4.66-20.55-15.17-20.57-15.2,31.47-5.62,49.86-9,49.81-9.32-.08-.47-53.66,8.07-53.66,8.07l-10.64-9.32c-.23-.19-.95-.43-.95-.82,0-1.43,8.83-2.35,11.5-2.65,20.9-2.3,62.57-9.7,62.6-9.41s-76.47,9.69-76.47,9.66l1.07-.15h0l-3.84-1.25c-6.09-2-12.88-12.7-12.89-12.7h0c-20.42,2.2,40.84-4.89,61.36-5.57,12-.4,20-7.1,42.22,1,84.23,30.55,186.22,1.23,192.4,2.19,18.91,3,62.17,9.72,95,41.51,6.51,6.31,1.53,2.88,46.49,59.78,5,6.35,14.18,17.91,12.93,19.09s-13.51-8.79-20.58-15.19c-5.8-5.26-9.38-9.21-16.73-14a85,85,0,0,0-9-5C1080.09,654.56,1058,642.08,1057.83,642.42Z" transform="translate(-693.32 -276.29)"/><path class="cls-3" d="M985.35,470c7.07,24.28,9.24,43.1,11.44,62.93,2.48,22.39,1.92,30.86,1.43,35.75-1.77,17.58-5.62,18.23-5.72,31.46-.09,11.89,2.89,28.51,11.44,42.9,4.36,7.33,7.07,15.57,11.44,22.89,1.32,2.2,4.1,6.7,2.86,11.44-.82,3.14-3.18,5.43-2.86,5.72.53.46,5.67-6.75,8.58-5.72,2.49.87,1.5,7.08,2.86,20,.67,6.32,1.9,14.33,2.86,14.3,1.28,0,.8-14.07,2.86-14.3s7.25,15,8.58,25.74a46,46,0,0,0,2.86,11.44c1,2.88,2,5.81,2.86,5.72,2.16-.23.61-19.68,2.86-20,2.93-.44,10.1,31.75,11.44,31.46.78-.17-1.49-11,0-11.44,2.68-.83,14.86,32.23,17.17,31.46,1.4-.46-2.93-12.79,0-14.3s13.48,9,20,20c2.12,3.58,4.86,8.93,5.72,8.58s-1.83-7.43,0-8.58,7.73,4.85,8.58,5.72c16.4,16.81,68.95,31.39,108.68,25.74a43.43,43.43,0,0,0,17.16-5.72c15.57-9.42,19.59-26.6,20-28.6,2.94-13.5-1.44-25.35-5.72-34.32-15.16-31.72-42.12-54.61-83-88.67-42.73-35.64-55.81-46.13-66.66-52.8-.79-.5-3.74-2-7.7-4.4A192.84,192.84,0,0,1,1063,570c-8.66-3.4-13.42-7.91-16-11a118.52,118.52,0,0,1-7-10,89.91,89.91,0,0,1-5-8c-2.61-5.19-3.07-9.36-4-16-.89-6.35-2.26-12.63-3-19-1-8.63-3.42-22.12-9.76-43.14h0C1016,447,1012.44,439.41,1015,426c2.52-13.22,1.09-17.28,9-31.78,11.67-21.48,10.3-55.88-8.58-71.5-11.71-9.7-26.48-9.12-40-8.59C946,315.29,914,327.63,906,334c-8.27,6.58-5.83,17.52-10.75,31.62-2,5.71-2.86,20-2.86,20s-3.3,17.59,2.86,25.74c6.84,9,22.85,12.87,50.06,12.87,8.58,0,12.36-.32,18.59,4.29C969.45,432.66,976.64,440.08,985.35,470Z" transform="translate(-693.32 -276.29)"/></g><g id="head"><path class="cls-5" d="M901,397.08a17.05,17.05,0,0,0,5.73,2.86,19.82,19.82,0,0,0,17.62-3.89c1.15-1,2-2.06,2.4-1.83.82.44-1.56,4.53-2.86,11.44-1.69,8.92-.41,16.32,0,17.06,0,0,0,.06,0,.1-.14.56-4.62-.79-8.58,0a13.63,13.63,0,0,0-5.72,2.86c-5.86,4.28-11.36,5.68-17.17,8.58C876.86,442,778.59,501,778,500.05s68-46.52,123-82.95c8.62-5.7,17.21-11.38,17.17-11.44-.17-.26-144.91,90.62-160.27,104-.53.46-2.38,2.11-2.76,1.8-1.09-.9,10-17.11,20-28.61,7-8,12.9-13.15,37.18-31.46,0,0,74.6-56.26,77-59.9a.41.41,0,0,1,.18-.16c.71-.29,2.17,2,2.86,2.86C893.52,395.6,895.82,397,901,397.08Z" transform="translate(-693.32 -276.29)"/><path class="cls-6" d="M1106,363a6.28,6.28,0,0,1-1.48,12.44L896,346c6.19-44,40.06-75.48,87.33-68.83,42.22,5.95,47.9,38.45,49.67,76.83Z" transform="translate(-693.32 -276.29)"/><rect class="cls-3" x="910.64" y="326.47" width="49.59" height="14.5" rx="4.15" transform="translate(-637.67 -403.42) rotate(8.01)"/><path d="M973.91,364.57c0,22.34-15.12,40.46-33.77,40.46a28.36,28.36,0,0,1-7.93-1.14h0a28.49,28.49,0,0,1-5-2,31.69,31.69,0,0,1-4.07-2.43,36.56,36.56,0,0,1-9.51-9.94,45.55,45.55,0,0,1-7.21-25c0-.13,0-.26,0-.39H973.9C973.91,364.31,973.91,364.44,973.91,364.57Z" transform="translate(-693.32 -276.29)"/><path d="M906.38,364.57c0,22.34-15.12,40.46-33.76,40.46a26.81,26.81,0,0,1-3.12-.18,27.39,27.39,0,0,1-5.63-1.2,29,29,0,0,1-4.52-1.86,34.4,34.4,0,0,1-10.59-8.58,44.71,44.71,0,0,1-9.91-28.64c0-.13,0-.26,0-.39h67.51C906.38,364.31,906.38,364.44,906.38,364.57Z" transform="translate(-693.32 -276.29)"/><polygon class="cls-7" points="233.85 125.64 263.54 87.89 270.12 87.89 238.88 127.61 238.88 127.61 233.85 125.64"/><path class="cls-7" d="M950.88,364.18,923.1,399.5a36.56,36.56,0,0,1-9.51-9.94l19.95-25.38Z" transform="translate(-693.32 -276.29)"/><polygon class="cls-7" points="176.18 128.57 208.17 87.89 201.59 87.89 170.55 127.36 176.18 128.57"/><polygon class="cls-7" points="178.27 87.89 173.02 94.57 190.35 94.57 195.6 87.89 178.27 87.89"/><path class="cls-7" d="M883.68,370.86l-24.33,30.93a34.4,34.4,0,0,1-10.59-8.58l17.58-22.35Z" transform="translate(-693.32 -276.29)"/></g><g id="volleyball" class="cls-8"><path d="M961.35,614.79c-1.12,17.7-48.18,32.53-95,29.61-29-1.81-48.45-10.63-49.49-21.63-1.64-17.33,44.88-32.71,92.32-30.76C940.65,593.31,962.09,603,961.35,614.79Z" transform="translate(-693.32 -276.29)"/></g><g id="volleyball-2" data-name="volleyball"><path class="cls-9" d="M936.23,565a71.47,71.47,0,0,1-82.9,79.8c-29.75-4.89-52.78-28.66-58.29-58.3-8.7-46.7,31.57-88.15,79.79-82.9C906.78,507.07,932.16,533.1,936.23,565Z" transform="translate(-693.32 -276.29)"/><path class="cls-10" d="M792.51,569.81c25.33-18.52,58-13.85,72.1,5.39" transform="translate(-693.32 -276.29)"/><path class="cls-10" d="M808.37,529.43c46.4-28.09,84.14-3.47,95.63,29.36" transform="translate(-693.32 -276.29)"/><path class="cls-10" d="M848.2,644.13C816,631.88,812,585.07,821.94,558.79" transform="translate(-693.32 -276.29)"/><path class="cls-10" d="M875.09,643.73c-22-18.9-26.47-49.8-9.92-69.08" transform="translate(-693.32 -276.29)"/><path class="cls-10" d="M919.6,526.78c-6.7,31.58-31.85,53-56.23,47.78" transform="translate(-693.32 -276.29)"/><path class="cls-10" d="M935.19,571.92c-10.12,27.21-54.57,46.74-78.78,37.74" transform="translate(-693.32 -276.29)"/><path class="cls-11" d="M784.19,560.43" transform="translate(-693.32 -276.29)"/></g></svg>