<svg id="New_Karen" data-name="New Karen" xmlns="http://www.w3.org/2000/svg" viewBox="0 0 261.78 253.18"><defs><style>.cls-1{fill:#92abb1;isolation:isolate;}</style></defs><title>Volleyball Karen Wing</title><g id="body"><path class="cls-1" d="M1139.8,627.32c-.13.19-7.21-4.39-34.32-22.88-8.51-1.24-12.68,1.5-14.3,2.86s-4.71,4.77-5.72,22.88c-.29,5.09-.31,9.39,0,20,.7,24.43,1.56,28,2.86,31.47,2.53,6.72,5.94,10.72,11.44,17.16,31.54,36.95,27.8,33.74,31.46,37.18,24.55,23.12,54.25,37.12,54.34,37.18,4.66,1.32,8.54,2.24,11.44,2.86,1.37.3,2.5.52,2.86,0,.68-1-1.89-3.48-5.72-8.58a53.69,53.69,0,0,1-5.72-8.58c-2.62-5.3-3.62-11.15-2.86-11.44s2.32,6.37,8.58,14.3c6.73,8.51,11.86,9.49,17.16,17.16a8.45,8.45,0,0,0,2.86,2.86c4.46,2.52,11.43,0,11.44,0-3.91-10.6-6.1-17-5.72-17.16,0,0,.28-.11,8.58,17.16a16.54,16.54,0,0,0,2.86,2.86c2.87,2.23,7.33,4.17,8.58,2.86.63-.65.28-1.91,0-2.86-2.53-8.64-7.31-17.55-9.57-21.92a25.84,25.84,0,0,1-1.87-3.82c.22-.13,5,6.12,8.58,14.3,0,0,1.26,2.83,5.72,17.16a39.07,39.07,0,0,0,2.86,2.86c9.66,8.67,22.86,11.43,22.89,11.44-9.27-30.59-14.58-48.53-14.3-48.62.45-.14,17.16,51.48,17.16,51.48l13.13,5.26c.28.11.81.65,1.17.46,1.26-.66-1.91-8.93-2.86-11.44-7.44-19.67-19.75-60.16-20-60.06s26.07,72.54,26.09,72.54l-.35-1h0s2.52,2.54,2.86,2.86c4.59,4.5,17.16,5.72,17.16,5.72h0c7.3,19.2-14.18-38.6-22.88-57.2-5.09-10.87-8.4-16.57-20-37.18-40-71-36.38-66.44-40.05-71.51-11.21-15.51-36.87-51-80.08-65.78-8.58-2.93-3.26-.06-74.37-14.3-7.93-1.59-22.39-4.51-22.88-2.86s14,8,22.88,11.44c7.32,2.79,12.47,4.19,20,8.58a87,87,0,0,1,8.58,5.72C1118.89,613,1140,627,1139.8,627.32Z" transform="translate(-1048.26 -572.49)"/></g></svg>