<svg xmlns="http://www.w3.org/2000/svg" viewBox="0 0 1093.47 926.65"><defs><style>.cls-1,.cls-9{opacity:0.1;}.cls-2{fill:#fbb03b;}.cls-3{fill:#3f4242;}.cls-3,.cls-4,.cls-5{isolation:isolate;}.cls-4{fill:#e1eaeb;}.cls-5{fill:#92abb1;}.cls-6{fill:#c09c35;}.cls-7{fill:#da93ee;}.cls-8{fill:#2e3192;}.cls-10{fill:#fff;}.cls-11{fill:none;stroke:#0071bc;stroke-miterlimit:10;stroke-width:3px;}</style></defs><title>Asset 3</title><g id="Layer_2" data-name="Layer 2"><g id="New_Karen" data-name="New Karen"><path id="shadow" class="cls-1" d="M1091.4,631.12a102.22,102.22,0,0,0-13,1.16l-1.55.32-1.29.27.47-.18c-1.82.63-23.09,8.08-34.71,12.18l-4.31,1.52c-1.93.71-3.12,1.14-3.17,1.14l3.17-1.14,4.11-1.51c7.55-2.78,19.28-7.1,26.75-9.67,1.48-.51,6.43-2.21,5.87-2.35a2.21,2.21,0,0,0-.53,0l-.39.06L1062.64,634s-28.79,10.55-29.16,10.57c-.15,0,9.58-3.7,26.32-10a162.14,162.14,0,0,0-18.65,2.33c-1.29.25-2.31.47-2.83.58-7.91,2.94-9.71,3.52-9.71,3.52-5.21,1.68-10.45,3-10.54,2.93s.82-.27,2.54-.78c3-.9,9.2-2.72,13.87-4.5.5-.19,1.17-.45,1-.58-.34-.27-3.86.12-6.48.58-1.22.21-2.19.42-2.84.58-11.16,3.47-11.53,3.52-11.54,3.52-.19,0,3.47-1.35,9.72-3.52,0,0-.68-.1-1.73-.17a27.75,27.75,0,0,0-5.56.16,23.08,23.08,0,0,0-2.84.58c-6.1,1.57-9.71,1.77-17,3.51-3.58.86-6.2,1.64-7.93,2.19a17.75,17.75,0,0,1-2.59.74c-.12,0,.08-.16.53-.37a42.27,42.27,0,0,1,5.34-2c1.89-.58,3.64-1,6.68-1.75,4.24-1,6.77-1.56,6.68-1.76a5.58,5.58,0,0,0-1.82,0c-2.07.12-4.87.31-8.31.57-.07,0-11.49,1.8-35.34,6.53-.5.1-17.86,2.61-21.5,2.72-.5,0-1.11.17-1.56.16l-8.93-.27h-.12l-11.16-1.73c-12.42-1.93-3.74-.58-15.83-3.19-27.7-3-47.46-4.9-62.18-6.09-6.11-4.76-16.3-9.35-33.71-12.14-7.53-1.21-3.6,0-73.16-5.89l-2-.17c-1.18-.81-2.16-1.56-3-2.23-7.3-1.41-9.45-3.26-10.17-4.53a10.77,10.77,0,0,1-.79-4.12,8.5,8.5,0,0,1,0-3.3c.73-2.13,3.16-3.85,6.79-6.59s6.36-5.2,10-7.82a118.53,118.53,0,0,0,19.46-17.77h0c8.66-6.53,10-9.66,22.33-15.18,12.14-5.44,13.39-7.12,32.41-13.09a159.18,159.18,0,0,0,28.81-12l74.58,4.25a29,29,0,0,0,11.08-2.24c2.77-1.34,2.5-2.61-.66-2.88l-75.37-3.71c25.05-15.81,41.58-29.19-1.48-31.64C796.09,495.34,736,508.31,698.1,526.42l10.6.61a211.06,211.06,0,0,0-23.63,6.88H621.34l-.28.16c-7.88,4.61-10.77,8.78-9.08,11.8.84,1.49,2.8,2.69,5.81,3.53a31.62,31.62,0,0,0,3.75.77,51.24,51.24,0,0,0,5.46.49c1.06.05,2.19.07,3.36.07h.41c-37.83,7.3-100.58,19.11-100.58,19.11-40.07,7.54-50.34,9.66-63.77,13-19.3,4.73-43.14,11.41-42.55,11.78a32.91,32.91,0,0,0,4.36-.74c20.93-4.34,164.92-28.38,225.67-38.42l.44.16-.74.13c-87.25,15-196.08,33.83-196.07,34.16S609,566,631.91,562.77c8.54-1.19,15.68-1.77,25.25-3.53a68.6,68.6,0,0,1,8.41-1.18c1.89-.12,3.65-.12,5.13-.08,7.15.46,16.28.67,27.48.67,9.6,0,14.07-.13,17.79,1.77,3.32,1.69,6.12,4.75-5.2,17.08-9.19,10-20,17.75-31.51,25.91-13,9.22-19.58,12.71-23.58,14.73-3.71,1.87-6.78,3.27-9.45,4.42l-3.15-.2c-2.86-.18-32.69,2.25-71.18,3.73a94.22,94.22,0,0,0,17-9.48c8-5.84,10.37-11.2,7.69-15.48l.6-.25-.68.13c-3.44-5.28-14.73-8.9-33.08-9.69-26.14-1.12-58.74,2.95-87.29,9.82q-2.61.39-5.31.83l1.25.17c-17.67,4.48-33.53,10-45,16l-2.46.44,1.55,0c-1.17.63-2.28,1.26-3.35,1.9-15.93-1.8-28,.37-40.14.52-23.45.28-97,3.2-72.59,2.29,0,0,.11,4.38,5.48,5.23l3.42.51-1.32.07s63.8-2.66,85.37-3.63c-15,.81-50.34,2.79-69.67,3.52-3.19.13-13.69.51-14.72,1.09-.29.17.36.26.47.34l5.35,3.84s66-3.51,65.75-3.32-23.14,1.52-62.32,3.84c0,0,2.06,4.34,12.32,6.26,1.45.27,2.74.43,3.43.51,18.34-1,21.91-1.11,21.91-1.11a148.19,148.19,0,0,1,17.81.48c-.08,0-1.66,0-4.81,0-5.48,0-16.65-.1-27.72.58a15.77,15.77,0,0,0-3.77.54c-1.86.7.15,2,2.74,2.61a22.78,22.78,0,0,0,3.43.52c21.75-.19,21.57-.06,21.57-.06-.25.17-8.42.56-21.91,1.11,0,0-4.15,3-1.37,4.19A11.4,11.4,0,0,0,355,651c9.47.51,10.14,2.21,20.55,3.09,9.69.82,18.31.12,17.8.48s-8.05,1.06-14.72,1.09c-3.55,0-6.13-.18-10.62-.5-6.25-.45-9.27-.92-10.61-.5-.73.24-.57.61-.34,1.05a20.2,20.2,0,0,0,2.39,3.67c.07,0,15,8.3,42.47,13,4.1.7,107.15,4.13,169.62,4.17,9.47,0,12.68,1.32,21.23,1,1.84-.07,3.74-.17,7.73-.59a45.12,45.12,0,0,1-5.54,4.78,18.56,18.56,0,0,0-4.86,4.72c-.91,1.18-1.84,2.39-.83,2.35,2.58-.09,14.54-8.1,17.3-8.24,3.6-.19-11.06,13.07-9.35,12.95,1-.07,6.06-4.52,8.06-4.71,3.58-.34-6.07,13.27-3,13,1.9-.19,5.73-5.27,10.07-5.89,4.55-.65,8.75,3.71,8.31,8.24-.14,1.48-.84,3.68.36,3.54,1.36-.16,3.18-3.06,6-3.54a6,6,0,0,1,4.77,1.58l-.32.18a24.27,24.27,0,0,0,7.51,4.39l.09,0c-8.24,7.38-6.9,13.29,2.28,16.14-12.77,7.39-32.8,18-63.67,33.09-110.84,54.3-136.11,61.06-138.2,61.57-5.19-2.92-16.48-5.35-40.86-3.63-49.43,3.48-60.72,8.19-60.72,8.19l35.4.64c-20.83,2.4-33.43,4.55-40.9,6.14q-4.87.59-9.62,1.2c-9.12,1.18-18.16,2.46-24.67,3.93,30.77,1.48,72.71.27,112.22-3.07-17.62,4.37-33.47,10.81-39.94,16.71-.6.56-1.13,1.15-.46,1.46,1.05.49,4.31,0,7-.5,22.62-4.32,44.71-11.44,59.39-18.92,13.46-5.38,36.42-15.84,73.83-34.21,71.71-35.22,118.31-57.33,147.25-70.74,1.66,0,3.39,0,5.21-.15a180.84,180.84,0,0,0,40.68-7.38c1.67,4,8,6.76,18.16,7.82-8.81,4.88-21.26,11.47-38.82,20.35-52.45,26.51-146.1,67.8-190,86.94-38.88,3.63-91.74,15-101.68,23.93-.71.63-1.26,1.32,0,1.71,2,.61,7.21.15,11.41-.36a487.08,487.08,0,0,0,54.85-9.79,35,35,0,0,0-4.76,3.15c-7.37,6-10.74,11.45-12.32,16.39-1,3.06-1.27,6,1.82,7.84,23-8.64,43.45-18.5,59.1-28.22l.17.05c.36,6.83,11.89,13,24.32,17,9.84-2.75,13.42-6.53,14.37-9.5,2.57-8.11-6.69-14.43-24.33-17.64a80,80,0,0,0,10.54-9.73c12.66-8.15,33.82-19.65,68.52-35.9C668,760.51,720.51,739,748.77,728.06a274,274,0,0,0,50.85-10.31l4.6.91a1.94,1.94,0,0,0,1,.19c1.84-.27,4-3.51,4.8-4.63l2.35-.9c-2.53,3.5-4.29,5.95-4.28,5.95l.33-.42,1.19,1.18c2,1.85,15.18,2.35,15.18,2.35-4.28,6.34,5.57-7.69,11.38-17.46,5.61-1.58,10.24-3.16,11.54-3.45,2.57-.58,11.15-2,19.55-4.06,6.42-1.57,15.81-3.75,24.11-5.8a272.68,272.68,0,0,0,27.93-8.32c15.47-5.88,58.69-22.41,111.39-32.82,16.73-3.3,18.82-5.39,25.92-7.62l2.36-.75c10.94-3.53,32.12-10.84,34.53-11.69Z"/><g id="legs"><path class="cls-2" d="M446,515.45s22.13-17.92,5.27,120.27-29.5,149.56-29.5,149.56,8.43,121.93,29.5-53.65,32-216.94,32-216.94Z"/><path class="cls-2" d="M528.85,526.49s8.5-2.6,0,83.5-42.49,236.38-42.49,236.38l45.89,10.13s-32.29-5.06-11.9-135.07,43.34-184,43.34-184Z"/><path class="cls-2" d="M435.54,801s-16.9-33-55.74-24.57-41.72,19.91-41.72,19.91l92.33,4.41Z"/><path class="cls-2" d="M435.42,809.91s-21.74-27.43-58.7-14.31-38,23.85-38,23.85l91.65-9Z"/><path class="cls-2" d="M495.29,820.15c-30.22,7.61-62.59,36.59-57.68,59.06a5.58,5.58,0,0,0,2.63,4.13c2.75,1.48,6.68.38,9.65-.87,30.75-12.9,50.58-37.94,50.09-63.28"/><path class="cls-2" d="M494.89,818.71A96.14,96.14,0,0,0,458.7,837.3c-9.3,7.5-18.26,17.24-21.79,28.9-1.42,4.7-2.12,10.59-.18,15.25,3.19,7.67,13.36,2.71,18.44.29,12.5-5.94,24.05-14.41,32.65-25.32,7.47-9.49,12.7-20.81,13.55-33,.1-1.42.13-2.84.11-4.27,0-1.93-3-1.93-3,0,.18,11.21-3.71,22-9.94,31.19-7.1,10.53-17.08,19-28.06,25.21a101.47,101.47,0,0,1-9.25,4.68c-2.8,1.24-6.47,3-9.6,2-2.55-.82-2.83-4.08-3-6.37a23.72,23.72,0,0,1,.59-6.88c2.5-10.89,10.52-20.08,18.72-27.24a94.81,94.81,0,0,1,33.19-18.93q2.23-.71,4.53-1.29c1.87-.47,1.07-3.37-.8-2.89Z"/><path class="cls-2" d="M498.1,814.52c-9.86,19.72-16.19,37.25-13.6,51.83s7.9,27.81,14,39.81c3.8,7.42,8.07,14.62,13.6,19,14.14-40.21,13-91.42-3-130.11"/><path class="cls-2" d="M496.81,813.76a188.07,188.07,0,0,0-10.26,23.85,70.35,70.35,0,0,0-4.13,21.27c-.11,7.64,2,15.34,4.23,22.58a158.94,158.94,0,0,0,9.34,23c3.87,7.82,8.17,16.22,15.08,21.8a1.53,1.53,0,0,0,2.51-.66,182.61,182.61,0,0,0,9.64-51A200.23,200.23,0,0,0,519,821.84a163.21,163.21,0,0,0-8.38-27.17c-.72-1.76-3.63-1-2.89.8a173.74,173.74,0,0,1,11.83,49.36A198.5,198.5,0,0,1,517.77,897a170,170,0,0,1-7.09,27.74l2.51-.66c-6-4.82-9.81-11.8-13.26-18.52a162.05,162.05,0,0,1-9.41-21.94q-2-5.8-3.37-11.8a58.88,58.88,0,0,1-1.7-10.55c-.29-6.83,1.11-13.62,3.1-20.12a168.89,168.89,0,0,1,10.85-25.91c.86-1.73-1.73-3.25-2.59-1.52Z"/><path class="cls-2" d="M522.05,856.78c10.76,16.58,30.53,31.63,47.74,41.34,4.59-6.68,2-15.85-1.68-23.06-14.66-28.62-45.8-48-77.93-48.52-5.45-.08-12.37,1.57-13.22,7"/><path class="cls-2" d="M520.76,857.54c9.17,14.05,22.53,25.25,36.35,34.52q5.82,3.9,11.92,7.35a1.52,1.52,0,0,0,2.05-.54c5.77-8.67,1.16-19.77-3.44-27.84a89.07,89.07,0,0,0-17.4-21.63,93.43,93.43,0,0,0-50-23.59c-4.88-.65-10-1.21-14.92-.38-4.27.73-8.93,3-9.77,7.67-.34,1.89,2.55,2.7,2.89.8.67-3.72,4.52-5.08,7.84-5.6,4-.64,8.28-.17,12.27.3a86.56,86.56,0,0,1,25.09,6.95A90.21,90.21,0,0,1,562.94,869c4.92,7.73,11.44,19.47,5.55,28.32l2.06-.54c-14.27-8.06-27.87-18-38.91-30.15A84.45,84.45,0,0,1,523.35,856c-1.05-1.61-3.65-.11-2.59,1.52Z"/><path class="cls-2" d="M428.32,808.25c-16.81,8.18-26.64,30.37-22.18,50.08a5.76,5.76,0,0,0,1.82,3.54c1.68,1.19,3.86,0,5.47-1.23,16.74-12.9,26.3-36.06,24.17-58.52"/><path class="cls-2" d="M427.56,807c-15.76,7.76-24.61,26.23-24,43.35a47.81,47.81,0,0,0,.74,6.65c.39,2.19.85,4.88,2.86,6.21s4.65.43,6.52-.89a44.5,44.5,0,0,0,5.25-4.44,65.88,65.88,0,0,0,15.5-23.55,70.67,70.67,0,0,0,4.63-32.17c-.17-1.91-3.18-1.93-3,0,1.61,17.49-3.71,35.82-15.16,49.27-2.66,3.12-5.73,6.44-9.22,8.63-.77.49-1.93,1.19-2.83.66s-1.13-2-1.34-2.93a40.54,40.54,0,0,1-.87-6,46.84,46.84,0,0,1,4.61-23.63c3.84-7.87,9.87-14.67,17.79-18.57,1.73-.86.21-3.45-1.52-2.59Z"/><path class="cls-2" d="M410.35,801.23c-12.13-1.44-26.42-.14-39.18,2.69a175.6,175.6,0,0,0-34.42,11.73c-6.35,2.87-12.47,6-16,9.56,36.45,4.38,81.74-1,115-13.74"/><path class="cls-2" d="M410.35,799.73c-12.57-1.46-25.49-.21-37.83,2.37a175.82,175.82,0,0,0-35.39,11.75c-6.09,2.71-12.66,5.56-17.47,10.3a1.52,1.52,0,0,0,1.06,2.56,240,240,0,0,0,45.72.79,272.4,272.4,0,0,0,46.13-7.25,206.5,206.5,0,0,0,23.6-7.33c1.79-.68,1-3.58-.8-2.89a227.57,227.57,0,0,1-43.05,11.37,272.3,272.3,0,0,1-46.59,3.81,222.33,222.33,0,0,1-25-1.5l1.06,2.56c4.11-4,9.69-6.56,14.87-8.93,5.42-2.48,10.94-4.74,16.56-6.71a148.51,148.51,0,0,1,36.65-8.07,103.16,103.16,0,0,1,20.49.17c1.92.23,1.9-2.78,0-3Z"/></g><g id="body"><path class="cls-3" d="M409.29,328.16c-1.72-.53-28.6-8.59-28.6-8.58h0s-4.52,15.08-5.72,22.88-.31,16.21,8.58,37.18a222.51,222.51,0,0,0,28.6,48.62c32.41,40.93,94.39,42.9,117.27,42.9C563.07,471.16,442.83,338.44,409.29,328.16Z"/><path class="cls-4" d="M714.8,322.22c-.86,2-8.61,19.8-13,28.37-.34.67-.67,1.28-1,1.83-2.93,5.41-1.61,10.49-11.51,18.51-31.19,25.25-44.55,65.39-49.39,79.68-5.2,11.74-8,15.21-12.24,20.2s-9.35,10.26-12.68,14.08c-4.36,5-9.86,8.45-11.27,9.86-1.08,1.09-4.54,9.45-9.86,14.09-.1.09-1.3,2.73-1.41,2.82-1.89,26.12-22.14,46.16-44.36,49.58-16.52,2.54-32.69-5.41-43.85-19.64-5.9,9.66-14.62,16.32-25.06,17.92-21.4,3.29-42.3-15.84-48.3-43.35l-.12-.06a86.11,86.11,0,0,1-13.41-10.64l3.25-109.32c15.18-16.41,8.88-40,28.88-50,16.9-8.45,15.49-12.68,116.21,12,14.79,6.34,5,3.07,19,7.75l12.61,4.21.12,0,8.39.65c.42,0,.74-.33,1.16-.37,3.07-.28,14.75-6.38,15.05-6.62,14.08-11.48,21.55-15.82,21.6-15.85,2.67-.65,4.89-1.09,6.55-1.4.78-.14,1.42-.25,1.63,0,.38.48-1.09,1.74-3.29,4.27a26.51,26.51,0,0,0-3.28,4.26,14.48,14.48,0,0,0-1.76,4.8c-.07.52,0,.86.1.9s.53-.62,1.17-1.81a26.71,26.71,0,0,1,3.76-5.3c3.86-4.23,6.79-4.7,9.84-8.52a4.43,4.43,0,0,1,1.64-1.42,8.31,8.31,0,0,1,4.73-.38,13.73,13.73,0,0,1,1.8.41c-2.26,5.28-3.52,8.47-3.3,8.55,0,0,.26-.13,4.94-8.55a8.44,8.44,0,0,1,1.64-1.41c1.64-1.12,4.19-2.06,4.91-1.42.35.33.15,1,0,1.43a59.62,59.62,0,0,1-5.52,10.92,12.68,12.68,0,0,0-1.07,1.9,28.36,28.36,0,0,0,4.93-7.12s.73-1.41,3.31-8.55a20.92,20.92,0,0,1,1.63-1.41c5.54-4.31,13.09-5.65,13.1-5.66-5.36,15.24-8.43,24.19-8.27,24.23S692.77,331,692.76,331l7.51-2.59a1.12,1.12,0,0,0,.26-.14.51.51,0,0,1,.41-.09c.72.34-1.11,4.45-1.65,5.7-2.74,6.25-6.63,16.73-9.12,23.48-.53,1.41-1,2.66-1.37,3.67-.68,1.68-1.09,2.72-1.08,2.78s.44-1.05,1.08-2.78l1.53-3.69c4.12-10,11.74-28,12.41-29.57l-.16.42.74-.65.9-.77c2.63-2.23,9.81-2.82,9.81-2.82C714.43,323,714.67,322.48,714.8,322.22Z"/><path class="cls-5" d="M364.51,366.14c-.11.2,7.18,4.43,36,20.2,5,7,4.42,12,3.94,14s-2.11,6.36-17.79,15.48c-4.4,2.56-8.22,4.53-17.84,9.09-22.09,10.46-25.7,11.32-29.33,11.73-7.15.79-12-2.4-20.49-2.41-55.87-.1-153.19-8.43-157.92-10.12-31.74-11.39-57.7-31.5-57.79-31.56C100,389,97.38,386,95.51,383.7c-.89-1.09-1.6-2-1.3-2.55.55-1,4,.1,10.24,1.2a53.57,53.57,0,0,0,10.24,1.21c5.92-.07,11.58-1.84,11.5-2.65s-6.73.83-16.64-1.15c-10.64-2.13-13.84-6.26-23.08-7.51A8.41,8.41,0,0,1,82.62,371c-4.26-2.83-5.19-10.18-5.19-10.19,11.23-1.33,17.92-2.29,17.89-2.69,0,0,0-.31-19.19.14A16.86,16.86,0,0,1,72.29,357c-3.29-1.54-7-4.65-6.45-6.35.3-.85,1.58-1.12,2.55-1.3,8.85-1.67,19-1.45,23.88-1.41a24.75,24.75,0,0,0,4.25-.08c0-.25-7.7-1.63-16.63-1.15,0,0-3.09.16-17.89,2.69a40,40,0,0,1-3.85-1.25C46,343.49,37.6,333,37.57,333c31.47-5.63,49.87-9,49.82-9.32-.08-.47-53.66,8.07-53.66,8.07l-10.65-9.32c-.22-.2-.95-.43-.94-.83,0-1.43,8.82-2.35,11.49-2.64,20.91-2.3,62.58-9.71,62.61-9.42s-76.47,9.69-76.48,9.67l1.08-.16h0L17,317.76c-6.08-2.05-12.88-12.7-12.88-12.7h0c-20.42,2.2,40.83-4.88,61.36-5.57,12-.39,20-7.1,42.22,1,84.23,30.56,186.22,1.23,192.39,2.2,18.92,2.95,62.18,9.71,95,41.51,6.5,6.31,1.53,2.87,46.49,59.78,5,6.34,14.18,17.91,12.93,19.09s-13.51-8.8-20.58-15.2c-5.8-5.26-9.39-9.2-16.73-13.95a87.07,87.07,0,0,0-9-5.05C386.77,378.27,364.69,365.79,364.51,366.14Z"/><path class="cls-4" d="M292,193.73c7.06,24.28,9.24,43.09,11.44,62.92,2.48,22.39,1.92,30.86,1.43,35.75-1.77,17.58-5.62,18.24-5.72,31.47-.09,11.89,2.89,28.5,11.44,42.9,4.35,7.33,7.06,15.56,11.44,22.88,1.31,2.2,4.1,6.71,2.86,11.44-.83,3.15-3.18,5.43-2.86,5.72.52.47,5.67-6.74,8.58-5.72,2.48.87,1.5,7.08,2.86,20,.66,6.32,1.89,14.33,2.86,14.3,1.27,0,.79-14.07,2.86-14.3s7.25,15,8.58,25.74a45.88,45.88,0,0,0,2.86,11.44c1,2.88,2,5.81,2.86,5.72,2.16-.22.61-19.68,2.86-20,2.93-.44,10.09,31.75,11.44,31.46.78-.16-1.5-11,0-11.44,2.68-.83,14.86,32.23,17.16,31.47,1.41-.47-2.93-12.8,0-14.31s13.49,9,20,20c2.13,3.58,4.86,8.92,5.72,8.58s-1.83-7.43,0-8.58,7.73,4.84,8.58,5.72c16.41,16.81,69,31.39,108.69,25.74a43.64,43.64,0,0,0,17.16-5.72c15.57-9.43,19.59-26.6,20-28.6,2.94-13.51-1.44-25.36-5.72-34.33-15.15-31.72-42.11-54.6-82.94-88.66-42.74-35.65-55.82-46.13-66.66-52.81-.8-.49-3.75-2-7.71-4.4a193.1,193.1,0,0,1-32.46-24.43c-8.67-3.4-13.42-7.91-16-11a118.52,118.52,0,0,1-7-10,88.44,88.44,0,0,1-5-8c-2.62-5.19-3.07-9.36-4-16-.89-6.35-2.27-12.63-3-19-1-8.63-3.43-22.11-9.76-43.13h0c-2.24-15.87-5.8-23.46-3.24-36.87,2.52-13.22,1.08-17.28,9-31.78,11.66-21.47,10.29-55.88-8.58-71.5-11.71-9.7-26.49-9.11-40-8.58-29.34,1.15-61.35,13.5-69.34,19.86-8.28,6.59-5.83,17.52-10.75,31.62-2,5.71-2.86,20-2.86,20s-3.31,17.6,2.86,25.74c6.84,9,22.84,12.88,50,12.88,8.58,0,12.37-.33,18.6,4.29C276.13,156.37,283.31,163.8,292,193.73Z"/><path class="cls-5" d="M446.48,351c-.13.18-7.21-4.39-34.33-22.88-8.5-1.25-12.67,1.5-14.3,2.86s-4.7,4.77-5.72,22.88c-.28,5.08-.3,9.38,0,20,.7,24.42,1.57,28,2.86,31.46,2.54,6.73,5.94,10.72,11.44,17.16,31.55,36.95,27.81,33.74,31.46,37.18,24.56,23.12,54.26,37.13,54.35,37.19,4.66,1.32,8.53,2.23,11.44,2.86,1.37.29,2.49.51,2.86,0,.67-1-1.89-3.49-5.72-8.59a52.58,52.58,0,0,1-5.72-8.58c-2.62-5.3-3.62-11.15-2.86-11.44s2.31,6.38,8.58,14.3C507.54,494,512.68,495,518,502.63a8.53,8.53,0,0,0,2.86,2.86c4.46,2.51,11.43,0,11.44,0-3.92-10.61-6.1-17-5.72-17.17,0,0,.28-.11,8.58,17.17a16.9,16.9,0,0,0,2.86,2.86c2.87,2.23,7.33,4.16,8.58,2.86.62-.65.28-1.92,0-2.86-2.53-8.64-7.31-17.56-9.58-21.92a25.39,25.39,0,0,1-1.86-3.83c.22-.12,5,6.12,8.58,14.31,0,0,1.25,2.82,5.72,17.16a39,39,0,0,0,2.86,2.86c9.65,8.67,22.85,11.43,22.88,11.44-9.27-30.6-14.57-48.54-14.3-48.63.46-.14,17.16,51.49,17.16,51.49l13.14,5.25c.27.11.81.65,1.16.47,1.27-.67-1.91-8.93-2.86-11.44-7.44-19.67-19.74-60.17-20-60.07S595.53,538,595.55,538l-.35-1h0l2.86,2.86c4.59,4.49,17.16,5.71,17.16,5.72h0c7.31,19.19-14.17-38.61-22.88-57.21-5.08-10.86-8.39-16.57-20-37.18-40-71-36.38-66.43-40-71.5-11.22-15.51-36.87-51-80.08-65.79-8.58-2.93-3.26-.06-74.37-14.3-7.93-1.58-22.4-4.5-22.88-2.86s14,8.05,22.88,11.44c7.32,2.79,12.46,4.19,20,8.58a83.61,83.61,0,0,1,8.58,5.73C425.56,336.71,446.7,350.71,446.48,351Z"/></g><g id="head"><path class="cls-6" d="M207.65,120.79a16.92,16.92,0,0,0,5.72,2.86A19.81,19.81,0,0,0,231,119.76c1.15-1,2-2.06,2.39-1.83.83.45-1.55,4.53-2.86,11.44-1.68,8.92-.4,16.32,0,17.06a.15.15,0,0,1,0,.1c-.13.56-4.61-.78-8.58,0a13.69,13.69,0,0,0-5.72,2.87c-5.85,4.28-11.36,5.67-17.16,8.58-15.53,7.77-113.8,66.71-114.41,65.78s68-46.52,123-82.95c8.62-5.7,17.2-11.37,17.16-11.44-.17-.26-144.9,90.62-160.26,104-.53.46-2.38,2.12-2.77,1.8-1.08-.9,10-17.1,20-28.6,7-8,12.91-13.15,37.19-31.46,0,0,74.59-56.26,77-59.91a.41.41,0,0,1,.18-.16c.7-.28,2.17,2,2.86,2.86C200.2,119.31,202.49,120.75,207.65,120.79Z"/><path class="cls-7" d="M412.68,86.71a6.28,6.28,0,0,1-1.49,12.44L202.68,69.71c6.19-44,40.06-75.48,87.33-68.82,42.22,5.94,47.9,38.44,49.67,76.82Z"/><rect class="cls-4" x="217.32" y="50.19" width="49.59" height="14.5" rx="4.15" transform="translate(10.37 -33.19) rotate(8.01)"/><path d="M280.59,88.29c0,22.34-15.12,40.45-33.77,40.45a28.43,28.43,0,0,1-7.94-1.13h0a29,29,0,0,1-5-2,30.51,30.51,0,0,1-4.07-2.42,36.78,36.78,0,0,1-9.52-10,45.54,45.54,0,0,1-7.2-25v-.4h67.52C280.59,88,280.59,88.15,280.59,88.29Z"/><path d="M213.06,88.29c0,22.34-15.12,40.45-33.77,40.45a29,29,0,0,1-3.11-.17A29.83,29.83,0,0,1,166,125.5a34.25,34.25,0,0,1-10.59-8.57,44.73,44.73,0,0,1-9.91-28.64v-.4h67.52C213.06,88,213.06,88.15,213.06,88.29Z"/><polygon class="cls-8" points="233.85 125.64 263.54 87.89 270.12 87.89 238.88 127.61 238.88 127.61 233.85 125.64"/><path class="cls-8" d="M257.55,87.89l-27.77,35.33a36.78,36.78,0,0,1-9.52-10l20-25.38Z"/><polygon class="cls-8" points="176.18 128.57 208.17 87.89 201.59 87.89 170.55 127.36 176.18 128.57"/><polygon class="cls-8" points="178.27 87.89 173.02 94.57 190.35 94.57 195.6 87.89 178.27 87.89"/><path class="cls-8" d="M190.35,94.57,166,125.5a34.25,34.25,0,0,1-10.59-8.57L173,94.57Z"/></g><g id="volleyball" class="cls-9"><path d="M268,338.51c-1.11,17.69-48.17,32.53-94.95,29.6-29-1.81-48.44-10.63-49.49-21.62-1.64-17.33,44.89-32.71,92.32-30.76C247.32,317,268.77,326.68,268,338.51Z"/></g><g id="volleyball-2" data-name="volleyball"><path class="cls-10" d="M242.9,288.69A71.46,71.46,0,0,1,160,368.49c-29.75-4.89-52.78-28.65-58.3-58.29C93,263.49,133.28,222,181.51,227.3,213.45,230.78,238.84,256.82,242.9,288.69Z"/><path class="cls-11" d="M99.19,293.53c25.33-18.53,58-13.85,72.1,5.38"/><path class="cls-11" d="M115.05,253.15c46.39-28.09,84.14-3.48,95.63,29.35"/><path class="cls-11" d="M154.88,367.84c-32.23-12.24-36.25-59-26.26-85.34"/><path class="cls-11" d="M181.76,367.45c-22-18.91-26.46-49.81-9.92-69.08"/><path class="cls-11" d="M226.27,250.49c-6.69,31.58-31.84,52.95-56.23,47.78"/><path class="cls-11" d="M241.86,295.63c-10.11,27.21-54.57,46.75-78.78,37.75"/></g></g></g></svg>