<?xml version="1.0" encoding="UTF-8" standalone="no"?>
<!-- Created with Inkscape (http://www.inkscape.org/) -->

<svg
   xmlns:dc="http://purl.org/dc/elements/1.1/"
   xmlns:cc="http://creativecommons.org/ns#"
   xmlns:rdf="http://www.w3.org/1999/02/22-rdf-syntax-ns#"
   xmlns:svg="http://www.w3.org/2000/svg"
   xmlns="http://www.w3.org/2000/svg"
   xmlns:sodipodi="http://sodipodi.sourceforge.net/DTD/sodipodi-0.dtd"
   xmlns:inkscape="http://www.inkscape.org/namespaces/inkscape"
   width="1750"
   height="500"
   viewBox="0 0 463.02082 132.29166"
   version="1.1"
   id="svg10510"
   inkscape:version="0.92.4 (5da689c313, 2019-01-14)"
   sodipodi:docname="Banner Sign_Registration pg.svg"
   inkscape:export-filename="C:\Users\fwang\OneDrive\Documents\SH 2020 Graphic Design\Prospectus\Website\Registration pg\Sign.png"
   inkscape:export-xdpi="96"
   inkscape:export-ydpi="96">
  <defs
     id="defs10504">
    <clipPath
       clipPathUnits="userSpaceOnUse"
       id="clipPath4266-7">
      <path
         inkscape:connector-curvature="0"
         id="path4268-7"
         d="m 453.81918,244.10648 v 36.73574 h 7.27811 v -18.79265 c 0.7952,-0.55089 1.52956,-0.95223 2.20348,-1.20406 0.68738,-0.25183 1.36115,-0.37776 2.02157,-0.37776 0.93001,0 1.65153,0.13396 2.16371,0.40153 0.52562,0.26757 0.92311,0.69249 1.19269,1.27486 0.22913,0.50365 0.39087,1.2903 0.48525,2.36058 0.0943,1.05454 0.14157,2.11712 0.14157,3.1874 v 13.1501 h 7.31843 v -17.25838 c 0,-3.321 -0.69432,-5.8154 -2.08256,-7.48378 -1.37477,-1.66837 -3.28821,-2.50269 -5.74125,-2.50269 -1.45565,0 -2.78368,0.31508 -3.98322,0.94465 -1.1861,0.62958 -2.42578,1.53462 -3.71967,2.71508 v -13.15062 z m 81.51596,0 v 36.73574 h 7.27811 v -8.73538 l 1.98125,-2.80913 6.36863,11.54451 h 8.47079 l -8.754,-15.0859 8.16797,-11.42721 h -8.39017 l -7.84447,11.7104 v -21.93303 z m -42.75968,9.46712 c -1.73869,0 -3.47753,0.16556 -5.21621,0.4961 -1.72522,0.31478 -2.97156,0.59021 -3.73983,0.8263 v 6.39806 h 0.66714 c 0.59304,-0.26757 1.57031,-0.64534 2.93161,-1.13326 1.36128,-0.50366 2.64155,-0.75551 3.84112,-0.75551 1.99477,0 3.50406,0.28345 4.5284,0.85008 1.02433,0.55087 1.53685,1.55827 1.53685,3.02203 v 0.1416 c -2.14304,0.14166 -4.21208,0.36189 -6.20686,0.66094 -1.99477,0.29904 -3.66582,0.80274 -5.01364,1.51102 -1.36131,0.70827 -2.41303,1.67602 -3.15433,2.90369 -0.74131,1.22768 -1.11157,2.80951 -1.11157,4.74545 0,2.42387 0.72771,4.41508 2.18334,5.97328 1.45563,1.5582 3.26176,2.33733 5.41827,2.33733 0.91652,0 1.75871,-0.0943 2.52698,-0.28319 0.76825,-0.17313 1.50979,-0.44856 2.22414,-0.82631 0.51218,-0.28331 1.05807,-0.66911 1.63764,-1.15703 0.57957,-0.48792 1.06434,-0.90482 1.45521,-1.25109 v 2.80913 h 7.21765 v -18.03714 c 0,-3.17936 -0.92335,-5.5087 -2.76987,-6.9882 -1.83304,-1.49525 -4.81822,-2.24328 -8.95604,-2.24328 z m 30.02245,0.0238 c -1.72519,0 -3.38957,0.25988 -4.99348,0.77928 -1.6039,0.5194 -3.01924,1.33765 -4.24574,2.45515 -1.26696,1.18046 -2.25756,2.66797 -2.97191,4.46226 -0.70088,1.79429 -1.05111,3.92697 -1.05111,6.39806 0,2.34517 0.3302,4.39105 0.99066,6.13813 0.66042,1.74707 1.59043,3.19545 2.79,4.34443 1.21304,1.14898 2.63504,1.99884 4.26588,2.54972 1.64436,0.55088 3.45715,0.82631 5.43843,0.82631 1.50955,0 2.8843,-0.18915 4.1243,-0.56689 1.25346,-0.36201 2.45311,-0.85768 3.59875,-1.48725 v -7.24814 h -1.03094 c -0.29652,0.33053 -0.62006,0.66917 -0.9705,1.01544 -0.35041,0.34627 -0.75509,0.67689 -1.21335,0.99167 -0.48522,0.33053 -1.09839,0.6215 -1.83967,0.87334 -0.72785,0.23608 -1.55001,0.35398 -2.46653,0.35398 -1.96781,0 -3.49096,-0.66072 -4.56922,-1.98283 -1.06479,-1.32211 -1.59681,-3.25813 -1.59681,-5.80791 0,-2.47109 0.51869,-4.42265 1.55649,-5.85494 1.05129,-1.44803 2.54725,-2.17196 4.4881,-2.17196 0.87609,0 1.64433,0.11789 2.30476,0.35398 0.66045,0.22036 1.26693,0.50381 1.81954,0.85008 0.57957,0.362 1.06487,0.73175 1.45573,1.10949 0.40434,0.37775 0.7484,0.70836 1.03146,0.99168 h 1.03094 v -7.24814 c -1.13217,-0.62958 -2.35182,-1.14131 -3.65921,-1.53479 -1.30738,-0.39349 -2.73656,-0.59015 -4.28657,-0.59015 z m 50.7256,0 c -3.58521,0 -6.41583,0.84986 -8.49148,2.54972 -2.06216,1.68412 -3.09335,3.80125 -3.09335,6.35103 0,1.98316 0.49866,3.64376 1.49603,4.98161 0.9974,1.32211 2.52722,2.2979 4.58939,2.92747 0.75477,0.23609 1.59083,0.44078 2.50735,0.61392 0.92998,0.15738 1.66436,0.30689 2.20347,0.44855 1.13218,0.26756 1.90043,0.5505 2.30476,0.84956 0.40436,0.2833 0.60669,0.74787 0.60669,1.3932 0,0.72401 -0.34406,1.27487 -1.03145,1.65261 -0.68739,0.362 -1.74527,0.54312 -3.17397,0.54312 -1.09175,0 -2.11624,-0.12593 -3.07321,-0.37776 -0.95695,-0.26757 -1.81251,-0.58263 -2.56728,-0.94464 -0.87606,-0.40922 -1.55702,-0.787 -2.04224,-1.13327 -0.47175,-0.362 -0.88924,-0.6921 -1.25317,-0.99115 h -0.66712 v 6.9882 c 0.99737,0.53514 2.3182,1.02277 3.96253,1.46348 1.64436,0.4407 3.47715,0.66146 5.49889,0.66146 3.6526,0 6.53047,-0.83431 8.63306,-2.50269 2.10262,-1.68412 3.15383,-3.89556 3.15383,-6.63422 0,-1.87299 -0.4586,-3.43124 -1.37512,-4.67465 -0.91651,-1.25915 -2.33132,-2.17975 -4.24521,-2.76211 -0.86262,-0.25182 -1.72537,-0.45652 -2.58797,-0.61392 -0.84913,-0.17314 -1.6446,-0.34621 -2.38591,-0.51934 -1.34781,-0.33053 -2.20337,-0.66115 -2.56727,-0.99167 -0.36391,-0.33054 -0.54571,-0.81065 -0.54571,-1.44023 0,-0.69254 0.39749,-1.22784 1.19269,-1.60558 0.8087,-0.37775 1.79933,-0.56638 2.97193,-0.56638 1.41521,0 2.80999,0.27543 4.18476,0.82631 1.38824,0.53514 2.62176,1.2355 3.70001,2.10116 h 0.62685 v -6.70501 c -0.87608,-0.45645 -2.09626,-0.88138 -3.65974,-1.27486 -1.54998,-0.40923 -3.17381,-0.61392 -4.87204,-0.61392 z m -76.23979,14.80323 v 5.52421 c -0.56608,0.56662 -1.2265,1.02316 -1.98128,1.36943 -0.74131,0.34627 -1.47566,0.51935 -2.20348,0.51935 -0.91651,0 -1.59027,-0.0707 -2.02157,-0.21239 -0.43133,-0.1574 -0.80209,-0.3937 -1.1121,-0.70849 -0.32345,-0.31478 -0.52581,-0.6454 -0.60666,-0.99167 -0.0809,-0.34626 -0.12094,-0.79477 -0.12094,-1.34565 0,-0.83419 0.18846,-1.50294 0.56586,-2.0066 0.39087,-0.5194 0.95012,-0.91271 1.67794,-1.18029 0.59303,-0.22034 1.46245,-0.40949 2.6081,-0.56689 1.14565,-0.17312 2.21022,-0.30657 3.19413,-0.40101 z"
         style="font-style:normal;font-variant:normal;font-weight:bold;font-stretch:normal;font-size:44.74362183px;line-height:1.25;font-family:'Avenir Light';-inkscape-font-specification:'Avenir Light, Bold';font-variant-ligatures:normal;font-variant-caps:normal;font-variant-numeric:normal;font-feature-settings:normal;text-align:start;letter-spacing:0px;word-spacing:0px;writing-mode:lr-tb;text-anchor:start;fill:#0000ff;fill-opacity:1;stroke:none;stroke-width:47.05205917" />
    </clipPath>
    <clipPath
       clipPathUnits="userSpaceOnUse"
       id="clipPath4201-3">
      <path
         inkscape:connector-curvature="0"
         id="path4203-8"
         d="m 543.81213,243.25694 c -1.55877,0 -3.03073,0.34312 -4.41627,1.02939 -1.3698,0.68626 -2.74751,1.64049 -4.13308,2.86236 v -3.11351 h -4.44006 v 28.0448 h 4.44006 v -20.93929 c 1.21237,-0.98754 2.42461,-1.79945 3.63699,-2.43551 1.22809,-0.63604 2.44837,-0.95394 3.66074,-0.95394 1.27535,0 2.25148,0.18418 2.92852,0.55242 0.67704,0.3515 1.19642,0.88688 1.55855,1.60662 0.33065,0.66952 0.54322,1.56521 0.6377,2.68666 0.1102,1.10471 0.16537,2.27641 0.16537,3.51503 v 15.96801 h 4.44002 v -17.95135 c 0,-0.50214 -0.0156,-1.00475 -0.047,-1.50689 -0.0315,-0.51888 -0.0706,-0.97049 -0.11782,-1.35547 1.24384,-1.02102 2.4877,-1.85818 3.73155,-2.51096 1.24386,-0.66953 2.4877,-1.00407 3.73156,-1.00407 1.27534,0 2.25147,0.18418 2.92851,0.55242 0.67702,0.36823 1.19642,0.9122 1.55855,1.63194 0.33065,0.66951 0.54322,1.56469 0.63768,2.68614 0.11022,1.12145 0.16536,2.28509 0.16536,3.49023 v 15.96801 h 4.44005 v -18.2025 c 0,-3.34761 -0.69286,-5.95039 -2.07843,-7.80831 -1.3698,-1.87467 -3.50303,-2.81223 -6.40011,-2.81223 -1.68474,0 -3.26697,0.35978 -4.747,1.07952 -1.48002,0.703 -3.11795,1.85806 -4.91289,3.4649 -0.61404,-1.42272 -1.55056,-2.5359 -2.81016,-3.33933 -1.24386,-0.80343 -2.76344,-1.20509 -4.55838,-1.20509 z m 47.1878,0 c -1.66897,0 -3.24318,0.35978 -4.72321,1.07952 -1.46428,0.703 -2.78736,1.58204 -3.96825,2.63653 v -2.93781 h -4.44002 v 38.38888 h 4.44002 v -11.75019 c 1.1494,0.66952 2.27545,1.16354 3.37759,1.48156 1.11789,0.31802 2.36175,0.47697 3.73155,0.47697 1.57449,0 3.0625,-0.33507 4.46382,-1.00458 1.41703,-0.68627 2.64482,-1.64856 3.684,-2.88717 1.11789,-1.30557 1.98424,-2.89559 2.59829,-4.77025 0.61404,-1.8914 0.92088,-3.97545 0.92088,-6.25181 0,-4.53601 -0.88939,-8.07585 -2.66859,-10.62003 -1.76342,-2.56092 -4.23558,-3.84162 -7.41608,-3.84162 z m -144.60977,0.10077 c -1.68471,0 -3.21183,0.23414 -4.58163,0.7028 -1.35406,0.45193 -2.47208,1.07108 -3.35381,1.85776 -0.91321,0.80342 -1.59805,1.71577 -2.05464,2.73679 -0.44085,1.02102 -0.66146,2.10895 -0.66146,3.26388 0,1.84119 0.4803,3.39791 1.44073,4.67 0.97621,1.25535 2.62163,2.20957 4.93615,2.86236 0.83447,0.23433 1.75546,0.45182 2.76312,0.65267 1.02344,0.20085 1.85015,0.37645 2.47997,0.5271 1.70045,0.40171 2.84953,0.88715 3.44784,1.45624 0.5983,0.5691 0.89762,1.40625 0.89762,2.51096 0,1.43947 -0.55099,2.4936 -1.65314,3.16312 -1.10212,0.66952 -2.62924,1.00458 -4.58163,1.00458 -1.57448,0 -3.21993,-0.32648 -4.93612,-0.97926 -1.71619,-0.66953 -3.27491,-1.56521 -4.67619,-2.68666 h -0.23617 v 5.29787 c 1.10215,0.58583 2.4638,1.1298 4.08554,1.63194 1.63748,0.4854 3.4323,0.72812 5.38469,0.72812 3.44813,0 6.16445,-0.82051 8.14832,-2.46083 1.99961,-1.64033 2.99932,-3.74102 2.99932,-6.30194 0,-2.04204 -0.55902,-3.68202 -1.67691,-4.92063 -1.11789,-1.22188 -2.70819,-2.08375 -4.77078,-2.58589 -0.67701,-0.16738 -1.52733,-0.35156 -2.55074,-0.55242 -1.00769,-0.20086 -1.92061,-0.4017 -2.73936,-0.60255 -1.48003,-0.36824 -2.55093,-0.8456 -3.2122,-1.43144 -0.67705,-0.58582 -1.01545,-1.45628 -1.01545,-2.61121 0,-1.30556 0.55899,-2.2845 1.6769,-2.93729 1.1179,-0.66952 2.48756,-1.00407 4.1093,-1.00407 1.55877,0 3.14905,0.30932 4.77078,0.92863 1.62171,0.60256 2.99945,1.34737 4.13306,2.23449 h 0.23617 v -5.04621 c -1.07067,-0.58583 -2.41679,-1.07985 -4.0385,-1.48156 -1.60599,-0.41845 -3.19627,-0.62735 -4.77078,-0.62735 z m 64.35783,0 c -1.59025,0 -3.20407,0.15037 -4.84155,0.45165 -1.63748,0.30128 -2.88936,0.5773 -3.75534,0.82837 v 4.79557 h 0.23617 c 1.52725,-0.6193 3.00725,-1.08809 4.44002,-1.40611 1.4328,-0.33477 2.7318,-0.50178 3.89692,-0.50178 0.96046,0 1.88142,0.0666 2.76315,0.2005 0.88172,0.13391 1.63777,0.39328 2.26756,0.77825 0.66129,0.40172 1.16514,0.95427 1.51153,1.65727 0.36214,0.703 0.54311,1.59009 0.54311,2.66133 v 0.72812 c -2.58217,0.13391 -4.99917,0.33474 -7.25072,0.60255 -2.25152,0.26781 -4.1802,0.77848 -5.7862,1.53169 -1.59022,0.75321 -2.81855,1.79068 -3.68453,3.11299 -0.85021,1.30556 -1.27537,3.02124 -1.27537,5.14697 0,2.59439 0.82674,4.72891 2.47996,6.40271 1.65323,1.67381 3.66864,2.51044 6.04613,2.51044 1.29109,0 2.41662,-0.13372 3.37706,-0.40152 0.96044,-0.25108 1.81073,-0.56949 2.55074,-0.95447 0.62982,-0.30128 1.27556,-0.70295 1.93683,-1.20509 0.67705,-0.51888 1.21248,-0.92054 1.6061,-1.2051 v 2.98793 h 4.4163 v -19.03139 c 0,-1.8077 -0.25972,-3.32255 -0.77931,-4.54443 -0.51959,-1.22188 -1.27563,-2.21747 -2.26756,-2.98741 -1.00769,-0.78669 -2.20387,-1.33925 -3.58944,-1.65727 -1.3698,-0.33476 -2.98365,-0.50177 -4.84156,-0.50177 z m -50.47083,0.67747 6.94378,28.0448 h 4.08554 l 6.73137,-21.61728 6.77788,21.61728 h 4.1093 l 6.87297,-28.0448 h -4.46381 l -4.58163,21.71754 -6.75463,-21.71754 h -3.66075 l -6.58926,21.71754 -4.84158,-21.71754 z m 129.589,3.71606 c 2.25153,0 3.92052,0.83663 5.00692,2.51044 1.08641,1.6738 1.62989,4.2014 1.62989,7.58248 0,3.48151 -0.69289,6.10953 -2.07843,7.88376 -1.38557,1.77424 -3.31425,2.66133 -5.7862,2.66133 -1.14938,0 -2.18067,-0.10899 -3.09388,-0.32659 -0.89747,-0.21759 -1.97639,-0.62733 -3.23599,-1.2299 v -15.89309 c 1.18089,-0.95406 2.41721,-1.72411 3.70832,-2.30993 1.29109,-0.58584 2.57403,-0.8785 3.84937,-0.8785 z m -72.0566,9.61595 v 7.80831 c -1.10212,0.90385 -2.29886,1.68195 -3.58994,2.33474 -1.29109,0.63604 -2.71592,0.95446 -4.27469,0.95446 -1.87365,0 -3.26742,-0.40167 -4.1806,-1.20509 -0.91321,-0.82017 -1.36943,-2.03376 -1.36943,-3.64061 0,-1.42273 0.39354,-2.5359 1.18081,-3.33933 0.78724,-0.82016 1.8185,-1.42267 3.09385,-1.80764 1.07066,-0.31802 2.51907,-0.56074 4.34549,-0.72812 1.84216,-0.16738 3.44046,-0.29303 4.79451,-0.37672 z"
         style="font-style:normal;font-variant:normal;font-weight:normal;font-stretch:normal;font-size:49.87058258px;line-height:1.25;font-family:'Avenir Light';-inkscape-font-specification:'Avenir Light, ';font-variant-ligatures:normal;font-variant-caps:normal;font-variant-numeric:normal;font-feature-settings:normal;text-align:start;letter-spacing:0px;word-spacing:0px;writing-mode:lr-tb;text-anchor:start;fill:#0000ff;fill-opacity:1;stroke:none;stroke-width:0.56868422" />
    </clipPath>
    <clipPath
       clipPathUnits="userSpaceOnUse"
       id="clipPath4315-5">
      <path
         inkscape:connector-curvature="0"
         id="path4317-7"
         d="m 531.50773,244.02278 v 4.89583 h 5.00692 v -4.89583 z m -31.31696,9.59063 10.60453,28.0448 h 4.46379 l 10.6748,-28.0448 h -4.65241 l -8.1008,22.3206 -8.17161,-22.3206 z m 31.60065,0 v 28.0448 h 4.44005 v -28.0448 z"
         style="font-style:normal;font-variant:normal;font-weight:normal;font-stretch:normal;font-size:49.87058258px;line-height:1.25;font-family:'Avenir Light';-inkscape-font-specification:'Avenir Light, ';font-variant-ligatures:normal;font-variant-caps:normal;font-variant-numeric:normal;font-feature-settings:normal;text-align:start;letter-spacing:0px;word-spacing:0px;writing-mode:lr-tb;text-anchor:start;fill:#0000ff;fill-opacity:1;stroke:none;stroke-width:0.56868422" />
    </clipPath>
  </defs>
  <sodipodi:namedview
     id="base"
     pagecolor="#ffffff"
     bordercolor="#666666"
     borderopacity="1.0"
     inkscape:pageopacity="0.0"
     inkscape:pageshadow="2"
     inkscape:zoom="0.49497474"
     inkscape:cx="1061.8768"
     inkscape:cy="462.83596"
     inkscape:document-units="mm"
     inkscape:current-layer="layer1"
     showgrid="false"
     units="px"
     inkscape:window-width="1920"
     inkscape:window-height="1001"
     inkscape:window-x="-9"
     inkscape:window-y="-9"
     inkscape:window-maximized="1" />
  <metadata
     id="metadata10507">
    <rdf:RDF>
      <cc:Work
         rdf:about="">
        <dc:format>image/svg+xml</dc:format>
        <dc:type
           rdf:resource="http://purl.org/dc/dcmitype/StillImage" />
        <dc:title></dc:title>
      </cc:Work>
    </rdf:RDF>
  </metadata>
  <g
     inkscape:label="Layer 1"
     inkscape:groupmode="layer"
     id="layer1"
     transform="translate(0,-164.70833)">
    <path
       sodipodi:nodetypes="sssssssssssssssssssssssssssccsscccsccccssccs"
       inkscape:connector-curvature="0"
       id="path10340"
       d="m 323.02107,263.74975 c 0.0739,-0.88732 0.22296,-1.88973 0.39287,-2.80083 0.13215,-0.70851 0.0197,-1.467 0.54175,-2.04948 0.62255,-0.69467 2.3456,-0.46098 2.98073,-1.14892 0.49524,-0.53637 0.49294,-1.31505 0.33257,-1.98138 -0.0463,-0.19133 -0.36762,-0.3343 -0.35934,-0.5263 0.0295,-0.65442 1.5143,-0.96493 1.37081,-1.61803 -0.1359,-0.61906 -1.14153,-1.01373 -1.91449,-1.267 -0.56821,-0.18598 -1.37627,0.20265 -1.82194,-0.12679 -1.60225,-1.18531 -0.72564,-3.28695 -0.73124,-4.93064 -0.004,-1.84979 -0.65862,-4.04784 0.78485,-5.4841 0.68376,-0.68033 2.45523,-0.29263 3.1871,-0.94324 0.37849,-0.33646 0.54082,-0.87011 0.37797,-1.31323 -0.16899,-0.46055 -1.20191,-0.61064 -1.29133,-1.08043 -0.0724,-0.37863 0.66045,-0.60733 0.68714,-0.98517 0.0258,-0.32105 -0.22333,-0.6439 -0.45945,-0.92287 -0.26424,-0.31186 -0.58741,-0.64455 -1.03375,-0.79381 -0.46956,-0.15737 -1.06707,0.16523 -1.51027,-0.0356 -0.48727,-0.21903 -0.73979,-0.6899 -0.87443,-1.09959 -0.60855,-1.85193 -0.58226,-3.95442 0.47389,-5.6166 0.34682,-0.54606 1.39247,-0.67888 1.7832,-1.2065 0.28453,-0.38432 0.0143,-0.94653 0.32602,-1.31584 0.37929,-0.44299 1.41802,-0.42132 1.72802,-0.89596 0.3299,-0.5046 0.39023,-1.2576 -0.0865,-1.72732 -0.55905,-0.55088 -1.96733,-0.1275 -2.59812,-0.63414 -1.85672,-1.48973 -1.46446,-4.36469 -1.9722,-5.85182 -0.24162,-0.70687 -2.89,-1.01515 -2.86192,-0.29485 0.0801,2.06491 2.01623,6.63726 2.01623,6.63726 l -0.223,1.43832 c 0,0 -2.44184,0.21052 -2.92639,0.91644 -0.38215,0.55572 0.11499,1.31745 0.50167,1.90403 0.34594,0.52471 1.54921,1.32775 1.54921,1.32775 l -0.31699,5.58502 0.85956,2.54776 c 0,0 -2.05174,1.17507 -2.05233,2.0552 0,0.42024 0.97893,1.06528 0.97893,1.06528 l 1.29529,0.68902 -0.89306,5.87055 0.21302,4.67061 c 0,0 0.66048,1.07206 0.50479,1.59087 -0.27394,0.91364 -2.23129,1.18146 -2.3655,2.11833 -0.12643,0.88275 1.58982,2.46548 1.58982,2.46548 l -0.73129,5.33008 c 0,0 2.49332,1.08045 2.54803,0.43594 z"
       style="display:inline;fill:#784421;stroke:#000000;stroke-width:0;stroke-linecap:butt;stroke-linejoin:miter;stroke-miterlimit:4;stroke-dasharray:none;stroke-opacity:1"
       inkscape:transform-center-x="-474.65568"
       inkscape:transform-center-y="-303.06118" />
    <path
       inkscape:transform-center-y="-275.24237"
       inkscape:transform-center-x="-474.65524"
       style="display:inline;fill:#784421;stroke:#000000;stroke-width:0;stroke-linecap:butt;stroke-linejoin:miter;stroke-miterlimit:4;stroke-dasharray:none;stroke-opacity:1"
       d="m 145.59654,268.78416 c 0.0738,-0.8059 0.22301,-1.71632 0.39291,-2.5438 0.13233,-0.6434 0.0202,-1.33231 0.54176,-1.86135 0.62251,-0.63092 2.34559,-0.4186 2.9808,-1.04349 0.49523,-0.48709 0.49288,-1.19433 0.33248,-1.79942 -0.0461,-0.17382 -0.36764,-0.30367 -0.3593,-0.47811 0.0292,-0.59432 1.51419,-0.87626 1.37084,-1.46944 -0.13572,-0.56225 -1.14157,-0.92069 -1.91453,-1.15077 -0.56822,-0.16917 -1.37625,0.18434 -1.82194,-0.11516 -1.60228,-1.07655 -0.72567,-2.98518 -0.73127,-4.47801 -0.005,-1.68007 -0.65869,-3.67635 0.78492,-4.98078 0.68376,-0.61783 2.45516,-0.26579 3.18706,-0.85661 0.37847,-0.30551 0.54078,-0.79027 0.37794,-1.19271 -0.16917,-0.41825 -1.20184,-0.55452 -1.29142,-0.9812 -0.0721,-0.34388 0.6605,-0.55159 0.68718,-0.89476 0.0257,-0.29161 -0.22301,-0.58483 -0.45942,-0.83819 -0.26442,-0.28323 -0.58745,-0.58537 -1.03375,-0.72096 -0.46941,-0.14288 -1.06711,0.15004 -1.51024,-0.032 -0.48734,-0.19832 -0.7398,-0.62644 -0.87437,-0.9986 -0.60862,-1.68199 -0.58231,-3.59143 0.47378,-5.10102 0.34691,-0.49596 1.39258,-0.61656 1.7833,-1.0958 0.28463,-0.34905 0.0107,-0.85964 0.32594,-1.19504 0.37938,-0.40229 1.41808,-0.3826 1.72807,-0.81366 0.32987,-0.45837 0.39011,-1.1422 -0.0866,-1.56876 -0.55912,-0.50034 -1.96734,-0.1157 -2.59806,-0.57596 -1.85681,-1.35298 -1.4645,-3.96406 -1.97217,-5.31469 -0.24154,-0.64198 -2.89001,-0.92201 -2.86197,-0.26777 0.0801,1.8754 2.01621,6.02806 2.01621,6.02806 l -0.22303,1.30618 c 0,0 -2.4418,0.19122 -2.92632,0.83244 -0.3821,0.50463 0.11463,1.19649 0.50158,1.72918 0.34588,0.47663 1.54928,1.20599 1.54928,1.20599 l -0.31712,5.07232 0.85973,2.31383 c 0,0 -2.05187,1.06722 -2.05237,1.86661 0,0.38165 0.97889,0.96751 0.97889,0.96751 l 1.29533,0.62575 -0.89306,5.33165 0.21306,4.24187 c 0,0 0.66047,0.97371 0.50484,1.44485 -0.2741,0.82972 -2.23136,1.07296 -2.36557,1.92392 -0.12643,0.8017 1.58979,2.23914 1.58979,2.23914 l -0.73128,4.84083 c 0,0 2.49334,0.98127 2.54806,0.3959 z"
       id="path10342"
       inkscape:connector-curvature="0"
       sodipodi:nodetypes="sssssssssssssssssssssssssssccsscccsccccssccs" />
    <path
       inkscape:transform-center-y="275.24327"
       inkscape:transform-center-x="-474.65517"
       style="display:inline;fill:#784421;stroke:#000000;stroke-width:0;stroke-linecap:butt;stroke-linejoin:miter;stroke-miterlimit:4;stroke-dasharray:none;stroke-opacity:1"
       d="m 100.45333,219.46916 c 0.0738,0.8059 0.22302,1.71633 0.39294,2.54372 0.13233,0.64351 0.02,1.3324 0.54176,1.86135 0.62249,0.63097 2.34561,0.41867 2.9808,1.04347 0.49523,0.48712 0.49287,1.19442 0.3325,1.79951 -0.0457,0.17382 -0.3676,0.3037 -0.35929,0.47813 0.0287,0.5943 1.51415,0.87625 1.37075,1.46935 -0.13578,0.5623 -1.1415,0.92077 -1.91447,1.1508 -0.56823,0.16881 -1.37628,-0.18435 -1.82186,0.11534 -1.60239,1.0765 -0.72575,2.98519 -0.73137,4.47801 -0.006,1.68009 -0.65863,3.67632 0.78492,4.98073 0.68384,0.61788 2.45515,0.26581 3.18706,0.85658 0.37855,0.30561 0.5408,0.79034 0.37793,1.19275 -0.16944,0.41822 -1.20184,0.55456 -1.29128,0.98124 -0.0722,0.3439 0.66047,0.55157 0.68717,0.89474 0.0257,0.29158 -0.22304,0.58484 -0.45946,0.83818 -0.26442,0.28296 -0.58739,0.58544 -1.03378,0.72099 -0.46946,0.14288 -1.06711,-0.15004 -1.51033,0.0324 -0.48735,0.19834 -0.73972,0.62655 -0.87432,0.99869 -0.6086,1.6819 -0.58236,3.59146 0.47377,5.10099 0.34695,0.49594 1.39256,0.61654 1.78335,1.09581 0.28461,0.349 0.0143,0.85962 0.32594,1.19506 0.37934,0.40231 1.41802,0.38266 1.72807,0.81361 0.32985,0.45839 0.39014,1.14224 -0.0867,1.56881 -0.5591,0.50037 -1.96726,0.1157 -2.59807,0.57598 -1.85683,1.35293 -1.46447,3.96405 -1.97218,5.31465 -0.24158,0.64197 -2.890006,0.92205 -2.861986,0.26722 0.0805,-1.87533 2.01627,-6.02799 2.01627,-6.02799 l -0.22304,-1.30624 c 0,0 -2.44184,-0.1912 -2.9263,-0.8324 -0.38215,-0.50464 0.11495,-1.19651 0.50157,-1.72916 0.34591,-0.47668 1.54926,-1.20593 1.54926,-1.20593 l -0.31708,-5.0724 0.85969,-2.31385 c 0,0 -2.05178,-1.06722 -2.0524,-1.86655 -3.4e-4,-0.38167 0.97893,-0.96753 0.97893,-0.96753 l 1.29527,-0.62574 -0.89302,-5.33173 0.21307,-4.24178 c 0,0 0.66037,-0.97371 0.50473,-1.44489 -0.27408,-0.82977 -2.23132,-1.07295 -2.36552,-1.92393 -0.12663,-0.80174 1.58977,-2.23914 1.58977,-2.23914 l -0.73123,-4.84082 c 0,0 2.493276,-0.98129 2.547966,-0.39594 z"
       id="path10344"
       inkscape:connector-curvature="0"
       sodipodi:nodetypes="sssssssssssssssssssssssssssccsscccsccccssccs" />
    <path
       inkscape:transform-center-y="-238.13882"
       inkscape:transform-center-x="423.79701"
       style="display:inline;fill:#784421;stroke:#000000;stroke-width:0;stroke-linecap:butt;stroke-linejoin:miter;stroke-miterlimit:4;stroke-dasharray:none;stroke-opacity:1"
       d="m 369.9405,260.91489 c -0.10837,-0.7468 -0.29546,-1.58542 -0.50029,-2.34501 -0.15844,-0.59071 -0.0765,-1.2425 -0.6197,-1.69651 -0.64818,-0.54136 -2.3586,-0.21149 -3.01909,-0.74597 -0.51495,-0.41686 -0.54269,-1.07741 -0.40828,-1.65466 0.0386,-0.16613 0.35388,-0.31134 0.33823,-0.47391 -0.0538,-0.55272 -1.54835,-0.70227 -1.43047,-1.26704 0.11195,-0.53541 1.10005,-0.94701 1.86171,-1.2211 0.55976,-0.20148 1.38131,0.0665 1.81327,-0.24665 1.55335,-1.12781 0.59735,-2.84279 0.53959,-4.23712 -0.0653,-1.56907 0.50105,-3.48298 -0.99503,-4.59035 -0.70858,-0.52451 -2.46138,-0.0597 -3.21698,-0.55577 -0.39075,-0.25663 -0.57326,-0.69648 -0.42781,-1.08471 0.15129,-0.40347 1.17573,-0.60978 1.24694,-1.01505 0.0569,-0.32656 -0.68251,-0.46445 -0.72376,-0.78274 -0.0358,-0.27037 0.19789,-0.56318 0.42283,-0.81778 0.25168,-0.28435 0.56139,-0.59163 1.001,-0.75241 0.46254,-0.16863 1.07135,0.0587 1.50603,-0.14378 0.47782,-0.22321 0.71162,-0.64162 0.83013,-0.99935 0.5359,-1.61702 0.42848,-3.39797 -0.68959,-4.72656 -0.36733,-0.43648 -1.41602,-0.46901 -1.82627,-0.88651 -0.29884,-0.30437 -0.0465,-0.80191 -0.37605,-1.09086 -0.39578,-0.34655 -1.43149,-0.2492 -1.75921,-0.62743 -0.34853,-0.40268 -0.43784,-1.03659 0.0202,-1.47135 0.53671,-0.51003 1.95842,-0.25951 2.56827,-0.7368 1.79561,-1.40543 1.29302,-3.81335 1.74229,-5.11327 0.21335,-0.61785 2.84502,-1.08214 2.84484,-0.46887 0,1.75722 -1.75599,5.78269 -1.75599,5.78269 l 0.27764,1.20261 c 0,0 2.44515,-0.005 2.95589,0.55311 0.40267,0.44193 -0.0633,1.12602 -0.42714,1.65295 -0.32502,0.47147 -1.49485,1.24457 -1.49485,1.24457 l 0.53189,4.71176 -0.75953,2.22633 c 0,0 2.09305,0.83931 2.12744,1.58559 0.0143,0.35643 -0.93578,0.97834 -0.93578,0.97834 l -1.26604,0.68347 1.11786,4.90975 -0.0322,3.97701 c 0,0 -0.61776,0.95966 -0.44235,1.38764 0.30874,0.75379 2.27237,0.83106 2.44243,1.61524 0.16023,0.73891 -1.49138,2.21242 -1.49138,2.21242 l 0.93557,4.46388 c 0,0 -2.44654,1.10713 -2.52605,0.56475 z"
       id="path10350"
       inkscape:connector-curvature="0"
       sodipodi:nodetypes="sssssssssssssssssssssssssssccsscccsccccssccs" />
    <path
       sodipodi:nodetypes="sssssssssssssssssssssssssssssssss"
       inkscape:connector-curvature="0"
       id="path10352"
       d="m 13.503286,169.237 c 43.491229,-6.63361 92.259254,0.62162 138.391124,0.85761 27.24876,0.13962 54.53549,-0.28608 81.74867,0.32985 3.73703,0.0846 7.43734,0.38635 11.1754,0.46178 26.04739,0.526 52.15194,-0.11076 78.22782,-0.0657 25.77071,0.044 51.53811,0.34281 77.30907,0.32983 16.68787,-0.0105 33.63705,-1.5411 50.05956,-0.26393 1.66924,0.12979 3.61748,0.2459 4.74564,0.79163 1.89327,0.91613 1.78317,2.34552 2.14327,3.56241 0.39417,1.3306 0.041,2.6829 0,4.02417 -0.0764,2.59544 0.29444,5.2092 -0.45926,7.78445 -0.39962,1.36545 -1.82728,2.65471 -2.14318,4.02416 -0.36872,1.59805 0.0465,3.21389 0.3059,4.81583 0.22253,1.36868 0.52048,2.73884 1.07156,4.09018 0.22761,0.5568 0.79154,1.08654 0.91853,1.6492 1.77984,7.88613 2.54997,16.10614 -2.2962,23.74924 -0.4272,0.67376 -1.07116,1.38982 -2.2963,1.8471 -1.35437,0.50563 -3.28656,0.6596 -5.05204,0.79171 -20.46293,1.53118 -41.53739,-0.14341 -62.30654,-0.13189 -34.13945,0.0215 -68.27693,0.21893 -102.41552,0.32985 -47.09987,0.15262 -94.19948,0.32448 -141.29972,0.46182 -42.915266,0.12536 -86.738865,4.11524 -128.746514,0.32985 -1.967713,-0.17752 -4.27124,-0.37359 -5.511112,-1.05551 -1.79039,-0.98464 -1.330132,-2.44639 -1.530847,-3.69435 -1.013481,-6.30058 -1.606085,-12.77879 1.683932,-18.93338 0.625722,-1.17056 2.826458,-2.12015 3.367893,-3.29851 0.842832,-1.83405 0.679283,-3.78665 -0.305691,-5.60744 -0.357785,-0.66106 -1.619567,-1.18734 -1.990115,-1.84715 -2.089969,-3.72193 -2.199363,-7.68039 -1.071501,-11.4788 0.378994,-1.2765 2.309617,-2.41356 2.602524,-3.69433 0.357084,-1.5613 -0.722041,-3.12225 -1.071643,-4.68391 -0.260965,-1.16517 -1.800714,-2.41405 -0.765425,-3.49643 0.911344,-0.95267 3.25686,-1.6353 5.511128,-1.97916 z"
       style="fill:#d38d5f;stroke:#000000;stroke-width:0.5;stroke-linecap:butt;stroke-linejoin:miter;stroke-miterlimit:4;stroke-dasharray:none;stroke-opacity:1" />
    <path
       inkscape:connector-curvature="0"
       id="path10362"
       d="M 26.265544,225.80146 198.55931,222.32838"
       style="display:inline;fill:none;stroke:#5f4512;stroke-width:0.80000001;stroke-linecap:butt;stroke-linejoin:miter;stroke-miterlimit:4;stroke-dasharray:none;stroke-opacity:1" />
    <path
       inkscape:connector-curvature="0"
       id="path10366"
       d="M 228.3239,220.00383 374.39399,220.508"
       style="display:inline;fill:none;stroke:#5f4512;stroke-width:0.80000001;stroke-linecap:butt;stroke-linejoin:miter;stroke-miterlimit:4;stroke-dasharray:none;stroke-opacity:1" />
    <path
       inkscape:connector-curvature="0"
       id="path10368"
       d="M 54.057475,192.63518 12.164978,191.05887"
       style="display:inline;fill:none;stroke:#5f4512;stroke-width:0.80000001;stroke-linecap:butt;stroke-linejoin:miter;stroke-miterlimit:4;stroke-dasharray:none;stroke-opacity:1" />
    <path
       inkscape:connector-curvature="0"
       id="path10370"
       d="m 58.596401,202.64497 -36.739494,-0.81"
       style="display:inline;fill:none;stroke:#5f4512;stroke-width:0.80000001;stroke-linecap:butt;stroke-linejoin:miter;stroke-miterlimit:4;stroke-dasharray:none;stroke-opacity:1" />
    <path
       inkscape:connector-curvature="0"
       id="path10372"
       d="M 381.23959,175.2817 113.75588,174.7238"
       style="display:inline;fill:none;stroke:#5f4512;stroke-width:0.80000001;stroke-linecap:butt;stroke-linejoin:miter;stroke-miterlimit:4;stroke-dasharray:none;stroke-opacity:1" />
    <path
       inkscape:connector-curvature="0"
       id="path10374"
       d="M 96.481404,219.93799 8.702892,217.13545"
       style="display:inline;fill:none;stroke:#5f4512;stroke-width:0.72816956;stroke-linecap:butt;stroke-linejoin:miter;stroke-miterlimit:4;stroke-dasharray:none;stroke-opacity:1" />
    <path
       inkscape:connector-curvature="0"
       id="path10376"
       d="m 13.969365,176.07513 78.822699,2.16329"
       style="display:inline;fill:none;stroke:#5f4512;stroke-width:0.80000001;stroke-linecap:butt;stroke-linejoin:miter;stroke-miterlimit:4;stroke-dasharray:none;stroke-opacity:1" />
    <path
       inkscape:connector-curvature="0"
       id="path10378"
       d="m 417.57702,207.33718 30.4801,1.50926"
       style="display:inline;fill:none;stroke:#5f4512;stroke-width:0.80000001;stroke-linecap:butt;stroke-linejoin:miter;stroke-miterlimit:4;stroke-dasharray:none;stroke-opacity:1" />
    <path
       inkscape:connector-curvature="0"
       id="path10380"
       d="m 413.17817,199.93452 39.34251,-0.14148"
       style="display:inline;fill:none;stroke:#5f4512;stroke-width:0.80000001;stroke-linecap:butt;stroke-linejoin:miter;stroke-miterlimit:4;stroke-dasharray:none;stroke-opacity:1" />
    <path
       inkscape:connector-curvature="0"
       id="path10382"
       d="m 411.5078,181.85633 38.7706,-2.392"
       style="display:inline;fill:none;stroke:#5f4512;stroke-width:0.80000001;stroke-linecap:butt;stroke-linejoin:miter;stroke-miterlimit:4;stroke-dasharray:none;stroke-opacity:1" />
    <path
       style="display:inline;fill:none;stroke:#5f4512;stroke-width:0.80000001;stroke-linecap:butt;stroke-linejoin:miter;stroke-miterlimit:4;stroke-dasharray:none;stroke-opacity:1"
       d="m 386.84231,223.84702 61.18569,0.5075"
       id="path10386"
       inkscape:connector-curvature="0" />
    <path
       inkscape:connector-curvature="0"
       id="path10388"
       d="m 390.12366,219.18674 61.18568,0.50744"
       style="display:inline;fill:none;stroke:#5f4512;stroke-width:0.80000001;stroke-linecap:butt;stroke-linejoin:miter;stroke-miterlimit:4;stroke-dasharray:none;stroke-opacity:1" />
    <g
       id="text10356"
       style="font-style:normal;font-variant:normal;font-weight:normal;font-stretch:normal;font-size:24.60111809px;line-height:1.25;font-family:'Gill Sans MT';-inkscape-font-specification:'Gill Sans MT';font-variant-ligatures:normal;font-variant-caps:normal;font-variant-numeric:normal;font-feature-settings:normal;text-align:start;letter-spacing:0px;word-spacing:0px;writing-mode:lr-tb;text-anchor:start;display:inline;opacity:0.5;fill:#000000;fill-opacity:1;stroke:none;stroke-width:0.46127105"
       transform="matrix(1.1775674,0,0,1.2511515,-102.37121,243.7029)"
       aria-label="swamp">
      <path
         inkscape:connector-curvature="0"
         id="path1563"
         style="font-style:normal;font-variant:normal;font-weight:normal;font-stretch:normal;font-size:40.45101929px;font-family:'Avenir Light';-inkscape-font-specification:'Avenir Light, ';stroke-width:0.46127105"
         d="m 157.6852,-29.152579 q 0,3.021975 -2.50844,4.95762 -2.48868,1.935644 -6.81426,1.935644 -2.44918,0 -4.50333,-0.572792 -2.0344,-0.592545 -3.41701,-1.283846 v -4.167561 h 0.19752 q 1.75788,1.323348 3.91079,2.113407 2.15291,0.770308 4.12806,0.770308 2.44918,0 3.83178,-0.790059 1.38261,-0.790059 1.38261,-2.488686 0,-1.303597 -0.75056,-1.975147 -0.75056,-0.67155 -2.88371,-1.145586 -0.79006,-0.177763 -2.07391,-0.414781 -1.26409,-0.237017 -2.31092,-0.513538 -2.90347,-0.770307 -4.12806,-2.251668 -1.20484,-1.501112 -1.20484,-3.673774 0,-1.362852 0.55304,-2.567692 0.57279,-1.20484 1.71838,-2.152911 1.10608,-0.928319 2.80471,-1.461609 1.71838,-0.553041 3.83179,-0.553041 1.97514,0 3.98979,0.493787 2.0344,0.474035 3.37751,1.165337 v 3.970046 h -0.19752 q -1.42211,-1.046828 -3.45651,-1.757881 -2.0344,-0.730805 -3.9898,-0.730805 -2.0344,0 -3.43675,0.790059 -1.40236,0.770308 -1.40236,2.310923 0,1.362852 0.84932,2.054153 0.82956,0.691302 2.6862,1.125834 1.02707,0.237018 2.29117,0.474036 1.28384,0.237017 2.13316,0.434532 2.58744,0.592544 3.9898,2.034402 1.40235,1.461609 1.40235,3.871289 z" />
      <path
         inkscape:connector-curvature="0"
         id="path1565"
         style="font-style:normal;font-variant:normal;font-weight:normal;font-stretch:normal;font-size:40.45101929px;font-family:'Avenir Light';-inkscape-font-specification:'Avenir Light, ';stroke-width:0.46127105"
         d="m 190.76892,-44.855001 -5.74768,22.062397 h -3.43676 l -5.66867,-17.00602 -5.62917,17.00602 h -3.41701 l -5.80693,-22.062397 h 3.87129 l 4.04905,17.085025 5.51066,-17.085025 h 3.06148 l 5.64892,17.085025 3.83179,-17.085025 z" />
      <path
         inkscape:connector-curvature="0"
         id="path1567"
         style="font-style:normal;font-variant:normal;font-weight:normal;font-stretch:normal;font-size:40.45101929px;font-family:'Avenir Light';-inkscape-font-specification:'Avenir Light, ';stroke-width:0.46127105"
         d="m 212.87082,-22.792604 h -3.69353 v -2.350426 q -0.49378,0.335775 -1.3431,0.948071 -0.82956,0.592544 -1.61962,0.948071 -0.92832,0.454284 -2.13316,0.750556 -1.20484,0.316023 -2.82446,0.316023 -2.98247,0 -5.05637,-1.975147 -2.07391,-1.975148 -2.07391,-5.036626 0,-2.508437 1.06658,-4.049052 1.08633,-1.560367 3.08123,-2.449183 2.01465,-0.888816 4.83911,-1.20484 2.82446,-0.316024 6.0637,-0.474035 v -0.572793 q 0,-1.264095 -0.45428,-2.093656 -0.43453,-0.829562 -1.26409,-1.303598 -0.79006,-0.454284 -1.89615,-0.612295 -1.10608,-0.158012 -2.31092,-0.158012 -1.46161,0 -3.25899,0.395029 -1.79739,0.375278 -3.71328,1.106083 h -0.19751 v -3.772532 q 1.08633,-0.296272 3.14048,-0.651798 2.05415,-0.355527 4.04905,-0.355527 2.33068,0 4.04906,0.395029 1.73813,0.375278 3.00222,1.303598 1.24434,0.908568 1.89614,2.350425 0.6518,1.441858 0.6518,3.575017 z m -3.69353,-5.431656 v -6.142708 q -1.69862,0.09876 -4.00955,0.296272 -2.29117,0.197514 -3.63427,0.572793 -1.59987,0.454283 -2.58744,1.422106 -0.98757,0.94807 -0.98757,2.626946 0,1.896141 1.14558,2.863963 1.14559,0.948071 3.49601,0.948071 1.9554,0 3.57502,-0.750556 1.61962,-0.770307 3.00222,-1.836887 z" />
      <path
         inkscape:connector-curvature="0"
         id="path1569"
         style="font-style:normal;font-variant:normal;font-weight:normal;font-stretch:normal;font-size:40.45101929px;font-family:'Avenir Light';-inkscape-font-specification:'Avenir Light, ';stroke-width:0.46127105"
         d="m 252.25526,-22.792604 h -3.71328 v -12.561938 q 0,-1.422106 -0.13826,-2.745455 -0.11851,-1.323349 -0.53329,-2.113408 -0.45428,-0.849313 -1.30359,-1.283846 -0.84932,-0.434532 -2.44919,-0.434532 -1.56036,0 -3.12073,0.790059 -1.56037,0.770307 -3.12073,1.975147 0.0592,0.454284 0.0987,1.06658 0.0395,0.592544 0.0395,1.185088 v 14.122305 h -3.71328 v -12.561938 q 0,-1.461609 -0.13826,-2.765206 -0.11851,-1.323349 -0.53329,-2.113408 -0.45428,-0.849314 -1.3036,-1.264095 -0.84931,-0.434532 -2.44918,-0.434532 -1.52086,0 -3.06148,0.750556 -1.52086,0.750556 -3.04173,1.915893 v 16.47273 h -3.71327 v -22.062397 h 3.71327 v 2.449183 q 1.73813,-1.441858 3.45651,-2.251668 1.73813,-0.809811 3.69353,-0.809811 2.25167,0 3.81203,0.948071 1.58012,0.948071 2.35043,2.626946 2.25167,-1.896142 4.1083,-2.725704 1.85664,-0.849313 3.97005,-0.849313 3.63427,0 5.35265,2.212165 1.73813,2.192414 1.73813,6.142709 z" />
      <path
         inkscape:connector-curvature="0"
         id="path1571"
         style="font-style:normal;font-variant:normal;font-weight:normal;font-stretch:normal;font-size:40.45101929px;font-family:'Avenir Light';-inkscape-font-specification:'Avenir Light, ';stroke-width:0.46127105"
         d="m 278.82099,-34.090448 q 0,2.686201 -0.77031,4.918117 -0.77031,2.212165 -2.17266,3.75278 -1.3036,1.46161 -3.08123,2.27142 -1.75788,0.790059 -3.73303,0.790059 -1.71838,0 -3.12073,-0.375278 -1.38261,-0.375278 -2.82446,-1.165337 v 9.24369 h -3.71328 v -30.200004 h 3.71328 v 2.310922 q 1.48136,-1.244343 3.31824,-2.073905 1.85664,-0.849313 3.9503,-0.849313 3.9898,0 6.20196,3.021976 2.23192,3.002224 2.23192,8.354873 z m -3.83179,0.09876 q 0,-3.989798 -1.36285,-5.964946 -1.36285,-1.975147 -4.18731,-1.975147 -1.59987,0 -3.21949,0.691302 -1.61962,0.691301 -3.10098,1.817135 v 12.502683 q 1.58011,0.711054 2.70595,0.967823 1.14558,0.256769 2.58744,0.256769 3.10098,0 4.83911,-2.093656 1.73813,-2.093657 1.73813,-6.201963 z" />
    </g>
    <g
       id="text10360"
       style="font-style:normal;font-variant:normal;font-weight:normal;font-stretch:normal;font-size:763.29730225px;line-height:1.25;font-family:'Gill Sans MT';-inkscape-font-specification:'Gill Sans MT';font-variant-ligatures:normal;font-variant-caps:normal;font-variant-numeric:normal;font-feature-settings:normal;text-align:start;letter-spacing:0px;word-spacing:0px;writing-mode:lr-tb;text-anchor:start;display:inline;opacity:0.5;fill:#000000;fill-opacity:1;stroke:none;stroke-width:38.16485596"
       transform="matrix(1.1235407,0,0,1.3113146,-102.37121,243.7029)"
       aria-label="hacks">
      <path
         inkscape:connector-curvature="0"
         id="path1574"
         style="font-style:normal;font-variant:normal;font-weight:bold;font-stretch:normal;font-size:36.29244232px;font-family:'Avenir Light';-inkscape-font-specification:'Avenir Light, Bold';stroke-width:38.16485596"
         d="m 319.02983,-22.125113 h -6.41497 v -9.870551 q 0,-1.205023 -0.12405,-2.392325 -0.12405,-1.205022 -0.4253,-1.772091 -0.35442,-0.655674 -1.04554,-0.95693 -0.67339,-0.301256 -1.89613,-0.301256 -0.86833,0 -1.7721,0.283535 -0.88604,0.283535 -1.93158,0.903767 v 14.105851 h -6.37953 v -27.57375 h 6.37953 v 9.870552 q 1.70121,-1.329069 3.26065,-2.037905 1.57716,-0.708837 3.49102,-0.708837 3.22521,0 5.03274,1.878417 1.82526,1.878418 1.82526,5.617532 z" />
      <path
         inkscape:connector-curvature="0"
         id="path1576"
         style="font-style:normal;font-variant:normal;font-weight:bold;font-stretch:normal;font-size:36.29244232px;font-family:'Avenir Light';-inkscape-font-specification:'Avenir Light, Bold';stroke-width:38.16485596"
         d="m 336.9634,-27.317342 v -4.146695 q -1.29363,0.106326 -2.79991,0.301256 -1.50627,0.177209 -2.28599,0.425302 -0.95693,0.301255 -1.47084,0.886046 -0.49619,0.567069 -0.49619,1.506278 0,0.620232 0.10633,1.010092 0.10632,0.38986 0.53163,0.744279 0.40758,0.354418 0.97465,0.531627 0.56707,0.159489 1.77209,0.159489 0.95693,0 1.93158,-0.389861 0.99237,-0.38986 1.73665,-1.027813 z m 0,3.08344 q -0.51391,0.38986 -1.27591,0.939209 -0.762,0.549348 -1.43539,0.868325 -0.93921,0.425302 -1.9493,0.620232 -1.0101,0.212651 -2.21512,0.212651 -2.83534,0 -4.7492,-1.754371 -1.91386,-1.754371 -1.91386,-4.483392 0,-2.179674 0.97465,-3.561905 0.97465,-1.382232 2.76446,-2.179673 1.77209,-0.797442 4.39479,-1.134139 2.62269,-0.336698 5.44032,-0.496186 v -0.106325 q 0,-1.648046 -1.34679,-2.268278 -1.34679,-0.637953 -3.96949,-0.637953 -1.57716,0 -3.36697,0.567069 -1.78981,0.549349 -2.56953,0.850604 h -0.58479 v -4.802369 q 1.01009,-0.265813 3.27837,-0.620232 2.286,-0.372139 4.57199,-0.372139 5.44033,0 7.85037,1.683487 2.42777,1.665767 2.42777,5.245392 v 13.538782 h -6.32637 z" />
      <path
         inkscape:connector-curvature="0"
         id="path1578"
         style="font-style:normal;font-variant:normal;font-weight:bold;font-stretch:normal;font-size:36.29244232px;font-family:'Avenir Light';-inkscape-font-specification:'Avenir Light, Bold';stroke-width:38.16485596"
         d="m 359.52213,-21.593485 q -2.60497,0 -4.76693,-0.620232 -2.14423,-0.620232 -3.73911,-1.913859 -1.57716,-1.293627 -2.44549,-3.26065 -0.86832,-1.967022 -0.86832,-4.607438 0,-2.782185 0.92149,-4.80237 0.9392,-2.020184 2.60497,-3.349253 1.6126,-1.258186 3.72139,-1.842976 2.10879,-0.58479 4.37707,-0.58479 2.03791,0 3.75684,0.443023 1.71893,0.443023 3.20748,1.15186 v 5.440322 h -0.90376 q -0.37214,-0.318977 -0.90377,-0.744279 -0.51391,-0.425302 -1.27591,-0.832883 -0.72656,-0.38986 -1.59488,-0.637953 -0.86833,-0.265814 -2.02018,-0.265814 -2.55182,0 -3.93405,1.630325 -1.36451,1.612603 -1.36451,4.394788 0,2.870788 1.39995,4.359346 1.41768,1.488557 4.00493,1.488557 1.20502,0 2.16195,-0.265814 0.97465,-0.283535 1.61261,-0.655674 0.60251,-0.354418 1.06325,-0.744279 0.46075,-0.38986 0.85061,-0.761999 h 0.90376 v 5.440322 q -1.50628,0.708837 -3.15432,1.116418 -1.63033,0.425302 -3.61507,0.425302 z" />
      <path
         inkscape:connector-curvature="0"
         id="path1580"
         style="font-style:normal;font-variant:normal;font-weight:bold;font-stretch:normal;font-size:36.29244232px;font-family:'Avenir Light';-inkscape-font-specification:'Avenir Light, Bold';stroke-width:38.16485596"
         d="m 391.61471,-22.125113 h -7.42506 l -5.58209,-8.665529 -1.73665,2.108789 v 6.55674 h -6.37953 v -27.57375 h 6.37953 v 16.462734 l 6.87571,-8.789576 h 7.35419 l -7.15926,8.576925 z" />
      <path
         inkscape:connector-curvature="0"
         id="path1582"
         style="font-style:normal;font-variant:normal;font-weight:bold;font-stretch:normal;font-size:36.29244232px;font-family:'Avenir Light';-inkscape-font-specification:'Avenir Light, Bold';stroke-width:38.16485596"
         d="m 412.17098,-28.43376 q 0,3.08344 -2.76446,4.979579 -2.76447,1.878417 -7.56683,1.878417 -2.65814,0 -4.82009,-0.496186 -2.16196,-0.496186 -3.4733,-1.098697 v -5.245392 h 0.58479 q 0.47846,0.336698 1.09869,0.744279 0.63796,0.38986 1.78982,0.850604 0.99237,0.407581 2.25055,0.708837 1.25819,0.283534 2.69358,0.283534 1.87842,0 2.78219,-0.407581 0.90376,-0.425302 0.90376,-1.240464 0,-0.726558 -0.53162,-1.045534 -0.53163,-0.336698 -2.02019,-0.637953 -0.70884,-0.159489 -1.93158,-0.336698 -1.20502,-0.19493 -2.19739,-0.460744 -2.7113,-0.708837 -4.02265,-2.197394 -1.31135,-1.506278 -1.31135,-3.739114 0,-2.870789 2.7113,-4.766927 2.72902,-1.913859 7.44279,-1.913859 2.23283,0 4.27074,0.460744 2.05562,0.443023 3.20748,0.956929 v 5.032741 h -0.54934 q -1.41768,-0.97465 -3.24293,-1.577161 -1.80754,-0.620233 -3.66823,-0.620233 -1.54172,0 -2.60498,0.425302 -1.04553,0.425303 -1.04553,1.205023 0,0.708837 0.47846,1.080976 0.47847,0.372139 2.25056,0.744279 0.97465,0.19493 2.09107,0.38986 1.13414,0.177209 2.26828,0.460744 2.51637,0.655674 3.72139,2.073347 1.20502,1.399953 1.20502,3.508742 z" />
    </g>
    <g
       id="text10394"
       style="font-style:normal;font-variant:normal;font-weight:normal;font-stretch:normal;font-size:24.60111809px;line-height:1.25;font-family:'Gill Sans MT';-inkscape-font-specification:'Gill Sans MT';font-variant-ligatures:normal;font-variant-caps:normal;font-variant-numeric:normal;font-feature-settings:normal;text-align:start;letter-spacing:0px;word-spacing:0px;writing-mode:lr-tb;text-anchor:start;display:inline;opacity:0.5;fill:#000000;fill-opacity:1;stroke:none;stroke-width:0.46127105"
       transform="matrix(1.1775674,0,0,1.2511515,-102.37121,243.7029)"
       aria-label="vi">
      <path
         inkscape:connector-curvature="0"
         id="path1585"
         style="font-style:normal;font-variant:normal;font-weight:normal;font-stretch:normal;font-size:40.45101929px;font-family:'Avenir Light';-inkscape-font-specification:'Avenir Light, ';stroke-width:0.46127105"
         d="m 421.81094,-44.623352 -8.92766,22.062397 h -3.73303 l -8.86841,-22.062397 h 4.0293 l 6.83401,17.559061 6.77475,-17.559061 z" />
      <path
         inkscape:connector-curvature="0"
         id="path1587"
         style="font-style:normal;font-variant:normal;font-weight:normal;font-stretch:normal;font-size:40.45101929px;font-family:'Avenir Light';-inkscape-font-specification:'Avenir Light, ';stroke-width:0.46127105"
         d="m 430.6596,-48.316877 h -4.18731 v -3.851538 h 4.18731 z m -0.23701,25.755922 h -3.71328 v -22.062397 h 3.71328 z" />
    </g>
    <path
       transform="matrix(0.9848094,0,0,0.98425831,-213.37163,-61.704492)"
       clip-path="url(#clipPath4266-7)"
       inkscape:connector-curvature="0"
       id="path10396"
       d="m 436.10521,226.84 c -1.88458,0 -3.40186,1.51728 -3.40186,3.40186 v 70.98378 c 0,1.88459 1.51728,3.40186 3.40186,3.40186 h 161.4713 c 1.88457,0 3.40185,-1.51727 3.40185,-3.40186 v -70.98378 c 0,-1.88458 -1.51728,-3.40186 -3.40185,-3.40186 z m 18.08832,18.01492 h 7.2781 v 13.15062 c 1.2939,-1.18046 2.53357,-2.0855 3.71968,-2.71508 1.19954,-0.62957 2.52753,-0.94464 3.98322,-0.94464 2.453,0 4.36647,0.83432 5.74124,2.50269 1.38825,1.66838 2.08257,4.16278 2.08257,7.48378 v 17.25838 h -7.31843 v -13.15011 c 0,-1.07027 -0.0473,-2.13286 -0.14158,-3.1874 -0.0944,-1.07028 -0.25612,-1.85693 -0.48525,-2.36058 -0.26958,-0.58237 -0.66706,-1.00728 -1.19268,-1.27485 -0.51219,-0.26758 -1.2337,-0.40153 -2.16371,-0.40153 -0.66043,0 -1.33419,0.12592 -2.02158,0.37776 -0.67392,0.25182 -1.40827,0.65316 -2.20348,1.20406 v 18.79265 h -7.2781 z m 81.51596,0 h 7.2781 v 21.93303 l 7.84447,-11.71039 h 8.39018 l -8.16798,11.4272 8.75401,15.08591 h -8.4708 l -6.36863,-11.54452 -1.98125,2.80913 v 8.73539 h -7.2781 z m -42.75969,9.46713 c 4.13782,0 7.12301,0.74802 8.95604,2.24327 1.84653,1.4795 2.76987,3.80884 2.76987,6.98821 v 18.03714 h -7.21765 v -2.80914 c -0.39087,0.34628 -0.87563,0.76317 -1.4552,1.25109 -0.57957,0.48792 -1.12546,0.87373 -1.63764,1.15704 -0.71435,0.37775 -1.4559,0.65317 -2.22414,0.8263 -0.76827,0.18889 -1.61047,0.28319 -2.52699,0.28319 -2.15651,0 -3.96263,-0.77912 -5.41827,-2.33732 -1.45563,-1.5582 -2.18334,-3.54941 -2.18334,-5.97328 0,-1.93594 0.37026,-3.51777 1.11157,-4.74545 0.74131,-1.22767 1.79303,-2.19543 3.15434,-2.9037 1.34781,-0.70828 3.01887,-1.21198 5.01364,-1.51102 1.99477,-0.29905 4.06381,-0.51928 6.20686,-0.66094 v -0.14159 c 0,-1.46376 -0.51253,-2.47117 -1.53686,-3.02204 -1.02433,-0.56663 -2.53365,-0.85008 -4.5284,-0.85008 -1.19959,0 -2.47983,0.25185 -3.84111,0.75551 -1.36131,0.48792 -2.33857,0.8657 -2.93161,1.13327 h -0.66715 v -6.39806 c 0.76827,-0.23609 2.01462,-0.51153 3.73983,-0.82631 1.73869,-0.33054 3.47753,-0.49609 5.21621,-0.49609 z m 30.02246,0.0238 c 1.55001,0 2.97918,0.19665 4.28657,0.59014 1.30738,0.39348 2.52703,0.90521 3.65921,1.53479 v 7.24814 h -1.03095 c -0.28305,-0.28332 -0.62714,-0.61392 -1.03145,-0.99167 -0.39087,-0.37774 -0.87617,-0.74749 -1.45574,-1.10949 -0.55261,-0.34628 -1.15908,-0.62972 -1.81954,-0.85008 -0.66042,-0.23609 -1.42867,-0.35399 -2.30476,-0.35399 -1.94085,0 -3.4368,0.72393 -4.4881,2.17196 -1.0378,1.43229 -1.55649,3.38386 -1.55649,5.85494 0,2.54978 0.53203,4.48581 1.59681,5.80792 1.07826,1.32211 2.60141,1.98282 4.56923,1.98282 0.91651,0 1.73868,-0.1179 2.46652,-0.35398 0.74129,-0.25184 1.35446,-0.5428 1.83968,-0.87333 0.45826,-0.31478 0.86294,-0.6454 1.21335,-0.99167 0.35044,-0.34627 0.67397,-0.68491 0.97049,-1.01544 h 1.03095 v 7.24813 c -1.14565,0.62957 -2.34529,1.12524 -3.59876,1.48725 -1.23999,0.37774 -2.61474,0.56689 -4.1243,0.56689 -1.98127,0 -3.79407,-0.27543 -5.43843,-0.82631 -1.63084,-0.55088 -3.05284,-1.40073 -4.26587,-2.54971 -1.19957,-1.14898 -2.12958,-2.59737 -2.79001,-4.34444 -0.66045,-1.74708 -0.99065,-3.79296 -0.99065,-6.13813 0,-2.47108 0.35023,-4.60376 1.05111,-6.39805 0.71435,-1.79429 1.70495,-3.28181 2.9719,-4.46227 1.22651,-1.1175 2.64184,-1.93574 4.24575,-2.45514 1.6039,-0.5194 3.26829,-0.77928 4.99348,-0.77928 z m 50.7256,0 c 1.69823,0 3.32205,0.20468 4.87204,0.61391 1.5635,0.39348 2.78365,0.81841 3.65974,1.27486 v 6.70502 h -0.62685 c -1.07826,-0.86566 -2.31177,-1.56603 -3.70001,-2.10116 -1.37478,-0.55089 -2.76958,-0.82631 -4.18476,-0.82631 -1.17263,0 -2.16323,0.18862 -2.97193,0.56637 -0.79521,0.37774 -1.19269,0.91305 -1.19269,1.60559 0,0.62958 0.18179,1.10968 0.5457,1.44022 0.36391,0.33052 1.21949,0.66114 2.56728,0.99167 0.74131,0.17313 1.53678,0.34621 2.38591,0.51935 0.86259,0.1574 1.72535,0.3621 2.58797,0.61391 1.91389,0.58237 3.32869,1.50296 4.24521,2.76211 0.91652,1.24341 1.37512,2.80166 1.37512,4.67465 0,2.73866 -1.05122,4.9501 -3.15383,6.63422 -2.1026,1.66838 -4.98047,2.50269 -8.63307,2.50269 -2.02173,0 -3.85453,-0.22076 -5.49889,-0.66146 -1.64433,-0.44071 -2.96518,-0.92833 -3.96253,-1.46347 v -6.98821 h 0.66712 c 0.36394,0.29905 0.78142,0.62916 1.25317,0.99116 0.48522,0.34627 1.16618,0.72404 2.04224,1.13326 0.75478,0.36201 1.61036,0.67708 2.56728,0.94465 0.95697,0.25183 1.98147,0.37775 3.07322,0.37775 1.42869,0 2.48658,-0.18112 3.17397,-0.54312 0.68738,-0.37774 1.03145,-0.9286 1.03145,-1.65261 0,-0.64533 -0.20233,-1.1099 -0.60669,-1.3932 -0.40434,-0.29906 -1.17258,-0.582 -2.30476,-0.84956 -0.53912,-0.14166 -1.27349,-0.29117 -2.20348,-0.44855 -0.91651,-0.17314 -1.75257,-0.37782 -2.50735,-0.61391 -2.06216,-0.62958 -3.59198,-1.60536 -4.58938,-2.92748 -0.99738,-1.33785 -1.49604,-2.99844 -1.49604,-4.9816 0,-2.54978 1.03119,-4.66692 3.09335,-6.35104 2.07566,-1.69986 4.90628,-2.54971 8.49149,-2.54971 z m -76.2398,14.80323 c -0.9839,0.0944 -2.04848,0.22789 -3.19413,0.40101 -1.14564,0.1574 -2.01506,0.34655 -2.6081,0.56689 -0.72782,0.26758 -1.28707,0.66089 -1.67793,1.18029 -0.37741,0.50366 -0.56587,1.1724 -0.56587,2.00659 0,0.55088 0.04,0.9994 0.12094,1.34566 0.0809,0.34627 0.28321,0.67689 0.60667,0.99167 0.31003,0.31479 0.68077,0.55108 1.11209,0.70848 0.4313,0.14169 1.10506,0.21239 2.02158,0.21239 0.72781,0 1.46216,-0.17307 2.20347,-0.51935 0.75478,-0.34627 1.41521,-0.8028 1.98128,-1.36942 z"
       style="opacity:1;fill:#000000;fill-opacity:1;stroke:none;stroke-width:0.1;stroke-linecap:square;stroke-linejoin:miter;stroke-miterlimit:4;stroke-dasharray:none;stroke-opacity:1;paint-order:stroke markers fill" />
    <path
       clip-path="url(#clipPath4201-3)"
       inkscape:connector-curvature="0"
       id="path10398"
       d="m 427.36721,233.83226 c -1.88458,0 -3.40135,1.51728 -3.40135,3.40186 v 56.80635 c 0,1.88459 1.51677,3.40186 3.40135,3.40186 h 179.16271 c 1.88458,0 3.40186,-1.51727 3.40186,-3.40186 v -56.80635 c 0,-1.88458 -1.51728,-3.40186 -3.40186,-3.40186 z m 116.84196,10.61537 c 1.79493,0 3.31451,0.40167 4.55837,1.2051 1.2596,0.80343 2.19612,1.91661 2.81017,3.33933 1.79496,-1.60684 3.43286,-2.76191 4.91289,-3.46491 1.48002,-0.71974 3.06226,-1.07952 4.74699,-1.07952 2.89709,0 5.03032,0.93756 6.40012,2.81223 1.38557,1.85793 2.07843,4.4607 2.07843,7.80831 v 18.20251 h -4.44003 v -15.96802 c 0,-1.20514 -0.0552,-2.36877 -0.16536,-3.49022 -0.0945,-1.12145 -0.30705,-2.01664 -0.6377,-2.68614 -0.36213,-0.71975 -0.88154,-1.26372 -1.55855,-1.63195 -0.67705,-0.36824 -1.65317,-0.55242 -2.92852,-0.55242 -1.24386,0 -2.48769,0.33455 -3.73155,1.00407 -1.24386,0.65278 -2.48772,1.48994 -3.73155,2.51096 0.0472,0.38498 0.0863,0.8366 0.11782,1.35548 0.0314,0.50214 0.047,1.00474 0.047,1.50688 v 17.95136 h -4.44003 v -15.96802 c 0,-1.23862 -0.0552,-2.41032 -0.16536,-3.51503 -0.0945,-1.12145 -0.30705,-2.01714 -0.6377,-2.68666 -0.36211,-0.71974 -0.88152,-1.25512 -1.55856,-1.60662 -0.67704,-0.36824 -1.65314,-0.55242 -2.92851,-0.55242 -1.21235,0 -2.43266,0.31791 -3.66075,0.95395 -1.21237,0.63606 -2.42462,1.44797 -3.63699,2.43551 v 20.93929 h -4.44003 v -28.0448 h 4.44003 v 3.11351 c 1.38557,-1.22187 2.76328,-2.1761 4.13308,-2.86236 1.38555,-0.68627 2.8575,-1.0294 4.41627,-1.0294 z m 47.18783,0 c 3.1805,0 5.65266,1.28071 7.41608,3.84163 1.7792,2.54418 2.66857,6.08401 2.66857,10.62002 0,2.27636 -0.30684,4.36042 -0.92089,6.25182 -0.61404,1.87466 -1.48039,3.46468 -2.59828,4.77025 -1.03918,1.23861 -2.26698,2.20089 -3.68401,2.88716 -1.40131,0.66951 -2.88933,1.00459 -4.46381,1.00459 -1.3698,0 -2.61366,-0.15895 -3.73155,-0.47697 -1.10215,-0.31802 -2.22816,-0.81204 -3.37757,-1.48156 v 11.75018 h -4.44005 v -38.38887 h 4.44005 v 2.93781 c 1.18089,-1.05449 2.50394,-1.93354 3.96822,-2.63654 1.48003,-0.71974 3.05427,-1.07952 4.72324,-1.07952 z m -144.6098,0.10077 c 1.57451,0 3.16479,0.2089 4.77078,0.62736 1.62171,0.4017 2.96786,0.89573 4.03852,1.48156 v 5.0462 h -0.23616 c -1.13361,-0.88712 -2.51138,-1.63193 -4.13309,-2.23449 -1.62173,-0.61931 -3.21201,-0.92862 -4.77078,-0.92862 -1.62173,0 -2.9914,0.33455 -4.10929,1.00407 -1.11792,0.65279 -1.67691,1.63173 -1.67691,2.93729 0,1.15493 0.33841,2.02539 1.01545,2.61121 0.66127,0.58584 1.73217,1.0632 3.2122,1.43143 0.81875,0.20086 1.73167,0.40169 2.73936,0.60255 1.02341,0.20086 1.87373,0.38504 2.55074,0.55242 2.06259,0.50214 3.65289,1.36401 4.77079,2.58589 1.11789,1.23861 1.6769,2.87859 1.6769,4.92063 0,2.56092 -0.9997,4.66161 -2.99932,6.30194 -1.98387,1.64032 -4.70022,2.46083 -8.14832,2.46083 -1.95239,0 -3.74721,-0.24272 -5.38469,-0.72812 -1.62174,-0.50213 -2.98339,-1.04611 -4.08554,-1.63194 v -5.29787 h 0.23617 c 1.40128,1.12145 2.96,2.01713 4.67619,2.68666 1.71619,0.65278 3.36166,0.97927 4.93615,0.97927 1.95238,0 3.47951,-0.33507 4.58163,-1.00459 1.10215,-0.66952 1.65311,-1.72364 1.65311,-3.16311 0,-1.10471 -0.29932,-1.94186 -0.89762,-2.51096 -0.5983,-0.56909 -1.74739,-1.05453 -3.44784,-1.45624 -0.62981,-0.15065 -1.45653,-0.32625 -2.47997,-0.5271 -1.00766,-0.20085 -1.92865,-0.41835 -2.76312,-0.65268 -2.31452,-0.65279 -3.95994,-1.607 -4.93615,-2.86235 -0.96043,-1.27209 -1.44073,-2.82881 -1.44073,-4.67 0,-1.15493 0.22061,-2.24287 0.66146,-3.26389 0.45659,-1.02102 1.14144,-1.93336 2.05465,-2.73678 0.88172,-0.78668 1.99977,-1.40584 3.3538,-1.85777 1.36983,-0.46866 2.89692,-0.7028 4.58163,-0.7028 z m 64.35784,0 c 1.8579,0 3.47178,0.16702 4.84155,0.50178 1.38557,0.31802 2.58178,0.87057 3.58947,1.65726 0.9919,0.76994 1.74797,1.76554 2.26756,2.98742 0.51959,1.22188 0.77928,2.73672 0.77928,4.54443 v 19.03139 h -4.41627 v -2.98793 c -0.39362,0.28456 -0.92906,0.68621 -1.6061,1.20509 -0.66127,0.50214 -1.30704,0.90382 -1.93685,1.2051 -0.73999,0.38498 -1.59031,0.70338 -2.55075,0.95446 -0.96043,0.2678 -2.08597,0.40153 -3.37706,0.40153 -2.37749,0 -4.3929,-0.83663 -6.04612,-2.51044 -1.65323,-1.6738 -2.47997,-3.80832 -2.47997,-6.40271 0,-2.12573 0.42519,-3.84142 1.2754,-5.14698 0.86598,-1.32231 2.09428,-2.35977 3.68451,-3.11298 1.60599,-0.75321 3.5347,-1.26388 5.78622,-1.53169 2.25155,-0.26781 4.66855,-0.46864 7.25072,-0.60255 v -0.72812 c 0,-1.07124 -0.18097,-1.95834 -0.54313,-2.66134 -0.3464,-0.703 -0.85024,-1.25554 -1.51154,-1.65726 -0.62979,-0.38497 -1.38581,-0.64434 -2.26756,-0.77825 -0.88172,-0.1339 -1.80266,-0.2005 -2.76312,-0.2005 -1.16512,0 -2.46412,0.16701 -3.89692,0.50177 -1.43277,0.31803 -2.9128,0.78682 -4.44005,1.40612 h -0.23617 v -4.79557 c 0.86601,-0.25107 2.11786,-0.5271 3.75534,-0.82838 1.63748,-0.30128 3.2513,-0.45165 4.84156,-0.45165 z m -50.47081,0.67748 h 4.62918 l 4.84155,21.71754 6.58927,-21.71754 h 3.66074 l 6.75463,21.71754 4.58163,-21.71754 h 4.46381 l -6.87297,28.0448 h -4.1093 l -6.77788,-21.61728 -6.73137,21.61728 h -4.08554 z m 129.58898,3.71605 c -1.27535,0 -2.55829,0.29266 -3.84937,0.8785 -1.29112,0.58582 -2.52741,1.35588 -3.7083,2.30994 v 15.89309 c 1.2596,0.60257 2.3385,1.0123 3.23596,1.2299 0.91321,0.21759 1.9445,0.32659 3.09388,0.32659 2.47195,0 4.40063,-0.8871 5.7862,-2.66134 1.38557,-1.77423 2.07844,-4.40224 2.07844,-7.88375 0,-3.38108 -0.54346,-5.90869 -1.62989,-7.58249 -1.08638,-1.67381 -2.7554,-2.51044 -5.00692,-2.51044 z m -72.05658,9.61595 c -1.35406,0.0837 -2.95238,0.20934 -4.79454,0.37672 -1.82642,0.16739 -3.27483,0.41011 -4.34549,0.72812 -1.27534,0.38498 -2.30661,0.98749 -3.09385,1.80765 -0.78727,0.80343 -1.18081,1.9166 -1.18081,3.33933 0,1.60685 0.45622,2.82043 1.36943,3.6406 0.91318,0.80342 2.30698,1.2051 4.18063,1.2051 1.55874,0 2.98357,-0.31843 4.27466,-0.95447 1.29109,-0.65279 2.48785,-1.43089 3.58997,-2.33474 z"
       style="opacity:1;fill:#000000;fill-opacity:1;stroke:none;stroke-width:0.1;stroke-linecap:square;stroke-linejoin:miter;stroke-miterlimit:4;stroke-dasharray:none;stroke-opacity:1;paint-order:stroke markers fill"
       transform="matrix(0.98481048,0,0,0.98426842,-366.01164,-52.742579)" />
    <path
       transform="matrix(0.98480597,0,0,0.98427563,-123.58018,-61.83324)"
       style="opacity:1;fill:#000000;fill-opacity:1;stroke:none;stroke-width:0.1;stroke-linecap:square;stroke-linejoin:miter;stroke-miterlimit:4;stroke-dasharray:none;stroke-opacity:1;paint-order:stroke markers fill"
       d="m 464.01406,228.71278 c -1.88457,0 -3.40185,1.51727 -3.40185,3.40186 v 66.16082 c 0,1.88458 1.51728,3.40186 3.40185,3.40186 h 113.30732 c 1.88457,0 3.40185,-1.51728 3.40185,-3.40186 v -66.16082 c 0,-1.88459 -1.51728,-3.40186 -3.40185,-3.40186 z m 67.49357,16.24552 h 5.00693 v 4.89582 h -5.00693 z m -31.31695,9.59063 h 4.8183 l 8.1716,22.3206 8.1008,-22.3206 h 4.65241 l -10.6748,28.04479 h -4.46379 z m 31.60064,0 h 4.44005 v 28.04479 h -4.44005 z"
       id="path10400"
       inkscape:connector-curvature="0"
       clip-path="url(#clipPath4315-5)" />
    <path
       style="fill:#d38d5f;stroke:#000000;stroke-width:0.5;stroke-linecap:butt;stroke-linejoin:miter;stroke-miterlimit:4;stroke-dasharray:none;stroke-opacity:1"
       d="m 396.15152,248.47004 c -31.90897,-5.01864 -67.68945,0.47029 -101.5358,0.64883 -19.99207,0.10564 -40.012,-0.21644 -59.97797,0.24954 -2.74181,0.064 -5.45668,0.2923 -8.19925,0.34937 -19.11064,0.39793 -38.26321,-0.0838 -57.39476,-0.0497 -18.90764,0.0333 -37.81286,0.25936 -56.72068,0.24954 -12.24368,-0.008 -24.679086,-1.16592 -36.728066,-0.19968 -1.2247,0.0982 -2.6541,0.18604 -3.48182,0.59891 -1.38907,0.69309 -1.30829,1.7745 -1.57249,2.69513 -0.2892,1.00666 -0.03,2.02974 0,3.04448 0.056,1.96357 -0.21602,3.941 0.33696,5.8893 0.29319,1.03302 1.34065,2.00841 1.57242,3.04447 0.27053,1.20899 -0.0341,2.43146 -0.22444,3.6434 -0.16326,1.03547 -0.38186,2.07206 -0.78619,3.09442 -0.16699,0.42124 -0.58074,0.82201 -0.67391,1.24768 -1.30584,5.96624 -1.87088,12.18506 1.6847,17.96743 0.31343,0.50974 0.78589,1.05148 1.68476,1.39743 0.99369,0.38252 2.41131,0.49902 3.70662,0.59896 15.01339,1.15841 30.475456,-0.10844 45.713516,-0.0997 25.04768,0.0162 50.09392,0.16563 75.14097,0.24954 34.55658,0.11555 69.11297,0.24549 103.6698,0.34939 31.4864,0.0948 63.63921,3.11339 94.4597,0.24955 1.44369,-0.13424 3.13375,-0.28264 4.04343,-0.79855 1.31358,-0.74493 0.9759,-1.8508 1.12316,-2.79494 0.74357,-4.76669 1.17837,-9.66777 -1.23548,-14.324 -0.45909,-0.88559 -2.07374,-1.604 -2.47098,-2.49548 -0.61837,-1.38754 -0.49838,-2.86478 0.22429,-4.24229 0.2625,-0.50012 1.18825,-0.89828 1.46011,-1.39746 1.53339,-2.81581 1.61365,-5.81058 0.78615,-8.68426 -0.27807,-0.96573 -1.69453,-1.82597 -1.90944,-2.79493 -0.26199,-1.1812 0.52976,-2.36213 0.78626,-3.5436 0.19147,-0.88151 1.32116,-1.82634 0.56157,-2.64521 -0.66863,-0.72074 -2.38951,-1.23719 -4.04344,-1.49733 z"
       id="path10402"
       inkscape:connector-curvature="0"
       sodipodi:nodetypes="sssssssssssssssssssssssssssssssss" />
    <path
       style="display:inline;fill:none;stroke:#5f4512;stroke-width:0.80000001;stroke-linecap:butt;stroke-linejoin:miter;stroke-miterlimit:4;stroke-dasharray:none;stroke-opacity:1"
       d="m 77.170894,290.93617 86.072376,-2.33985"
       id="path10408"
       inkscape:connector-curvature="0" />
    <path
       style="display:inline;fill:none;stroke:#5f4512;stroke-width:0.80000001;stroke-linecap:butt;stroke-linejoin:miter;stroke-miterlimit:4;stroke-dasharray:none;stroke-opacity:1"
       d="m 191.50135,287.4614 136.90113,0.34519"
       id="path10412"
       inkscape:connector-curvature="0" />
    <path
       style="display:inline;fill:none;stroke:#5f4512;stroke-width:0.80000001;stroke-linecap:butt;stroke-linejoin:miter;stroke-miterlimit:4;stroke-dasharray:none;stroke-opacity:1"
       d="M 114.65316,267.67906 77.695814,266.5998"
       id="path10414"
       inkscape:connector-curvature="0" />
    <path
       style="display:inline;fill:none;stroke:#5f4512;stroke-width:0.80000001;stroke-linecap:butt;stroke-linejoin:miter;stroke-miterlimit:4;stroke-dasharray:none;stroke-opacity:1"
       d="M 122.03166,275.84132 77.357574,275.28673"
       id="path10416"
       inkscape:connector-curvature="0" />
    <path
       style="display:inline;fill:none;stroke:#5f4512;stroke-width:0.80000001;stroke-linecap:butt;stroke-linejoin:miter;stroke-miterlimit:4;stroke-dasharray:none;stroke-opacity:1"
       d="M 342.40604,253.31736 146.56705,252.93537"
       id="path10418"
       inkscape:connector-curvature="0" />
    <path
       style="display:inline;fill:none;stroke:#5f4512;stroke-width:0.80000001;stroke-linecap:butt;stroke-linejoin:miter;stroke-miterlimit:4;stroke-dasharray:none;stroke-opacity:1"
       d="m 129.8883,283.19075 -50.952556,2.55891"
       id="path10420"
       inkscape:connector-curvature="0" />
    <path
       style="display:inline;fill:none;stroke:#5f4512;stroke-width:0.80000001;stroke-linecap:butt;stroke-linejoin:miter;stroke-miterlimit:4;stroke-dasharray:none;stroke-opacity:1"
       d="m 76.861014,253.68577 57.710266,1.48115"
       id="path10422"
       inkscape:connector-curvature="0" />
    <path
       style="display:inline;fill:none;stroke:#5f4512;stroke-width:0.80000001;stroke-linecap:butt;stroke-linejoin:miter;stroke-miterlimit:4;stroke-dasharray:none;stroke-opacity:1"
       d="m 367.09698,277.0908 29.75791,1.03336"
       id="path10424"
       inkscape:connector-curvature="0" />
    <path
       style="display:inline;fill:none;stroke:#5f4512;stroke-width:0.80000001;stroke-linecap:butt;stroke-linejoin:miter;stroke-miterlimit:4;stroke-dasharray:none;stroke-opacity:1"
       d="m 364.75083,265.47843 25.25649,-0.0969"
       id="path10426"
       inkscape:connector-curvature="0" />
    <path
       style="display:inline;fill:none;stroke:#5f4512;stroke-width:0.80000001;stroke-linecap:butt;stroke-linejoin:miter;stroke-miterlimit:4;stroke-dasharray:none;stroke-opacity:1"
       d="m 333.80243,258.11772 61.75059,-1.63775"
       id="path10428"
       inkscape:connector-curvature="0" />
    <path
       style="display:inline;fill:none;stroke:#5f4512;stroke-width:0.80000001;stroke-linecap:butt;stroke-linejoin:miter;stroke-miterlimit:4;stroke-dasharray:none;stroke-opacity:1"
       d="m 283.59184,257.38152 -103.29621,0.27856"
       id="path10430"
       inkscape:connector-curvature="0" />
    <path
       inkscape:connector-curvature="0"
       id="path10432"
       d="m 348.11354,289.04249 44.7973,0.34747"
       style="display:inline;fill:none;stroke:#5f4512;stroke-width:0.80000001;stroke-linecap:butt;stroke-linejoin:miter;stroke-miterlimit:4;stroke-dasharray:none;stroke-opacity:1" />
    <path
       style="display:inline;fill:none;stroke:#5f4512;stroke-width:0.80000001;stroke-linecap:butt;stroke-linejoin:miter;stroke-miterlimit:4;stroke-dasharray:none;stroke-opacity:1"
       d="m 339.75971,284.88668 44.79729,0.34743"
       id="path10434"
       inkscape:connector-curvature="0" />
    <path
       inkscape:connector-curvature="0"
       id="path10447"
       style="font-style:normal;font-variant:normal;font-weight:normal;font-stretch:normal;font-size:29.20653915px;line-height:1.25;font-family:'Ink Free';-inkscape-font-specification:'Ink Free';font-variant-ligatures:normal;font-variant-caps:normal;font-variant-numeric:normal;font-feature-settings:normal;text-align:start;letter-spacing:0px;word-spacing:0px;writing-mode:lr-tb;text-anchor:start;fill:#000000;fill-opacity:1;stroke:none;stroke-width:0.48677558"
       d="m 147.24222,277.7455 q 0,0.35048 -0.29207,0.84699 -0.29206,0.49651 -0.61334,0.49651 -0.29206,0 -0.55492,-0.0876 -0.26286,-0.11683 -0.78858,-0.4089 -1.84001,-1.08064 -4.81908,-2.10287 -1.31429,-0.43809 -3.1251,-0.9054 -1.78159,-0.49651 -2.80382,-0.73016 l 0.20444,3.76764 q 0.0292,0.78858 0.20445,1.31429 0.17524,0.55493 0.17524,0.70096 0,0.32127 -0.32127,0.52572 -0.32128,0.23365 -0.67175,0.23365 -0.4381,0 -0.55493,-0.61334 0,-0.0584 -0.0876,-0.52571 -0.0584,-0.46731 -0.0584,-1.3143 0,-0.55492 -0.11683,-2.36573 -0.0292,-0.61334 -0.0584,-1.16826 -0.0292,-0.58413 -0.0292,-1.02223 -0.0876,-0.0876 -0.23365,-0.20444 -0.11683,-0.11683 -0.20445,-0.32127 -0.0876,-0.26286 -0.14603,-0.55493 -0.0584,-0.29207 -0.0584,-0.4381 0,-0.20444 0.11682,-0.32127 0.11683,-0.11683 0.35048,-0.26286 -0.17524,-7.30163 -0.17524,-8.35307 0,-0.93461 0.0292,-1.72319 0.0292,-0.78857 0.0292,-1.05143 -0.17524,0.0292 -1.05144,0.14603 -0.87619,0.11683 -1.40191,0.23366 -1.86922,0.43809 -2.83304,0.84699 -0.99302,0.37968 -1.89842,0.87619 -0.26286,0.17524 -0.49651,0.29207 -0.26286,0.0876 -0.49651,0.0876 -0.23366,0 -0.4089,-0.20445 -0.17523,-0.23365 -0.17523,-0.55492 0,-0.55493 1.86921,-1.28509 1.86922,-0.73017 4.05971,-1.19747 1.22668,-0.26286 3.1251,-0.4381 1.89843,-0.20444 3.53399,-0.20444 2.80383,0 4.76067,0.61333 1.98604,0.61334 2.97907,1.72319 1.02223,1.10985 1.02223,2.54097 0,1.84001 -1.05144,3.1543 -1.05144,1.3143 -2.80383,2.27811 -1.72318,0.96382 -4.70225,2.1905 -0.75937,0.35047 -1.51874,0.64254 -0.73016,0.29206 -0.99302,0.40889 0,0.17524 0.0292,0.26286 3.15431,0.70096 6.221,1.60636 l 0.61333,0.17524 q 3.18352,0.96381 4.70226,1.51874 1.51874,0.52572 1.51874,0.87619 z m -3.47558,-13.11373 q 0,-0.96382 -0.84699,-1.7816 -0.84699,-0.81778 -2.57018,-1.31429 -1.69398,-0.52572 -4.11812,-0.52572 -1.8108,0 -2.27811,0.0584 -0.0292,0.20444 -0.0876,0.96381 -0.0292,0.75937 -0.0292,1.51874 l 0.11682,4.67305 0.11683,3.62161 q 0.26286,-0.0292 1.02223,-0.26286 0.78857,-0.26286 1.31429,-0.49651 3.70923,-1.48953 5.52004,-2.97907 1.84001,-1.51874 1.84001,-3.47557 z" />
    <path
       inkscape:connector-curvature="0"
       id="path10449"
       style="font-style:normal;font-variant:normal;font-weight:normal;font-stretch:normal;font-size:29.20653915px;line-height:1.25;font-family:'Ink Free';-inkscape-font-specification:'Ink Free';font-variant-ligatures:normal;font-variant-caps:normal;font-variant-numeric:normal;font-feature-settings:normal;text-align:start;letter-spacing:0px;word-spacing:0px;writing-mode:lr-tb;text-anchor:start;fill:#000000;fill-opacity:1;stroke:none;stroke-width:0.48677558"
       d="m 159.50896,272.45912 q 0.20445,0 0.20445,0.4381 0,0.52572 -0.78858,2.30732 -0.75937,1.78159 -2.33652,3.30033 -1.54795,1.51874 -3.82606,1.51874 -1.86922,0 -3.1251,-1.16826 -1.25588,-1.16826 -1.25588,-3.5924 0,-2.27811 1.05144,-4.49781 1.05143,-2.2489 2.74541,-3.65082 1.69398,-1.43112 3.50479,-1.43112 1.08064,0 1.8108,0.49651 0.75937,0.46731 0.75937,1.37271 0,1.02223 -1.16826,1.98605 -1.13905,0.96381 -2.97907,1.69398 -1.84001,0.73016 -3.79685,1.05143 -0.35047,1.3435 -0.35047,2.62859 0,1.69398 0.78857,2.62859 0.81779,0.93461 2.30732,0.93461 2.2489,0 3.65082,-1.60636 1.40191,-1.60636 2.33652,-3.62161 0.0584,-0.11683 0.20444,-0.4381 0.14604,-0.35048 0.26286,-0.35048 z m -2.57017,-4.58543 q 0,-0.4673 -0.49651,-0.73016 -0.46731,-0.26286 -1.10985,-0.26286 -1.10985,0 -2.13208,0.73016 -1.02223,0.73017 -1.72318,1.7524 -0.67175,1.02223 -0.8762,1.8108 1.3435,-0.14603 2.83303,-0.75937 1.48954,-0.61333 2.48256,-1.3435 1.02223,-0.73016 1.02223,-1.19747 z" />
    <path
       inkscape:connector-curvature="0"
       id="path10451"
       style="font-style:normal;font-variant:normal;font-weight:normal;font-stretch:normal;font-size:29.20653915px;line-height:1.25;font-family:'Ink Free';-inkscape-font-specification:'Ink Free';font-variant-ligatures:normal;font-variant-caps:normal;font-variant-numeric:normal;font-feature-settings:normal;text-align:start;letter-spacing:0px;word-spacing:0px;writing-mode:lr-tb;text-anchor:start;fill:#000000;fill-opacity:1;stroke:none;stroke-width:0.48677558"
       d="m 175.04228,279.61472 q 0,2.27811 -0.9054,4.14733 -0.90541,1.86922 -2.13208,3.03748 -1.25588,1.19747 -2.62859,1.92763 -1.3435,0.75937 -2.33652,0.75937 -0.55493,0 -0.78858,-0.29206 -0.23365,-0.26286 -0.23365,-0.64255 0,-0.35047 1.31429,-0.81778 1.98605,-0.64254 3.68003,-2.16128 1.31429,-1.16826 1.92763,-2.6578 0.61334,-1.48953 0.61334,-3.03748 0,-1.75239 -0.23366,-3.21272 -0.20444,-1.46032 -0.67175,-3.5924 -0.52572,-2.24891 -0.73016,-3.82606 -0.49651,1.3435 -1.54795,3.24193 -1.02223,1.89842 -2.45335,3.65082 -1.3435,1.66477 -2.45335,2.48255 -1.08064,0.81778 -2.10287,0.81778 -0.87619,0 -1.31429,-0.67175 -0.40889,-0.70095 -0.40889,-1.89842 0,-1.98605 1.22667,-4.67305 1.22668,-2.687 3.06669,-4.61463 1.84001,-1.92763 3.62161,-1.92763 0.61334,0 0.93461,0.4381 0.35048,0.43809 0.35048,1.05143 0,0.78858 -0.32127,0.78858 -0.0876,0 -0.23366,-0.20445 -0.11682,-0.23365 -0.29206,-0.40889 -0.17524,-0.17524 -0.37969,-0.17524 -1.48953,0 -3.03748,1.66477 -1.51874,1.66478 -2.54097,3.91368 -0.99302,2.2197 -0.99302,3.65082 0,0.78857 0.20445,1.13905 0.23365,0.35048 0.70095,0.35048 0.70096,0 1.69398,-0.81778 0.99303,-0.81779 2.36573,-2.57018 1.22668,-1.54795 2.2197,-3.5924 1.02223,-2.07367 1.54795,-3.94288 0.0584,-0.17525 0.17524,-0.29207 0.14603,-0.11683 0.32127,-0.11683 0.26286,0 0.52572,0.17524 0.29206,0.14604 0.29206,0.32127 0,0.11683 -0.0584,0.26286 -0.0292,0.11683 -0.0584,0.14604 0.20445,1.60636 0.96382,4.99431 0.55492,2.39494 0.81778,4.03051 0.29207,1.60636 0.29207,3.1543 z" />
    <path
       inkscape:connector-curvature="0"
       id="path10453"
       style="font-style:normal;font-variant:normal;font-weight:normal;font-stretch:normal;font-size:29.20653915px;line-height:1.25;font-family:'Ink Free';-inkscape-font-specification:'Ink Free';font-variant-ligatures:normal;font-variant-caps:normal;font-variant-numeric:normal;font-feature-settings:normal;text-align:start;letter-spacing:0px;word-spacing:0px;writing-mode:lr-tb;text-anchor:start;fill:#000000;fill-opacity:1;stroke:none;stroke-width:0.48677558"
       d="m 179.83124,261.62349 q 0,0.4381 -0.96382,0.4381 -0.49651,0 -1.02222,-0.40889 -0.49652,-0.40889 -0.49652,-0.67175 0,-0.32127 0.29207,-0.61334 0.32127,-0.29206 0.64254,-0.29206 0,0 0.20445,0.0876 0.23365,0.0584 0.52572,0.37968 0.23365,0.23365 0.52572,0.61334 0.29206,0.37969 0.29206,0.4673 z m 0.73016,18.37092 q 0,0.29206 -0.26285,0.4381 -0.23366,0.17524 -0.55493,0.14603 -0.40889,-0.0292 -0.61334,-1.3143 -0.17524,-1.28508 -0.37968,-4.87749 -0.11683,-2.36573 -0.20445,-4.61463 -0.0876,-2.27811 -0.11682,-3.50479 0,-0.32127 0.0876,-0.4673 0.11682,-0.17524 0.40889,-0.17524 0.67175,0 0.84699,0.55492 0.17524,0.55493 0.17524,2.13208 l -0.0292,3.44637 q 0,2.94986 0.17524,4.73146 0,0.0876 0.26286,1.86922 0.20444,1.22668 0.20444,1.63557 z" />
    <path
       inkscape:connector-curvature="0"
       id="path10455"
       style="font-style:normal;font-variant:normal;font-weight:normal;font-stretch:normal;font-size:29.20653915px;line-height:1.25;font-family:'Ink Free';-inkscape-font-specification:'Ink Free';font-variant-ligatures:normal;font-variant-caps:normal;font-variant-numeric:normal;font-feature-settings:normal;text-align:start;letter-spacing:0px;word-spacing:0px;writing-mode:lr-tb;text-anchor:start;fill:#000000;fill-opacity:1;stroke:none;stroke-width:0.48677558"
       d="m 194.80689,275.81787 q 0,1.28509 -1.05143,2.48256 -1.02223,1.16826 -2.71621,1.86922 -1.69398,0.73016 -3.53399,0.73016 -1.25589,0 -1.69398,-0.23365 -0.4381,-0.23365 -0.4381,-0.64255 0,-0.26285 0.67175,-0.9054 0.67175,-0.67175 0.9054,-0.67175 0.35048,0 0.35048,0.14603 0,0.11683 -0.14603,0.23366 -0.14604,0.11682 -0.14604,0.20444 0,0.11683 0.35048,0.23365 0.37969,0.11683 0.90541,0.11683 1.22667,0 2.45335,-0.4381 1.25588,-0.4673 2.04445,-1.19747 0.78858,-0.73016 0.78858,-1.54794 0,-0.78858 -0.49651,-1.25588 -0.49651,-0.46731 -1.25588,-0.67175 -0.73017,-0.23366 -2.48256,-0.64255 -1.92763,-0.4381 -3.00827,-0.75937 -1.05144,-0.35048 -1.69398,-0.84699 -0.64255,-0.52571 -0.64255,-1.31429 0,-1.40192 1.37271,-2.57018 1.37271,-1.16826 3.15431,-1.84001 1.7816,-0.67175 2.74541,-0.67175 0.99303,0 0.99303,0.58413 0,0.35048 -0.23366,0.78858 -0.23365,0.40889 -0.70095,0.40889 -0.17524,0 -0.37969,-0.11683 -0.20444,-0.14603 -0.40889,-0.14603 -0.58413,0 -1.84001,0.37969 -1.25588,0.37968 -2.27811,1.13905 -1.02223,0.75937 -1.02223,1.84001 0,0.70096 0.78858,1.05144 0.81778,0.32127 3.00827,0.81778 0.26286,0.0876 0.52572,0.14603 0.26286,0.0292 0.4673,0.0876 2.2489,0.52572 3.44637,1.19747 1.19747,0.67175 1.19747,2.01525 z" />
    <path
       inkscape:connector-curvature="0"
       id="path10457"
       style="font-style:normal;font-variant:normal;font-weight:normal;font-stretch:normal;font-size:29.20653915px;line-height:1.25;font-family:'Ink Free';-inkscape-font-specification:'Ink Free';font-variant-ligatures:normal;font-variant-caps:normal;font-variant-numeric:normal;font-feature-settings:normal;text-align:start;letter-spacing:0px;word-spacing:0px;writing-mode:lr-tb;text-anchor:start;fill:#000000;fill-opacity:1;stroke:none;stroke-width:0.48677558"
       d="m 210.23707,267.81528 q 0,0.49651 -0.4381,0.75937 -0.40889,0.26286 -1.51874,0.40889 -2.687,0.46731 -3.00827,0.52572 l -1.89842,0.32127 q 0,1.51874 0.0292,3.18351 0.0584,1.66478 0.14603,2.92066 0.11683,1.69398 0.4089,2.59938 0.29206,0.9054 0.32127,1.02223 0,0.29207 -0.37969,0.52572 -0.35048,0.26286 -0.67175,0.26286 -0.17524,0 -0.29206,-0.11683 -0.11683,-0.0876 -0.20445,-0.32127 -0.17524,-0.40889 -0.35048,-1.51874 -0.14603,-1.10985 -0.23365,-2.45335 -0.0876,-1.19747 -0.14603,-2.77462 -0.0292,-1.60636 -0.0292,-3.0959 -1.63556,0.26286 -3.35875,0.64255 -1.54795,0.32127 -1.84001,0.32127 -0.35048,0 -0.67175,-0.20445 -0.29207,-0.20444 -0.29207,-0.55492 0,-0.37969 0.26286,-0.49651 0.26286,-0.11683 0.8762,-0.11683 0.43809,0 1.28508,-0.14603 0.84699,-0.17524 1.08065,-0.23365 1.95683,-0.37969 2.65779,-0.49651 0,-0.61334 -0.0584,-1.60636 -0.0584,-1.3435 -0.0584,-2.04446 0,-1.13906 0.0584,-1.75239 0.0876,-0.64255 0.29206,-1.13906 0.23366,-0.58413 0.8762,-0.58413 0.26286,0 0.35048,0.0876 0.0876,0.0876 0.0876,0.32127 0,0.17524 -0.14603,1.02223 -0.14604,0.84699 -0.14604,2.2489 0,1.08065 0.0584,2.42415 l 0.0292,0.78857 q 1.3143,-0.20444 5.19877,-1.08064 0.23365,-0.0584 0.37968,-0.40889 0.17524,-0.35048 0.35048,-0.35048 0.32127,0 0.64254,0.37969 0.35048,0.35048 0.35048,0.73016 z" />
    <path
       inkscape:connector-curvature="0"
       id="path10459"
       style="font-style:normal;font-variant:normal;font-weight:normal;font-stretch:normal;font-size:29.20653915px;line-height:1.25;font-family:'Ink Free';-inkscape-font-specification:'Ink Free';font-variant-ligatures:normal;font-variant-caps:normal;font-variant-numeric:normal;font-feature-settings:normal;text-align:start;letter-spacing:0px;word-spacing:0px;writing-mode:lr-tb;text-anchor:start;fill:#000000;fill-opacity:1;stroke:none;stroke-width:0.48677558"
       d="m 221.74855,267.61083 q 0,0.26286 -0.37968,0.61334 -0.35048,0.32127 -0.61334,0.32127 -0.20444,0 -0.40889,-0.17524 -0.17524,-0.17523 -0.40889,-0.49651 -0.20445,-0.29206 -0.55493,-0.49651 -0.32127,-0.20444 -0.67175,-0.20444 -0.84699,0 -2.27811,2.2489 -1.43112,2.2197 -2.80382,5.60766 0.0292,0.67175 0.0876,1.69398 0.0876,1.02222 0.11682,1.51874 l 0.0876,1.16826 q 0,0.40889 -0.17524,0.70095 -0.17524,0.32128 -0.64254,0.32128 -0.49651,0 -0.64254,-1.3143 -0.14604,-1.3435 -0.17524,-3.88447 -0.0292,-0.64254 -0.0584,-1.84001 0,-1.19747 -0.0584,-2.86224 -0.0876,-2.51176 -0.0876,-3.5924 0,-0.67176 0.81778,-0.67176 0.49651,0 0.58413,0.4381 0.11683,0.40889 0.11683,1.60636 v 4.64384 q 0.8762,-2.2489 1.89843,-3.88447 1.02222,-1.63556 1.98604,-2.48255 0.99302,-0.8762 1.75239,-0.8762 0.64255,0 1.22668,0.29207 0.58413,0.29206 0.93461,0.75936 0.35047,0.4381 0.35047,0.84699 z" />
    <path
       inkscape:connector-curvature="0"
       id="path10461"
       style="font-style:normal;font-variant:normal;font-weight:normal;font-stretch:normal;font-size:29.20653915px;line-height:1.25;font-family:'Ink Free';-inkscape-font-specification:'Ink Free';font-variant-ligatures:normal;font-variant-caps:normal;font-variant-numeric:normal;font-feature-settings:normal;text-align:start;letter-spacing:0px;word-spacing:0px;writing-mode:lr-tb;text-anchor:start;fill:#000000;fill-opacity:1;stroke:none;stroke-width:0.48677558"
       d="m 235.91555,278.03757 q 0.0292,0.20445 0.23365,0.4381 0.20445,0.20444 0.20445,0.35048 0,0.35047 -0.29207,0.81778 -0.29206,0.4381 -0.58413,0.4381 -0.49651,0 -0.75937,-0.61334 -0.26286,-0.61334 -0.26286,-1.43112 0,-0.70096 0.0876,-4.20574 l 0.0292,-1.10985 q 0,-0.67175 -0.35048,-0.96382 -1.31429,2.2197 -2.45335,3.85527 -1.13905,1.63556 -2.89145,3.09589 -1.75239,1.43112 -3.68002,1.43112 -0.93461,0 -1.46033,-0.58413 -0.49651,-0.58413 -0.49651,-1.51874 0,-1.16826 1.05144,-3.18351 1.05143,-2.04446 2.687,-4.11812 1.63556,-2.10288 3.27113,-3.44638 1.08064,-0.87619 1.72319,-1.16826 0.64254,-0.32127 1.13905,-0.32127 0.46731,0 0.96382,0.29207 0.49651,0.29206 0.84699,0.81778 0.35048,0.52572 0.35048,1.19747 0,0.9054 -0.49652,1.72318 l 0.49652,-0.14603 q 0.32127,0 0.37968,0.78858 0.0292,0.4673 0.0584,1.89842 0.0584,1.43112 0.0876,2.36573 0.0292,0.96382 0.0584,1.86922 0.0292,0.9054 0.0584,1.43112 z m -10.30991,0.52572 q 1.57715,0 3.03748,-1.16826 1.46033,-1.16827 2.59938,-2.77463 1.16826,-1.63556 2.57018,-4.00129 0.35048,-0.8762 0.35048,-1.89843 0,-0.61333 -0.37969,-1.05143 -0.35048,-0.46731 -0.96381,-0.46731 -0.73017,0 -1.86922,0.99303 -1.3143,1.10984 -2.77462,2.97906 -1.46033,1.84001 -2.42415,3.65082 -0.96381,1.81081 -0.96381,2.86224 0,0.8762 0.81778,0.8762 z" />
    <path
       inkscape:connector-curvature="0"
       id="path10463"
       style="font-style:normal;font-variant:normal;font-weight:normal;font-stretch:normal;font-size:29.20653915px;line-height:1.25;font-family:'Ink Free';-inkscape-font-specification:'Ink Free';font-variant-ligatures:normal;font-variant-caps:normal;font-variant-numeric:normal;font-feature-settings:normal;text-align:start;letter-spacing:0px;word-spacing:0px;writing-mode:lr-tb;text-anchor:start;fill:#000000;fill-opacity:1;stroke:none;stroke-width:0.48677558"
       d="m 252.22147,267.81528 q 0,0.49651 -0.4381,0.75937 -0.40889,0.26286 -1.51874,0.40889 -2.687,0.46731 -3.00827,0.52572 l -1.89843,0.32127 q 0,1.51874 0.0292,3.18351 0.0584,1.66478 0.14603,2.92066 0.11683,1.69398 0.40889,2.59938 0.29207,0.9054 0.32128,1.02223 0,0.29207 -0.37969,0.52572 -0.35048,0.26286 -0.67175,0.26286 -0.17524,0 -0.29206,-0.11683 -0.11683,-0.0876 -0.20445,-0.32127 -0.17524,-0.40889 -0.35048,-1.51874 -0.14603,-1.10985 -0.23365,-2.45335 -0.0876,-1.19747 -0.14603,-2.77462 -0.0292,-1.60636 -0.0292,-3.0959 -1.63557,0.26286 -3.35875,0.64255 -1.54795,0.32127 -1.84001,0.32127 -0.35048,0 -0.67176,-0.20445 -0.29206,-0.20444 -0.29206,-0.55492 0,-0.37969 0.26286,-0.49651 0.26286,-0.11683 0.87619,-0.11683 0.4381,0 1.28509,-0.14603 0.84699,-0.17524 1.08064,-0.23365 1.95684,-0.37969 2.6578,-0.49651 0,-0.61334 -0.0584,-1.60636 -0.0584,-1.3435 -0.0584,-2.04446 0,-1.13906 0.0584,-1.75239 0.0876,-0.64255 0.29206,-1.13906 0.23365,-0.58413 0.8762,-0.58413 0.26286,0 0.35048,0.0876 0.0876,0.0876 0.0876,0.32127 0,0.17524 -0.14604,1.02223 -0.14603,0.84699 -0.14603,2.2489 0,1.08065 0.0584,2.42415 l 0.0292,0.78857 q 1.31429,-0.20444 5.19876,-1.08064 0.23366,-0.0584 0.37969,-0.40889 0.17524,-0.35048 0.35048,-0.35048 0.32127,0 0.64254,0.37969 0.35048,0.35048 0.35048,0.73016 z" />
    <path
       inkscape:connector-curvature="0"
       id="path10465"
       style="font-style:normal;font-variant:normal;font-weight:normal;font-stretch:normal;font-size:29.20653915px;line-height:1.25;font-family:'Ink Free';-inkscape-font-specification:'Ink Free';font-variant-ligatures:normal;font-variant-caps:normal;font-variant-numeric:normal;font-feature-settings:normal;text-align:start;letter-spacing:0px;word-spacing:0px;writing-mode:lr-tb;text-anchor:start;fill:#000000;fill-opacity:1;stroke:none;stroke-width:0.48677558"
       d="m 255.64274,261.62349 q 0,0.4381 -0.96381,0.4381 -0.49652,0 -1.02223,-0.40889 -0.49651,-0.40889 -0.49651,-0.67175 0,-0.32127 0.29206,-0.61334 0.32127,-0.29206 0.64254,-0.29206 0,0 0.20445,0.0876 0.23365,0.0584 0.52572,0.37968 0.23365,0.23365 0.52572,0.61334 0.29206,0.37969 0.29206,0.4673 z m 0.73016,18.37092 q 0,0.29206 -0.26285,0.4381 -0.23366,0.17524 -0.55493,0.14603 -0.40889,-0.0292 -0.61334,-1.3143 -0.17523,-1.28508 -0.37968,-4.87749 -0.11683,-2.36573 -0.20445,-4.61463 -0.0876,-2.27811 -0.11682,-3.50479 0,-0.32127 0.0876,-0.4673 0.11682,-0.17524 0.40889,-0.17524 0.67175,0 0.84699,0.55492 0.17524,0.55493 0.17524,2.13208 l -0.0292,3.44637 q 0,2.94986 0.17524,4.73146 0,0.0876 0.26286,1.86922 0.20444,1.22668 0.20444,1.63557 z" />
    <path
       inkscape:connector-curvature="0"
       id="path10467"
       style="font-style:normal;font-variant:normal;font-weight:normal;font-stretch:normal;font-size:29.20653915px;line-height:1.25;font-family:'Ink Free';-inkscape-font-specification:'Ink Free';font-variant-ligatures:normal;font-variant-caps:normal;font-variant-numeric:normal;font-feature-settings:normal;text-align:start;letter-spacing:0px;word-spacing:0px;writing-mode:lr-tb;text-anchor:start;fill:#000000;fill-opacity:1;stroke:none;stroke-width:0.48677558"
       d="m 270.23871,273.86104 q 0,1.13905 -0.84699,2.62858 -0.84699,1.48954 -2.39494,2.57018 -1.54794,1.05143 -3.53399,1.05143 -1.95684,0 -2.89144,-1.08064 -0.93461,-1.08064 -0.93461,-2.687 0,-1.40191 0.49651,-3.47558 0.52572,-2.07366 1.46032,-3.70923 0.0584,-0.11682 0.46731,-0.84699 0.4381,-0.75937 0.96381,-1.13905 0.52572,-0.4089 1.10985,-0.4089 0.26286,0 0.46731,0.14604 0.23365,0.11682 0.23365,0.32127 0,0.0584 -0.17524,0.29207 -0.14603,0.20444 -0.23365,0.32127 -0.99302,1.19747 -1.60636,2.36573 -0.81778,1.48953 -1.28509,2.94986 -0.4381,1.46032 -0.4381,3.18351 0,2.30732 2.80383,2.30732 1.3143,0 2.42414,-0.75937 1.13906,-0.75937 1.81081,-1.84001 0.67175,-1.10985 0.67175,-2.01526 0,-1.02223 -0.67175,-1.78159 -0.67175,-0.75937 -1.84001,-1.60636 -0.75937,-0.55493 -1.10985,-0.90541 -0.35048,-0.35048 -0.35048,-0.58413 0,-0.35048 0.49651,-0.55492 0.49651,-0.23365 1.16826,-0.23365 0.37969,0 0.49651,0.0584 0.11683,0.0292 0.11683,0.14603 0,0.0584 -0.11683,0.20444 -0.0876,0.11683 -0.0876,0.20445 0,0.0876 0.58414,0.58413 1.16826,0.96382 1.95683,1.95684 0.78858,0.99302 0.78858,2.33652 z" />
    <path
       inkscape:connector-curvature="0"
       id="path10469"
       style="font-style:normal;font-variant:normal;font-weight:normal;font-stretch:normal;font-size:29.20653915px;line-height:1.25;font-family:'Ink Free';-inkscape-font-specification:'Ink Free';font-variant-ligatures:normal;font-variant-caps:normal;font-variant-numeric:normal;font-feature-settings:normal;text-align:start;letter-spacing:0px;word-spacing:0px;writing-mode:lr-tb;text-anchor:start;fill:#000000;fill-opacity:1;stroke:none;stroke-width:0.48677558"
       d="m 282.61453,280.11123 q 0,0.35048 -0.29207,0.58414 -0.29206,0.26285 -0.70095,0.26285 -0.29207,0 -0.49651,-0.14603 -0.20445,-0.11683 -0.20445,-0.35048 0,-1.19747 0.17524,-3.70923 0.17524,-2.687 0.17524,-4.4686 0,-1.72318 -0.11683,-2.80383 -0.0876,-1.10985 -0.4673,-1.10985 -0.99302,0 -2.19049,2.48256 -1.16826,2.45335 -2.687,6.48385 l -0.4381,1.16826 q -0.11683,0.29207 -0.40889,0.46731 -0.26286,0.17524 -0.55493,0.17524 -0.35048,0 -0.4673,-0.0584 -0.11683,-0.0584 -0.14604,-0.35048 l -0.23365,-2.39494 -0.4381,-4.20574 q -0.20444,-2.51176 -0.49651,-4.38098 -0.0876,-0.4381 -0.0876,-0.67175 0,-0.4381 0.37969,-0.70096 0.37968,-0.29206 0.87619,-0.29206 0.29207,0 0.4089,1.40191 0.14603,1.40192 0.29206,4.52702 l 0.11683,1.54794 q 0.23365,2.94986 0.26286,3.73844 0.0876,-0.17524 0.14603,-0.37969 0.0876,-0.23365 0.20444,-0.49651 1.57716,-4.08891 2.94987,-6.80512 1.40191,-2.74542 2.687,-2.74542 0.9054,0 1.22667,1.54795 0.35048,1.51874 0.4381,3.91368 0.0876,2.65779 0.0876,7.76894 z" />
    <path
       inkscape:connector-curvature="0"
       id="path10471"
       style="font-style:normal;font-variant:normal;font-weight:normal;font-stretch:normal;font-size:29.20653915px;line-height:1.25;font-family:'Ink Free';-inkscape-font-specification:'Ink Free';font-variant-ligatures:normal;font-variant-caps:normal;font-variant-numeric:normal;font-feature-settings:normal;text-align:start;letter-spacing:0px;word-spacing:0px;writing-mode:lr-tb;text-anchor:start;fill:#000000;fill-opacity:1;stroke:none;stroke-width:0.48677558"
       d="m 308.75574,269.65529 q 0,0.90541 -0.64254,0.99303 -0.81778,0.0876 -3.88447,0.75937 -3.03748,0.64254 -4.4686,1.02222 0,0.64255 0,2.71621 0.0292,2.04446 0.0876,3.47558 0.0292,0.55492 0.11683,1.22668 0.11682,0.67174 0.14603,0.96381 0.17524,1.05144 0.17524,1.25588 0,0.32127 -0.32127,0.93461 -0.29207,0.64255 -0.49651,0.64255 -0.20445,0 -0.37969,-0.20445 -0.17524,-0.20445 -0.23365,-0.49651 -0.29207,-1.3143 -0.40889,-4.26416 -0.14604,-3.5924 -0.14604,-5.60765 -0.17524,0.0292 -0.58413,0.11682 -0.37968,0.0584 -0.67175,0.0876 -0.29206,0 -0.61333,-0.14603 -0.32128,-0.14603 -0.32128,-0.35048 0,-0.23365 0.14604,-0.35048 0.17524,-0.11682 0.37968,-0.17523 0.20445,-0.0876 0.29207,-0.11683 1.05143,-0.4381 1.40191,-0.55493 l -0.23365,-6.51305 q -2.16129,0.35047 -3.18351,0.35047 -1.13906,0 -1.57716,-0.55492 -0.40889,-0.55492 -0.40889,-1.02223 0,-0.26286 0.37969,-0.26286 0.0584,0 0.67175,0.20445 0.64254,0.20444 1.10984,0.20444 0.93461,0 2.97907,-0.29206 0,-0.0584 0.0292,-0.4381 0.0292,-0.40889 0.26286,-0.73016 0.14603,-0.26286 0.26286,-0.35048 0.11682,-0.0876 0.26285,-0.0876 0.55493,0 0.55493,1.22667 0.40889,-0.0876 1.84001,-0.35048 1.46033,-0.26285 3.32955,-0.49651 1.86921,-0.23365 3.24192,-0.23365 1.10985,0 1.10985,0.4381 0,0.35048 -0.26286,0.9054 -0.23365,0.55493 -0.55492,0.55493 -0.11683,0 -0.23365,-0.11683 -0.11683,-0.14603 -0.17524,-0.17524 -0.26286,-0.11682 -0.75937,-0.11682 -0.90541,0 -3.62161,0.37968 -2.68701,0.37969 -3.88447,0.64254 l 0.20444,6.33782 q 1.57715,-0.40889 4.84829,-1.10984 3.27113,-0.70096 3.82605,-0.70096 0.23366,0 0.32128,0.0876 0.0876,0.0584 0.0876,0.29206 z" />
    <path
       inkscape:connector-curvature="0"
       id="path10473"
       style="font-style:normal;font-variant:normal;font-weight:normal;font-stretch:normal;font-size:29.20653915px;line-height:1.25;font-family:'Ink Free';-inkscape-font-specification:'Ink Free';font-variant-ligatures:normal;font-variant-caps:normal;font-variant-numeric:normal;font-feature-settings:normal;text-align:start;letter-spacing:0px;word-spacing:0px;writing-mode:lr-tb;text-anchor:start;fill:#000000;fill-opacity:1;stroke:none;stroke-width:0.48677558"
       d="m 321.86354,273.86104 q 0,1.13905 -0.84699,2.62858 -0.84699,1.48954 -2.39493,2.57018 -1.54795,1.05143 -3.53399,1.05143 -1.95684,0 -2.89145,-1.08064 -0.93461,-1.08064 -0.93461,-2.687 0,-1.40191 0.49651,-3.47558 0.52572,-2.07366 1.46033,-3.70923 0.0584,-0.11682 0.4673,-0.84699 0.4381,-0.75937 0.96382,-1.13905 0.52571,-0.4089 1.10985,-0.4089 0.26285,0 0.4673,0.14604 0.23365,0.11682 0.23365,0.32127 0,0.0584 -0.17524,0.29207 -0.14603,0.20444 -0.23365,0.32127 -0.99302,1.19747 -1.60636,2.36573 -0.81778,1.48953 -1.28509,2.94986 -0.43809,1.46032 -0.43809,3.18351 0,2.30732 2.80382,2.30732 1.3143,0 2.42415,-0.75937 1.13905,-0.75937 1.8108,-1.84001 0.67175,-1.10985 0.67175,-2.01526 0,-1.02223 -0.67175,-1.78159 -0.67175,-0.75937 -1.84001,-1.60636 -0.75937,-0.55493 -1.10985,-0.90541 -0.35048,-0.35048 -0.35048,-0.58413 0,-0.35048 0.49651,-0.55492 0.49651,-0.23365 1.16827,-0.23365 0.37968,0 0.49651,0.0584 0.11682,0.0292 0.11682,0.14603 0,0.0584 -0.11682,0.20444 -0.0876,0.11683 -0.0876,0.20445 0,0.0876 0.58413,0.58413 1.16826,0.96382 1.95684,1.95684 0.78857,0.99302 0.78857,2.33652 z" />
    <path
       inkscape:connector-curvature="0"
       id="path10475"
       style="font-style:normal;font-variant:normal;font-weight:normal;font-stretch:normal;font-size:29.20653915px;line-height:1.25;font-family:'Ink Free';-inkscape-font-specification:'Ink Free';font-variant-ligatures:normal;font-variant-caps:normal;font-variant-numeric:normal;font-feature-settings:normal;text-align:start;letter-spacing:0px;word-spacing:0px;writing-mode:lr-tb;text-anchor:start;fill:#000000;fill-opacity:1;stroke:none;stroke-width:0.48677558"
       d="m 334.23936,267.61083 q 0,0.26286 -0.37968,0.61334 -0.35048,0.32127 -0.61334,0.32127 -0.20445,0 -0.40889,-0.17524 -0.17524,-0.17523 -0.40889,-0.49651 -0.20445,-0.29206 -0.55493,-0.49651 -0.32127,-0.20444 -0.67175,-0.20444 -0.84699,0 -2.27811,2.2489 -1.43112,2.2197 -2.80383,5.60766 0.0292,0.67175 0.0876,1.69398 0.0876,1.02222 0.11683,1.51874 l 0.0876,1.16826 q 0,0.40889 -0.17524,0.70095 -0.17524,0.32128 -0.64254,0.32128 -0.49652,0 -0.64255,-1.3143 -0.14603,-1.3435 -0.17524,-3.88447 -0.0292,-0.64254 -0.0584,-1.84001 0,-1.19747 -0.0584,-2.86224 -0.0876,-2.51176 -0.0876,-3.5924 0,-0.67176 0.81778,-0.67176 0.49651,0 0.58413,0.4381 0.11683,0.40889 0.11683,1.60636 v 4.64384 q 0.87619,-2.2489 1.89842,-3.88447 1.02223,-1.63556 1.98605,-2.48255 0.99302,-0.8762 1.75239,-0.8762 0.64254,0 1.22667,0.29207 0.58413,0.29206 0.93461,0.75936 0.35048,0.4381 0.35048,0.84699 z" />
    <path
       inkscape:connector-curvature="0"
       id="path10477"
       style="font-style:normal;font-variant:normal;font-weight:normal;font-stretch:normal;font-size:29.20653915px;line-height:1.25;font-family:'Ink Free';-inkscape-font-specification:'Ink Free';font-variant-ligatures:normal;font-variant-caps:normal;font-variant-numeric:normal;font-feature-settings:normal;text-align:start;letter-spacing:0px;word-spacing:0px;writing-mode:lr-tb;text-anchor:start;fill:#000000;fill-opacity:1;stroke:none;stroke-width:0.48677558"
       d="m 354.74418,279.61472 q 0,0.35048 -0.23365,0.58413 -0.23365,0.26286 -0.61334,0.26286 -0.52571,0 -0.52571,-0.52572 0,-5.89972 -0.37969,-9.02482 -0.37968,-3.1543 -1.31429,-3.1543 -1.57716,0 -4.61464,11.01086 v 0.0292 q 0,0.35048 -0.23365,0.61334 -0.23365,0.23365 -0.61334,0.23365 -0.52571,0 -0.52571,-0.52571 0,-1.16827 0.11682,-3.62162 0.11683,-2.74541 0.11683,-4.32256 0,-2.1905 -0.14603,-3.0959 -0.11683,-0.93461 -0.55493,-0.93461 -0.99302,0 -2.51176,3.65082 -1.51874,3.62161 -3.18351,8.55752 l -0.26286,0.75937 q -0.11683,0.29206 -0.35048,0.49651 -0.20445,0.20444 -0.46731,0.20444 -0.35047,0 -0.4673,-0.0584 -0.11683,-0.0584 -0.14603,-0.35048 -0.14604,-1.43111 -0.23366,-3.82605 -0.0584,-0.61334 -0.11682,-2.01525 -0.29207,-4.93591 -0.52572,-6.65909 -0.23365,-1.7524 -0.23365,-1.95684 0,-0.23365 0.23365,-0.55493 0.23365,-0.32127 0.4381,-0.32127 0.4673,0 0.75937,0.67175 0.14603,0.32128 0.32127,2.57018 0.17524,2.2489 0.29207,5.57845 l 0.14603,4.4686 q 1.60636,-4.96511 3.32954,-8.99562 1.72319,-4.0597 3.15431,-4.0597 0.96382,0 1.31429,1.40191 0.35048,1.40191 0.35048,4.05971 0,1.40191 -0.0584,4.0305 l -0.0292,1.3435 q 1.19747,-4.17653 2.36573,-7.00957 1.19747,-2.83303 2.39494,-2.83303 3.00827,0 3.00827,13.31818 z" />
    <path
       style="display:inline;fill:none;stroke:#5f4512;stroke-width:0.80000001;stroke-linecap:butt;stroke-linejoin:miter;stroke-miterlimit:4;stroke-dasharray:none;stroke-opacity:1"
       d="m 111.50938,181.63271 72.6034,-0.68999"
       id="path932"
       inkscape:connector-curvature="0" />
    <path
       inkscape:connector-curvature="0"
       id="path934"
       d="m 253.98327,181.29697 51.43784,-0.68999"
       style="display:inline;fill:none;stroke:#5f4512;stroke-width:0.80000001;stroke-linecap:butt;stroke-linejoin:miter;stroke-miterlimit:4;stroke-dasharray:none;stroke-opacity:1" />
  </g>
</svg>
