<svg xmlns="http://www.w3.org/2000/svg" viewBox="0 0 686.52 117.03"><defs><style>.cls-1,.cls-2{fill:#c87137;}.cls-2,.cls-3,.cls-4,.cls-5{stroke:#5f4512;}.cls-2{stroke-width:0.75px;}.cls-3,.cls-4,.cls-5{fill:none;}.cls-3{stroke-width:0.5px;}.cls-4{stroke-width:0.36px;}.cls-5{stroke-width:0.49px;}</style></defs><title>buttonImage</title><g id="Layer_2" data-name="Layer 2"><g id="svg1266"><path id="path4530" class="cls-1" d="M13.19,6.21c65.7-12,139.3,1.1,208.9,1.5,41.1.3,82.3-.5,123.4.6,5.6.2,11.2.7,16.9.8,39.3,1,78.7-.2,118.1-.1,38.9.1,77.8.6,116.7.6,25.2,0,50.8-2.8,75.6-.5,2.5.2,5.5.4,7.2,1.4,2.9,1.7,2.7,4.2,3.2,6.4.6,2.4.1,4.8,0,7.3-.1,4.7.4,9.4-.7,14.1-.6,2.5-2.8,4.8-3.2,7.3-.6,2.9.1,5.8.5,8.7a39.18,39.18,0,0,0,1.6,7.4c.3,1,1.2,2,1.4,3,2.7,14.2,3.8,29.1-3.5,42.9a6.68,6.68,0,0,1-3.5,3.3c-2,.9-5,1.2-7.6,1.4-30.9,2.8-62.7-.3-94.1-.2-51.5,0-103.1.4-154.6.6q-106.65.45-213.3.8c-64.8.2-130.9,7.4-194.4.6-3-.3-6.4-.7-8.3-1.9-2.7-1.8-2-4.4-2.3-6.7-1.5-11.4-2.4-23.1,2.5-34.2.9-2.1,4.3-3.8,5.1-6a12.71,12.71,0,0,0-.5-10.1c-.5-1.2-2.4-2.1-3-3.3C2.09,45.21,2,38,3.69,31.21c.6-2.3,3.5-4.4,3.9-6.7.5-2.8-1.1-5.6-1.6-8.5-.4-2.1-2.7-4.4-1.2-6.3,1.4-1.7,5-2.9,8.4-3.5Z"/><path id="path2480" class="cls-2" d="M14.49,5.42c65.7-12,139.3,1.1,208.9,1.5,41.1.3,82.3-.5,123.4.6,5.6.2,11.2.7,16.9.8,39.3,1,78.7-.2,118.1-.1,38.9.1,77.8.6,116.7.6,25.2,0,50.8-2.8,75.6-.5,2.5.2,5.5.4,7.2,1.4,2.9,1.7,2.7,4.2,3.2,6.4.6,2.4.1,4.8,0,7.3-.1,4.7.4,9.4-.7,14.1-.6,2.5-2.8,4.8-3.2,7.3-.6,2.9.1,5.8.5,8.7a39.18,39.18,0,0,0,1.6,7.4c.3,1,1.2,2,1.4,3,2.7,14.2,3.8,29.1-3.5,42.9a6.68,6.68,0,0,1-3.5,3.3c-2,.9-5,1.2-7.6,1.4-30.9,2.8-62.7-.3-94.1-.2-51.5,0-103.1.4-154.6.6q-106.65.45-213.3.8c-64.8.2-130.9,7.4-194.4.6-3-.3-6.4-.7-8.3-1.9-2.7-1.8-2-4.4-2.3-6.7C1,93.32.09,81.62,5,70.52c.9-2.1,4.3-3.8,5.1-6a12.71,12.71,0,0,0-.5-10.1c-.5-1.2-2.4-2.1-3-3.3-3.2-6.7-3.3-13.9-1.6-20.7.6-2.3,3.5-4.4,3.9-6.7.5-2.8-1.1-5.6-1.6-8.5-.4-2.1-2.7-4.4-1.2-6.3,1.4-1.7,5-2.9,8.4-3.5Z"/><path id="path4544" class="cls-3" d="M332.79,90l-319.5,1.9"/><path id="path4546" class="cls-3" d="M532.79,88.71l-109.1,7.7"/><path id="path4548" class="cls-3" d="M96.29,53.41l-74.8,1.5"/><path id="path4552-7" class="cls-3" d="M110.49,10.11,44.09,12"/><path id="path4554-9" class="cls-4" d="M355.09,106.91,12,108.61"/><path id="path4556" class="cls-3" d="M677.19,100.21l-162.4-4.6"/><path id="path4562-5" class="cls-3" d="M665.39,29.91l-75.6,1.9"/><path id="path4564" class="cls-5" d="M663.69,16.21l-639.9,1.6"/><path id="path4566-7" class="cls-3" d="M677.29,77.21l-86.1,1.9"/><path id="path4568" class="cls-3" d="M676,51.41l-80.8-8.9"/><path id="path4572" class="cls-3" d="M131.39,67.21l-81.1,1.9"/><path id="path4574-5" class="cls-3" d="M118.09,79l-88.6,1.9"/><path id="path4578" class="cls-3" d="M359.59,23.61l-198.2,1.9"/><path id="path4580" class="cls-3" d="M156.29,37.21l-128.8-5.4"/><path id="path4582-2" class="cls-3" d="M663.19,63.41l-73.5,1.9"/><path id="path4584" class="cls-3" d="M568.89,30l-73.5,1.9"/></g></g></svg>